G04 #@! TF.GenerationSoftware,KiCad,Pcbnew,5.0.1+dfsg1-3*
G04 #@! TF.CreationDate,2018-12-09T22:02:06+08:00*
G04 #@! TF.ProjectId,magicbrush,6D6167696362727573682E6B69636164,rev?*
G04 #@! TF.SameCoordinates,Original*
G04 #@! TF.FileFunction,Soldermask,Bot*
G04 #@! TF.FilePolarity,Negative*
%FSLAX46Y46*%
G04 Gerber Fmt 4.6, Leading zero omitted, Abs format (unit mm)*
G04 Created by KiCad (PCBNEW 5.0.1+dfsg1-3) date Sun 09 Dec 2018 10:02:06 PM CST*
%MOMM*%
%LPD*%
G01*
G04 APERTURE LIST*
%ADD10C,0.100000*%
G04 APERTURE END LIST*
D10*
G36*
X175628707Y-126697596D02*
X175705836Y-126705193D01*
X175837787Y-126745220D01*
X175903763Y-126765233D01*
X176086172Y-126862733D01*
X176246054Y-126993946D01*
X176377267Y-127153828D01*
X176474767Y-127336237D01*
X176474767Y-127336238D01*
X176534807Y-127534164D01*
X176555080Y-127740000D01*
X176534807Y-127945836D01*
X176494780Y-128077787D01*
X176474767Y-128143763D01*
X176377267Y-128326172D01*
X176246054Y-128486054D01*
X176086172Y-128617267D01*
X175903763Y-128714767D01*
X175837787Y-128734780D01*
X175705836Y-128774807D01*
X175628707Y-128782403D01*
X175551580Y-128790000D01*
X175448420Y-128790000D01*
X175371293Y-128782403D01*
X175294164Y-128774807D01*
X175162213Y-128734780D01*
X175096237Y-128714767D01*
X174913828Y-128617267D01*
X174753946Y-128486054D01*
X174622733Y-128326172D01*
X174525233Y-128143763D01*
X174505220Y-128077787D01*
X174465193Y-127945836D01*
X174444920Y-127740000D01*
X174465193Y-127534164D01*
X174525233Y-127336238D01*
X174525233Y-127336237D01*
X174622733Y-127153828D01*
X174753946Y-126993946D01*
X174913828Y-126862733D01*
X175096237Y-126765233D01*
X175162213Y-126745220D01*
X175294164Y-126705193D01*
X175371293Y-126697596D01*
X175448420Y-126690000D01*
X175551580Y-126690000D01*
X175628707Y-126697596D01*
X175628707Y-126697596D01*
G37*
G36*
X176550000Y-126250000D02*
X174450000Y-126250000D01*
X174450000Y-124150000D01*
X176550000Y-124150000D01*
X176550000Y-126250000D01*
X176550000Y-126250000D01*
G37*
G36*
X173095739Y-122079409D02*
X173158400Y-122097229D01*
X173266264Y-122127904D01*
X173266265Y-122127904D01*
X173266267Y-122127905D01*
X173424052Y-122208734D01*
X173563034Y-122318792D01*
X173677879Y-122453852D01*
X173764164Y-122608718D01*
X173818583Y-122777450D01*
X173839035Y-122953545D01*
X173824741Y-123130251D01*
X173776245Y-123300780D01*
X173695416Y-123458564D01*
X173585358Y-123597546D01*
X173450298Y-123712391D01*
X173295432Y-123798676D01*
X173126700Y-123853095D01*
X172994734Y-123868422D01*
X172365833Y-123879400D01*
X172006465Y-123885673D01*
X172006461Y-123885673D01*
X171874037Y-123874961D01*
X171703508Y-123826465D01*
X171545724Y-123745636D01*
X171406742Y-123635578D01*
X171291897Y-123500518D01*
X171205612Y-123345652D01*
X171151193Y-123176920D01*
X171130741Y-123000825D01*
X171145035Y-122824119D01*
X171193531Y-122653590D01*
X171274360Y-122495806D01*
X171384418Y-122356824D01*
X171519478Y-122241979D01*
X171674344Y-122155694D01*
X171843077Y-122101275D01*
X171975041Y-122085948D01*
X172633890Y-122074447D01*
X172963311Y-122068697D01*
X172963315Y-122068697D01*
X173095739Y-122079409D01*
X173095739Y-122079409D01*
G37*
G36*
X176445229Y-122020944D02*
X176468222Y-122027483D01*
X176615754Y-122069439D01*
X176615755Y-122069439D01*
X176615757Y-122069440D01*
X176773542Y-122150269D01*
X176912524Y-122260327D01*
X177027369Y-122395387D01*
X177113654Y-122550253D01*
X177168073Y-122718985D01*
X177188525Y-122895080D01*
X177174231Y-123071786D01*
X177125735Y-123242315D01*
X177044906Y-123400099D01*
X176934848Y-123539081D01*
X176799788Y-123653926D01*
X176644922Y-123740211D01*
X176476190Y-123794630D01*
X176344224Y-123809957D01*
X175715323Y-123820935D01*
X175355955Y-123827208D01*
X175355951Y-123827208D01*
X175223527Y-123816496D01*
X175052998Y-123768000D01*
X174895214Y-123687171D01*
X174756232Y-123577113D01*
X174641387Y-123442053D01*
X174555102Y-123287187D01*
X174500683Y-123118455D01*
X174480231Y-122942360D01*
X174494525Y-122765654D01*
X174543021Y-122595125D01*
X174623850Y-122437341D01*
X174733908Y-122298359D01*
X174868968Y-122183514D01*
X175023834Y-122097229D01*
X175192567Y-122042810D01*
X175324531Y-122027483D01*
X175983380Y-122015982D01*
X176312801Y-122010232D01*
X176312805Y-122010232D01*
X176445229Y-122020944D01*
X176445229Y-122020944D01*
G37*
G36*
X172976443Y-112380014D02*
X172999436Y-112386553D01*
X173146968Y-112428509D01*
X173146969Y-112428509D01*
X173146971Y-112428510D01*
X173304756Y-112509339D01*
X173443738Y-112619397D01*
X173558583Y-112754457D01*
X173644868Y-112909323D01*
X173699287Y-113078055D01*
X173719739Y-113254150D01*
X173705445Y-113430856D01*
X173656949Y-113601385D01*
X173576120Y-113759169D01*
X173466062Y-113898151D01*
X173331002Y-114012996D01*
X173176136Y-114099281D01*
X173007404Y-114153700D01*
X172875438Y-114169027D01*
X172246537Y-114180005D01*
X171887169Y-114186278D01*
X171887165Y-114186278D01*
X171754741Y-114175566D01*
X171584212Y-114127070D01*
X171426428Y-114046241D01*
X171287446Y-113936183D01*
X171172601Y-113801123D01*
X171086316Y-113646257D01*
X171031897Y-113477525D01*
X171011445Y-113301430D01*
X171025739Y-113124724D01*
X171074235Y-112954195D01*
X171155064Y-112796411D01*
X171265122Y-112657429D01*
X171400182Y-112542584D01*
X171555048Y-112456299D01*
X171723781Y-112401880D01*
X171855745Y-112386553D01*
X172514594Y-112375052D01*
X172844015Y-112369302D01*
X172844019Y-112369302D01*
X172976443Y-112380014D01*
X172976443Y-112380014D01*
G37*
G36*
X176275940Y-112322421D02*
X176298933Y-112328960D01*
X176446465Y-112370916D01*
X176446466Y-112370916D01*
X176446468Y-112370917D01*
X176604253Y-112451746D01*
X176743235Y-112561804D01*
X176858080Y-112696864D01*
X176944365Y-112851730D01*
X176998784Y-113020462D01*
X177019236Y-113196557D01*
X177004942Y-113373263D01*
X176956446Y-113543792D01*
X176875617Y-113701576D01*
X176765559Y-113840558D01*
X176630499Y-113955403D01*
X176475633Y-114041688D01*
X176306901Y-114096107D01*
X176174935Y-114111434D01*
X175546034Y-114122412D01*
X175186666Y-114128685D01*
X175186662Y-114128685D01*
X175054238Y-114117973D01*
X174883709Y-114069477D01*
X174725925Y-113988648D01*
X174586943Y-113878590D01*
X174472098Y-113743530D01*
X174385813Y-113588664D01*
X174331394Y-113419932D01*
X174310942Y-113243837D01*
X174325236Y-113067131D01*
X174373732Y-112896602D01*
X174454561Y-112738818D01*
X174564619Y-112599836D01*
X174699679Y-112484991D01*
X174854545Y-112398706D01*
X175023278Y-112344287D01*
X175155242Y-112328960D01*
X175814091Y-112317459D01*
X176143512Y-112311709D01*
X176143516Y-112311709D01*
X176275940Y-112322421D01*
X176275940Y-112322421D01*
G37*
G36*
X138068707Y-85657597D02*
X138145836Y-85665193D01*
X138277787Y-85705220D01*
X138343763Y-85725233D01*
X138526172Y-85822733D01*
X138686054Y-85953946D01*
X138817267Y-86113828D01*
X138914767Y-86296237D01*
X138914767Y-86296238D01*
X138974807Y-86494164D01*
X138995080Y-86700000D01*
X138974807Y-86905836D01*
X138934780Y-87037787D01*
X138914767Y-87103763D01*
X138817267Y-87286172D01*
X138686054Y-87446054D01*
X138526172Y-87577267D01*
X138343763Y-87674767D01*
X138277787Y-87694780D01*
X138145836Y-87734807D01*
X138068707Y-87742404D01*
X137991580Y-87750000D01*
X137888420Y-87750000D01*
X137811293Y-87742404D01*
X137734164Y-87734807D01*
X137602213Y-87694780D01*
X137536237Y-87674767D01*
X137353828Y-87577267D01*
X137193946Y-87446054D01*
X137062733Y-87286172D01*
X136965233Y-87103763D01*
X136945220Y-87037787D01*
X136905193Y-86905836D01*
X136884920Y-86700000D01*
X136905193Y-86494164D01*
X136965233Y-86296238D01*
X136965233Y-86296237D01*
X137062733Y-86113828D01*
X137193946Y-85953946D01*
X137353828Y-85822733D01*
X137536237Y-85725233D01*
X137602213Y-85705220D01*
X137734164Y-85665193D01*
X137811293Y-85657597D01*
X137888420Y-85650000D01*
X137991580Y-85650000D01*
X138068707Y-85657597D01*
X138068707Y-85657597D01*
G37*
G36*
X149150000Y-87750000D02*
X147050000Y-87750000D01*
X147050000Y-85650000D01*
X149150000Y-85650000D01*
X149150000Y-87750000D01*
X149150000Y-87750000D01*
G37*
G36*
X145688707Y-85657597D02*
X145765836Y-85665193D01*
X145897787Y-85705220D01*
X145963763Y-85725233D01*
X146146172Y-85822733D01*
X146306054Y-85953946D01*
X146437267Y-86113828D01*
X146534767Y-86296237D01*
X146534767Y-86296238D01*
X146594807Y-86494164D01*
X146615080Y-86700000D01*
X146594807Y-86905836D01*
X146554780Y-87037787D01*
X146534767Y-87103763D01*
X146437267Y-87286172D01*
X146306054Y-87446054D01*
X146146172Y-87577267D01*
X145963763Y-87674767D01*
X145897787Y-87694780D01*
X145765836Y-87734807D01*
X145688707Y-87742404D01*
X145611580Y-87750000D01*
X145508420Y-87750000D01*
X145431293Y-87742404D01*
X145354164Y-87734807D01*
X145222213Y-87694780D01*
X145156237Y-87674767D01*
X144973828Y-87577267D01*
X144813946Y-87446054D01*
X144682733Y-87286172D01*
X144585233Y-87103763D01*
X144565220Y-87037787D01*
X144525193Y-86905836D01*
X144504920Y-86700000D01*
X144525193Y-86494164D01*
X144585233Y-86296238D01*
X144585233Y-86296237D01*
X144682733Y-86113828D01*
X144813946Y-85953946D01*
X144973828Y-85822733D01*
X145156237Y-85725233D01*
X145222213Y-85705220D01*
X145354164Y-85665193D01*
X145431293Y-85657597D01*
X145508420Y-85650000D01*
X145611580Y-85650000D01*
X145688707Y-85657597D01*
X145688707Y-85657597D01*
G37*
G36*
X140608707Y-85657597D02*
X140685836Y-85665193D01*
X140817787Y-85705220D01*
X140883763Y-85725233D01*
X141066172Y-85822733D01*
X141226054Y-85953946D01*
X141357267Y-86113828D01*
X141454767Y-86296237D01*
X141454767Y-86296238D01*
X141514807Y-86494164D01*
X141535080Y-86700000D01*
X141514807Y-86905836D01*
X141474780Y-87037787D01*
X141454767Y-87103763D01*
X141357267Y-87286172D01*
X141226054Y-87446054D01*
X141066172Y-87577267D01*
X140883763Y-87674767D01*
X140817787Y-87694780D01*
X140685836Y-87734807D01*
X140608707Y-87742404D01*
X140531580Y-87750000D01*
X140428420Y-87750000D01*
X140351293Y-87742404D01*
X140274164Y-87734807D01*
X140142213Y-87694780D01*
X140076237Y-87674767D01*
X139893828Y-87577267D01*
X139733946Y-87446054D01*
X139602733Y-87286172D01*
X139505233Y-87103763D01*
X139485220Y-87037787D01*
X139445193Y-86905836D01*
X139424920Y-86700000D01*
X139445193Y-86494164D01*
X139505233Y-86296238D01*
X139505233Y-86296237D01*
X139602733Y-86113828D01*
X139733946Y-85953946D01*
X139893828Y-85822733D01*
X140076237Y-85725233D01*
X140142213Y-85705220D01*
X140274164Y-85665193D01*
X140351293Y-85657597D01*
X140428420Y-85650000D01*
X140531580Y-85650000D01*
X140608707Y-85657597D01*
X140608707Y-85657597D01*
G37*
G36*
X143148707Y-85657597D02*
X143225836Y-85665193D01*
X143357787Y-85705220D01*
X143423763Y-85725233D01*
X143606172Y-85822733D01*
X143766054Y-85953946D01*
X143897267Y-86113828D01*
X143994767Y-86296237D01*
X143994767Y-86296238D01*
X144054807Y-86494164D01*
X144075080Y-86700000D01*
X144054807Y-86905836D01*
X144014780Y-87037787D01*
X143994767Y-87103763D01*
X143897267Y-87286172D01*
X143766054Y-87446054D01*
X143606172Y-87577267D01*
X143423763Y-87674767D01*
X143357787Y-87694780D01*
X143225836Y-87734807D01*
X143148707Y-87742404D01*
X143071580Y-87750000D01*
X142968420Y-87750000D01*
X142891293Y-87742404D01*
X142814164Y-87734807D01*
X142682213Y-87694780D01*
X142616237Y-87674767D01*
X142433828Y-87577267D01*
X142273946Y-87446054D01*
X142142733Y-87286172D01*
X142045233Y-87103763D01*
X142025220Y-87037787D01*
X141985193Y-86905836D01*
X141964920Y-86700000D01*
X141985193Y-86494164D01*
X142045233Y-86296238D01*
X142045233Y-86296237D01*
X142142733Y-86113828D01*
X142273946Y-85953946D01*
X142433828Y-85822733D01*
X142616237Y-85725233D01*
X142682213Y-85705220D01*
X142814164Y-85665193D01*
X142891293Y-85657597D01*
X142968420Y-85650000D01*
X143071580Y-85650000D01*
X143148707Y-85657597D01*
X143148707Y-85657597D01*
G37*
G36*
X146450026Y-82246115D02*
X146668412Y-82336573D01*
X146864958Y-82467901D01*
X147032099Y-82635042D01*
X147163427Y-82831588D01*
X147253885Y-83049974D01*
X147300000Y-83281809D01*
X147300000Y-83518191D01*
X147253885Y-83750026D01*
X147163427Y-83968412D01*
X147032099Y-84164958D01*
X146864958Y-84332099D01*
X146668412Y-84463427D01*
X146450026Y-84553885D01*
X146218191Y-84600000D01*
X145981809Y-84600000D01*
X145749974Y-84553885D01*
X145531588Y-84463427D01*
X145335042Y-84332099D01*
X145167901Y-84164958D01*
X145036573Y-83968412D01*
X144946115Y-83750026D01*
X144900000Y-83518191D01*
X144900000Y-83281809D01*
X144946115Y-83049974D01*
X145036573Y-82831588D01*
X145167901Y-82635042D01*
X145335042Y-82467901D01*
X145531588Y-82336573D01*
X145749974Y-82246115D01*
X145981809Y-82200000D01*
X146218191Y-82200000D01*
X146450026Y-82246115D01*
X146450026Y-82246115D01*
G37*
G36*
X139950026Y-82246115D02*
X140168412Y-82336573D01*
X140364958Y-82467901D01*
X140532099Y-82635042D01*
X140663427Y-82831588D01*
X140753885Y-83049974D01*
X140800000Y-83281809D01*
X140800000Y-83518191D01*
X140753885Y-83750026D01*
X140663427Y-83968412D01*
X140532099Y-84164958D01*
X140364958Y-84332099D01*
X140168412Y-84463427D01*
X139950026Y-84553885D01*
X139718191Y-84600000D01*
X139481809Y-84600000D01*
X139249974Y-84553885D01*
X139031588Y-84463427D01*
X138835042Y-84332099D01*
X138667901Y-84164958D01*
X138536573Y-83968412D01*
X138446115Y-83750026D01*
X138400000Y-83518191D01*
X138400000Y-83281809D01*
X138446115Y-83049974D01*
X138536573Y-82831588D01*
X138667901Y-82635042D01*
X138835042Y-82467901D01*
X139031588Y-82336573D01*
X139249974Y-82246115D01*
X139481809Y-82200000D01*
X139718191Y-82200000D01*
X139950026Y-82246115D01*
X139950026Y-82246115D01*
G37*
G36*
X146450026Y-77746115D02*
X146668412Y-77836573D01*
X146864958Y-77967901D01*
X147032099Y-78135042D01*
X147163427Y-78331588D01*
X147253885Y-78549974D01*
X147300000Y-78781809D01*
X147300000Y-79018191D01*
X147253885Y-79250026D01*
X147163427Y-79468412D01*
X147032099Y-79664958D01*
X146864958Y-79832099D01*
X146668412Y-79963427D01*
X146450026Y-80053885D01*
X146218191Y-80100000D01*
X145981809Y-80100000D01*
X145749974Y-80053885D01*
X145531588Y-79963427D01*
X145335042Y-79832099D01*
X145167901Y-79664958D01*
X145036573Y-79468412D01*
X144946115Y-79250026D01*
X144900000Y-79018191D01*
X144900000Y-78781809D01*
X144946115Y-78549974D01*
X145036573Y-78331588D01*
X145167901Y-78135042D01*
X145335042Y-77967901D01*
X145531588Y-77836573D01*
X145749974Y-77746115D01*
X145981809Y-77700000D01*
X146218191Y-77700000D01*
X146450026Y-77746115D01*
X146450026Y-77746115D01*
G37*
G36*
X139950026Y-77746115D02*
X140168412Y-77836573D01*
X140364958Y-77967901D01*
X140532099Y-78135042D01*
X140663427Y-78331588D01*
X140753885Y-78549974D01*
X140800000Y-78781809D01*
X140800000Y-79018191D01*
X140753885Y-79250026D01*
X140663427Y-79468412D01*
X140532099Y-79664958D01*
X140364958Y-79832099D01*
X140168412Y-79963427D01*
X139950026Y-80053885D01*
X139718191Y-80100000D01*
X139481809Y-80100000D01*
X139249974Y-80053885D01*
X139031588Y-79963427D01*
X138835042Y-79832099D01*
X138667901Y-79664958D01*
X138536573Y-79468412D01*
X138446115Y-79250026D01*
X138400000Y-79018191D01*
X138400000Y-78781809D01*
X138446115Y-78549974D01*
X138536573Y-78331588D01*
X138667901Y-78135042D01*
X138835042Y-77967901D01*
X139031588Y-77836573D01*
X139249974Y-77746115D01*
X139481809Y-77700000D01*
X139718191Y-77700000D01*
X139950026Y-77746115D01*
X139950026Y-77746115D01*
G37*
G36*
X112282521Y-76054586D02*
X112446309Y-76122429D01*
X112593720Y-76220926D01*
X112719074Y-76346280D01*
X112817571Y-76493691D01*
X112885414Y-76657479D01*
X112920000Y-76831356D01*
X112920000Y-77008644D01*
X112885414Y-77182521D01*
X112817571Y-77346309D01*
X112719074Y-77493720D01*
X112593720Y-77619074D01*
X112444573Y-77718731D01*
X112426635Y-77728319D01*
X112407692Y-77743863D01*
X112392146Y-77762805D01*
X112380594Y-77784415D01*
X112373480Y-77807864D01*
X112371077Y-77832250D01*
X112373478Y-77856637D01*
X112380590Y-77880086D01*
X112392141Y-77901697D01*
X112407685Y-77920640D01*
X112426630Y-77936188D01*
X112433718Y-77940924D01*
X112559074Y-78066280D01*
X112657571Y-78213691D01*
X112725414Y-78377479D01*
X112760000Y-78551356D01*
X112760000Y-78728644D01*
X112725414Y-78902521D01*
X112657571Y-79066309D01*
X112559074Y-79213720D01*
X112433720Y-79339074D01*
X112286309Y-79437571D01*
X112122521Y-79505414D01*
X111948644Y-79540000D01*
X111771356Y-79540000D01*
X111597479Y-79505414D01*
X111433691Y-79437571D01*
X111286280Y-79339074D01*
X111160926Y-79213720D01*
X111142298Y-79185841D01*
X111126753Y-79166899D01*
X111107811Y-79151354D01*
X111086200Y-79139802D01*
X111062751Y-79132689D01*
X111038365Y-79130287D01*
X111013978Y-79132689D01*
X110990529Y-79139802D01*
X110968918Y-79151353D01*
X110949976Y-79166898D01*
X110934431Y-79185840D01*
X110889076Y-79253718D01*
X110763720Y-79379074D01*
X110616309Y-79477571D01*
X110452521Y-79545414D01*
X110278644Y-79580000D01*
X110101356Y-79580000D01*
X109927479Y-79545414D01*
X109763691Y-79477571D01*
X109616280Y-79379074D01*
X109490926Y-79253720D01*
X109392429Y-79106309D01*
X109324586Y-78942521D01*
X109290000Y-78768644D01*
X109290000Y-78591356D01*
X109324586Y-78417479D01*
X109392429Y-78253691D01*
X109490926Y-78106280D01*
X109616280Y-77980926D01*
X109763691Y-77882429D01*
X109927479Y-77814586D01*
X110101356Y-77780000D01*
X110278644Y-77780000D01*
X110452521Y-77814586D01*
X110616309Y-77882429D01*
X110763720Y-77980926D01*
X110889074Y-78106280D01*
X110907702Y-78134159D01*
X110923247Y-78153101D01*
X110942189Y-78168646D01*
X110963800Y-78180198D01*
X110987249Y-78187311D01*
X111011635Y-78189713D01*
X111036022Y-78187311D01*
X111059471Y-78180198D01*
X111081082Y-78168647D01*
X111100024Y-78153102D01*
X111115569Y-78134160D01*
X111160924Y-78066282D01*
X111286280Y-77940926D01*
X111435427Y-77841269D01*
X111453365Y-77831681D01*
X111472308Y-77816137D01*
X111487854Y-77797195D01*
X111499406Y-77775585D01*
X111506520Y-77752136D01*
X111508923Y-77727750D01*
X111506522Y-77703363D01*
X111499410Y-77679914D01*
X111487859Y-77658303D01*
X111472315Y-77639360D01*
X111453370Y-77623812D01*
X111446282Y-77619076D01*
X111320926Y-77493720D01*
X111222429Y-77346309D01*
X111154586Y-77182521D01*
X111120000Y-77008644D01*
X111120000Y-76831356D01*
X111154586Y-76657479D01*
X111222429Y-76493691D01*
X111320926Y-76346280D01*
X111446280Y-76220926D01*
X111593691Y-76122429D01*
X111757479Y-76054586D01*
X111931356Y-76020000D01*
X112108644Y-76020000D01*
X112282521Y-76054586D01*
X112282521Y-76054586D01*
G37*
G36*
X116952521Y-67604586D02*
X117116309Y-67672429D01*
X117263720Y-67770926D01*
X117389074Y-67896280D01*
X117487571Y-68043691D01*
X117555414Y-68207479D01*
X117590000Y-68381356D01*
X117590000Y-68558644D01*
X117555414Y-68732521D01*
X117487571Y-68896309D01*
X117389074Y-69043720D01*
X117263720Y-69169074D01*
X117146038Y-69247707D01*
X117127096Y-69263253D01*
X117111550Y-69282195D01*
X117099999Y-69303806D01*
X117092886Y-69327255D01*
X117090484Y-69351641D01*
X117092886Y-69376027D01*
X117099999Y-69399477D01*
X117111550Y-69421087D01*
X117127096Y-69440029D01*
X117146038Y-69455575D01*
X117146106Y-69455612D01*
X117303720Y-69560926D01*
X117429074Y-69686280D01*
X117527571Y-69833691D01*
X117595414Y-69997479D01*
X117630000Y-70171356D01*
X117630000Y-70348644D01*
X117595414Y-70522521D01*
X117527571Y-70686309D01*
X117429074Y-70833720D01*
X117303718Y-70959076D01*
X117258289Y-70989431D01*
X117239347Y-71004976D01*
X117223802Y-71023918D01*
X117212251Y-71045529D01*
X117205138Y-71068978D01*
X117202736Y-71093365D01*
X117205138Y-71117751D01*
X117212251Y-71141200D01*
X117223803Y-71162811D01*
X117239348Y-71181753D01*
X117258288Y-71197296D01*
X117263717Y-71200924D01*
X117263721Y-71200927D01*
X117389074Y-71326280D01*
X117487571Y-71473691D01*
X117555414Y-71637479D01*
X117590000Y-71811356D01*
X117590000Y-71988644D01*
X117555414Y-72162521D01*
X117487571Y-72326309D01*
X117389074Y-72473720D01*
X117263720Y-72599074D01*
X117116309Y-72697571D01*
X116952521Y-72765414D01*
X116778644Y-72800000D01*
X116601358Y-72800000D01*
X116593728Y-72798482D01*
X116569349Y-72796081D01*
X116544962Y-72798482D01*
X116521513Y-72805595D01*
X116499902Y-72817146D01*
X116480959Y-72832691D01*
X116465414Y-72851633D01*
X116453862Y-72873243D01*
X116446748Y-72896692D01*
X116444346Y-72921078D01*
X116446747Y-72945465D01*
X116453860Y-72968914D01*
X116465412Y-72990527D01*
X116487571Y-73023690D01*
X116555414Y-73187479D01*
X116590000Y-73361356D01*
X116590000Y-73538644D01*
X116555414Y-73712521D01*
X116487571Y-73876309D01*
X116389074Y-74023720D01*
X116263718Y-74149076D01*
X116218425Y-74179340D01*
X116199483Y-74194885D01*
X116183938Y-74213827D01*
X116172387Y-74235438D01*
X116165274Y-74258887D01*
X116162872Y-74283274D01*
X116165274Y-74307660D01*
X116172387Y-74331109D01*
X116183939Y-74352720D01*
X116199484Y-74371662D01*
X116218426Y-74387207D01*
X116343720Y-74470926D01*
X116469074Y-74596280D01*
X116567571Y-74743691D01*
X116635414Y-74907479D01*
X116670000Y-75081356D01*
X116670000Y-75258644D01*
X116635414Y-75432521D01*
X116567571Y-75596309D01*
X116469074Y-75743720D01*
X116343718Y-75869076D01*
X116275976Y-75914340D01*
X116257034Y-75929885D01*
X116241489Y-75948827D01*
X116229938Y-75970438D01*
X116222825Y-75993887D01*
X116220423Y-76018273D01*
X116222825Y-76042660D01*
X116229938Y-76066109D01*
X116241490Y-76087720D01*
X116257035Y-76106662D01*
X116275977Y-76122207D01*
X116423720Y-76220926D01*
X116549074Y-76346280D01*
X116647571Y-76493691D01*
X116715414Y-76657479D01*
X116750000Y-76831356D01*
X116750000Y-77008644D01*
X116715414Y-77182521D01*
X116647571Y-77346309D01*
X116549074Y-77493720D01*
X116423718Y-77619076D01*
X116378425Y-77649340D01*
X116359483Y-77664885D01*
X116343938Y-77683827D01*
X116332387Y-77705438D01*
X116325274Y-77728887D01*
X116322872Y-77753274D01*
X116325274Y-77777660D01*
X116332387Y-77801109D01*
X116343939Y-77822720D01*
X116359484Y-77841662D01*
X116378426Y-77857207D01*
X116503720Y-77940926D01*
X116629074Y-78066280D01*
X116701066Y-78174023D01*
X116716612Y-78192965D01*
X116735554Y-78208511D01*
X116757165Y-78220062D01*
X116780614Y-78227175D01*
X116805000Y-78229577D01*
X116829386Y-78227175D01*
X116852836Y-78220062D01*
X116874446Y-78208511D01*
X116893388Y-78192965D01*
X116908934Y-78174023D01*
X116980926Y-78066280D01*
X117106280Y-77940926D01*
X117253691Y-77842429D01*
X117417479Y-77774586D01*
X117591356Y-77740000D01*
X117768644Y-77740000D01*
X117942521Y-77774586D01*
X118106309Y-77842429D01*
X118253720Y-77940926D01*
X118379074Y-78066280D01*
X118477571Y-78213691D01*
X118545414Y-78377479D01*
X118580000Y-78551356D01*
X118580000Y-78728644D01*
X118545414Y-78902521D01*
X118477571Y-79066309D01*
X118379074Y-79213720D01*
X118253720Y-79339074D01*
X118106309Y-79437571D01*
X117942521Y-79505414D01*
X117768644Y-79540000D01*
X117591356Y-79540000D01*
X117417479Y-79505414D01*
X117253691Y-79437571D01*
X117106280Y-79339074D01*
X116980926Y-79213720D01*
X116908934Y-79105977D01*
X116893388Y-79087035D01*
X116874446Y-79071489D01*
X116852835Y-79059938D01*
X116829386Y-79052825D01*
X116805000Y-79050423D01*
X116780614Y-79052825D01*
X116757164Y-79059938D01*
X116735554Y-79071489D01*
X116716612Y-79087035D01*
X116701066Y-79105977D01*
X116629074Y-79213720D01*
X116503720Y-79339074D01*
X116356309Y-79437571D01*
X116192521Y-79505414D01*
X116018644Y-79540000D01*
X115841356Y-79540000D01*
X115667479Y-79505414D01*
X115503691Y-79437571D01*
X115356280Y-79339074D01*
X115230926Y-79213720D01*
X115132429Y-79066309D01*
X115064586Y-78902521D01*
X115030000Y-78728644D01*
X115030000Y-78551356D01*
X115064586Y-78377479D01*
X115132429Y-78213691D01*
X115230926Y-78066280D01*
X115356282Y-77940924D01*
X115401575Y-77910660D01*
X115420517Y-77895115D01*
X115436062Y-77876173D01*
X115447613Y-77854562D01*
X115454726Y-77831113D01*
X115457128Y-77806726D01*
X115454726Y-77782340D01*
X115447613Y-77758891D01*
X115436061Y-77737280D01*
X115420516Y-77718338D01*
X115401574Y-77702793D01*
X115276280Y-77619074D01*
X115150926Y-77493720D01*
X115052429Y-77346309D01*
X114984586Y-77182521D01*
X114950000Y-77008644D01*
X114950000Y-76831356D01*
X114984586Y-76657479D01*
X115052429Y-76493691D01*
X115150926Y-76346280D01*
X115276282Y-76220924D01*
X115344024Y-76175660D01*
X115362966Y-76160115D01*
X115378511Y-76141173D01*
X115390062Y-76119562D01*
X115397175Y-76096113D01*
X115399577Y-76071727D01*
X115397175Y-76047340D01*
X115390062Y-76023891D01*
X115378510Y-76002280D01*
X115362965Y-75983338D01*
X115344023Y-75967793D01*
X115196280Y-75869074D01*
X115070926Y-75743720D01*
X114972429Y-75596309D01*
X114904586Y-75432521D01*
X114870000Y-75258644D01*
X114870000Y-75081356D01*
X114904586Y-74907479D01*
X114972429Y-74743691D01*
X115070926Y-74596280D01*
X115196282Y-74470924D01*
X115241575Y-74440660D01*
X115260517Y-74425115D01*
X115276062Y-74406173D01*
X115287613Y-74384562D01*
X115294726Y-74361113D01*
X115297128Y-74336726D01*
X115294726Y-74312340D01*
X115287613Y-74288891D01*
X115276061Y-74267280D01*
X115260516Y-74248338D01*
X115241574Y-74232793D01*
X115116280Y-74149074D01*
X114990926Y-74023720D01*
X114892429Y-73876309D01*
X114824586Y-73712521D01*
X114790000Y-73538644D01*
X114790000Y-73361356D01*
X114824586Y-73187479D01*
X114892429Y-73023691D01*
X114990926Y-72876280D01*
X115053818Y-72813388D01*
X115069364Y-72794446D01*
X115080915Y-72772835D01*
X115088028Y-72749386D01*
X115090430Y-72725000D01*
X115088028Y-72700614D01*
X115080915Y-72677165D01*
X115069364Y-72655554D01*
X115053818Y-72636612D01*
X115034876Y-72621066D01*
X115013265Y-72609515D01*
X114989816Y-72602402D01*
X114965430Y-72600000D01*
X114961356Y-72600000D01*
X114787479Y-72565414D01*
X114623691Y-72497571D01*
X114515081Y-72425000D01*
X115649570Y-72425000D01*
X115651972Y-72449386D01*
X115659085Y-72472835D01*
X115670636Y-72494446D01*
X115686182Y-72513388D01*
X115705124Y-72528934D01*
X115726735Y-72540485D01*
X115750184Y-72547598D01*
X115774570Y-72550000D01*
X115778642Y-72550000D01*
X115786272Y-72551518D01*
X115810651Y-72553919D01*
X115835038Y-72551518D01*
X115858487Y-72544405D01*
X115880098Y-72532854D01*
X115899041Y-72517309D01*
X115914586Y-72498367D01*
X115926138Y-72476757D01*
X115933252Y-72453308D01*
X115935654Y-72428922D01*
X115933253Y-72404535D01*
X115926140Y-72381086D01*
X115914588Y-72359472D01*
X115898565Y-72335492D01*
X115883019Y-72316550D01*
X115864077Y-72301005D01*
X115842466Y-72289454D01*
X115819017Y-72282341D01*
X115794631Y-72279939D01*
X115770244Y-72282341D01*
X115746795Y-72289454D01*
X115725184Y-72301005D01*
X115706243Y-72316551D01*
X115686182Y-72336612D01*
X115670636Y-72355554D01*
X115659085Y-72377165D01*
X115651972Y-72400614D01*
X115649570Y-72425000D01*
X114515081Y-72425000D01*
X114476280Y-72399074D01*
X114350926Y-72273720D01*
X114252429Y-72126309D01*
X114184586Y-71962521D01*
X114150000Y-71788644D01*
X114150000Y-71611356D01*
X114184586Y-71437479D01*
X114252429Y-71273691D01*
X114350926Y-71126280D01*
X114476280Y-71000926D01*
X114623691Y-70902429D01*
X114787479Y-70834586D01*
X114961356Y-70800000D01*
X115138644Y-70800000D01*
X115312521Y-70834586D01*
X115476309Y-70902429D01*
X115623720Y-71000926D01*
X115749073Y-71126279D01*
X115749075Y-71126282D01*
X115749076Y-71126283D01*
X115777226Y-71168413D01*
X115841435Y-71264508D01*
X115856981Y-71283450D01*
X115875923Y-71298995D01*
X115897534Y-71310546D01*
X115920983Y-71317659D01*
X115945369Y-71320061D01*
X115969756Y-71317659D01*
X115993205Y-71310546D01*
X116014816Y-71298995D01*
X116033757Y-71283449D01*
X116116282Y-71200924D01*
X116161711Y-71170569D01*
X116180653Y-71155024D01*
X116196198Y-71136082D01*
X116207749Y-71114471D01*
X116214862Y-71091022D01*
X116217264Y-71066635D01*
X116214862Y-71042249D01*
X116207749Y-71018800D01*
X116196197Y-70997189D01*
X116180652Y-70978247D01*
X116161712Y-70962704D01*
X116156283Y-70959076D01*
X116156282Y-70959075D01*
X116156279Y-70959073D01*
X116030926Y-70833720D01*
X115932429Y-70686309D01*
X115864586Y-70522521D01*
X115830000Y-70348644D01*
X115830000Y-70171356D01*
X115864586Y-69997479D01*
X115932429Y-69833691D01*
X116030926Y-69686280D01*
X116156280Y-69560926D01*
X116273962Y-69482293D01*
X116292904Y-69466747D01*
X116308450Y-69447805D01*
X116320001Y-69426194D01*
X116327114Y-69402745D01*
X116329516Y-69378359D01*
X116327114Y-69353973D01*
X116320001Y-69330523D01*
X116308450Y-69308913D01*
X116292904Y-69289971D01*
X116273962Y-69274425D01*
X116273894Y-69274388D01*
X116116280Y-69169074D01*
X115990926Y-69043720D01*
X115892429Y-68896309D01*
X115824586Y-68732521D01*
X115790000Y-68558644D01*
X115790000Y-68381356D01*
X115824586Y-68207479D01*
X115892429Y-68043691D01*
X115990926Y-67896280D01*
X116116280Y-67770926D01*
X116263691Y-67672429D01*
X116427479Y-67604586D01*
X116601356Y-67570000D01*
X116778644Y-67570000D01*
X116952521Y-67604586D01*
X116952521Y-67604586D01*
G37*
G36*
X146450026Y-73946115D02*
X146668412Y-74036573D01*
X146864958Y-74167901D01*
X147032099Y-74335042D01*
X147163427Y-74531588D01*
X147253885Y-74749974D01*
X147300000Y-74981809D01*
X147300000Y-75218191D01*
X147253885Y-75450026D01*
X147163427Y-75668412D01*
X147032099Y-75864958D01*
X146864958Y-76032099D01*
X146668412Y-76163427D01*
X146450026Y-76253885D01*
X146218191Y-76300000D01*
X145981809Y-76300000D01*
X145749974Y-76253885D01*
X145531588Y-76163427D01*
X145335042Y-76032099D01*
X145167901Y-75864958D01*
X145036573Y-75668412D01*
X144946115Y-75450026D01*
X144900000Y-75218191D01*
X144900000Y-74981809D01*
X144946115Y-74749974D01*
X145036573Y-74531588D01*
X145167901Y-74335042D01*
X145335042Y-74167901D01*
X145531588Y-74036573D01*
X145749974Y-73946115D01*
X145981809Y-73900000D01*
X146218191Y-73900000D01*
X146450026Y-73946115D01*
X146450026Y-73946115D01*
G37*
G36*
X139950026Y-73946115D02*
X140168412Y-74036573D01*
X140364958Y-74167901D01*
X140532099Y-74335042D01*
X140663427Y-74531588D01*
X140753885Y-74749974D01*
X140800000Y-74981809D01*
X140800000Y-75218191D01*
X140753885Y-75450026D01*
X140663427Y-75668412D01*
X140532099Y-75864958D01*
X140364958Y-76032099D01*
X140168412Y-76163427D01*
X139950026Y-76253885D01*
X139718191Y-76300000D01*
X139481809Y-76300000D01*
X139249974Y-76253885D01*
X139031588Y-76163427D01*
X138835042Y-76032099D01*
X138667901Y-75864958D01*
X138536573Y-75668412D01*
X138446115Y-75450026D01*
X138400000Y-75218191D01*
X138400000Y-74981809D01*
X138446115Y-74749974D01*
X138536573Y-74531588D01*
X138667901Y-74335042D01*
X138835042Y-74167901D01*
X139031588Y-74036573D01*
X139249974Y-73946115D01*
X139481809Y-73900000D01*
X139718191Y-73900000D01*
X139950026Y-73946115D01*
X139950026Y-73946115D01*
G37*
G36*
X112842521Y-69874586D02*
X113006309Y-69942429D01*
X113153720Y-70040926D01*
X113279074Y-70166280D01*
X113377571Y-70313691D01*
X113445414Y-70477479D01*
X113480000Y-70651356D01*
X113480000Y-70828644D01*
X113445414Y-71002521D01*
X113377571Y-71166309D01*
X113279074Y-71313720D01*
X113153720Y-71439074D01*
X113153717Y-71439076D01*
X113087424Y-71483372D01*
X113068485Y-71498914D01*
X113052940Y-71517856D01*
X113041388Y-71539467D01*
X113034275Y-71562916D01*
X113031873Y-71587302D01*
X113034275Y-71611689D01*
X113041388Y-71635138D01*
X113052939Y-71656749D01*
X113068485Y-71675691D01*
X113199074Y-71806280D01*
X113297571Y-71953691D01*
X113365414Y-72117479D01*
X113400000Y-72291356D01*
X113400000Y-72468644D01*
X113365414Y-72642521D01*
X113297571Y-72806309D01*
X113199074Y-72953720D01*
X113073721Y-73079073D01*
X113073718Y-73079075D01*
X113073717Y-73079076D01*
X113032644Y-73106520D01*
X112935908Y-73171157D01*
X112916966Y-73186703D01*
X112901421Y-73205645D01*
X112889870Y-73227256D01*
X112882757Y-73250705D01*
X112880355Y-73275091D01*
X112882757Y-73299478D01*
X112889870Y-73322927D01*
X112901421Y-73344538D01*
X112916967Y-73363480D01*
X112935909Y-73379025D01*
X112953720Y-73390926D01*
X113079074Y-73516280D01*
X113177571Y-73663691D01*
X113245414Y-73827479D01*
X113280000Y-74001356D01*
X113280000Y-74178644D01*
X113245414Y-74352521D01*
X113177571Y-74516309D01*
X113079074Y-74663720D01*
X112953720Y-74789074D01*
X112806309Y-74887571D01*
X112642521Y-74955414D01*
X112468644Y-74990000D01*
X112291356Y-74990000D01*
X112117479Y-74955414D01*
X111953691Y-74887571D01*
X111806280Y-74789074D01*
X111680926Y-74663720D01*
X111582429Y-74516309D01*
X111514586Y-74352521D01*
X111480000Y-74178644D01*
X111480000Y-74001356D01*
X111514586Y-73827479D01*
X111582429Y-73663691D01*
X111680926Y-73516280D01*
X111806279Y-73390927D01*
X111824092Y-73379025D01*
X111944092Y-73298843D01*
X111963034Y-73283297D01*
X111978579Y-73264355D01*
X111990130Y-73242744D01*
X111997243Y-73219295D01*
X111999645Y-73194909D01*
X111997243Y-73170522D01*
X111990130Y-73147073D01*
X111978579Y-73125462D01*
X111963033Y-73106520D01*
X111944091Y-73090975D01*
X111926280Y-73079074D01*
X111800926Y-72953720D01*
X111702429Y-72806309D01*
X111634586Y-72642521D01*
X111600000Y-72468644D01*
X111600000Y-72291356D01*
X111634586Y-72117479D01*
X111702429Y-71953691D01*
X111800926Y-71806280D01*
X111926280Y-71680926D01*
X111962464Y-71656749D01*
X111992576Y-71636628D01*
X112011515Y-71621086D01*
X112027060Y-71602144D01*
X112038612Y-71580533D01*
X112045725Y-71557084D01*
X112048127Y-71532698D01*
X112045725Y-71508311D01*
X112038612Y-71484862D01*
X112027061Y-71463251D01*
X112011515Y-71444309D01*
X111880926Y-71313720D01*
X111782429Y-71166309D01*
X111714586Y-71002521D01*
X111680000Y-70828644D01*
X111680000Y-70651356D01*
X111714586Y-70477479D01*
X111782429Y-70313691D01*
X111880926Y-70166280D01*
X112006280Y-70040926D01*
X112153691Y-69942429D01*
X112317479Y-69874586D01*
X112491356Y-69840000D01*
X112668644Y-69840000D01*
X112842521Y-69874586D01*
X112842521Y-69874586D01*
G37*
G36*
X146450026Y-69446115D02*
X146668412Y-69536573D01*
X146864958Y-69667901D01*
X147032099Y-69835042D01*
X147163427Y-70031588D01*
X147253885Y-70249974D01*
X147300000Y-70481809D01*
X147300000Y-70718191D01*
X147253885Y-70950026D01*
X147163427Y-71168412D01*
X147032099Y-71364958D01*
X146864958Y-71532099D01*
X146668412Y-71663427D01*
X146450026Y-71753885D01*
X146218191Y-71800000D01*
X145981809Y-71800000D01*
X145749974Y-71753885D01*
X145531588Y-71663427D01*
X145335042Y-71532099D01*
X145167901Y-71364958D01*
X145036573Y-71168412D01*
X144946115Y-70950026D01*
X144900000Y-70718191D01*
X144900000Y-70481809D01*
X144946115Y-70249974D01*
X145036573Y-70031588D01*
X145167901Y-69835042D01*
X145335042Y-69667901D01*
X145531588Y-69536573D01*
X145749974Y-69446115D01*
X145981809Y-69400000D01*
X146218191Y-69400000D01*
X146450026Y-69446115D01*
X146450026Y-69446115D01*
G37*
G36*
X139950026Y-69446115D02*
X140168412Y-69536573D01*
X140364958Y-69667901D01*
X140532099Y-69835042D01*
X140663427Y-70031588D01*
X140753885Y-70249974D01*
X140800000Y-70481809D01*
X140800000Y-70718191D01*
X140753885Y-70950026D01*
X140663427Y-71168412D01*
X140532099Y-71364958D01*
X140364958Y-71532099D01*
X140168412Y-71663427D01*
X139950026Y-71753885D01*
X139718191Y-71800000D01*
X139481809Y-71800000D01*
X139249974Y-71753885D01*
X139031588Y-71663427D01*
X138835042Y-71532099D01*
X138667901Y-71364958D01*
X138536573Y-71168412D01*
X138446115Y-70950026D01*
X138400000Y-70718191D01*
X138400000Y-70481809D01*
X138446115Y-70249974D01*
X138536573Y-70031588D01*
X138667901Y-69835042D01*
X138835042Y-69667901D01*
X139031588Y-69536573D01*
X139249974Y-69446115D01*
X139481809Y-69400000D01*
X139718191Y-69400000D01*
X139950026Y-69446115D01*
X139950026Y-69446115D01*
G37*
G36*
X112202521Y-65804586D02*
X112366309Y-65872429D01*
X112513720Y-65970926D01*
X112639074Y-66096280D01*
X112737571Y-66243691D01*
X112805414Y-66407479D01*
X112840000Y-66581356D01*
X112840000Y-66758644D01*
X112805414Y-66932521D01*
X112737571Y-67096309D01*
X112639074Y-67243720D01*
X112513720Y-67369074D01*
X112366309Y-67467571D01*
X112202521Y-67535414D01*
X112028644Y-67570000D01*
X111851356Y-67570000D01*
X111677479Y-67535414D01*
X111513691Y-67467571D01*
X111366280Y-67369074D01*
X111240926Y-67243720D01*
X111142429Y-67096309D01*
X111074586Y-66932521D01*
X111040000Y-66758644D01*
X111040000Y-66581356D01*
X111074586Y-66407479D01*
X111142429Y-66243691D01*
X111240926Y-66096280D01*
X111366280Y-65970926D01*
X111513691Y-65872429D01*
X111677479Y-65804586D01*
X111851356Y-65770000D01*
X112028644Y-65770000D01*
X112202521Y-65804586D01*
X112202521Y-65804586D01*
G37*
M02*
