G04 #@! TF.GenerationSoftware,KiCad,Pcbnew,5.0.1+dfsg1-3*
G04 #@! TF.CreationDate,2018-12-09T22:02:06+08:00*
G04 #@! TF.ProjectId,magicbrush,6D6167696362727573682E6B69636164,rev?*
G04 #@! TF.SameCoordinates,Original*
G04 #@! TF.FileFunction,Copper,L2,Bot,Signal*
G04 #@! TF.FilePolarity,Positive*
%FSLAX46Y46*%
G04 Gerber Fmt 4.6, Leading zero omitted, Abs format (unit mm)*
G04 Created by KiCad (PCBNEW 5.0.1+dfsg1-3) date Sun 09 Dec 2018 10:02:06 PM CST*
%MOMM*%
%LPD*%
G01*
G04 APERTURE LIST*
G04 #@! TA.AperFunction,EtchedComponent*
%ADD10C,0.100000*%
G04 #@! TD*
G04 #@! TA.AperFunction,ComponentPad*
%ADD11C,1.400000*%
G04 #@! TD*
G04 #@! TA.AperFunction,Conductor*
%ADD12C,1.400000*%
G04 #@! TD*
G04 #@! TA.AperFunction,ComponentPad*
%ADD13R,1.700000X1.700000*%
G04 #@! TD*
G04 #@! TA.AperFunction,ComponentPad*
%ADD14O,1.700000X1.700000*%
G04 #@! TD*
G04 #@! TA.AperFunction,ViaPad*
%ADD15C,0.600000*%
G04 #@! TD*
G04 #@! TA.AperFunction,ComponentPad*
%ADD16C,2.000000*%
G04 #@! TD*
G04 #@! TA.AperFunction,ViaPad*
%ADD17C,1.200000*%
G04 #@! TD*
G04 #@! TA.AperFunction,Conductor*
%ADD18C,0.150000*%
G04 #@! TD*
G04 #@! TA.AperFunction,Conductor*
%ADD19C,0.400000*%
G04 #@! TD*
G04 #@! TA.AperFunction,Conductor*
%ADD20C,0.254000*%
G04 #@! TD*
G04 APERTURE END LIST*
D10*
G04 #@! TO.C,NT1*
G36*
X158500000Y-85600000D02*
X158500000Y-84400000D01*
X159100000Y-84400000D01*
X159100000Y-85600000D01*
X158500000Y-85600000D01*
G37*
G04 #@! TD*
D11*
G04 #@! TO.P,J4,9*
G04 #@! TO.N,GND*
X117680000Y-78640000D03*
G04 #@! TO.P,J4,8*
G04 #@! TO.N,Net-(J4-Pad8)*
X115930000Y-78640000D03*
G04 #@! TO.P,J4,7*
G04 #@! TO.N,Net-(J4-Pad7)*
X115850000Y-76920000D03*
G04 #@! TO.P,J4,6*
G04 #@! TO.N,Net-(J4-Pad6)*
X115770000Y-75170000D03*
G04 #@! TO.P,J4,5*
G04 #@! TO.N,Net-(J4-Pad5)*
X115690000Y-73450000D03*
G04 #@! TO.P,J4,4*
G04 #@! TO.N,Net-(C15-Pad1)*
X115050000Y-71700000D03*
G04 #@! TO.P,J4,3*
G04 #@! TO.N,Net-(J4-Pad3)*
X116690000Y-71900000D03*
G04 #@! TO.P,J4,2*
G04 #@! TO.N,Net-(J4-Pad2)*
X116730000Y-70260000D03*
G04 #@! TO.P,J4,1*
G04 #@! TO.N,Net-(J4-Pad1)*
X116690000Y-68470000D03*
G04 #@! TO.P,J4,16*
G04 #@! TO.N,GND*
X110190000Y-78680000D03*
G04 #@! TO.P,J4,15*
G04 #@! TO.N,Net-(C33-Pad1)*
X111860000Y-78640000D03*
G04 #@! TO.P,J4,14*
G04 #@! TO.N,Net-(J4-Pad14)*
X112020000Y-76920000D03*
G04 #@! TO.P,J4,13*
G04 #@! TO.N,Net-(J4-Pad13)*
X112380000Y-74090000D03*
G04 #@! TO.P,J4,12*
G04 #@! TO.N,Net-(J4-Pad12)*
X112500000Y-72380000D03*
G04 #@! TO.P,J4,11*
G04 #@! TO.N,Net-(J4-Pad11)*
X112580000Y-70740000D03*
G04 #@! TO.P,J4,10*
G04 #@! TO.N,Net-(J4-Pad10)*
X111940000Y-66670000D03*
G04 #@! TD*
G04 #@! TO.P,J2,6*
G04 #@! TO.N,GND*
X175665089Y-113220197D03*
D12*
G04 #@! TD*
G04 #@! TO.N,GND*
G04 #@! TO.C,J2*
X175215158Y-113228051D02*
X176115020Y-113212343D01*
D11*
G04 #@! TO.P,J2,6*
G04 #@! TO.N,GND*
X172365592Y-113277790D03*
D12*
G04 #@! TD*
G04 #@! TO.N,GND*
G04 #@! TO.C,J2*
X171915661Y-113285644D02*
X172815523Y-113269936D01*
D11*
G04 #@! TO.P,J2,6*
G04 #@! TO.N,GND*
X172484888Y-122977185D03*
D12*
G04 #@! TD*
G04 #@! TO.N,GND*
G04 #@! TO.C,J2*
X172034957Y-122985039D02*
X172934819Y-122969331D01*
D11*
G04 #@! TO.P,J2,6*
G04 #@! TO.N,GND*
X175834378Y-122918720D03*
D12*
G04 #@! TD*
G04 #@! TO.N,GND*
G04 #@! TO.C,J2*
X175384447Y-122926574D02*
X176284309Y-122910866D01*
D13*
G04 #@! TO.P,J3,1*
G04 #@! TO.N,Net-(C14-Pad1)*
X148100000Y-86700000D03*
D14*
G04 #@! TO.P,J3,2*
G04 #@! TO.N,Net-(J3-Pad2)*
X145560000Y-86700000D03*
G04 #@! TO.P,J3,3*
G04 #@! TO.N,Net-(J3-Pad3)*
X143020000Y-86700000D03*
G04 #@! TO.P,J3,4*
G04 #@! TO.N,LCD_RS*
X140480000Y-86700000D03*
G04 #@! TO.P,J3,5*
G04 #@! TO.N,GND*
X137940000Y-86700000D03*
G04 #@! TD*
D15*
G04 #@! TO.N,Net-(NT1-Pad2)*
G04 #@! TO.C,NT1*
X158800000Y-84400000D03*
G04 #@! TO.N,VCC*
X158800000Y-85600000D03*
G04 #@! TD*
D16*
G04 #@! TO.P,SW1,1*
G04 #@! TO.N,Net-(R11-Pad2)*
X146100000Y-70600000D03*
G04 #@! TO.P,SW1,2*
G04 #@! TO.N,GND*
X146100000Y-75100000D03*
G04 #@! TO.P,SW1,1*
G04 #@! TO.N,Net-(R11-Pad2)*
X139600000Y-70600000D03*
G04 #@! TO.P,SW1,2*
G04 #@! TO.N,GND*
X139600000Y-75100000D03*
G04 #@! TD*
G04 #@! TO.P,SW2,1*
G04 #@! TO.N,Net-(R12-Pad2)*
X146100000Y-78900000D03*
G04 #@! TO.P,SW2,2*
G04 #@! TO.N,GND*
X146100000Y-83400000D03*
G04 #@! TO.P,SW2,1*
G04 #@! TO.N,Net-(R12-Pad2)*
X139600000Y-78900000D03*
G04 #@! TO.P,SW2,2*
G04 #@! TO.N,GND*
X139600000Y-83400000D03*
G04 #@! TD*
D14*
G04 #@! TO.P,J1,2*
G04 #@! TO.N,GND*
X175500000Y-127740000D03*
D13*
G04 #@! TO.P,J1,1*
G04 #@! TO.N,Vbat*
X175500000Y-125200000D03*
G04 #@! TD*
D15*
G04 #@! TO.N,I2C_SDA*
X117550000Y-65250000D03*
X113550000Y-64250000D03*
X170400000Y-83000000D03*
X161800000Y-84600000D03*
X161850000Y-81800000D03*
X164600000Y-96200000D03*
X164600000Y-98000000D03*
X172099990Y-83000000D03*
X132200000Y-67300000D03*
X156150000Y-75600000D03*
X172026128Y-70299523D03*
X134400000Y-80600000D03*
X135122385Y-77832190D03*
G04 #@! TO.N,I2C_SCL*
X112550000Y-64300000D03*
X118575010Y-65764498D03*
X165600000Y-98000000D03*
X165600000Y-96200000D03*
X132800000Y-66400000D03*
X155800000Y-74800000D03*
X170900375Y-69892885D03*
X135400000Y-80800000D03*
X135697395Y-77020148D03*
D17*
G04 #@! TO.N,VCC*
X109800000Y-63200000D03*
X103700000Y-61400000D03*
X132400000Y-60850000D03*
X132350000Y-54550000D03*
X121300000Y-54750000D03*
X118250000Y-57100000D03*
X168650000Y-84500000D03*
D15*
X159625000Y-91600000D03*
X163600000Y-90000000D03*
X167400000Y-91800000D03*
D17*
X160800000Y-110800000D03*
X168715962Y-94646585D03*
X174200010Y-83900000D03*
X154800000Y-112000000D03*
D15*
X150200000Y-82000000D03*
X149200000Y-80200000D03*
D17*
X149068733Y-63763721D03*
X166666378Y-58324990D03*
X143400000Y-78800000D03*
X151200000Y-66600000D03*
X137285905Y-65072791D03*
X158000000Y-61037781D03*
X141200000Y-63200000D03*
X142000000Y-81200000D03*
G04 #@! TO.N,Vbat*
X165450000Y-116000000D03*
X173900000Y-74100000D03*
X172400000Y-66400000D03*
X153200000Y-63000000D03*
X142000000Y-56400000D03*
X169800000Y-123300000D03*
X169750000Y-97750000D03*
X176500000Y-96500000D03*
G04 #@! TO.N,9V*
X107663108Y-62199990D03*
X105722837Y-60122836D03*
G04 #@! TO.N,16V*
X109200000Y-56150000D03*
X122200000Y-84250000D03*
X122953722Y-74121279D03*
X102800000Y-59600000D03*
X105500000Y-86700000D03*
G04 #@! TO.N,GND*
X167800000Y-64100000D03*
X166200000Y-64100000D03*
X164600000Y-64100000D03*
X167800000Y-62500000D03*
X166200000Y-62500000D03*
X164600000Y-62500000D03*
X167800000Y-60700000D03*
X166200000Y-60700000D03*
X164600000Y-60700000D03*
X164750000Y-118400000D03*
X164750000Y-119700000D03*
X146255460Y-115154376D03*
X140655460Y-118354376D03*
X139700000Y-110500000D03*
X171900000Y-129100000D03*
X139900000Y-131900000D03*
X146300000Y-126900000D03*
X173600000Y-57800000D03*
X103100000Y-53750000D03*
X102000000Y-76950000D03*
X117750000Y-60500000D03*
X101750000Y-61300000D03*
X110800010Y-64874941D03*
X103369333Y-69553874D03*
X114500000Y-58950000D03*
X124068813Y-64242905D03*
X119825021Y-70939007D03*
X133250000Y-114650000D03*
X161750000Y-125350000D03*
X158850000Y-81350000D03*
D15*
X161400000Y-85600000D03*
X163400000Y-87400000D03*
D17*
X161400000Y-96000000D03*
X175200000Y-91400000D03*
D15*
X166600000Y-88600000D03*
X165800000Y-92000000D03*
D17*
X165250009Y-85206603D03*
X170800000Y-96600000D03*
X168900000Y-52000000D03*
X164200000Y-52100000D03*
X177900000Y-84600000D03*
X157319998Y-75805362D03*
X173149978Y-69800000D03*
X137228812Y-62982429D03*
X109097638Y-70474930D03*
X155123019Y-56714945D03*
X137400000Y-59400000D03*
X142000000Y-61000000D03*
X144200000Y-64000000D03*
X172700000Y-115300000D03*
X174750000Y-103000000D03*
X174500000Y-111000000D03*
G04 #@! TO.N,VUSB*
X167550000Y-115800000D03*
X165150000Y-121700000D03*
D15*
G04 #@! TO.N,Net-(C14-Pad1)*
X151600000Y-82000000D03*
X170689112Y-67699990D03*
G04 #@! TO.N,Net-(R11-Pad2)*
X148800000Y-67000000D03*
G04 #@! TO.N,Net-(R12-Pad2)*
X157765798Y-66375834D03*
G04 #@! TO.N,BOOST_EN*
X151100000Y-130900000D03*
X150100000Y-126700000D03*
X153600000Y-119600000D03*
X156800000Y-119000000D03*
G04 #@! TO.N,Net-(J4-Pad12)*
X103700000Y-70750000D03*
G04 #@! TO.N,Net-(J4-Pad14)*
X103442443Y-73069370D03*
X104050000Y-74700000D03*
G04 #@! TO.N,Net-(J4-Pad11)*
X124100000Y-62000000D03*
G04 #@! TO.N,Net-(J4-Pad10)*
X124300000Y-65800000D03*
G04 #@! TO.N,Net-(J4-Pad7)*
X124275010Y-68634094D03*
G04 #@! TO.N,LCD_RST*
X176124990Y-87500000D03*
X169600000Y-80475010D03*
X161296406Y-58700010D03*
X169400000Y-75800000D03*
X170400000Y-59200000D03*
X173799989Y-67000000D03*
G04 #@! TO.N,Net-(NT1-Pad2)*
X160400000Y-91000000D03*
X160600000Y-85400000D03*
G04 #@! TO.N,Net-(C24-Pad1)*
X163600000Y-91000000D03*
X161180855Y-90825977D03*
G04 #@! TO.N,LCD_RS*
X157200000Y-70000000D03*
X151393406Y-80193406D03*
X160073097Y-59237758D03*
X161000000Y-63200000D03*
X165621732Y-67699990D03*
G04 #@! TO.N,Net-(J3-Pad3)*
X168800000Y-70200000D03*
X152424990Y-79397261D03*
G04 #@! TO.N,Net-(J3-Pad2)*
X152424990Y-78393406D03*
X169750363Y-69969979D03*
G04 #@! TO.N,/Sensors/XSHUT3*
X141200000Y-107200000D03*
X138400000Y-107200000D03*
G04 #@! TO.N,/Sensors/XSHUT2*
X169600000Y-81300000D03*
X173300000Y-89000000D03*
X169600000Y-73800000D03*
X155200000Y-74200000D03*
X137400000Y-68800000D03*
X136975010Y-77091576D03*
G04 #@! TO.N,/Sensors/XSHUT1*
X115800000Y-60000000D03*
X115400000Y-64800000D03*
X110600000Y-68800000D03*
X110719089Y-72694099D03*
G04 #@! TO.N,/Sensors/LCD_BL_EN*
X174700000Y-89000000D03*
X166600000Y-80600000D03*
X149000000Y-75000000D03*
X152400000Y-67000000D03*
G04 #@! TO.N,/Sensors/XSHUT1A*
X142800000Y-106600000D03*
X139000000Y-106600000D03*
D17*
G04 #@! TO.N,Net-(C15-Pad1)*
X114300000Y-80375010D03*
X117499984Y-85000000D03*
X116750000Y-81000000D03*
G04 #@! TO.N,CART_F5*
X112700000Y-80700000D03*
D15*
X150400000Y-80200000D03*
X164705018Y-69294982D03*
X120116037Y-79373927D03*
G04 #@! TO.N,CART_F3*
X136000000Y-76200000D03*
X136175010Y-79975010D03*
G04 #@! TD*
D18*
G04 #@! TO.N,I2C_SDA*
X161800000Y-84600000D02*
X161800000Y-81850000D01*
X161800000Y-81850000D02*
X161850000Y-81800000D01*
X164600000Y-96200000D02*
X164600000Y-98000000D01*
X170400000Y-83000000D02*
X172099990Y-83000000D01*
X170044978Y-74850012D02*
X172026128Y-72868862D01*
X156899988Y-74850012D02*
X170044978Y-74850012D01*
X156150000Y-75600000D02*
X156899988Y-74850012D01*
X172026128Y-72868862D02*
X172026128Y-70723787D01*
X172026128Y-70723787D02*
X172026128Y-70299523D01*
X117550000Y-65250000D02*
X117250001Y-65549999D01*
X117250001Y-65549999D02*
X114849999Y-65549999D01*
X113849999Y-64549999D02*
X113550000Y-64250000D01*
X114849999Y-65549999D02*
X113849999Y-64549999D01*
X134400000Y-78554575D02*
X134822386Y-78132189D01*
X134822386Y-78132189D02*
X135122385Y-77832190D01*
X132200000Y-74909805D02*
X134822386Y-77532191D01*
X134822386Y-77532191D02*
X135122385Y-77832190D01*
X134400000Y-80600000D02*
X134400000Y-78554575D01*
X132200000Y-67300000D02*
X132200000Y-74909805D01*
G04 #@! TO.N,I2C_SCL*
X112550000Y-64300000D02*
X114299999Y-66049999D01*
X114299999Y-66049999D02*
X117900001Y-66049999D01*
X118200000Y-65750000D02*
X118560512Y-65750000D01*
X117900001Y-66049999D02*
X118200000Y-65750000D01*
X118560512Y-65750000D02*
X118575010Y-65764498D01*
X165600000Y-98000000D02*
X165600000Y-96200000D01*
X169899999Y-74500001D02*
X170900375Y-73499625D01*
X155800000Y-74800000D02*
X156099999Y-74500001D01*
X170900375Y-73499625D02*
X170900375Y-70317149D01*
X170900375Y-70317149D02*
X170900375Y-69892885D01*
X156099999Y-74500001D02*
X169899999Y-74500001D01*
X135400000Y-80800000D02*
X135400000Y-78600000D01*
X135397396Y-76720149D02*
X135697395Y-77020148D01*
X132800000Y-74122753D02*
X135397396Y-76720149D01*
X132800000Y-66400000D02*
X132800000Y-74122753D01*
X135697395Y-78302605D02*
X135697395Y-77020148D01*
X135400000Y-78600000D02*
X135697395Y-78302605D01*
D19*
G04 #@! TO.N,VCC*
X109800000Y-63200000D02*
X105500000Y-63200000D01*
X105500000Y-63200000D02*
X103700000Y-61400000D01*
X132400000Y-60850000D02*
X132400000Y-54600000D01*
X132400000Y-54600000D02*
X132350000Y-54550000D01*
X121300000Y-54750000D02*
X118950000Y-57100000D01*
X118950000Y-57100000D02*
X118250000Y-57100000D01*
D18*
X159625000Y-91600000D02*
X164000000Y-91600000D01*
X164000000Y-91600000D02*
X164200000Y-91400000D01*
X164200000Y-91400000D02*
X164200000Y-90400000D01*
X164200000Y-90400000D02*
X163800000Y-90000000D01*
X163800000Y-90000000D02*
X163600000Y-90000000D01*
X167400000Y-91800000D02*
X168650000Y-91800000D01*
D19*
X168650000Y-84500000D02*
X168650000Y-91800000D01*
X168715962Y-93798057D02*
X168715962Y-94646585D01*
X168650000Y-91800000D02*
X168715962Y-91865962D01*
X168715962Y-91865962D02*
X168715962Y-93798057D01*
X168650000Y-84500000D02*
X173600011Y-84499999D01*
X173600011Y-84499999D02*
X174200010Y-83900000D01*
X160800000Y-110800000D02*
X159600000Y-112000000D01*
X155648528Y-112000000D02*
X154800000Y-112000000D01*
X159600000Y-112000000D02*
X155648528Y-112000000D01*
D18*
X150200000Y-81200000D02*
X149200000Y-80200000D01*
X150200000Y-82000000D02*
X150200000Y-81200000D01*
D19*
X143400000Y-74000000D02*
X144200000Y-73200000D01*
X143400000Y-78800000D02*
X143400000Y-75727998D01*
X149400000Y-71200000D02*
X151200000Y-69400000D01*
X144200000Y-73200000D02*
X147400000Y-73200000D01*
X151200000Y-69400000D02*
X151200000Y-66600000D01*
X147400000Y-73200000D02*
X149400000Y-71200000D01*
X143400000Y-75727998D02*
X143400000Y-74000000D01*
X137963118Y-65750004D02*
X137885904Y-65672790D01*
X149068733Y-63763721D02*
X147082450Y-65750004D01*
X132400000Y-60850000D02*
X136622791Y-65072791D01*
X137885904Y-65672790D02*
X137285905Y-65072791D01*
X136622791Y-65072791D02*
X137285905Y-65072791D01*
X141200000Y-63200000D02*
X141200000Y-65750004D01*
X147082450Y-65750004D02*
X141200000Y-65750004D01*
X141200000Y-65750004D02*
X137963118Y-65750004D01*
X143400000Y-79800000D02*
X142000000Y-81200000D01*
X143400000Y-78800000D02*
X143400000Y-79800000D01*
X158000000Y-60189253D02*
X158000000Y-61037781D01*
X166066379Y-57724991D02*
X166066379Y-57666379D01*
X166666378Y-58324990D02*
X166066379Y-57724991D01*
X166066379Y-57666379D02*
X165500000Y-57100000D01*
X161051495Y-57100000D02*
X158000000Y-60151495D01*
X165500000Y-57100000D02*
X161051495Y-57100000D01*
X158000000Y-60151495D02*
X158000000Y-60189253D01*
G04 #@! TO.N,Vbat*
X174499999Y-73500001D02*
X174499999Y-66299999D01*
X173900000Y-74100000D02*
X174499999Y-73500001D01*
X174499999Y-66299999D02*
X174200000Y-66000000D01*
X174200000Y-66000000D02*
X172800000Y-66000000D01*
X172800000Y-66000000D02*
X172400000Y-66400000D01*
X153200000Y-63000000D02*
X151400000Y-61200000D01*
X151400000Y-61200000D02*
X146800000Y-61200000D01*
X146800000Y-61200000D02*
X142000000Y-56400000D01*
X168350000Y-114400000D02*
X169800000Y-115850000D01*
X167050000Y-114400000D02*
X168350000Y-114400000D01*
X165450000Y-116000000D02*
X167050000Y-114400000D01*
X169800000Y-122451472D02*
X169800000Y-123300000D01*
X169800000Y-115850000D02*
X169800000Y-122451472D01*
X169750000Y-97750000D02*
X170693943Y-97750000D01*
X170693943Y-97750000D02*
X175250000Y-97750000D01*
X175250000Y-97750000D02*
X176500000Y-96500000D01*
G04 #@! TO.N,9V*
X107663108Y-62199990D02*
X105722837Y-60259719D01*
X105722837Y-60259719D02*
X105722837Y-60122836D01*
G04 #@! TO.N,16V*
X109200000Y-56150000D02*
X106250000Y-56150000D01*
X103399999Y-59000001D02*
X102800000Y-59600000D01*
X106250000Y-56150000D02*
X103399999Y-59000001D01*
X122250000Y-84250000D02*
X123100000Y-85100000D01*
X122200000Y-87500000D02*
X106300000Y-87500000D01*
X122200000Y-84250000D02*
X122250000Y-84250000D01*
X123100000Y-85100000D02*
X123100000Y-86600000D01*
X123100000Y-86600000D02*
X122200000Y-87500000D01*
X106300000Y-87500000D02*
X105500000Y-86700000D01*
X122200000Y-84250000D02*
X123048528Y-84250000D01*
X123048528Y-84250000D02*
X123834078Y-83464450D01*
X123834078Y-75001635D02*
X123553721Y-74721278D01*
X123834078Y-83464450D02*
X123834078Y-75001635D01*
X123553721Y-74721278D02*
X122953722Y-74121279D01*
G04 #@! TO.N,VUSB*
X167550000Y-115800000D02*
X167550000Y-119300000D01*
X167550000Y-119300000D02*
X165150000Y-121700000D01*
D18*
G04 #@! TO.N,Net-(C14-Pad1)*
X151600000Y-82000000D02*
X153000000Y-80600000D01*
X153000000Y-80600000D02*
X153000000Y-75400000D01*
X153000000Y-75400000D02*
X155200000Y-73200000D01*
X170325373Y-72274627D02*
X170325373Y-68063729D01*
X169400000Y-73200000D02*
X170325373Y-72274627D01*
X170389113Y-67999989D02*
X170689112Y-67699990D01*
X170325373Y-68063729D02*
X170389113Y-67999989D01*
X155200000Y-73200000D02*
X169400000Y-73200000D01*
G04 #@! TO.N,Net-(R11-Pad2)*
X146100000Y-69700000D02*
X146100000Y-70600000D01*
X148800000Y-67000000D02*
X146100000Y-69700000D01*
G04 #@! TO.N,Net-(R12-Pad2)*
X157765798Y-66800098D02*
X157765798Y-66375834D01*
X146100000Y-78900000D02*
X157765798Y-67234202D01*
X157765798Y-67234202D02*
X157765798Y-66800098D01*
G04 #@! TO.N,BOOST_EN*
X151100000Y-130900000D02*
X150100000Y-129900000D01*
X150100000Y-129900000D02*
X150100000Y-126700000D01*
X153600000Y-119600000D02*
X156200000Y-119600000D01*
X156200000Y-119600000D02*
X156800000Y-119000000D01*
G04 #@! TO.N,Net-(J4-Pad12)*
X111610899Y-73269101D02*
X111800001Y-73079999D01*
X111800001Y-73079999D02*
X112500000Y-72380000D01*
X106219101Y-73269101D02*
X111610899Y-73269101D01*
X103700000Y-70750000D02*
X106219101Y-73269101D01*
G04 #@! TO.N,Net-(J4-Pad14)*
X103442443Y-73493634D02*
X103442443Y-73069370D01*
X104050000Y-74101191D02*
X103442443Y-73493634D01*
X104050000Y-74700000D02*
X104050000Y-74101191D01*
G04 #@! TO.N,Net-(J4-Pad11)*
X124100000Y-62000000D02*
X125100000Y-63000000D01*
X125100000Y-63000000D02*
X125100000Y-66000000D01*
X125100000Y-66000000D02*
X123900000Y-67200000D01*
X116120000Y-67200000D02*
X112580000Y-70740000D01*
X123900000Y-67200000D02*
X116120000Y-67200000D01*
G04 #@! TO.N,Net-(J4-Pad10)*
X123430000Y-66670000D02*
X112929949Y-66670000D01*
X124300000Y-65800000D02*
X123430000Y-66670000D01*
X112929949Y-66670000D02*
X111940000Y-66670000D01*
G04 #@! TO.N,Net-(J4-Pad7)*
X124135906Y-68634094D02*
X124275010Y-68634094D01*
X115850000Y-76920000D02*
X124135906Y-68634094D01*
G04 #@! TO.N,LCD_RST*
X176349989Y-82644979D02*
X174180020Y-80475010D01*
X174180020Y-80475010D02*
X170024264Y-80475010D01*
X176349989Y-86850737D02*
X176349989Y-82644979D01*
X176124990Y-87075736D02*
X176349989Y-86850737D01*
X176124990Y-87500000D02*
X176124990Y-87075736D01*
X170024264Y-80475010D02*
X169600000Y-80475010D01*
X161796396Y-59200000D02*
X161296406Y-58700010D01*
X170400000Y-59200000D02*
X161796396Y-59200000D01*
X174024988Y-67649263D02*
X173799989Y-67424264D01*
X173799989Y-67424264D02*
X173799989Y-67000000D01*
X169400000Y-75800000D02*
X169824264Y-75800000D01*
X169824264Y-75800000D02*
X174024988Y-71599276D01*
X174024988Y-71599276D02*
X174024988Y-67649263D01*
G04 #@! TO.N,Net-(NT1-Pad2)*
X160211074Y-85400000D02*
X160600000Y-85400000D01*
X160400000Y-91000000D02*
X159975736Y-91000000D01*
X159975736Y-91000000D02*
X158924990Y-89949254D01*
X158924990Y-89949254D02*
X158924990Y-86686084D01*
X158924990Y-86686084D02*
X160211074Y-85400000D01*
X159800000Y-85400000D02*
X159000000Y-84600000D01*
X160600000Y-85400000D02*
X159800000Y-85400000D01*
G04 #@! TO.N,Net-(C24-Pad1)*
X163600000Y-91000000D02*
X161354878Y-91000000D01*
X161354878Y-91000000D02*
X161180855Y-90825977D01*
G04 #@! TO.N,LCD_RS*
X156775736Y-70000000D02*
X151625012Y-75150724D01*
X151393406Y-79769142D02*
X151393406Y-80193406D01*
X151625012Y-75150724D02*
X151625012Y-77764980D01*
X151393406Y-77996586D02*
X151393406Y-79769142D01*
X151625012Y-77764980D02*
X151393406Y-77996586D01*
X157200000Y-70000000D02*
X156775736Y-70000000D01*
X161000000Y-60164661D02*
X160073097Y-59237758D01*
X161000000Y-63200000D02*
X161000000Y-60164661D01*
X165621732Y-68124254D02*
X165621732Y-67699990D01*
X157200000Y-70000000D02*
X165200000Y-70000000D01*
X165621732Y-69578268D02*
X165621732Y-68124254D01*
X165200000Y-70000000D02*
X165621732Y-69578268D01*
G04 #@! TO.N,Net-(J3-Pad3)*
X151849988Y-78822259D02*
X152124991Y-79097262D01*
X152124991Y-79097262D02*
X152424990Y-79397261D01*
X168800000Y-70200000D02*
X166500022Y-72499978D01*
X166500022Y-72499978D02*
X154910041Y-72499979D01*
X151975022Y-75434998D02*
X151975022Y-77909960D01*
X154910041Y-72499979D02*
X151975022Y-75434998D01*
X151849988Y-78034994D02*
X151849988Y-78822259D01*
X151975022Y-77909960D02*
X151849988Y-78034994D01*
G04 #@! TO.N,Net-(J3-Pad2)*
X169750363Y-70394243D02*
X169750363Y-69969979D01*
X167294617Y-72849989D02*
X169750363Y-70394243D01*
X152424990Y-78393406D02*
X152424990Y-75480020D01*
X152424990Y-75480020D02*
X155055021Y-72849989D01*
X155055021Y-72849989D02*
X167294617Y-72849989D01*
G04 #@! TO.N,/Sensors/XSHUT3*
X141200000Y-107200000D02*
X138400000Y-107200000D01*
G04 #@! TO.N,/Sensors/XSHUT2*
X175900000Y-86400000D02*
X173599999Y-88700001D01*
X174510020Y-81300000D02*
X175900000Y-82689980D01*
X175900000Y-82689980D02*
X175900000Y-86400000D01*
X169600000Y-81300000D02*
X174510020Y-81300000D01*
X173599999Y-88700001D02*
X173300000Y-89000000D01*
X169600000Y-73800000D02*
X155600000Y-73800000D01*
X155600000Y-73800000D02*
X155200000Y-74200000D01*
X136975010Y-69224990D02*
X136975010Y-76667312D01*
X137400000Y-68800000D02*
X136975010Y-69224990D01*
X136975010Y-76667312D02*
X136975010Y-77091576D01*
G04 #@! TO.N,/Sensors/XSHUT1*
X115800000Y-60000000D02*
X115400000Y-60400000D01*
X115400000Y-60400000D02*
X115400000Y-64800000D01*
X110600000Y-68800000D02*
X110600000Y-72575010D01*
X110600000Y-72575010D02*
X110719089Y-72694099D01*
G04 #@! TO.N,/Sensors/LCD_BL_EN*
X174700000Y-89000000D02*
X176000000Y-89000000D01*
X176000000Y-89000000D02*
X176300000Y-89000000D01*
X176300000Y-89000000D02*
X176700000Y-88600000D01*
X176700000Y-88600000D02*
X176700000Y-82500000D01*
X176700000Y-82500000D02*
X174100000Y-79900000D01*
X174100000Y-79900000D02*
X167300000Y-79900000D01*
X167300000Y-79900000D02*
X166600000Y-80600000D01*
X149000000Y-75000000D02*
X149000000Y-72600000D01*
X149000000Y-72600000D02*
X152400000Y-69200000D01*
X152400000Y-69200000D02*
X152400000Y-67000000D01*
G04 #@! TO.N,/Sensors/XSHUT1A*
X142800000Y-106600000D02*
X139000000Y-106600000D01*
D19*
G04 #@! TO.N,Net-(C15-Pad1)*
X117499984Y-84151472D02*
X117499984Y-85000000D01*
X117499984Y-83574994D02*
X117499984Y-84151472D01*
X116450001Y-81299999D02*
X116275011Y-81299999D01*
X116750000Y-81000000D02*
X116450001Y-81299999D01*
X116275011Y-81299999D02*
X115750000Y-81825010D01*
X114300000Y-80375010D02*
X115750000Y-81825010D01*
X115750000Y-81825010D02*
X117499984Y-83574994D01*
D18*
G04 #@! TO.N,CART_F5*
X150400000Y-75400000D02*
X156505018Y-69294982D01*
X164280754Y-69294982D02*
X164705018Y-69294982D01*
X156505018Y-69294982D02*
X164280754Y-69294982D01*
X150400000Y-80200000D02*
X150400000Y-75400000D01*
X114700000Y-79500000D02*
X114873926Y-79673926D01*
X113900000Y-79500000D02*
X114700000Y-79500000D01*
X114873926Y-79673926D02*
X119816038Y-79673926D01*
X119816038Y-79673926D02*
X120116037Y-79373927D01*
X112700000Y-80700000D02*
X113900000Y-79500000D01*
G04 #@! TO.N,CART_F3*
X136350011Y-79375745D02*
X136175010Y-79550746D01*
X136175010Y-79550746D02*
X136175010Y-79975010D01*
X136350011Y-76550011D02*
X136350011Y-79375745D01*
X136000000Y-76200000D02*
X136350011Y-76550011D01*
G04 #@! TD*
D20*
G04 #@! TO.N,GND*
G36*
X127298714Y-56306822D02*
X127290125Y-56350000D01*
X127305027Y-56424919D01*
X127318561Y-56500004D01*
X127320592Y-56503165D01*
X127321325Y-56506852D01*
X127363756Y-56570354D01*
X127405001Y-56634556D01*
X127408086Y-56636699D01*
X127410175Y-56639825D01*
X127473688Y-56682263D01*
X127536352Y-56725787D01*
X127540021Y-56726586D01*
X127543148Y-56728675D01*
X127618064Y-56743577D01*
X127692617Y-56759808D01*
X127735935Y-56752000D01*
X130864065Y-56752000D01*
X130907383Y-56759808D01*
X130981961Y-56743572D01*
X131056852Y-56728675D01*
X131059976Y-56726587D01*
X131063648Y-56725788D01*
X131126332Y-56682250D01*
X131189825Y-56639825D01*
X131191914Y-56636699D01*
X131194999Y-56634556D01*
X131236244Y-56570354D01*
X131278675Y-56506852D01*
X131279408Y-56503165D01*
X131281439Y-56500004D01*
X131294973Y-56424919D01*
X131309875Y-56350000D01*
X131301286Y-56306822D01*
X131266310Y-54365608D01*
X131423000Y-54365608D01*
X131423000Y-54734392D01*
X131564127Y-55075103D01*
X131824897Y-55335873D01*
X131873001Y-55355798D01*
X131873000Y-60066024D01*
X131614127Y-60324897D01*
X131473000Y-60665608D01*
X131473000Y-61034392D01*
X131614127Y-61375103D01*
X131874897Y-61635873D01*
X132215608Y-61777000D01*
X132581710Y-61777000D01*
X136213448Y-65408739D01*
X136242846Y-65452736D01*
X136286843Y-65482134D01*
X136286846Y-65482137D01*
X136379998Y-65544379D01*
X136417166Y-65569214D01*
X136494526Y-65584602D01*
X136500032Y-65597894D01*
X136760802Y-65858664D01*
X137101513Y-65999791D01*
X137467614Y-65999791D01*
X137549959Y-66082136D01*
X137549962Y-66082138D01*
X137553773Y-66085949D01*
X137583173Y-66129949D01*
X137757493Y-66246427D01*
X137911215Y-66277004D01*
X137911220Y-66277004D01*
X137963117Y-66287327D01*
X138015015Y-66277004D01*
X141148098Y-66277004D01*
X141200000Y-66287328D01*
X141251903Y-66277004D01*
X147030552Y-66277004D01*
X147082450Y-66287327D01*
X147134348Y-66277004D01*
X147134353Y-66277004D01*
X147288075Y-66246427D01*
X147462395Y-66129949D01*
X147491795Y-66085949D01*
X148887023Y-64690721D01*
X149253125Y-64690721D01*
X149593836Y-64549594D01*
X149854606Y-64288824D01*
X149995733Y-63948113D01*
X149995733Y-63579329D01*
X149854606Y-63238618D01*
X149593836Y-62977848D01*
X149253125Y-62836721D01*
X148884341Y-62836721D01*
X148543630Y-62977848D01*
X148282860Y-63238618D01*
X148141733Y-63579329D01*
X148141733Y-63945431D01*
X146864160Y-65223004D01*
X141727000Y-65223004D01*
X141727000Y-63983976D01*
X141985873Y-63725103D01*
X142127000Y-63384392D01*
X142127000Y-63015608D01*
X141985873Y-62674897D01*
X141725103Y-62414127D01*
X141384392Y-62273000D01*
X141015608Y-62273000D01*
X140674897Y-62414127D01*
X140414127Y-62674897D01*
X140273000Y-63015608D01*
X140273000Y-63384392D01*
X140414127Y-63725103D01*
X140673000Y-63983976D01*
X140673001Y-65223004D01*
X138212905Y-65223004D01*
X138212905Y-64888399D01*
X138071778Y-64547688D01*
X137811008Y-64286918D01*
X137470297Y-64145791D01*
X137101513Y-64145791D01*
X136760802Y-64286918D01*
X136671505Y-64376215D01*
X133327000Y-61031710D01*
X133327000Y-60665608D01*
X133185873Y-60324897D01*
X132927000Y-60066024D01*
X132927000Y-56215608D01*
X141073000Y-56215608D01*
X141073000Y-56584392D01*
X141214127Y-56925103D01*
X141474897Y-57185873D01*
X141815608Y-57327000D01*
X142181710Y-57327000D01*
X146390657Y-61535948D01*
X146420055Y-61579945D01*
X146464052Y-61609343D01*
X146464055Y-61609346D01*
X146558162Y-61672226D01*
X146594375Y-61696423D01*
X146748097Y-61727000D01*
X146748101Y-61727000D01*
X146799999Y-61737323D01*
X146851897Y-61727000D01*
X151181710Y-61727000D01*
X152273000Y-62818290D01*
X152273000Y-63184392D01*
X152414127Y-63525103D01*
X152674897Y-63785873D01*
X153015608Y-63927000D01*
X153384392Y-63927000D01*
X153725103Y-63785873D01*
X153985873Y-63525103D01*
X154127000Y-63184392D01*
X154127000Y-62815608D01*
X153985873Y-62474897D01*
X153725103Y-62214127D01*
X153384392Y-62073000D01*
X153018290Y-62073000D01*
X151809345Y-60864055D01*
X151802219Y-60853389D01*
X157073000Y-60853389D01*
X157073000Y-61222173D01*
X157214127Y-61562884D01*
X157474897Y-61823654D01*
X157815608Y-61964781D01*
X158184392Y-61964781D01*
X158525103Y-61823654D01*
X158785873Y-61562884D01*
X158927000Y-61222173D01*
X158927000Y-60853389D01*
X158785873Y-60512678D01*
X158584990Y-60311795D01*
X159471934Y-59424852D01*
X159541552Y-59592925D01*
X159717930Y-59769303D01*
X159948379Y-59864758D01*
X160131584Y-59864758D01*
X160598001Y-60331176D01*
X160598000Y-62715288D01*
X160468455Y-62844833D01*
X160373000Y-63075282D01*
X160373000Y-63324718D01*
X160468455Y-63555167D01*
X160644833Y-63731545D01*
X160875282Y-63827000D01*
X161124718Y-63827000D01*
X161355167Y-63731545D01*
X161531545Y-63555167D01*
X161627000Y-63324718D01*
X161627000Y-63075282D01*
X161531545Y-62844833D01*
X161402000Y-62715288D01*
X161402000Y-60204246D01*
X161409874Y-60164661D01*
X161402000Y-60125076D01*
X161402000Y-60125071D01*
X161378675Y-60007809D01*
X161332327Y-59938444D01*
X161312251Y-59908398D01*
X161312249Y-59908396D01*
X161289825Y-59874836D01*
X161256264Y-59852411D01*
X160700097Y-59296245D01*
X160700097Y-59113040D01*
X160604642Y-58882591D01*
X160428264Y-58706213D01*
X160260191Y-58636595D01*
X161269786Y-57627000D01*
X165281710Y-57627000D01*
X165566140Y-57911431D01*
X165569956Y-57930615D01*
X165569957Y-57930616D01*
X165647271Y-58046324D01*
X165686434Y-58104936D01*
X165730434Y-58134336D01*
X165739378Y-58143280D01*
X165739378Y-58509382D01*
X165858927Y-58798000D01*
X161962910Y-58798000D01*
X161923406Y-58758496D01*
X161923406Y-58575292D01*
X161827951Y-58344843D01*
X161651573Y-58168465D01*
X161421124Y-58073010D01*
X161171688Y-58073010D01*
X160941239Y-58168465D01*
X160764861Y-58344843D01*
X160669406Y-58575292D01*
X160669406Y-58824728D01*
X160764861Y-59055177D01*
X160941239Y-59231555D01*
X161171688Y-59327010D01*
X161354892Y-59327010D01*
X161484146Y-59456264D01*
X161506571Y-59489825D01*
X161540131Y-59512249D01*
X161540133Y-59512251D01*
X161639543Y-59578675D01*
X161665847Y-59583907D01*
X161756806Y-59602000D01*
X161756809Y-59602000D01*
X161796396Y-59609874D01*
X161835982Y-59602000D01*
X169915288Y-59602000D01*
X170044833Y-59731545D01*
X170275282Y-59827000D01*
X170524718Y-59827000D01*
X170755167Y-59731545D01*
X170931545Y-59555167D01*
X171027000Y-59324718D01*
X171027000Y-59075282D01*
X170931545Y-58844833D01*
X170755167Y-58668455D01*
X170524718Y-58573000D01*
X170275282Y-58573000D01*
X170044833Y-58668455D01*
X169915288Y-58798000D01*
X167473829Y-58798000D01*
X167593378Y-58509382D01*
X167593378Y-58140598D01*
X167452251Y-57799887D01*
X167191481Y-57539117D01*
X166850770Y-57397990D01*
X166520864Y-57397990D01*
X166475725Y-57330434D01*
X166475722Y-57330431D01*
X166446324Y-57286434D01*
X166402326Y-57257035D01*
X165909345Y-56764055D01*
X165879945Y-56720055D01*
X165705625Y-56603577D01*
X165551903Y-56573000D01*
X165551898Y-56573000D01*
X165500000Y-56562677D01*
X165448102Y-56573000D01*
X161103394Y-56573000D01*
X161051495Y-56562677D01*
X160999596Y-56573000D01*
X160999592Y-56573000D01*
X160845870Y-56603577D01*
X160715550Y-56690654D01*
X160715547Y-56690657D01*
X160671550Y-56720055D01*
X160642152Y-56764052D01*
X157664055Y-59742150D01*
X157620055Y-59771550D01*
X157590655Y-59815550D01*
X157590654Y-59815551D01*
X157567387Y-59850373D01*
X157503577Y-59945871D01*
X157473000Y-60099593D01*
X157473000Y-60099597D01*
X157462677Y-60151495D01*
X157473000Y-60203393D01*
X157473000Y-60253805D01*
X157214127Y-60512678D01*
X157073000Y-60853389D01*
X151802219Y-60853389D01*
X151779945Y-60820055D01*
X151605625Y-60703577D01*
X151451903Y-60673000D01*
X151451898Y-60673000D01*
X151400000Y-60662677D01*
X151348102Y-60673000D01*
X147018291Y-60673000D01*
X142927000Y-56581710D01*
X142927000Y-56215608D01*
X142785873Y-55874897D01*
X142525103Y-55614127D01*
X142184392Y-55473000D01*
X141815608Y-55473000D01*
X141474897Y-55614127D01*
X141214127Y-55874897D01*
X141073000Y-56215608D01*
X132927000Y-56215608D01*
X132927000Y-55283976D01*
X133135873Y-55075103D01*
X133277000Y-54734392D01*
X133277000Y-54365608D01*
X133135873Y-54024897D01*
X132875103Y-53764127D01*
X132534392Y-53623000D01*
X132165608Y-53623000D01*
X131824897Y-53764127D01*
X131564127Y-54024897D01*
X131423000Y-54365608D01*
X131266310Y-54365608D01*
X131209308Y-51202000D01*
X134198000Y-51202000D01*
X134198001Y-54257551D01*
X134190167Y-54294228D01*
X134198001Y-54336733D01*
X134198001Y-54339590D01*
X134205171Y-54375635D01*
X134219154Y-54451504D01*
X134220753Y-54453972D01*
X134221326Y-54456852D01*
X134264141Y-54520929D01*
X134306122Y-54585715D01*
X134308545Y-54587384D01*
X134310176Y-54589825D01*
X134374282Y-54632660D01*
X134437831Y-54676428D01*
X134440705Y-54677042D01*
X134443149Y-54678675D01*
X134518858Y-54693735D01*
X134594228Y-54709833D01*
X134597114Y-54709301D01*
X134600000Y-54709875D01*
X134675704Y-54694816D01*
X134751504Y-54680846D01*
X134753969Y-54679248D01*
X134756852Y-54678675D01*
X134820995Y-54635816D01*
X134851839Y-54615829D01*
X134853886Y-54613838D01*
X134889825Y-54589825D01*
X134910663Y-54558639D01*
X138363207Y-51202000D01*
X172798000Y-51202000D01*
X172798001Y-53260405D01*
X172790125Y-53300000D01*
X172821325Y-53456852D01*
X172910175Y-53589825D01*
X173043148Y-53678675D01*
X173160410Y-53702000D01*
X173200000Y-53709875D01*
X173239590Y-53702000D01*
X177389356Y-53702000D01*
X176906462Y-76398000D01*
X174789590Y-76398000D01*
X174750000Y-76390125D01*
X174710410Y-76398000D01*
X174593148Y-76421325D01*
X174460175Y-76510175D01*
X174371325Y-76643148D01*
X174340125Y-76800000D01*
X174348001Y-76839595D01*
X174348000Y-78760410D01*
X174340125Y-78800000D01*
X174371325Y-78956852D01*
X174442581Y-79063494D01*
X174460175Y-79089825D01*
X174593148Y-79178675D01*
X174750000Y-79209875D01*
X174789590Y-79202000D01*
X178898000Y-79202000D01*
X178898001Y-105598000D01*
X174789590Y-105598000D01*
X174750000Y-105590125D01*
X174710410Y-105598000D01*
X174593148Y-105621325D01*
X174460175Y-105710175D01*
X174371325Y-105843148D01*
X174340125Y-106000000D01*
X174348001Y-106039595D01*
X174348000Y-107960410D01*
X174340125Y-108000000D01*
X174371325Y-108156852D01*
X174392552Y-108188620D01*
X174460175Y-108289825D01*
X174593148Y-108378675D01*
X174750000Y-108409875D01*
X174789590Y-108402000D01*
X176906462Y-108402000D01*
X176987813Y-112225474D01*
X176722463Y-112016782D01*
X176218702Y-111875330D01*
X175768771Y-111883184D01*
X175789853Y-113091000D01*
X175809850Y-113090651D01*
X175814283Y-113344612D01*
X175794286Y-113344961D01*
X175815369Y-114552777D01*
X176265300Y-114544924D01*
X176763817Y-114385977D01*
X177029015Y-114161992D01*
X177194795Y-121953641D01*
X176891752Y-121715305D01*
X176387991Y-121573853D01*
X175938060Y-121581707D01*
X175959142Y-122789523D01*
X175979139Y-122789174D01*
X175983572Y-123043135D01*
X175963575Y-123043484D01*
X175963924Y-123063481D01*
X175709963Y-123067914D01*
X175709614Y-123047917D01*
X174217467Y-123073963D01*
X174163474Y-123167972D01*
X174106232Y-123075904D01*
X172614085Y-123101949D01*
X172635168Y-124309765D01*
X173085099Y-124301912D01*
X173583616Y-124142965D01*
X173983360Y-123805344D01*
X174168347Y-123447180D01*
X174365722Y-123798671D01*
X174644261Y-124017736D01*
X174522411Y-124041973D01*
X174414246Y-124114246D01*
X174341973Y-124222411D01*
X174316594Y-124350000D01*
X174316594Y-126050000D01*
X174341973Y-126177589D01*
X174414246Y-126285754D01*
X174522411Y-126358027D01*
X174650000Y-126383406D01*
X174962343Y-126383406D01*
X174618642Y-126544817D01*
X174228355Y-126973076D01*
X174058524Y-127383110D01*
X174179845Y-127613000D01*
X175373000Y-127613000D01*
X175373000Y-127593000D01*
X175627000Y-127593000D01*
X175627000Y-127613000D01*
X176820155Y-127613000D01*
X176941476Y-127383110D01*
X176771645Y-126973076D01*
X176381358Y-126544817D01*
X176037657Y-126383406D01*
X176350000Y-126383406D01*
X176477589Y-126358027D01*
X176585754Y-126285754D01*
X176658027Y-126177589D01*
X176683406Y-126050000D01*
X176683406Y-124350000D01*
X176658027Y-124222411D01*
X176630373Y-124181023D01*
X176933106Y-124084500D01*
X177234713Y-123829765D01*
X177389356Y-131098000D01*
X173239590Y-131098000D01*
X173200000Y-131090125D01*
X173160410Y-131098000D01*
X173043148Y-131121325D01*
X172910175Y-131210175D01*
X172821325Y-131343148D01*
X172790125Y-131500000D01*
X172798001Y-131539595D01*
X172798000Y-133598000D01*
X138363207Y-133598000D01*
X134910663Y-130241361D01*
X134889825Y-130210175D01*
X134853886Y-130186162D01*
X134851839Y-130184171D01*
X134820995Y-130164184D01*
X134756852Y-130121325D01*
X134753969Y-130120752D01*
X134751504Y-130119154D01*
X134675704Y-130105184D01*
X134600000Y-130090125D01*
X134597114Y-130090699D01*
X134594228Y-130090167D01*
X134518858Y-130106265D01*
X134443149Y-130121325D01*
X134440705Y-130122958D01*
X134437831Y-130123572D01*
X134374282Y-130167340D01*
X134310176Y-130210175D01*
X134308545Y-130212616D01*
X134306122Y-130214285D01*
X134264141Y-130279071D01*
X134221326Y-130343148D01*
X134220753Y-130346028D01*
X134219154Y-130348496D01*
X134205171Y-130424365D01*
X134198001Y-130460410D01*
X134198001Y-130463267D01*
X134190167Y-130505772D01*
X134198001Y-130542449D01*
X134198000Y-133598000D01*
X131209473Y-133598000D01*
X131338838Y-126575282D01*
X149473000Y-126575282D01*
X149473000Y-126824718D01*
X149568455Y-127055167D01*
X149698001Y-127184713D01*
X149698000Y-129860415D01*
X149690126Y-129900000D01*
X149698000Y-129939585D01*
X149698000Y-129939589D01*
X149721325Y-130056851D01*
X149810175Y-130189825D01*
X149843738Y-130212251D01*
X150473000Y-130841514D01*
X150473000Y-131024718D01*
X150568455Y-131255167D01*
X150744833Y-131431545D01*
X150975282Y-131527000D01*
X151224718Y-131527000D01*
X151455167Y-131431545D01*
X151631545Y-131255167D01*
X151727000Y-131024718D01*
X151727000Y-130775282D01*
X151631545Y-130544833D01*
X151455167Y-130368455D01*
X151224718Y-130273000D01*
X151041514Y-130273000D01*
X150502000Y-129733487D01*
X150502000Y-128096890D01*
X174058524Y-128096890D01*
X174228355Y-128506924D01*
X174618642Y-128935183D01*
X175143108Y-129181486D01*
X175373000Y-129060819D01*
X175373000Y-127867000D01*
X175627000Y-127867000D01*
X175627000Y-129060819D01*
X175856892Y-129181486D01*
X176381358Y-128935183D01*
X176771645Y-128506924D01*
X176941476Y-128096890D01*
X176820155Y-127867000D01*
X175627000Y-127867000D01*
X175373000Y-127867000D01*
X174179845Y-127867000D01*
X174058524Y-128096890D01*
X150502000Y-128096890D01*
X150502000Y-127184712D01*
X150631545Y-127055167D01*
X150727000Y-126824718D01*
X150727000Y-126575282D01*
X150631545Y-126344833D01*
X150455167Y-126168455D01*
X150224718Y-126073000D01*
X149975282Y-126073000D01*
X149744833Y-126168455D01*
X149568455Y-126344833D01*
X149473000Y-126575282D01*
X131338838Y-126575282D01*
X131432042Y-121515608D01*
X164223000Y-121515608D01*
X164223000Y-121884392D01*
X164364127Y-122225103D01*
X164624897Y-122485873D01*
X164965608Y-122627000D01*
X165334392Y-122627000D01*
X165675103Y-122485873D01*
X165935873Y-122225103D01*
X166077000Y-121884392D01*
X166077000Y-121518290D01*
X167885945Y-119709345D01*
X167929945Y-119679945D01*
X168046423Y-119505625D01*
X168077000Y-119351903D01*
X168077000Y-119351899D01*
X168087323Y-119300000D01*
X168077000Y-119248101D01*
X168077000Y-116583976D01*
X168335873Y-116325103D01*
X168477000Y-115984392D01*
X168477000Y-115615608D01*
X168335873Y-115274897D01*
X168075103Y-115014127D01*
X167864760Y-114927000D01*
X168131710Y-114927000D01*
X169273000Y-116068291D01*
X169273001Y-122399565D01*
X169273000Y-122399570D01*
X169273000Y-122516024D01*
X169014127Y-122774897D01*
X168873000Y-123115608D01*
X168873000Y-123484392D01*
X169014127Y-123825103D01*
X169274897Y-124085873D01*
X169615608Y-124227000D01*
X169984392Y-124227000D01*
X170325103Y-124085873D01*
X170585873Y-123825103D01*
X170727000Y-123484392D01*
X170727000Y-123340878D01*
X170748255Y-123340878D01*
X170760040Y-123400902D01*
X171016232Y-123857136D01*
X171427514Y-124180600D01*
X171931275Y-124322052D01*
X172381206Y-124314198D01*
X172360124Y-123106382D01*
X170867977Y-123132428D01*
X170748255Y-123340878D01*
X170727000Y-123340878D01*
X170727000Y-123115608D01*
X170585873Y-122774897D01*
X170485297Y-122674321D01*
X170736620Y-122674321D01*
X170863544Y-122878466D01*
X172355691Y-122852421D01*
X172334608Y-121644605D01*
X171884677Y-121652458D01*
X171386160Y-121811405D01*
X170986416Y-122149026D01*
X170746303Y-122613922D01*
X170736620Y-122674321D01*
X170485297Y-122674321D01*
X170327000Y-122516024D01*
X170327000Y-121640172D01*
X172588570Y-121640172D01*
X172609652Y-122847988D01*
X174101799Y-122821942D01*
X174155792Y-122727933D01*
X174213034Y-122820001D01*
X175705181Y-122793956D01*
X175684098Y-121586140D01*
X175234167Y-121593993D01*
X174735650Y-121752940D01*
X174335906Y-122090561D01*
X174150919Y-122448725D01*
X173953544Y-122097234D01*
X173542262Y-121773770D01*
X173038501Y-121632318D01*
X172588570Y-121640172D01*
X170327000Y-121640172D01*
X170327000Y-115901899D01*
X170337323Y-115850000D01*
X170327000Y-115798101D01*
X170327000Y-115798097D01*
X170296423Y-115644375D01*
X170296423Y-115644374D01*
X170209346Y-115514055D01*
X170209343Y-115514052D01*
X170179945Y-115470055D01*
X170135948Y-115440657D01*
X168759345Y-114064055D01*
X168729945Y-114020055D01*
X168555625Y-113903577D01*
X168401903Y-113873000D01*
X168401898Y-113873000D01*
X168350000Y-113862677D01*
X168298102Y-113873000D01*
X167101899Y-113873000D01*
X167050000Y-113862677D01*
X166998101Y-113873000D01*
X166998097Y-113873000D01*
X166876387Y-113897209D01*
X166844374Y-113903577D01*
X166714055Y-113990654D01*
X166714052Y-113990657D01*
X166670055Y-114020055D01*
X166640657Y-114064053D01*
X165631710Y-115073000D01*
X165265608Y-115073000D01*
X164924897Y-115214127D01*
X164664127Y-115474897D01*
X164523000Y-115815608D01*
X164523000Y-116184392D01*
X164664127Y-116525103D01*
X164924897Y-116785873D01*
X165265608Y-116927000D01*
X165634392Y-116927000D01*
X165975103Y-116785873D01*
X166235873Y-116525103D01*
X166377000Y-116184392D01*
X166377000Y-115818290D01*
X166653630Y-115541660D01*
X166623000Y-115615608D01*
X166623000Y-115984392D01*
X166764127Y-116325103D01*
X167023000Y-116583976D01*
X167023001Y-119081709D01*
X165331710Y-120773000D01*
X164965608Y-120773000D01*
X164624897Y-120914127D01*
X164364127Y-121174897D01*
X164223000Y-121515608D01*
X131432042Y-121515608D01*
X131469627Y-119475282D01*
X152973000Y-119475282D01*
X152973000Y-119724718D01*
X153068455Y-119955167D01*
X153244833Y-120131545D01*
X153475282Y-120227000D01*
X153724718Y-120227000D01*
X153955167Y-120131545D01*
X154084712Y-120002000D01*
X156160415Y-120002000D01*
X156200000Y-120009874D01*
X156239585Y-120002000D01*
X156239590Y-120002000D01*
X156356852Y-119978675D01*
X156489825Y-119889825D01*
X156512251Y-119856262D01*
X156741513Y-119627000D01*
X156924718Y-119627000D01*
X157155167Y-119531545D01*
X157331545Y-119355167D01*
X157427000Y-119124718D01*
X157427000Y-118875282D01*
X157331545Y-118644833D01*
X157155167Y-118468455D01*
X156924718Y-118373000D01*
X156675282Y-118373000D01*
X156444833Y-118468455D01*
X156268455Y-118644833D01*
X156173000Y-118875282D01*
X156173000Y-119058487D01*
X156033487Y-119198000D01*
X154084712Y-119198000D01*
X153955167Y-119068455D01*
X153724718Y-118973000D01*
X153475282Y-118973000D01*
X153244833Y-119068455D01*
X153068455Y-119244833D01*
X152973000Y-119475282D01*
X131469627Y-119475282D01*
X131577091Y-113641483D01*
X170628959Y-113641483D01*
X170640744Y-113701507D01*
X170896936Y-114157741D01*
X171308218Y-114481205D01*
X171811979Y-114622657D01*
X172261910Y-114614803D01*
X172240828Y-113406987D01*
X170748681Y-113433033D01*
X170628959Y-113641483D01*
X131577091Y-113641483D01*
X131581492Y-113402554D01*
X172494789Y-113402554D01*
X172515872Y-114610370D01*
X172965803Y-114602517D01*
X173464320Y-114443570D01*
X173864064Y-114105949D01*
X174024865Y-113794614D01*
X174196433Y-114100148D01*
X174607715Y-114423612D01*
X175111476Y-114565064D01*
X175561407Y-114557210D01*
X175540325Y-113349394D01*
X174048178Y-113375440D01*
X174018451Y-113427198D01*
X173986936Y-113376509D01*
X172494789Y-113402554D01*
X131581492Y-113402554D01*
X131589370Y-112974926D01*
X170617324Y-112974926D01*
X170744248Y-113179071D01*
X172236395Y-113153026D01*
X172215312Y-111945210D01*
X171765381Y-111953063D01*
X171266864Y-112112010D01*
X170867120Y-112449631D01*
X170627007Y-112914527D01*
X170617324Y-112974926D01*
X131589370Y-112974926D01*
X131610726Y-111815608D01*
X153873000Y-111815608D01*
X153873000Y-112184392D01*
X154014127Y-112525103D01*
X154274897Y-112785873D01*
X154615608Y-112927000D01*
X154984392Y-112927000D01*
X155325103Y-112785873D01*
X155583976Y-112527000D01*
X159548102Y-112527000D01*
X159600000Y-112537323D01*
X159651898Y-112527000D01*
X159651903Y-112527000D01*
X159805625Y-112496423D01*
X159979945Y-112379945D01*
X160009345Y-112335945D01*
X160404513Y-111940777D01*
X172469274Y-111940777D01*
X172490356Y-113148593D01*
X173982503Y-113122547D01*
X174012230Y-113070789D01*
X174043745Y-113121478D01*
X175535892Y-113095433D01*
X175514809Y-111887617D01*
X175064878Y-111895470D01*
X174566361Y-112054417D01*
X174166617Y-112392038D01*
X174005816Y-112703373D01*
X173834248Y-112397839D01*
X173422966Y-112074375D01*
X172919205Y-111932923D01*
X172469274Y-111940777D01*
X160404513Y-111940777D01*
X160618291Y-111727000D01*
X160984392Y-111727000D01*
X161325103Y-111585873D01*
X161585873Y-111325103D01*
X161727000Y-110984392D01*
X161727000Y-110615608D01*
X161585873Y-110274897D01*
X161325103Y-110014127D01*
X160984392Y-109873000D01*
X160615608Y-109873000D01*
X160274897Y-110014127D01*
X160014127Y-110274897D01*
X159873000Y-110615608D01*
X159873000Y-110981709D01*
X159381710Y-111473000D01*
X155583976Y-111473000D01*
X155325103Y-111214127D01*
X154984392Y-111073000D01*
X154615608Y-111073000D01*
X154274897Y-111214127D01*
X154014127Y-111474897D01*
X153873000Y-111815608D01*
X131610726Y-111815608D01*
X131698049Y-107075282D01*
X137773000Y-107075282D01*
X137773000Y-107324718D01*
X137868455Y-107555167D01*
X138044833Y-107731545D01*
X138275282Y-107827000D01*
X138524718Y-107827000D01*
X138755167Y-107731545D01*
X138884712Y-107602000D01*
X140715288Y-107602000D01*
X140844833Y-107731545D01*
X141075282Y-107827000D01*
X141324718Y-107827000D01*
X141555167Y-107731545D01*
X141731545Y-107555167D01*
X141827000Y-107324718D01*
X141827000Y-107075282D01*
X141796646Y-107002000D01*
X142315288Y-107002000D01*
X142444833Y-107131545D01*
X142675282Y-107227000D01*
X142924718Y-107227000D01*
X143155167Y-107131545D01*
X143331545Y-106955167D01*
X143427000Y-106724718D01*
X143427000Y-106475282D01*
X143331545Y-106244833D01*
X143155167Y-106068455D01*
X142924718Y-105973000D01*
X142675282Y-105973000D01*
X142444833Y-106068455D01*
X142315288Y-106198000D01*
X139484712Y-106198000D01*
X139355167Y-106068455D01*
X139124718Y-105973000D01*
X138875282Y-105973000D01*
X138644833Y-106068455D01*
X138468455Y-106244833D01*
X138373000Y-106475282D01*
X138373000Y-106573000D01*
X138275282Y-106573000D01*
X138044833Y-106668455D01*
X137868455Y-106844833D01*
X137773000Y-107075282D01*
X131698049Y-107075282D01*
X131894662Y-96402000D01*
X150629929Y-96402000D01*
X155413251Y-108116263D01*
X155421325Y-108156852D01*
X155465146Y-108222435D01*
X155508720Y-108288363D01*
X155509591Y-108288952D01*
X155510175Y-108289825D01*
X155575891Y-108333735D01*
X155641245Y-108377880D01*
X155642272Y-108378090D01*
X155643148Y-108378675D01*
X155720765Y-108394114D01*
X155797938Y-108409869D01*
X155838566Y-108402000D01*
X161460410Y-108402000D01*
X161500000Y-108409875D01*
X161539590Y-108402000D01*
X161656852Y-108378675D01*
X161789825Y-108289825D01*
X161878675Y-108156852D01*
X161909875Y-108000000D01*
X161902000Y-107960410D01*
X161902000Y-106039590D01*
X161909875Y-106000000D01*
X161878675Y-105843148D01*
X161789825Y-105710175D01*
X161656852Y-105621325D01*
X161539590Y-105598000D01*
X161500000Y-105590125D01*
X161460410Y-105598000D01*
X158202000Y-105598000D01*
X158202000Y-96075282D01*
X163973000Y-96075282D01*
X163973000Y-96324718D01*
X164068455Y-96555167D01*
X164198000Y-96684712D01*
X164198001Y-97515287D01*
X164068455Y-97644833D01*
X163973000Y-97875282D01*
X163973000Y-98124718D01*
X164068455Y-98355167D01*
X164244833Y-98531545D01*
X164475282Y-98627000D01*
X164724718Y-98627000D01*
X164955167Y-98531545D01*
X165100000Y-98386712D01*
X165244833Y-98531545D01*
X165475282Y-98627000D01*
X165724718Y-98627000D01*
X165955167Y-98531545D01*
X166131545Y-98355167D01*
X166227000Y-98124718D01*
X166227000Y-97875282D01*
X166131545Y-97644833D01*
X166052320Y-97565608D01*
X168823000Y-97565608D01*
X168823000Y-97934392D01*
X168964127Y-98275103D01*
X169224897Y-98535873D01*
X169565608Y-98677000D01*
X169934392Y-98677000D01*
X170275103Y-98535873D01*
X170533976Y-98277000D01*
X175198102Y-98277000D01*
X175250000Y-98287323D01*
X175301898Y-98277000D01*
X175301903Y-98277000D01*
X175455625Y-98246423D01*
X175629945Y-98129945D01*
X175659345Y-98085945D01*
X176318291Y-97427000D01*
X176684392Y-97427000D01*
X177025103Y-97285873D01*
X177285873Y-97025103D01*
X177427000Y-96684392D01*
X177427000Y-96315608D01*
X177285873Y-95974897D01*
X177025103Y-95714127D01*
X176684392Y-95573000D01*
X176315608Y-95573000D01*
X175974897Y-95714127D01*
X175714127Y-95974897D01*
X175573000Y-96315608D01*
X175573000Y-96681709D01*
X175031710Y-97223000D01*
X170533976Y-97223000D01*
X170275103Y-96964127D01*
X169934392Y-96823000D01*
X169565608Y-96823000D01*
X169224897Y-96964127D01*
X168964127Y-97224897D01*
X168823000Y-97565608D01*
X166052320Y-97565608D01*
X166002000Y-97515288D01*
X166002000Y-96684712D01*
X166131545Y-96555167D01*
X166227000Y-96324718D01*
X166227000Y-96075282D01*
X166131545Y-95844833D01*
X165955167Y-95668455D01*
X165724718Y-95573000D01*
X165475282Y-95573000D01*
X165244833Y-95668455D01*
X165100000Y-95813288D01*
X164955167Y-95668455D01*
X164724718Y-95573000D01*
X164475282Y-95573000D01*
X164244833Y-95668455D01*
X164068455Y-95844833D01*
X163973000Y-96075282D01*
X158202000Y-96075282D01*
X158202000Y-85794730D01*
X158268455Y-85955167D01*
X158444833Y-86131545D01*
X158675282Y-86227000D01*
X158815561Y-86227000D01*
X158668726Y-86373835D01*
X158635166Y-86396259D01*
X158612742Y-86429819D01*
X158612739Y-86429822D01*
X158546316Y-86529232D01*
X158515116Y-86686084D01*
X158522991Y-86725674D01*
X158522990Y-89909669D01*
X158515116Y-89949254D01*
X158522990Y-89988839D01*
X158522990Y-89988843D01*
X158546315Y-90106105D01*
X158635165Y-90239079D01*
X158668728Y-90261505D01*
X159415387Y-91008165D01*
X159269833Y-91068455D01*
X159093455Y-91244833D01*
X158998000Y-91475282D01*
X158998000Y-91724718D01*
X159093455Y-91955167D01*
X159269833Y-92131545D01*
X159500282Y-92227000D01*
X159749718Y-92227000D01*
X159980167Y-92131545D01*
X160109712Y-92002000D01*
X163960415Y-92002000D01*
X164000000Y-92009874D01*
X164039585Y-92002000D01*
X164039590Y-92002000D01*
X164156852Y-91978675D01*
X164289825Y-91889825D01*
X164312251Y-91856262D01*
X164456262Y-91712251D01*
X164489825Y-91689825D01*
X164499542Y-91675282D01*
X166773000Y-91675282D01*
X166773000Y-91924718D01*
X166868455Y-92155167D01*
X167044833Y-92331545D01*
X167275282Y-92427000D01*
X167524718Y-92427000D01*
X167755167Y-92331545D01*
X167884712Y-92202000D01*
X168188962Y-92202000D01*
X168188963Y-93746150D01*
X168188962Y-93746155D01*
X168188962Y-93862609D01*
X167930089Y-94121482D01*
X167788962Y-94462193D01*
X167788962Y-94830977D01*
X167930089Y-95171688D01*
X168190859Y-95432458D01*
X168531570Y-95573585D01*
X168900354Y-95573585D01*
X169241065Y-95432458D01*
X169501835Y-95171688D01*
X169642962Y-94830977D01*
X169642962Y-94462193D01*
X169501835Y-94121482D01*
X169242962Y-93862609D01*
X169242962Y-91917859D01*
X169253285Y-91865961D01*
X169242962Y-91814064D01*
X169242962Y-91814059D01*
X169212385Y-91660337D01*
X169177000Y-91607380D01*
X169177000Y-85283976D01*
X169433976Y-85027000D01*
X173548109Y-85026998D01*
X173600011Y-85037322D01*
X173805636Y-84996421D01*
X173935955Y-84909345D01*
X173935959Y-84909341D01*
X173979956Y-84879943D01*
X174009354Y-84835946D01*
X174018300Y-84827000D01*
X174384402Y-84827000D01*
X174725113Y-84685873D01*
X174985883Y-84425103D01*
X175127010Y-84084392D01*
X175127010Y-83715608D01*
X174985883Y-83374897D01*
X174725113Y-83114127D01*
X174384402Y-82973000D01*
X174015618Y-82973000D01*
X173674907Y-83114127D01*
X173414137Y-83374897D01*
X173273010Y-83715608D01*
X173273010Y-83972999D01*
X169433977Y-83973001D01*
X169175103Y-83714127D01*
X168834392Y-83573000D01*
X168465608Y-83573000D01*
X168124897Y-83714127D01*
X167864127Y-83974897D01*
X167723000Y-84315608D01*
X167723000Y-84684392D01*
X167864127Y-85025103D01*
X168123000Y-85283976D01*
X168123001Y-91398000D01*
X167884712Y-91398000D01*
X167755167Y-91268455D01*
X167524718Y-91173000D01*
X167275282Y-91173000D01*
X167044833Y-91268455D01*
X166868455Y-91444833D01*
X166773000Y-91675282D01*
X164499542Y-91675282D01*
X164578675Y-91556852D01*
X164602000Y-91439590D01*
X164602000Y-91439585D01*
X164609874Y-91400000D01*
X164602000Y-91360415D01*
X164602000Y-90439584D01*
X164609874Y-90399999D01*
X164602000Y-90360414D01*
X164602000Y-90360410D01*
X164578675Y-90243148D01*
X164489825Y-90110175D01*
X164456262Y-90087749D01*
X164215124Y-89846611D01*
X164131545Y-89644833D01*
X163955167Y-89468455D01*
X163724718Y-89373000D01*
X163475282Y-89373000D01*
X163244833Y-89468455D01*
X163068455Y-89644833D01*
X162973000Y-89875282D01*
X162973000Y-90124718D01*
X163068455Y-90355167D01*
X163213288Y-90500000D01*
X163115288Y-90598000D01*
X161765084Y-90598000D01*
X161712400Y-90470810D01*
X161536022Y-90294432D01*
X161305573Y-90198977D01*
X161056137Y-90198977D01*
X160825688Y-90294432D01*
X160681980Y-90438140D01*
X160524718Y-90373000D01*
X160275282Y-90373000D01*
X160044833Y-90468455D01*
X160028769Y-90484519D01*
X159471249Y-89927000D01*
X162200000Y-89927000D01*
X162248601Y-89917333D01*
X162289803Y-89889803D01*
X162317333Y-89848601D01*
X162327000Y-89800000D01*
X162327000Y-86800000D01*
X162317333Y-86751399D01*
X162289803Y-86710197D01*
X162248601Y-86682667D01*
X162200000Y-86673000D01*
X159506587Y-86673000D01*
X160247102Y-85932485D01*
X160475282Y-86027000D01*
X160724718Y-86027000D01*
X160955167Y-85931545D01*
X161131545Y-85755167D01*
X161227000Y-85524718D01*
X161227000Y-85275282D01*
X161131545Y-85044833D01*
X160955167Y-84868455D01*
X160724718Y-84773000D01*
X160475282Y-84773000D01*
X160244833Y-84868455D01*
X160115288Y-84998000D01*
X159966514Y-84998000D01*
X159443796Y-84475282D01*
X161173000Y-84475282D01*
X161173000Y-84724718D01*
X161268455Y-84955167D01*
X161444833Y-85131545D01*
X161675282Y-85227000D01*
X161924718Y-85227000D01*
X162155167Y-85131545D01*
X162331545Y-84955167D01*
X162427000Y-84724718D01*
X162427000Y-84475282D01*
X162331545Y-84244833D01*
X162202000Y-84115288D01*
X162202000Y-82875282D01*
X169773000Y-82875282D01*
X169773000Y-83124718D01*
X169868455Y-83355167D01*
X170044833Y-83531545D01*
X170275282Y-83627000D01*
X170524718Y-83627000D01*
X170755167Y-83531545D01*
X170884712Y-83402000D01*
X171615278Y-83402000D01*
X171744823Y-83531545D01*
X171975272Y-83627000D01*
X172224708Y-83627000D01*
X172455157Y-83531545D01*
X172631535Y-83355167D01*
X172726990Y-83124718D01*
X172726990Y-82875282D01*
X172631535Y-82644833D01*
X172455157Y-82468455D01*
X172224708Y-82373000D01*
X171975272Y-82373000D01*
X171744823Y-82468455D01*
X171615278Y-82598000D01*
X170884712Y-82598000D01*
X170755167Y-82468455D01*
X170524718Y-82373000D01*
X170275282Y-82373000D01*
X170044833Y-82468455D01*
X169868455Y-82644833D01*
X169773000Y-82875282D01*
X162202000Y-82875282D01*
X162202000Y-82332857D01*
X162205167Y-82331545D01*
X162381545Y-82155167D01*
X162477000Y-81924718D01*
X162477000Y-81675282D01*
X162381545Y-81444833D01*
X162205167Y-81268455D01*
X161974718Y-81173000D01*
X161725282Y-81173000D01*
X161494833Y-81268455D01*
X161318455Y-81444833D01*
X161223000Y-81675282D01*
X161223000Y-81924718D01*
X161318455Y-82155167D01*
X161398001Y-82234713D01*
X161398000Y-84115288D01*
X161268455Y-84244833D01*
X161173000Y-84475282D01*
X159443796Y-84475282D01*
X159427000Y-84458487D01*
X159427000Y-84275282D01*
X159331545Y-84044833D01*
X159155167Y-83868455D01*
X158924718Y-83773000D01*
X158675282Y-83773000D01*
X158444833Y-83868455D01*
X158268455Y-84044833D01*
X158202000Y-84205270D01*
X158202000Y-80475282D01*
X165973000Y-80475282D01*
X165973000Y-80724718D01*
X166068455Y-80955167D01*
X166244833Y-81131545D01*
X166475282Y-81227000D01*
X166724718Y-81227000D01*
X166955167Y-81131545D01*
X167131545Y-80955167D01*
X167227000Y-80724718D01*
X167227000Y-80541513D01*
X167466513Y-80302000D01*
X168993003Y-80302000D01*
X168973000Y-80350292D01*
X168973000Y-80599728D01*
X169068455Y-80830177D01*
X169125783Y-80887505D01*
X169068455Y-80944833D01*
X168973000Y-81175282D01*
X168973000Y-81424718D01*
X169068455Y-81655167D01*
X169244833Y-81831545D01*
X169475282Y-81927000D01*
X169724718Y-81927000D01*
X169955167Y-81831545D01*
X170084712Y-81702000D01*
X174343507Y-81702000D01*
X175498000Y-82856494D01*
X175498001Y-86233485D01*
X173358487Y-88373000D01*
X173175282Y-88373000D01*
X172944833Y-88468455D01*
X172768455Y-88644833D01*
X172673000Y-88875282D01*
X172673000Y-89124718D01*
X172768455Y-89355167D01*
X172944833Y-89531545D01*
X173175282Y-89627000D01*
X173424718Y-89627000D01*
X173655167Y-89531545D01*
X173831545Y-89355167D01*
X173927000Y-89124718D01*
X173927000Y-88941513D01*
X174129405Y-88739108D01*
X174073000Y-88875282D01*
X174073000Y-89124718D01*
X174168455Y-89355167D01*
X174344833Y-89531545D01*
X174575282Y-89627000D01*
X174824718Y-89627000D01*
X175055167Y-89531545D01*
X175184712Y-89402000D01*
X176260415Y-89402000D01*
X176300000Y-89409874D01*
X176339585Y-89402000D01*
X176339590Y-89402000D01*
X176456852Y-89378675D01*
X176589825Y-89289825D01*
X176612251Y-89256262D01*
X176956262Y-88912251D01*
X176989825Y-88889825D01*
X177078675Y-88756852D01*
X177102000Y-88639590D01*
X177102000Y-88639586D01*
X177109874Y-88600001D01*
X177102000Y-88560416D01*
X177102000Y-82539584D01*
X177109874Y-82499999D01*
X177102000Y-82460414D01*
X177102000Y-82460410D01*
X177078675Y-82343148D01*
X177036551Y-82280105D01*
X177012251Y-82243737D01*
X177012249Y-82243735D01*
X176989825Y-82210175D01*
X176956264Y-82187751D01*
X174412251Y-79643738D01*
X174389825Y-79610175D01*
X174256852Y-79521325D01*
X174139590Y-79498000D01*
X174139585Y-79498000D01*
X174100000Y-79490126D01*
X174060415Y-79498000D01*
X167339584Y-79498000D01*
X167299999Y-79490126D01*
X167260414Y-79498000D01*
X167260410Y-79498000D01*
X167143148Y-79521325D01*
X167010175Y-79610175D01*
X166987749Y-79643738D01*
X166658487Y-79973000D01*
X166475282Y-79973000D01*
X166244833Y-80068455D01*
X166068455Y-80244833D01*
X165973000Y-80475282D01*
X158202000Y-80475282D01*
X158202000Y-79202000D01*
X161460410Y-79202000D01*
X161500000Y-79209875D01*
X161539590Y-79202000D01*
X161656852Y-79178675D01*
X161789825Y-79089825D01*
X161878675Y-78956852D01*
X161909875Y-78800000D01*
X161902000Y-78760410D01*
X161902000Y-76839590D01*
X161909875Y-76800000D01*
X161878675Y-76643148D01*
X161789825Y-76510175D01*
X161656852Y-76421325D01*
X161539590Y-76398000D01*
X161500000Y-76390125D01*
X161460410Y-76398000D01*
X155838566Y-76398000D01*
X155797938Y-76390131D01*
X155720765Y-76405886D01*
X155643148Y-76421325D01*
X155642272Y-76421910D01*
X155641245Y-76422120D01*
X155575891Y-76466265D01*
X155510175Y-76510175D01*
X155509591Y-76511048D01*
X155508720Y-76511637D01*
X155465146Y-76577565D01*
X155421325Y-76643148D01*
X155413251Y-76683737D01*
X150629929Y-88398000D01*
X131894968Y-88398000D01*
X131871302Y-87056892D01*
X136498514Y-87056892D01*
X136744817Y-87581358D01*
X137173076Y-87971645D01*
X137583110Y-88141476D01*
X137813000Y-88020155D01*
X137813000Y-86827000D01*
X136619181Y-86827000D01*
X136498514Y-87056892D01*
X131871302Y-87056892D01*
X131858706Y-86343108D01*
X136498514Y-86343108D01*
X136619181Y-86573000D01*
X137813000Y-86573000D01*
X137813000Y-85379845D01*
X138067000Y-85379845D01*
X138067000Y-86573000D01*
X138087000Y-86573000D01*
X138087000Y-86827000D01*
X138067000Y-86827000D01*
X138067000Y-88020155D01*
X138296890Y-88141476D01*
X138706924Y-87971645D01*
X139135183Y-87581358D01*
X139360023Y-87102594D01*
X139371291Y-87159242D01*
X139631431Y-87548569D01*
X140020758Y-87808709D01*
X140364080Y-87877000D01*
X140595920Y-87877000D01*
X140939242Y-87808709D01*
X141328569Y-87548569D01*
X141588709Y-87159242D01*
X141680058Y-86700000D01*
X141819942Y-86700000D01*
X141911291Y-87159242D01*
X142171431Y-87548569D01*
X142560758Y-87808709D01*
X142904080Y-87877000D01*
X143135920Y-87877000D01*
X143479242Y-87808709D01*
X143868569Y-87548569D01*
X144128709Y-87159242D01*
X144220058Y-86700000D01*
X144359942Y-86700000D01*
X144451291Y-87159242D01*
X144711431Y-87548569D01*
X145100758Y-87808709D01*
X145444080Y-87877000D01*
X145675920Y-87877000D01*
X146019242Y-87808709D01*
X146408569Y-87548569D01*
X146668709Y-87159242D01*
X146760058Y-86700000D01*
X146668709Y-86240758D01*
X146408569Y-85851431D01*
X146406428Y-85850000D01*
X146916594Y-85850000D01*
X146916594Y-87550000D01*
X146941973Y-87677589D01*
X147014246Y-87785754D01*
X147122411Y-87858027D01*
X147250000Y-87883406D01*
X148950000Y-87883406D01*
X149077589Y-87858027D01*
X149185754Y-87785754D01*
X149258027Y-87677589D01*
X149283406Y-87550000D01*
X149283406Y-85850000D01*
X149258027Y-85722411D01*
X149185754Y-85614246D01*
X149077589Y-85541973D01*
X148950000Y-85516594D01*
X147250000Y-85516594D01*
X147122411Y-85541973D01*
X147014246Y-85614246D01*
X146941973Y-85722411D01*
X146916594Y-85850000D01*
X146406428Y-85850000D01*
X146019242Y-85591291D01*
X145675920Y-85523000D01*
X145444080Y-85523000D01*
X145100758Y-85591291D01*
X144711431Y-85851431D01*
X144451291Y-86240758D01*
X144359942Y-86700000D01*
X144220058Y-86700000D01*
X144128709Y-86240758D01*
X143868569Y-85851431D01*
X143479242Y-85591291D01*
X143135920Y-85523000D01*
X142904080Y-85523000D01*
X142560758Y-85591291D01*
X142171431Y-85851431D01*
X141911291Y-86240758D01*
X141819942Y-86700000D01*
X141680058Y-86700000D01*
X141588709Y-86240758D01*
X141328569Y-85851431D01*
X140939242Y-85591291D01*
X140595920Y-85523000D01*
X140364080Y-85523000D01*
X140020758Y-85591291D01*
X139631431Y-85851431D01*
X139371291Y-86240758D01*
X139360023Y-86297406D01*
X139135183Y-85818642D01*
X138706924Y-85428355D01*
X138296890Y-85258524D01*
X138067000Y-85379845D01*
X137813000Y-85379845D01*
X137583110Y-85258524D01*
X137173076Y-85428355D01*
X136744817Y-85818642D01*
X136498514Y-86343108D01*
X131858706Y-86343108D01*
X131827108Y-84552532D01*
X138627073Y-84552532D01*
X138725736Y-84819387D01*
X139335461Y-85045908D01*
X139985460Y-85021856D01*
X140474264Y-84819387D01*
X140572927Y-84552532D01*
X145127073Y-84552532D01*
X145225736Y-84819387D01*
X145835461Y-85045908D01*
X146485460Y-85021856D01*
X146974264Y-84819387D01*
X147072927Y-84552532D01*
X146100000Y-83579605D01*
X145127073Y-84552532D01*
X140572927Y-84552532D01*
X139600000Y-83579605D01*
X138627073Y-84552532D01*
X131827108Y-84552532D01*
X131802100Y-83135461D01*
X137954092Y-83135461D01*
X137978144Y-83785460D01*
X138180613Y-84274264D01*
X138447468Y-84372927D01*
X139420395Y-83400000D01*
X139779605Y-83400000D01*
X140752532Y-84372927D01*
X141019387Y-84274264D01*
X141245908Y-83664539D01*
X141226331Y-83135461D01*
X144454092Y-83135461D01*
X144478144Y-83785460D01*
X144680613Y-84274264D01*
X144947468Y-84372927D01*
X145920395Y-83400000D01*
X146279605Y-83400000D01*
X147252532Y-84372927D01*
X147519387Y-84274264D01*
X147745908Y-83664539D01*
X147721856Y-83014540D01*
X147519387Y-82525736D01*
X147252532Y-82427073D01*
X146279605Y-83400000D01*
X145920395Y-83400000D01*
X144947468Y-82427073D01*
X144680613Y-82525736D01*
X144454092Y-83135461D01*
X141226331Y-83135461D01*
X141221856Y-83014540D01*
X141019387Y-82525736D01*
X140752532Y-82427073D01*
X139779605Y-83400000D01*
X139420395Y-83400000D01*
X138447468Y-82427073D01*
X138180613Y-82525736D01*
X137954092Y-83135461D01*
X131802100Y-83135461D01*
X131786430Y-82247468D01*
X138627073Y-82247468D01*
X139600000Y-83220395D01*
X140572927Y-82247468D01*
X145127073Y-82247468D01*
X146100000Y-83220395D01*
X147072927Y-82247468D01*
X146974264Y-81980613D01*
X146364539Y-81754092D01*
X145714540Y-81778144D01*
X145225736Y-81980613D01*
X145127073Y-82247468D01*
X140572927Y-82247468D01*
X140474264Y-81980613D01*
X139864539Y-81754092D01*
X139214540Y-81778144D01*
X138725736Y-81980613D01*
X138627073Y-82247468D01*
X131786430Y-82247468D01*
X131752698Y-80336079D01*
X131759875Y-80300000D01*
X131751301Y-80256896D01*
X131751238Y-80253324D01*
X131743593Y-80218144D01*
X131728675Y-80143148D01*
X131726629Y-80140087D01*
X131725848Y-80136491D01*
X131682293Y-80073733D01*
X131639825Y-80010175D01*
X131636764Y-80008129D01*
X131634666Y-80005107D01*
X131570418Y-79963798D01*
X131506852Y-79921325D01*
X131503241Y-79920607D01*
X131500146Y-79918617D01*
X131424966Y-79905037D01*
X131389590Y-79898000D01*
X131386011Y-79898000D01*
X131342769Y-79890189D01*
X131306827Y-79898000D01*
X127239590Y-79898000D01*
X127200000Y-79890125D01*
X127160410Y-79898000D01*
X127043148Y-79921325D01*
X126910175Y-80010175D01*
X126821325Y-80143148D01*
X126790125Y-80300000D01*
X126798001Y-80339594D01*
X126798001Y-80398000D01*
X125539590Y-80398000D01*
X125500000Y-80390125D01*
X125460410Y-80398000D01*
X125343148Y-80421325D01*
X125210175Y-80510175D01*
X125121325Y-80643148D01*
X125090125Y-80800000D01*
X125098000Y-80839589D01*
X125098001Y-88398000D01*
X102702880Y-88398000D01*
X102702880Y-86515608D01*
X104573000Y-86515608D01*
X104573000Y-86884392D01*
X104714127Y-87225103D01*
X104974897Y-87485873D01*
X105315608Y-87627000D01*
X105681709Y-87627000D01*
X105890656Y-87835947D01*
X105920055Y-87879945D01*
X105964052Y-87909343D01*
X105964055Y-87909346D01*
X106094374Y-87996423D01*
X106126387Y-88002791D01*
X106248097Y-88027000D01*
X106248101Y-88027000D01*
X106300000Y-88037323D01*
X106351899Y-88027000D01*
X122148102Y-88027000D01*
X122200000Y-88037323D01*
X122251898Y-88027000D01*
X122251903Y-88027000D01*
X122405625Y-87996423D01*
X122579945Y-87879945D01*
X122609345Y-87835945D01*
X123435947Y-87009344D01*
X123479945Y-86979945D01*
X123509343Y-86935948D01*
X123509346Y-86935945D01*
X123572226Y-86841838D01*
X123596423Y-86805625D01*
X123627000Y-86651903D01*
X123627000Y-86651899D01*
X123637323Y-86600001D01*
X123627000Y-86548103D01*
X123627000Y-85151899D01*
X123637323Y-85100000D01*
X123627000Y-85048101D01*
X123627000Y-85048097D01*
X123596423Y-84894375D01*
X123579104Y-84868455D01*
X123509346Y-84764056D01*
X123509345Y-84764055D01*
X123479945Y-84720055D01*
X123435945Y-84690655D01*
X123396559Y-84651269D01*
X123428473Y-84629945D01*
X123457874Y-84585944D01*
X124170023Y-83873795D01*
X124214023Y-83844395D01*
X124330501Y-83670075D01*
X124361078Y-83516353D01*
X124361078Y-83516349D01*
X124371401Y-83464451D01*
X124361078Y-83412553D01*
X124361078Y-75053534D01*
X124371401Y-75001635D01*
X124361078Y-74949736D01*
X124361078Y-74949732D01*
X124330501Y-74796010D01*
X124330501Y-74796009D01*
X124243424Y-74665691D01*
X124243423Y-74665690D01*
X124214023Y-74621690D01*
X124170023Y-74592290D01*
X123963069Y-74385336D01*
X123963067Y-74385333D01*
X123880722Y-74302988D01*
X123880722Y-73936887D01*
X123739595Y-73596176D01*
X123478825Y-73335406D01*
X123138114Y-73194279D01*
X122769330Y-73194279D01*
X122428619Y-73335406D01*
X122167849Y-73596176D01*
X122026722Y-73936887D01*
X122026722Y-74305671D01*
X122167849Y-74646382D01*
X122428619Y-74907152D01*
X122769330Y-75048279D01*
X123135431Y-75048279D01*
X123217776Y-75130624D01*
X123217779Y-75130626D01*
X123307079Y-75219926D01*
X123307078Y-83246160D01*
X122907107Y-83646131D01*
X122725103Y-83464127D01*
X122384392Y-83323000D01*
X122015608Y-83323000D01*
X121674897Y-83464127D01*
X121414127Y-83724897D01*
X121273000Y-84065608D01*
X121273000Y-84434392D01*
X121414127Y-84775103D01*
X121674897Y-85035873D01*
X122015608Y-85177000D01*
X122384392Y-85177000D01*
X122417851Y-85163141D01*
X122573000Y-85318290D01*
X122573001Y-86381708D01*
X121981710Y-86973000D01*
X106518291Y-86973000D01*
X106427000Y-86881709D01*
X106427000Y-86515608D01*
X106285873Y-86174897D01*
X106025103Y-85914127D01*
X105684392Y-85773000D01*
X105315608Y-85773000D01*
X104974897Y-85914127D01*
X104714127Y-86174897D01*
X104573000Y-86515608D01*
X102702880Y-86515608D01*
X102702880Y-80839589D01*
X102710755Y-80800000D01*
X102679555Y-80643148D01*
X102590705Y-80510175D01*
X102457732Y-80421325D01*
X102340470Y-80398000D01*
X102300880Y-80390125D01*
X102261290Y-80398000D01*
X100994920Y-80398000D01*
X100979266Y-79615275D01*
X109434331Y-79615275D01*
X109496169Y-79851042D01*
X109997122Y-80027419D01*
X110527440Y-79998664D01*
X110883831Y-79851042D01*
X110945669Y-79615275D01*
X110190000Y-78859605D01*
X109434331Y-79615275D01*
X100979266Y-79615275D01*
X100956703Y-78487122D01*
X108842581Y-78487122D01*
X108871336Y-79017440D01*
X109018958Y-79373831D01*
X109254725Y-79435669D01*
X110010395Y-78680000D01*
X110369605Y-78680000D01*
X111125275Y-79435669D01*
X111187065Y-79419462D01*
X111278251Y-79510648D01*
X111655717Y-79667000D01*
X112064283Y-79667000D01*
X112441749Y-79510648D01*
X112730648Y-79221749D01*
X112887000Y-78844283D01*
X112887000Y-78435717D01*
X112730648Y-78058251D01*
X112503671Y-77831274D01*
X112601749Y-77790648D01*
X112890648Y-77501749D01*
X113047000Y-77124283D01*
X113047000Y-76715717D01*
X112890648Y-76338251D01*
X112601749Y-76049352D01*
X112224283Y-75893000D01*
X111815717Y-75893000D01*
X111438251Y-76049352D01*
X111149352Y-76338251D01*
X110993000Y-76715717D01*
X110993000Y-77124283D01*
X111149352Y-77501749D01*
X111376329Y-77728726D01*
X111278251Y-77769352D01*
X110989352Y-78058251D01*
X110987936Y-78061670D01*
X110369605Y-78680000D01*
X110010395Y-78680000D01*
X109254725Y-77924331D01*
X109018958Y-77986169D01*
X108842581Y-78487122D01*
X100956703Y-78487122D01*
X100941856Y-77744725D01*
X109434331Y-77744725D01*
X110190000Y-78500395D01*
X110945669Y-77744725D01*
X110883831Y-77508958D01*
X110382878Y-77332581D01*
X109852560Y-77361336D01*
X109496169Y-77508958D01*
X109434331Y-77744725D01*
X100941856Y-77744725D01*
X100845854Y-72944652D01*
X102815443Y-72944652D01*
X102815443Y-73194088D01*
X102910898Y-73424537D01*
X103045622Y-73559261D01*
X103063768Y-73650485D01*
X103152618Y-73783459D01*
X103186181Y-73805885D01*
X103621792Y-74241496D01*
X103518455Y-74344833D01*
X103423000Y-74575282D01*
X103423000Y-74824718D01*
X103518455Y-75055167D01*
X103694833Y-75231545D01*
X103925282Y-75327000D01*
X104174718Y-75327000D01*
X104405167Y-75231545D01*
X104581545Y-75055167D01*
X104677000Y-74824718D01*
X104677000Y-74575282D01*
X104581545Y-74344833D01*
X104452000Y-74215288D01*
X104452000Y-74140775D01*
X104459874Y-74101190D01*
X104452000Y-74061605D01*
X104452000Y-74061601D01*
X104428675Y-73944339D01*
X104380546Y-73872309D01*
X104362251Y-73844928D01*
X104362249Y-73844926D01*
X104339825Y-73811366D01*
X104306264Y-73788941D01*
X103957924Y-73440601D01*
X103973988Y-73424537D01*
X104069443Y-73194088D01*
X104069443Y-72944652D01*
X103973988Y-72714203D01*
X103797610Y-72537825D01*
X103567161Y-72442370D01*
X103317725Y-72442370D01*
X103087276Y-72537825D01*
X102910898Y-72714203D01*
X102815443Y-72944652D01*
X100845854Y-72944652D01*
X100799467Y-70625282D01*
X103073000Y-70625282D01*
X103073000Y-70874718D01*
X103168455Y-71105167D01*
X103344833Y-71281545D01*
X103575282Y-71377000D01*
X103758487Y-71377000D01*
X105906852Y-73525365D01*
X105929276Y-73558926D01*
X105962836Y-73581350D01*
X105962838Y-73581352D01*
X106005525Y-73609874D01*
X106062249Y-73647776D01*
X106179511Y-73671101D01*
X106179516Y-73671101D01*
X106219101Y-73678975D01*
X106258686Y-73671101D01*
X111441897Y-73671101D01*
X111353000Y-73885717D01*
X111353000Y-74294283D01*
X111509352Y-74671749D01*
X111798251Y-74960648D01*
X112175717Y-75117000D01*
X112584283Y-75117000D01*
X112961749Y-74960648D01*
X113250648Y-74671749D01*
X113407000Y-74294283D01*
X113407000Y-73885717D01*
X113250648Y-73508251D01*
X113019026Y-73276629D01*
X113081749Y-73250648D01*
X113370648Y-72961749D01*
X113527000Y-72584283D01*
X113527000Y-72175717D01*
X113370648Y-71798251D01*
X113172397Y-71600000D01*
X113450648Y-71321749D01*
X113607000Y-70944283D01*
X113607000Y-70535717D01*
X113532545Y-70355968D01*
X115691428Y-68197086D01*
X115663000Y-68265717D01*
X115663000Y-68674283D01*
X115819352Y-69051749D01*
X116108251Y-69340648D01*
X116187042Y-69373284D01*
X116148251Y-69389352D01*
X115859352Y-69678251D01*
X115703000Y-70055717D01*
X115703000Y-70464283D01*
X115859352Y-70841749D01*
X116077603Y-71060000D01*
X115949558Y-71188045D01*
X115920648Y-71118251D01*
X115631749Y-70829352D01*
X115254283Y-70673000D01*
X114845717Y-70673000D01*
X114468251Y-70829352D01*
X114179352Y-71118251D01*
X114023000Y-71495717D01*
X114023000Y-71904283D01*
X114179352Y-72281749D01*
X114468251Y-72570648D01*
X114845717Y-72727000D01*
X114960603Y-72727000D01*
X114819352Y-72868251D01*
X114663000Y-73245717D01*
X114663000Y-73654283D01*
X114819352Y-74031749D01*
X115108251Y-74320648D01*
X115149761Y-74337842D01*
X114899352Y-74588251D01*
X114743000Y-74965717D01*
X114743000Y-75374283D01*
X114899352Y-75751749D01*
X115188251Y-76040648D01*
X115250974Y-76066629D01*
X114979352Y-76338251D01*
X114823000Y-76715717D01*
X114823000Y-77124283D01*
X114979352Y-77501749D01*
X115268251Y-77790648D01*
X115309761Y-77807842D01*
X115059352Y-78058251D01*
X114903000Y-78435717D01*
X114903000Y-78844283D01*
X115059352Y-79221749D01*
X115109529Y-79271926D01*
X115040439Y-79271926D01*
X115012251Y-79243738D01*
X114989825Y-79210175D01*
X114856852Y-79121325D01*
X114739590Y-79098000D01*
X114739585Y-79098000D01*
X114700000Y-79090126D01*
X114660415Y-79098000D01*
X113939584Y-79098000D01*
X113899999Y-79090126D01*
X113860414Y-79098000D01*
X113860410Y-79098000D01*
X113743148Y-79121325D01*
X113713705Y-79140998D01*
X113643737Y-79187749D01*
X113643735Y-79187751D01*
X113610175Y-79210175D01*
X113587750Y-79243736D01*
X113007495Y-79823991D01*
X112884392Y-79773000D01*
X112515608Y-79773000D01*
X112174897Y-79914127D01*
X111914127Y-80174897D01*
X111773000Y-80515608D01*
X111773000Y-80884392D01*
X111914127Y-81225103D01*
X112174897Y-81485873D01*
X112515608Y-81627000D01*
X112884392Y-81627000D01*
X113225103Y-81485873D01*
X113485873Y-81225103D01*
X113589336Y-80975322D01*
X113774897Y-81160883D01*
X114115608Y-81302010D01*
X114481710Y-81302010D01*
X115340657Y-82160958D01*
X115370055Y-82204955D01*
X115414052Y-82234353D01*
X115414055Y-82234356D01*
X115414058Y-82234358D01*
X116972984Y-83793285D01*
X116972984Y-84216024D01*
X116714111Y-84474897D01*
X116572984Y-84815608D01*
X116572984Y-85184392D01*
X116714111Y-85525103D01*
X116974881Y-85785873D01*
X117315592Y-85927000D01*
X117684376Y-85927000D01*
X118025087Y-85785873D01*
X118285857Y-85525103D01*
X118426984Y-85184392D01*
X118426984Y-84815608D01*
X118285857Y-84474897D01*
X118026984Y-84216024D01*
X118026984Y-83626891D01*
X118037307Y-83574993D01*
X118026984Y-83523095D01*
X118026984Y-83523091D01*
X117996407Y-83369369D01*
X117943257Y-83289825D01*
X117909330Y-83239049D01*
X117909327Y-83239046D01*
X117879929Y-83195049D01*
X117835932Y-83165651D01*
X116597280Y-81927000D01*
X116934392Y-81927000D01*
X117275103Y-81785873D01*
X117535873Y-81525103D01*
X117677000Y-81184392D01*
X117677000Y-80815608D01*
X117535873Y-80474897D01*
X117275103Y-80214127D01*
X116941456Y-80075926D01*
X119776453Y-80075926D01*
X119816038Y-80083800D01*
X119855623Y-80075926D01*
X119855628Y-80075926D01*
X119972890Y-80052601D01*
X120050225Y-80000927D01*
X120240755Y-80000927D01*
X120471204Y-79905472D01*
X120647582Y-79729094D01*
X120743037Y-79498645D01*
X120743037Y-79249209D01*
X120647582Y-79018760D01*
X120471204Y-78842382D01*
X120240755Y-78746927D01*
X119991319Y-78746927D01*
X119760870Y-78842382D01*
X119584492Y-79018760D01*
X119489037Y-79249209D01*
X119489037Y-79271926D01*
X118872838Y-79271926D01*
X119027419Y-78832878D01*
X118998664Y-78302560D01*
X118851042Y-77946169D01*
X118615275Y-77884331D01*
X117859605Y-78640000D01*
X117873748Y-78654142D01*
X117694142Y-78833748D01*
X117680000Y-78819605D01*
X117665858Y-78833748D01*
X117486252Y-78654142D01*
X117500395Y-78640000D01*
X116744725Y-77884331D01*
X116651246Y-77908849D01*
X116511749Y-77769352D01*
X116470239Y-77752158D01*
X116517672Y-77704725D01*
X116924331Y-77704725D01*
X117680000Y-78460395D01*
X118435669Y-77704725D01*
X118373831Y-77468958D01*
X117872878Y-77292581D01*
X117342560Y-77321336D01*
X116986169Y-77468958D01*
X116924331Y-77704725D01*
X116517672Y-77704725D01*
X116720648Y-77501749D01*
X116877000Y-77124283D01*
X116877000Y-76715717D01*
X116802545Y-76535968D01*
X124098764Y-69239750D01*
X124150292Y-69261094D01*
X124399728Y-69261094D01*
X124630177Y-69165639D01*
X124806555Y-68989261D01*
X124902010Y-68758812D01*
X124902010Y-68509376D01*
X124806555Y-68278927D01*
X124630177Y-68102549D01*
X124399728Y-68007094D01*
X124150292Y-68007094D01*
X123919843Y-68102549D01*
X123743465Y-68278927D01*
X123648010Y-68509376D01*
X123648010Y-68553476D01*
X116775643Y-75425844D01*
X116797000Y-75374283D01*
X116797000Y-74965717D01*
X116640648Y-74588251D01*
X116351749Y-74299352D01*
X116310239Y-74282158D01*
X116560648Y-74031749D01*
X116717000Y-73654283D01*
X116717000Y-73245717D01*
X116584983Y-72927000D01*
X116894283Y-72927000D01*
X117271749Y-72770648D01*
X117560648Y-72481749D01*
X117717000Y-72104283D01*
X117717000Y-71695717D01*
X117560648Y-71318251D01*
X117342397Y-71100000D01*
X117600648Y-70841749D01*
X117757000Y-70464283D01*
X117757000Y-70055717D01*
X117600648Y-69678251D01*
X117311749Y-69389352D01*
X117232958Y-69356716D01*
X117271749Y-69340648D01*
X117560648Y-69051749D01*
X117717000Y-68674283D01*
X117717000Y-68265717D01*
X117560648Y-67888251D01*
X117274397Y-67602000D01*
X123860415Y-67602000D01*
X123900000Y-67609874D01*
X123939585Y-67602000D01*
X123939590Y-67602000D01*
X124056852Y-67578675D01*
X124189825Y-67489825D01*
X124212251Y-67456262D01*
X124493231Y-67175282D01*
X131573000Y-67175282D01*
X131573000Y-67424718D01*
X131668455Y-67655167D01*
X131798000Y-67784712D01*
X131798001Y-74870215D01*
X131790126Y-74909805D01*
X131821326Y-75066657D01*
X131887749Y-75166067D01*
X131887752Y-75166070D01*
X131910176Y-75199630D01*
X131943736Y-75222054D01*
X134495385Y-77773704D01*
X134495385Y-77890676D01*
X134143736Y-78242326D01*
X134110176Y-78264750D01*
X134087752Y-78298310D01*
X134087749Y-78298313D01*
X134021326Y-78397723D01*
X133990126Y-78554575D01*
X133998001Y-78594165D01*
X133998000Y-80115288D01*
X133868455Y-80244833D01*
X133773000Y-80475282D01*
X133773000Y-80724718D01*
X133868455Y-80955167D01*
X134044833Y-81131545D01*
X134275282Y-81227000D01*
X134524718Y-81227000D01*
X134755167Y-81131545D01*
X134828355Y-81058357D01*
X134868455Y-81155167D01*
X135044833Y-81331545D01*
X135275282Y-81427000D01*
X135524718Y-81427000D01*
X135755167Y-81331545D01*
X135931545Y-81155167D01*
X135989352Y-81015608D01*
X141073000Y-81015608D01*
X141073000Y-81384392D01*
X141214127Y-81725103D01*
X141474897Y-81985873D01*
X141815608Y-82127000D01*
X142184392Y-82127000D01*
X142525103Y-81985873D01*
X142785873Y-81725103D01*
X142927000Y-81384392D01*
X142927000Y-81018290D01*
X143735947Y-80209344D01*
X143779945Y-80179945D01*
X143809343Y-80135948D01*
X143809346Y-80135945D01*
X143872226Y-80041838D01*
X143896423Y-80005625D01*
X143927000Y-79851903D01*
X143927000Y-79851898D01*
X143937323Y-79800000D01*
X143927000Y-79748102D01*
X143927000Y-79583976D01*
X144185873Y-79325103D01*
X144327000Y-78984392D01*
X144327000Y-78615608D01*
X144185873Y-78274897D01*
X143927000Y-78016024D01*
X143927000Y-76252532D01*
X145127073Y-76252532D01*
X145225736Y-76519387D01*
X145835461Y-76745908D01*
X146485460Y-76721856D01*
X146974264Y-76519387D01*
X147072927Y-76252532D01*
X146100000Y-75279605D01*
X145127073Y-76252532D01*
X143927000Y-76252532D01*
X143927000Y-74835461D01*
X144454092Y-74835461D01*
X144478144Y-75485460D01*
X144680613Y-75974264D01*
X144947468Y-76072927D01*
X145920395Y-75100000D01*
X146279605Y-75100000D01*
X147252532Y-76072927D01*
X147519387Y-75974264D01*
X147745908Y-75364539D01*
X147721856Y-74714540D01*
X147519387Y-74225736D01*
X147252532Y-74127073D01*
X146279605Y-75100000D01*
X145920395Y-75100000D01*
X144947468Y-74127073D01*
X144680613Y-74225736D01*
X144454092Y-74835461D01*
X143927000Y-74835461D01*
X143927000Y-74218290D01*
X144418291Y-73727000D01*
X145208586Y-73727000D01*
X145127073Y-73947468D01*
X146100000Y-74920395D01*
X147072927Y-73947468D01*
X146991414Y-73727000D01*
X147348102Y-73727000D01*
X147400000Y-73737323D01*
X147451898Y-73727000D01*
X147451903Y-73727000D01*
X147605625Y-73696423D01*
X147779945Y-73579945D01*
X147809345Y-73535945D01*
X148598001Y-72747289D01*
X148598000Y-74515288D01*
X148468455Y-74644833D01*
X148373000Y-74875282D01*
X148373000Y-75124718D01*
X148468455Y-75355167D01*
X148644833Y-75531545D01*
X148825222Y-75606265D01*
X146713642Y-77717845D01*
X146363957Y-77573000D01*
X145836043Y-77573000D01*
X145348315Y-77775024D01*
X144975024Y-78148315D01*
X144773000Y-78636043D01*
X144773000Y-79163957D01*
X144975024Y-79651685D01*
X145348315Y-80024976D01*
X145836043Y-80227000D01*
X146363957Y-80227000D01*
X146851685Y-80024976D01*
X147224976Y-79651685D01*
X147427000Y-79163957D01*
X147427000Y-78636043D01*
X147282155Y-78286358D01*
X149998001Y-75570512D01*
X149998000Y-79715288D01*
X149868455Y-79844833D01*
X149800000Y-80010098D01*
X149731545Y-79844833D01*
X149555167Y-79668455D01*
X149324718Y-79573000D01*
X149075282Y-79573000D01*
X148844833Y-79668455D01*
X148668455Y-79844833D01*
X148573000Y-80075282D01*
X148573000Y-80324718D01*
X148668455Y-80555167D01*
X148844833Y-80731545D01*
X149075282Y-80827000D01*
X149258487Y-80827000D01*
X149798001Y-81366515D01*
X149798001Y-81515287D01*
X149668455Y-81644833D01*
X149573000Y-81875282D01*
X149573000Y-82124718D01*
X149668455Y-82355167D01*
X149844833Y-82531545D01*
X150075282Y-82627000D01*
X150324718Y-82627000D01*
X150555167Y-82531545D01*
X150731545Y-82355167D01*
X150827000Y-82124718D01*
X150827000Y-81875282D01*
X150731545Y-81644833D01*
X150602000Y-81515288D01*
X150602000Y-81239586D01*
X150609874Y-81200000D01*
X150602000Y-81160413D01*
X150602000Y-81160410D01*
X150578675Y-81043148D01*
X150578675Y-81043147D01*
X150512251Y-80943737D01*
X150512249Y-80943735D01*
X150489825Y-80910175D01*
X150456264Y-80887750D01*
X150395514Y-80827000D01*
X150524718Y-80827000D01*
X150755167Y-80731545D01*
X150900000Y-80586712D01*
X151038239Y-80724951D01*
X151268688Y-80820406D01*
X151518124Y-80820406D01*
X151748573Y-80724951D01*
X151924951Y-80548573D01*
X152020406Y-80318124D01*
X152020406Y-80068688D01*
X151924951Y-79838239D01*
X151795406Y-79708694D01*
X151795406Y-79336191D01*
X151797990Y-79338775D01*
X151797990Y-79521979D01*
X151893445Y-79752428D01*
X152069823Y-79928806D01*
X152300272Y-80024261D01*
X152549708Y-80024261D01*
X152598000Y-80004258D01*
X152598000Y-80433486D01*
X151658487Y-81373000D01*
X151475282Y-81373000D01*
X151244833Y-81468455D01*
X151068455Y-81644833D01*
X150973000Y-81875282D01*
X150973000Y-82124718D01*
X151068455Y-82355167D01*
X151244833Y-82531545D01*
X151475282Y-82627000D01*
X151724718Y-82627000D01*
X151955167Y-82531545D01*
X152131545Y-82355167D01*
X152227000Y-82124718D01*
X152227000Y-81941513D01*
X153256265Y-80912249D01*
X153289825Y-80889825D01*
X153312249Y-80856265D01*
X153312251Y-80856263D01*
X153373341Y-80764835D01*
X153378675Y-80756852D01*
X153402000Y-80639590D01*
X153402000Y-80639585D01*
X153409874Y-80600000D01*
X153402000Y-80560415D01*
X153402000Y-75566513D01*
X154593736Y-74374778D01*
X154668455Y-74555167D01*
X154844833Y-74731545D01*
X155075282Y-74827000D01*
X155173000Y-74827000D01*
X155173000Y-74924718D01*
X155268455Y-75155167D01*
X155444833Y-75331545D01*
X155562371Y-75380231D01*
X155523000Y-75475282D01*
X155523000Y-75724718D01*
X155618455Y-75955167D01*
X155794833Y-76131545D01*
X156025282Y-76227000D01*
X156274718Y-76227000D01*
X156505167Y-76131545D01*
X156681545Y-75955167D01*
X156777000Y-75724718D01*
X156777000Y-75541513D01*
X157066502Y-75252012D01*
X169084530Y-75252012D01*
X169044833Y-75268455D01*
X168868455Y-75444833D01*
X168773000Y-75675282D01*
X168773000Y-75924718D01*
X168868455Y-76155167D01*
X169044833Y-76331545D01*
X169275282Y-76427000D01*
X169524718Y-76427000D01*
X169755167Y-76331545D01*
X169889891Y-76196821D01*
X169981116Y-76178675D01*
X170114089Y-76089825D01*
X170136515Y-76056262D01*
X173972999Y-72219779D01*
X173972999Y-73173000D01*
X173715608Y-73173000D01*
X173374897Y-73314127D01*
X173114127Y-73574897D01*
X172973000Y-73915608D01*
X172973000Y-74284392D01*
X173114127Y-74625103D01*
X173374897Y-74885873D01*
X173715608Y-75027000D01*
X174084392Y-75027000D01*
X174425103Y-74885873D01*
X174685873Y-74625103D01*
X174827000Y-74284392D01*
X174827000Y-73918291D01*
X174835947Y-73909344D01*
X174879944Y-73879946D01*
X174909342Y-73835949D01*
X174909345Y-73835946D01*
X174996422Y-73705627D01*
X175007929Y-73647775D01*
X175026999Y-73551904D01*
X175026999Y-73551900D01*
X175037322Y-73500001D01*
X175026999Y-73448102D01*
X175026999Y-66351898D01*
X175037322Y-66299999D01*
X175026999Y-66248100D01*
X175026999Y-66248096D01*
X174996422Y-66094374D01*
X174969661Y-66054323D01*
X174909345Y-65964055D01*
X174909344Y-65964054D01*
X174879944Y-65920054D01*
X174835944Y-65890654D01*
X174609345Y-65664055D01*
X174579945Y-65620055D01*
X174405625Y-65503577D01*
X174251903Y-65473000D01*
X174251898Y-65473000D01*
X174200000Y-65462677D01*
X174148102Y-65473000D01*
X172851897Y-65473000D01*
X172799999Y-65462677D01*
X172748101Y-65473000D01*
X172748097Y-65473000D01*
X172637502Y-65494999D01*
X172584392Y-65473000D01*
X172215608Y-65473000D01*
X171874897Y-65614127D01*
X171614127Y-65874897D01*
X171473000Y-66215608D01*
X171473000Y-66584392D01*
X171614127Y-66925103D01*
X171874897Y-67185873D01*
X172215608Y-67327000D01*
X172584392Y-67327000D01*
X172925103Y-67185873D01*
X173172989Y-66937987D01*
X173172989Y-67124718D01*
X173268444Y-67355167D01*
X173403168Y-67489891D01*
X173421314Y-67581115D01*
X173510164Y-67714089D01*
X173543727Y-67736515D01*
X173622989Y-67815777D01*
X173622988Y-71432762D01*
X172428128Y-72627622D01*
X172428128Y-70784235D01*
X172557673Y-70654690D01*
X172653128Y-70424241D01*
X172653128Y-70174805D01*
X172557673Y-69944356D01*
X172381295Y-69767978D01*
X172150846Y-69672523D01*
X171901410Y-69672523D01*
X171670961Y-69767978D01*
X171527375Y-69911564D01*
X171527375Y-69768167D01*
X171431920Y-69537718D01*
X171255542Y-69361340D01*
X171025093Y-69265885D01*
X170775657Y-69265885D01*
X170727373Y-69285885D01*
X170727373Y-68326990D01*
X170813830Y-68326990D01*
X171044279Y-68231535D01*
X171220657Y-68055157D01*
X171316112Y-67824708D01*
X171316112Y-67575272D01*
X171220657Y-67344823D01*
X171044279Y-67168445D01*
X170813830Y-67072990D01*
X170564394Y-67072990D01*
X170333945Y-67168445D01*
X170157567Y-67344823D01*
X170062112Y-67575272D01*
X170062112Y-67756155D01*
X170035549Y-67773904D01*
X170013125Y-67807464D01*
X170013122Y-67807467D01*
X169946699Y-67906877D01*
X169915499Y-68063729D01*
X169923374Y-68103319D01*
X169923374Y-69362982D01*
X169875081Y-69342979D01*
X169625645Y-69342979D01*
X169395196Y-69438434D01*
X169218818Y-69614812D01*
X169184463Y-69697751D01*
X169155167Y-69668455D01*
X168924718Y-69573000D01*
X168675282Y-69573000D01*
X168444833Y-69668455D01*
X168268455Y-69844833D01*
X168173000Y-70075282D01*
X168173000Y-70258486D01*
X166333509Y-72097978D01*
X155246270Y-72097980D01*
X156828769Y-70515481D01*
X156844833Y-70531545D01*
X157075282Y-70627000D01*
X157324718Y-70627000D01*
X157555167Y-70531545D01*
X157684712Y-70402000D01*
X165160415Y-70402000D01*
X165200000Y-70409874D01*
X165239585Y-70402000D01*
X165239590Y-70402000D01*
X165356852Y-70378675D01*
X165489825Y-70289825D01*
X165512251Y-70256262D01*
X165877997Y-69890517D01*
X165911557Y-69868093D01*
X165933981Y-69834533D01*
X165933983Y-69834531D01*
X165978452Y-69767978D01*
X166000407Y-69735120D01*
X166023732Y-69617858D01*
X166023732Y-69617854D01*
X166031606Y-69578269D01*
X166023732Y-69538684D01*
X166023732Y-68184702D01*
X166153277Y-68055157D01*
X166248732Y-67824708D01*
X166248732Y-67575272D01*
X166153277Y-67344823D01*
X165976899Y-67168445D01*
X165746450Y-67072990D01*
X165497014Y-67072990D01*
X165266565Y-67168445D01*
X165090187Y-67344823D01*
X164994732Y-67575272D01*
X164994732Y-67824708D01*
X165090187Y-68055157D01*
X165219733Y-68184703D01*
X165219732Y-68922984D01*
X165060185Y-68763437D01*
X164829736Y-68667982D01*
X164580300Y-68667982D01*
X164349851Y-68763437D01*
X164220306Y-68892982D01*
X156675532Y-68892982D01*
X158022063Y-67546451D01*
X158055623Y-67524027D01*
X158078047Y-67490467D01*
X158078049Y-67490465D01*
X158144472Y-67391055D01*
X158144473Y-67391054D01*
X158167798Y-67273792D01*
X158167798Y-67273787D01*
X158175672Y-67234202D01*
X158167798Y-67194617D01*
X158167798Y-66860546D01*
X158297343Y-66731001D01*
X158392798Y-66500552D01*
X158392798Y-66251116D01*
X158297343Y-66020667D01*
X158120965Y-65844289D01*
X157890516Y-65748834D01*
X157641080Y-65748834D01*
X157410631Y-65844289D01*
X157234253Y-66020667D01*
X157138798Y-66251116D01*
X157138798Y-66500552D01*
X157234253Y-66731001D01*
X157363798Y-66860546D01*
X157363798Y-67067688D01*
X149606265Y-74825222D01*
X149531545Y-74644833D01*
X149402000Y-74515288D01*
X149402000Y-72766513D01*
X152656265Y-69512249D01*
X152689825Y-69489825D01*
X152712249Y-69456265D01*
X152712251Y-69456263D01*
X152778674Y-69356853D01*
X152778675Y-69356852D01*
X152802000Y-69239590D01*
X152802000Y-69239586D01*
X152809874Y-69200001D01*
X152802000Y-69160416D01*
X152802000Y-67484712D01*
X152931545Y-67355167D01*
X153027000Y-67124718D01*
X153027000Y-66875282D01*
X152931545Y-66644833D01*
X152755167Y-66468455D01*
X152524718Y-66373000D01*
X152275282Y-66373000D01*
X152127000Y-66434420D01*
X152127000Y-66415608D01*
X151985873Y-66074897D01*
X151725103Y-65814127D01*
X151384392Y-65673000D01*
X151015608Y-65673000D01*
X150674897Y-65814127D01*
X150414127Y-66074897D01*
X150273000Y-66415608D01*
X150273000Y-66784392D01*
X150414127Y-67125103D01*
X150673001Y-67383977D01*
X150673000Y-69181710D01*
X149064058Y-70790652D01*
X149064055Y-70790654D01*
X147181710Y-72673000D01*
X144251899Y-72673000D01*
X144200000Y-72662677D01*
X144148101Y-72673000D01*
X144148097Y-72673000D01*
X144026387Y-72697209D01*
X143994374Y-72703577D01*
X143864055Y-72790654D01*
X143864052Y-72790657D01*
X143820055Y-72820055D01*
X143790656Y-72864053D01*
X143064053Y-73590657D01*
X143020056Y-73620055D01*
X142990658Y-73664052D01*
X142990654Y-73664056D01*
X142903578Y-73794375D01*
X142862677Y-74000000D01*
X142873001Y-74051902D01*
X142873000Y-75779900D01*
X142873001Y-75779905D01*
X142873000Y-78016024D01*
X142614127Y-78274897D01*
X142473000Y-78615608D01*
X142473000Y-78984392D01*
X142614127Y-79325103D01*
X142871867Y-79582843D01*
X142181710Y-80273000D01*
X141815608Y-80273000D01*
X141474897Y-80414127D01*
X141214127Y-80674897D01*
X141073000Y-81015608D01*
X135989352Y-81015608D01*
X136027000Y-80924718D01*
X136027000Y-80675282D01*
X135985540Y-80575189D01*
X136050292Y-80602010D01*
X136299728Y-80602010D01*
X136530177Y-80506555D01*
X136706555Y-80330177D01*
X136802010Y-80099728D01*
X136802010Y-79850292D01*
X136706555Y-79619843D01*
X136684876Y-79598164D01*
X136728686Y-79532597D01*
X136752011Y-79415335D01*
X136752011Y-79415330D01*
X136759885Y-79375745D01*
X136752011Y-79336160D01*
X136752011Y-78636043D01*
X138273000Y-78636043D01*
X138273000Y-79163957D01*
X138475024Y-79651685D01*
X138848315Y-80024976D01*
X139336043Y-80227000D01*
X139863957Y-80227000D01*
X140351685Y-80024976D01*
X140724976Y-79651685D01*
X140927000Y-79163957D01*
X140927000Y-78636043D01*
X140724976Y-78148315D01*
X140351685Y-77775024D01*
X139863957Y-77573000D01*
X139336043Y-77573000D01*
X138848315Y-77775024D01*
X138475024Y-78148315D01*
X138273000Y-78636043D01*
X136752011Y-78636043D01*
X136752011Y-77677867D01*
X136850292Y-77718576D01*
X137099728Y-77718576D01*
X137330177Y-77623121D01*
X137506555Y-77446743D01*
X137602010Y-77216294D01*
X137602010Y-76966858D01*
X137506555Y-76736409D01*
X137377010Y-76606864D01*
X137377010Y-76252532D01*
X138627073Y-76252532D01*
X138725736Y-76519387D01*
X139335461Y-76745908D01*
X139985460Y-76721856D01*
X140474264Y-76519387D01*
X140572927Y-76252532D01*
X139600000Y-75279605D01*
X138627073Y-76252532D01*
X137377010Y-76252532D01*
X137377010Y-74835461D01*
X137954092Y-74835461D01*
X137978144Y-75485460D01*
X138180613Y-75974264D01*
X138447468Y-76072927D01*
X139420395Y-75100000D01*
X139779605Y-75100000D01*
X140752532Y-76072927D01*
X141019387Y-75974264D01*
X141245908Y-75364539D01*
X141221856Y-74714540D01*
X141019387Y-74225736D01*
X140752532Y-74127073D01*
X139779605Y-75100000D01*
X139420395Y-75100000D01*
X138447468Y-74127073D01*
X138180613Y-74225736D01*
X137954092Y-74835461D01*
X137377010Y-74835461D01*
X137377010Y-73947468D01*
X138627073Y-73947468D01*
X139600000Y-74920395D01*
X140572927Y-73947468D01*
X140474264Y-73680613D01*
X139864539Y-73454092D01*
X139214540Y-73478144D01*
X138725736Y-73680613D01*
X138627073Y-73947468D01*
X137377010Y-73947468D01*
X137377010Y-70336043D01*
X138273000Y-70336043D01*
X138273000Y-70863957D01*
X138475024Y-71351685D01*
X138848315Y-71724976D01*
X139336043Y-71927000D01*
X139863957Y-71927000D01*
X140351685Y-71724976D01*
X140724976Y-71351685D01*
X140927000Y-70863957D01*
X140927000Y-70336043D01*
X144773000Y-70336043D01*
X144773000Y-70863957D01*
X144975024Y-71351685D01*
X145348315Y-71724976D01*
X145836043Y-71927000D01*
X146363957Y-71927000D01*
X146851685Y-71724976D01*
X147224976Y-71351685D01*
X147427000Y-70863957D01*
X147427000Y-70336043D01*
X147224976Y-69848315D01*
X146872587Y-69495926D01*
X148741514Y-67627000D01*
X148924718Y-67627000D01*
X149155167Y-67531545D01*
X149331545Y-67355167D01*
X149427000Y-67124718D01*
X149427000Y-66875282D01*
X149331545Y-66644833D01*
X149155167Y-66468455D01*
X148924718Y-66373000D01*
X148675282Y-66373000D01*
X148444833Y-66468455D01*
X148268455Y-66644833D01*
X148173000Y-66875282D01*
X148173000Y-67058486D01*
X145958487Y-69273000D01*
X145836043Y-69273000D01*
X145348315Y-69475024D01*
X144975024Y-69848315D01*
X144773000Y-70336043D01*
X140927000Y-70336043D01*
X140724976Y-69848315D01*
X140351685Y-69475024D01*
X139863957Y-69273000D01*
X139336043Y-69273000D01*
X138848315Y-69475024D01*
X138475024Y-69848315D01*
X138273000Y-70336043D01*
X137377010Y-70336043D01*
X137377010Y-69427000D01*
X137524718Y-69427000D01*
X137755167Y-69331545D01*
X137931545Y-69155167D01*
X138027000Y-68924718D01*
X138027000Y-68675282D01*
X137931545Y-68444833D01*
X137755167Y-68268455D01*
X137524718Y-68173000D01*
X137275282Y-68173000D01*
X137044833Y-68268455D01*
X136868455Y-68444833D01*
X136773000Y-68675282D01*
X136773000Y-68858487D01*
X136718748Y-68912739D01*
X136685185Y-68935165D01*
X136596335Y-69068139D01*
X136573010Y-69185401D01*
X136573010Y-69185405D01*
X136565136Y-69224990D01*
X136573010Y-69264575D01*
X136573011Y-75944941D01*
X136531545Y-75844833D01*
X136355167Y-75668455D01*
X136124718Y-75573000D01*
X135875282Y-75573000D01*
X135644833Y-75668455D01*
X135468455Y-75844833D01*
X135373000Y-76075282D01*
X135373000Y-76127239D01*
X133202000Y-73956240D01*
X133202000Y-66884712D01*
X133331545Y-66755167D01*
X133427000Y-66524718D01*
X133427000Y-66275282D01*
X133331545Y-66044833D01*
X133155167Y-65868455D01*
X132924718Y-65773000D01*
X132675282Y-65773000D01*
X132444833Y-65868455D01*
X132268455Y-66044833D01*
X132173000Y-66275282D01*
X132173000Y-66524718D01*
X132234420Y-66673000D01*
X132075282Y-66673000D01*
X131844833Y-66768455D01*
X131668455Y-66944833D01*
X131573000Y-67175282D01*
X124493231Y-67175282D01*
X125356264Y-66312250D01*
X125389825Y-66289825D01*
X125412249Y-66256265D01*
X125412251Y-66256263D01*
X125466968Y-66174372D01*
X125478675Y-66156852D01*
X125502000Y-66039590D01*
X125502000Y-66039586D01*
X125509874Y-66000001D01*
X125502000Y-65960416D01*
X125502000Y-63039586D01*
X125509874Y-63000000D01*
X125502000Y-62960411D01*
X125502000Y-62960410D01*
X125478675Y-62843148D01*
X125478675Y-62843147D01*
X125412251Y-62743737D01*
X125412249Y-62743735D01*
X125389825Y-62710175D01*
X125356265Y-62687751D01*
X124727000Y-62058487D01*
X124727000Y-61875282D01*
X124631545Y-61644833D01*
X124455167Y-61468455D01*
X124224718Y-61373000D01*
X123975282Y-61373000D01*
X123744833Y-61468455D01*
X123568455Y-61644833D01*
X123473000Y-61875282D01*
X123473000Y-62124718D01*
X123568455Y-62355167D01*
X123744833Y-62531545D01*
X123975282Y-62627000D01*
X124158487Y-62627000D01*
X124698000Y-63166514D01*
X124698001Y-65311289D01*
X124655167Y-65268455D01*
X124424718Y-65173000D01*
X124175282Y-65173000D01*
X123944833Y-65268455D01*
X123768455Y-65444833D01*
X123673000Y-65675282D01*
X123673000Y-65858486D01*
X123263487Y-66268000D01*
X118958220Y-66268000D01*
X119106555Y-66119665D01*
X119202010Y-65889216D01*
X119202010Y-65639780D01*
X119106555Y-65409331D01*
X118930177Y-65232953D01*
X118699728Y-65137498D01*
X118450292Y-65137498D01*
X118219843Y-65232953D01*
X118177000Y-65275796D01*
X118177000Y-65125282D01*
X118081545Y-64894833D01*
X117905167Y-64718455D01*
X117674718Y-64623000D01*
X117425282Y-64623000D01*
X117194833Y-64718455D01*
X117018455Y-64894833D01*
X116923000Y-65125282D01*
X116923000Y-65147999D01*
X115934514Y-65147999D01*
X116027000Y-64924718D01*
X116027000Y-64675282D01*
X115931545Y-64444833D01*
X115802000Y-64315288D01*
X115802000Y-60627000D01*
X115924718Y-60627000D01*
X116155167Y-60531545D01*
X116331545Y-60355167D01*
X116427000Y-60124718D01*
X116427000Y-59875282D01*
X116331545Y-59644833D01*
X116155167Y-59468455D01*
X115924718Y-59373000D01*
X115675282Y-59373000D01*
X115444833Y-59468455D01*
X115268455Y-59644833D01*
X115173000Y-59875282D01*
X115173000Y-60058487D01*
X115143738Y-60087749D01*
X115110175Y-60110175D01*
X115021325Y-60243149D01*
X114998000Y-60360411D01*
X114998000Y-60360415D01*
X114990126Y-60400000D01*
X114998000Y-60439585D01*
X114998001Y-64315287D01*
X114868455Y-64444833D01*
X114773000Y-64675282D01*
X114773000Y-64904486D01*
X114177000Y-64308487D01*
X114177000Y-64125282D01*
X114081545Y-63894833D01*
X113905167Y-63718455D01*
X113674718Y-63623000D01*
X113425282Y-63623000D01*
X113194833Y-63718455D01*
X113025000Y-63888288D01*
X112905167Y-63768455D01*
X112674718Y-63673000D01*
X112425282Y-63673000D01*
X112194833Y-63768455D01*
X112018455Y-63944833D01*
X111923000Y-64175282D01*
X111923000Y-64424718D01*
X112018455Y-64655167D01*
X112194833Y-64831545D01*
X112425282Y-64927000D01*
X112608487Y-64927000D01*
X113949486Y-66268000D01*
X112885103Y-66268000D01*
X112810648Y-66088251D01*
X112521749Y-65799352D01*
X112144283Y-65643000D01*
X111735717Y-65643000D01*
X111358251Y-65799352D01*
X111069352Y-66088251D01*
X110913000Y-66465717D01*
X110913000Y-66874283D01*
X111069352Y-67251749D01*
X111358251Y-67540648D01*
X111735717Y-67697000D01*
X112144283Y-67697000D01*
X112521749Y-67540648D01*
X112810648Y-67251749D01*
X112885103Y-67072000D01*
X115679486Y-67072000D01*
X112964032Y-69787455D01*
X112784283Y-69713000D01*
X112375717Y-69713000D01*
X111998251Y-69869352D01*
X111709352Y-70158251D01*
X111553000Y-70535717D01*
X111553000Y-70944283D01*
X111709352Y-71321749D01*
X111907603Y-71520000D01*
X111629352Y-71798251D01*
X111473000Y-72175717D01*
X111473000Y-72584283D01*
X111547455Y-72764032D01*
X111444386Y-72867101D01*
X111326089Y-72867101D01*
X111346089Y-72818817D01*
X111346089Y-72569381D01*
X111250634Y-72338932D01*
X111074256Y-72162554D01*
X111002000Y-72132625D01*
X111002000Y-69284712D01*
X111131545Y-69155167D01*
X111227000Y-68924718D01*
X111227000Y-68675282D01*
X111131545Y-68444833D01*
X110955167Y-68268455D01*
X110724718Y-68173000D01*
X110475282Y-68173000D01*
X110244833Y-68268455D01*
X110068455Y-68444833D01*
X109973000Y-68675282D01*
X109973000Y-68924718D01*
X110068455Y-69155167D01*
X110198000Y-69284712D01*
X110198001Y-72328475D01*
X110187544Y-72338932D01*
X110092089Y-72569381D01*
X110092089Y-72818817D01*
X110112089Y-72867101D01*
X106385615Y-72867101D01*
X104327000Y-70808487D01*
X104327000Y-70625282D01*
X104231545Y-70394833D01*
X104055167Y-70218455D01*
X103824718Y-70123000D01*
X103575282Y-70123000D01*
X103344833Y-70218455D01*
X103168455Y-70394833D01*
X103073000Y-70625282D01*
X100799467Y-70625282D01*
X100611273Y-61215608D01*
X102773000Y-61215608D01*
X102773000Y-61584392D01*
X102914127Y-61925103D01*
X103174897Y-62185873D01*
X103515608Y-62327000D01*
X103881710Y-62327000D01*
X105090655Y-63535945D01*
X105120055Y-63579945D01*
X105294375Y-63696423D01*
X105448097Y-63727000D01*
X105448101Y-63727000D01*
X105499999Y-63737323D01*
X105551897Y-63727000D01*
X109016024Y-63727000D01*
X109274897Y-63985873D01*
X109615608Y-64127000D01*
X109984392Y-64127000D01*
X110325103Y-63985873D01*
X110585873Y-63725103D01*
X110727000Y-63384392D01*
X110727000Y-63015608D01*
X110585873Y-62674897D01*
X110325103Y-62414127D01*
X109984392Y-62273000D01*
X109615608Y-62273000D01*
X109274897Y-62414127D01*
X109016024Y-62673000D01*
X108470559Y-62673000D01*
X108590108Y-62384382D01*
X108590108Y-62015598D01*
X108448981Y-61674887D01*
X108188211Y-61414117D01*
X107847500Y-61272990D01*
X107481399Y-61272990D01*
X106610531Y-60402122D01*
X106649837Y-60307228D01*
X106649837Y-59938444D01*
X106508710Y-59597733D01*
X106247940Y-59336963D01*
X105907229Y-59195836D01*
X105538445Y-59195836D01*
X105197734Y-59336963D01*
X104936964Y-59597733D01*
X104795837Y-59938444D01*
X104795837Y-60307228D01*
X104936964Y-60647939D01*
X105197734Y-60908709D01*
X105538445Y-61049836D01*
X105767664Y-61049836D01*
X106736108Y-62018281D01*
X106736108Y-62384382D01*
X106855657Y-62673000D01*
X105718290Y-62673000D01*
X104627000Y-61581710D01*
X104627000Y-61215608D01*
X104485873Y-60874897D01*
X104225103Y-60614127D01*
X103884392Y-60473000D01*
X103515608Y-60473000D01*
X103174897Y-60614127D01*
X102914127Y-60874897D01*
X102773000Y-61215608D01*
X100611273Y-61215608D01*
X100575272Y-59415608D01*
X101873000Y-59415608D01*
X101873000Y-59784392D01*
X102014127Y-60125103D01*
X102274897Y-60385873D01*
X102615608Y-60527000D01*
X102984392Y-60527000D01*
X103325103Y-60385873D01*
X103585873Y-60125103D01*
X103727000Y-59784392D01*
X103727000Y-59418291D01*
X103809345Y-59335946D01*
X103809347Y-59335943D01*
X106468291Y-56677000D01*
X108416024Y-56677000D01*
X108674897Y-56935873D01*
X109015608Y-57077000D01*
X109384392Y-57077000D01*
X109725103Y-56935873D01*
X109745368Y-56915608D01*
X117323000Y-56915608D01*
X117323000Y-57284392D01*
X117464127Y-57625103D01*
X117724897Y-57885873D01*
X118065608Y-58027000D01*
X118434392Y-58027000D01*
X118775103Y-57885873D01*
X119035873Y-57625103D01*
X119038067Y-57619807D01*
X119155625Y-57596423D01*
X119329945Y-57479945D01*
X119359346Y-57435944D01*
X121118291Y-55677000D01*
X121484392Y-55677000D01*
X121825103Y-55535873D01*
X122085873Y-55275103D01*
X122227000Y-54934392D01*
X122227000Y-54565608D01*
X122085873Y-54224897D01*
X121825103Y-53964127D01*
X121484392Y-53823000D01*
X121115608Y-53823000D01*
X120774897Y-53964127D01*
X120514127Y-54224897D01*
X120373000Y-54565608D01*
X120373000Y-54931709D01*
X118882843Y-56421867D01*
X118775103Y-56314127D01*
X118434392Y-56173000D01*
X118065608Y-56173000D01*
X117724897Y-56314127D01*
X117464127Y-56574897D01*
X117323000Y-56915608D01*
X109745368Y-56915608D01*
X109985873Y-56675103D01*
X110127000Y-56334392D01*
X110127000Y-55965608D01*
X109985873Y-55624897D01*
X109725103Y-55364127D01*
X109384392Y-55223000D01*
X109015608Y-55223000D01*
X108674897Y-55364127D01*
X108416024Y-55623000D01*
X106301897Y-55623000D01*
X106249999Y-55612677D01*
X106198101Y-55623000D01*
X106198097Y-55623000D01*
X106044375Y-55653577D01*
X106044373Y-55653578D01*
X106044374Y-55653578D01*
X105914055Y-55740654D01*
X105914052Y-55740657D01*
X105870055Y-55770055D01*
X105840657Y-55814052D01*
X103064057Y-58590653D01*
X103064054Y-58590655D01*
X102981709Y-58673000D01*
X102615608Y-58673000D01*
X102274897Y-58814127D01*
X102014127Y-59074897D01*
X101873000Y-59415608D01*
X100575272Y-59415608D01*
X100410999Y-51202000D01*
X127390692Y-51202000D01*
X127298714Y-56306822D01*
X127298714Y-56306822D01*
G37*
X127298714Y-56306822D02*
X127290125Y-56350000D01*
X127305027Y-56424919D01*
X127318561Y-56500004D01*
X127320592Y-56503165D01*
X127321325Y-56506852D01*
X127363756Y-56570354D01*
X127405001Y-56634556D01*
X127408086Y-56636699D01*
X127410175Y-56639825D01*
X127473688Y-56682263D01*
X127536352Y-56725787D01*
X127540021Y-56726586D01*
X127543148Y-56728675D01*
X127618064Y-56743577D01*
X127692617Y-56759808D01*
X127735935Y-56752000D01*
X130864065Y-56752000D01*
X130907383Y-56759808D01*
X130981961Y-56743572D01*
X131056852Y-56728675D01*
X131059976Y-56726587D01*
X131063648Y-56725788D01*
X131126332Y-56682250D01*
X131189825Y-56639825D01*
X131191914Y-56636699D01*
X131194999Y-56634556D01*
X131236244Y-56570354D01*
X131278675Y-56506852D01*
X131279408Y-56503165D01*
X131281439Y-56500004D01*
X131294973Y-56424919D01*
X131309875Y-56350000D01*
X131301286Y-56306822D01*
X131266310Y-54365608D01*
X131423000Y-54365608D01*
X131423000Y-54734392D01*
X131564127Y-55075103D01*
X131824897Y-55335873D01*
X131873001Y-55355798D01*
X131873000Y-60066024D01*
X131614127Y-60324897D01*
X131473000Y-60665608D01*
X131473000Y-61034392D01*
X131614127Y-61375103D01*
X131874897Y-61635873D01*
X132215608Y-61777000D01*
X132581710Y-61777000D01*
X136213448Y-65408739D01*
X136242846Y-65452736D01*
X136286843Y-65482134D01*
X136286846Y-65482137D01*
X136379998Y-65544379D01*
X136417166Y-65569214D01*
X136494526Y-65584602D01*
X136500032Y-65597894D01*
X136760802Y-65858664D01*
X137101513Y-65999791D01*
X137467614Y-65999791D01*
X137549959Y-66082136D01*
X137549962Y-66082138D01*
X137553773Y-66085949D01*
X137583173Y-66129949D01*
X137757493Y-66246427D01*
X137911215Y-66277004D01*
X137911220Y-66277004D01*
X137963117Y-66287327D01*
X138015015Y-66277004D01*
X141148098Y-66277004D01*
X141200000Y-66287328D01*
X141251903Y-66277004D01*
X147030552Y-66277004D01*
X147082450Y-66287327D01*
X147134348Y-66277004D01*
X147134353Y-66277004D01*
X147288075Y-66246427D01*
X147462395Y-66129949D01*
X147491795Y-66085949D01*
X148887023Y-64690721D01*
X149253125Y-64690721D01*
X149593836Y-64549594D01*
X149854606Y-64288824D01*
X149995733Y-63948113D01*
X149995733Y-63579329D01*
X149854606Y-63238618D01*
X149593836Y-62977848D01*
X149253125Y-62836721D01*
X148884341Y-62836721D01*
X148543630Y-62977848D01*
X148282860Y-63238618D01*
X148141733Y-63579329D01*
X148141733Y-63945431D01*
X146864160Y-65223004D01*
X141727000Y-65223004D01*
X141727000Y-63983976D01*
X141985873Y-63725103D01*
X142127000Y-63384392D01*
X142127000Y-63015608D01*
X141985873Y-62674897D01*
X141725103Y-62414127D01*
X141384392Y-62273000D01*
X141015608Y-62273000D01*
X140674897Y-62414127D01*
X140414127Y-62674897D01*
X140273000Y-63015608D01*
X140273000Y-63384392D01*
X140414127Y-63725103D01*
X140673000Y-63983976D01*
X140673001Y-65223004D01*
X138212905Y-65223004D01*
X138212905Y-64888399D01*
X138071778Y-64547688D01*
X137811008Y-64286918D01*
X137470297Y-64145791D01*
X137101513Y-64145791D01*
X136760802Y-64286918D01*
X136671505Y-64376215D01*
X133327000Y-61031710D01*
X133327000Y-60665608D01*
X133185873Y-60324897D01*
X132927000Y-60066024D01*
X132927000Y-56215608D01*
X141073000Y-56215608D01*
X141073000Y-56584392D01*
X141214127Y-56925103D01*
X141474897Y-57185873D01*
X141815608Y-57327000D01*
X142181710Y-57327000D01*
X146390657Y-61535948D01*
X146420055Y-61579945D01*
X146464052Y-61609343D01*
X146464055Y-61609346D01*
X146558162Y-61672226D01*
X146594375Y-61696423D01*
X146748097Y-61727000D01*
X146748101Y-61727000D01*
X146799999Y-61737323D01*
X146851897Y-61727000D01*
X151181710Y-61727000D01*
X152273000Y-62818290D01*
X152273000Y-63184392D01*
X152414127Y-63525103D01*
X152674897Y-63785873D01*
X153015608Y-63927000D01*
X153384392Y-63927000D01*
X153725103Y-63785873D01*
X153985873Y-63525103D01*
X154127000Y-63184392D01*
X154127000Y-62815608D01*
X153985873Y-62474897D01*
X153725103Y-62214127D01*
X153384392Y-62073000D01*
X153018290Y-62073000D01*
X151809345Y-60864055D01*
X151802219Y-60853389D01*
X157073000Y-60853389D01*
X157073000Y-61222173D01*
X157214127Y-61562884D01*
X157474897Y-61823654D01*
X157815608Y-61964781D01*
X158184392Y-61964781D01*
X158525103Y-61823654D01*
X158785873Y-61562884D01*
X158927000Y-61222173D01*
X158927000Y-60853389D01*
X158785873Y-60512678D01*
X158584990Y-60311795D01*
X159471934Y-59424852D01*
X159541552Y-59592925D01*
X159717930Y-59769303D01*
X159948379Y-59864758D01*
X160131584Y-59864758D01*
X160598001Y-60331176D01*
X160598000Y-62715288D01*
X160468455Y-62844833D01*
X160373000Y-63075282D01*
X160373000Y-63324718D01*
X160468455Y-63555167D01*
X160644833Y-63731545D01*
X160875282Y-63827000D01*
X161124718Y-63827000D01*
X161355167Y-63731545D01*
X161531545Y-63555167D01*
X161627000Y-63324718D01*
X161627000Y-63075282D01*
X161531545Y-62844833D01*
X161402000Y-62715288D01*
X161402000Y-60204246D01*
X161409874Y-60164661D01*
X161402000Y-60125076D01*
X161402000Y-60125071D01*
X161378675Y-60007809D01*
X161332327Y-59938444D01*
X161312251Y-59908398D01*
X161312249Y-59908396D01*
X161289825Y-59874836D01*
X161256264Y-59852411D01*
X160700097Y-59296245D01*
X160700097Y-59113040D01*
X160604642Y-58882591D01*
X160428264Y-58706213D01*
X160260191Y-58636595D01*
X161269786Y-57627000D01*
X165281710Y-57627000D01*
X165566140Y-57911431D01*
X165569956Y-57930615D01*
X165569957Y-57930616D01*
X165647271Y-58046324D01*
X165686434Y-58104936D01*
X165730434Y-58134336D01*
X165739378Y-58143280D01*
X165739378Y-58509382D01*
X165858927Y-58798000D01*
X161962910Y-58798000D01*
X161923406Y-58758496D01*
X161923406Y-58575292D01*
X161827951Y-58344843D01*
X161651573Y-58168465D01*
X161421124Y-58073010D01*
X161171688Y-58073010D01*
X160941239Y-58168465D01*
X160764861Y-58344843D01*
X160669406Y-58575292D01*
X160669406Y-58824728D01*
X160764861Y-59055177D01*
X160941239Y-59231555D01*
X161171688Y-59327010D01*
X161354892Y-59327010D01*
X161484146Y-59456264D01*
X161506571Y-59489825D01*
X161540131Y-59512249D01*
X161540133Y-59512251D01*
X161639543Y-59578675D01*
X161665847Y-59583907D01*
X161756806Y-59602000D01*
X161756809Y-59602000D01*
X161796396Y-59609874D01*
X161835982Y-59602000D01*
X169915288Y-59602000D01*
X170044833Y-59731545D01*
X170275282Y-59827000D01*
X170524718Y-59827000D01*
X170755167Y-59731545D01*
X170931545Y-59555167D01*
X171027000Y-59324718D01*
X171027000Y-59075282D01*
X170931545Y-58844833D01*
X170755167Y-58668455D01*
X170524718Y-58573000D01*
X170275282Y-58573000D01*
X170044833Y-58668455D01*
X169915288Y-58798000D01*
X167473829Y-58798000D01*
X167593378Y-58509382D01*
X167593378Y-58140598D01*
X167452251Y-57799887D01*
X167191481Y-57539117D01*
X166850770Y-57397990D01*
X166520864Y-57397990D01*
X166475725Y-57330434D01*
X166475722Y-57330431D01*
X166446324Y-57286434D01*
X166402326Y-57257035D01*
X165909345Y-56764055D01*
X165879945Y-56720055D01*
X165705625Y-56603577D01*
X165551903Y-56573000D01*
X165551898Y-56573000D01*
X165500000Y-56562677D01*
X165448102Y-56573000D01*
X161103394Y-56573000D01*
X161051495Y-56562677D01*
X160999596Y-56573000D01*
X160999592Y-56573000D01*
X160845870Y-56603577D01*
X160715550Y-56690654D01*
X160715547Y-56690657D01*
X160671550Y-56720055D01*
X160642152Y-56764052D01*
X157664055Y-59742150D01*
X157620055Y-59771550D01*
X157590655Y-59815550D01*
X157590654Y-59815551D01*
X157567387Y-59850373D01*
X157503577Y-59945871D01*
X157473000Y-60099593D01*
X157473000Y-60099597D01*
X157462677Y-60151495D01*
X157473000Y-60203393D01*
X157473000Y-60253805D01*
X157214127Y-60512678D01*
X157073000Y-60853389D01*
X151802219Y-60853389D01*
X151779945Y-60820055D01*
X151605625Y-60703577D01*
X151451903Y-60673000D01*
X151451898Y-60673000D01*
X151400000Y-60662677D01*
X151348102Y-60673000D01*
X147018291Y-60673000D01*
X142927000Y-56581710D01*
X142927000Y-56215608D01*
X142785873Y-55874897D01*
X142525103Y-55614127D01*
X142184392Y-55473000D01*
X141815608Y-55473000D01*
X141474897Y-55614127D01*
X141214127Y-55874897D01*
X141073000Y-56215608D01*
X132927000Y-56215608D01*
X132927000Y-55283976D01*
X133135873Y-55075103D01*
X133277000Y-54734392D01*
X133277000Y-54365608D01*
X133135873Y-54024897D01*
X132875103Y-53764127D01*
X132534392Y-53623000D01*
X132165608Y-53623000D01*
X131824897Y-53764127D01*
X131564127Y-54024897D01*
X131423000Y-54365608D01*
X131266310Y-54365608D01*
X131209308Y-51202000D01*
X134198000Y-51202000D01*
X134198001Y-54257551D01*
X134190167Y-54294228D01*
X134198001Y-54336733D01*
X134198001Y-54339590D01*
X134205171Y-54375635D01*
X134219154Y-54451504D01*
X134220753Y-54453972D01*
X134221326Y-54456852D01*
X134264141Y-54520929D01*
X134306122Y-54585715D01*
X134308545Y-54587384D01*
X134310176Y-54589825D01*
X134374282Y-54632660D01*
X134437831Y-54676428D01*
X134440705Y-54677042D01*
X134443149Y-54678675D01*
X134518858Y-54693735D01*
X134594228Y-54709833D01*
X134597114Y-54709301D01*
X134600000Y-54709875D01*
X134675704Y-54694816D01*
X134751504Y-54680846D01*
X134753969Y-54679248D01*
X134756852Y-54678675D01*
X134820995Y-54635816D01*
X134851839Y-54615829D01*
X134853886Y-54613838D01*
X134889825Y-54589825D01*
X134910663Y-54558639D01*
X138363207Y-51202000D01*
X172798000Y-51202000D01*
X172798001Y-53260405D01*
X172790125Y-53300000D01*
X172821325Y-53456852D01*
X172910175Y-53589825D01*
X173043148Y-53678675D01*
X173160410Y-53702000D01*
X173200000Y-53709875D01*
X173239590Y-53702000D01*
X177389356Y-53702000D01*
X176906462Y-76398000D01*
X174789590Y-76398000D01*
X174750000Y-76390125D01*
X174710410Y-76398000D01*
X174593148Y-76421325D01*
X174460175Y-76510175D01*
X174371325Y-76643148D01*
X174340125Y-76800000D01*
X174348001Y-76839595D01*
X174348000Y-78760410D01*
X174340125Y-78800000D01*
X174371325Y-78956852D01*
X174442581Y-79063494D01*
X174460175Y-79089825D01*
X174593148Y-79178675D01*
X174750000Y-79209875D01*
X174789590Y-79202000D01*
X178898000Y-79202000D01*
X178898001Y-105598000D01*
X174789590Y-105598000D01*
X174750000Y-105590125D01*
X174710410Y-105598000D01*
X174593148Y-105621325D01*
X174460175Y-105710175D01*
X174371325Y-105843148D01*
X174340125Y-106000000D01*
X174348001Y-106039595D01*
X174348000Y-107960410D01*
X174340125Y-108000000D01*
X174371325Y-108156852D01*
X174392552Y-108188620D01*
X174460175Y-108289825D01*
X174593148Y-108378675D01*
X174750000Y-108409875D01*
X174789590Y-108402000D01*
X176906462Y-108402000D01*
X176987813Y-112225474D01*
X176722463Y-112016782D01*
X176218702Y-111875330D01*
X175768771Y-111883184D01*
X175789853Y-113091000D01*
X175809850Y-113090651D01*
X175814283Y-113344612D01*
X175794286Y-113344961D01*
X175815369Y-114552777D01*
X176265300Y-114544924D01*
X176763817Y-114385977D01*
X177029015Y-114161992D01*
X177194795Y-121953641D01*
X176891752Y-121715305D01*
X176387991Y-121573853D01*
X175938060Y-121581707D01*
X175959142Y-122789523D01*
X175979139Y-122789174D01*
X175983572Y-123043135D01*
X175963575Y-123043484D01*
X175963924Y-123063481D01*
X175709963Y-123067914D01*
X175709614Y-123047917D01*
X174217467Y-123073963D01*
X174163474Y-123167972D01*
X174106232Y-123075904D01*
X172614085Y-123101949D01*
X172635168Y-124309765D01*
X173085099Y-124301912D01*
X173583616Y-124142965D01*
X173983360Y-123805344D01*
X174168347Y-123447180D01*
X174365722Y-123798671D01*
X174644261Y-124017736D01*
X174522411Y-124041973D01*
X174414246Y-124114246D01*
X174341973Y-124222411D01*
X174316594Y-124350000D01*
X174316594Y-126050000D01*
X174341973Y-126177589D01*
X174414246Y-126285754D01*
X174522411Y-126358027D01*
X174650000Y-126383406D01*
X174962343Y-126383406D01*
X174618642Y-126544817D01*
X174228355Y-126973076D01*
X174058524Y-127383110D01*
X174179845Y-127613000D01*
X175373000Y-127613000D01*
X175373000Y-127593000D01*
X175627000Y-127593000D01*
X175627000Y-127613000D01*
X176820155Y-127613000D01*
X176941476Y-127383110D01*
X176771645Y-126973076D01*
X176381358Y-126544817D01*
X176037657Y-126383406D01*
X176350000Y-126383406D01*
X176477589Y-126358027D01*
X176585754Y-126285754D01*
X176658027Y-126177589D01*
X176683406Y-126050000D01*
X176683406Y-124350000D01*
X176658027Y-124222411D01*
X176630373Y-124181023D01*
X176933106Y-124084500D01*
X177234713Y-123829765D01*
X177389356Y-131098000D01*
X173239590Y-131098000D01*
X173200000Y-131090125D01*
X173160410Y-131098000D01*
X173043148Y-131121325D01*
X172910175Y-131210175D01*
X172821325Y-131343148D01*
X172790125Y-131500000D01*
X172798001Y-131539595D01*
X172798000Y-133598000D01*
X138363207Y-133598000D01*
X134910663Y-130241361D01*
X134889825Y-130210175D01*
X134853886Y-130186162D01*
X134851839Y-130184171D01*
X134820995Y-130164184D01*
X134756852Y-130121325D01*
X134753969Y-130120752D01*
X134751504Y-130119154D01*
X134675704Y-130105184D01*
X134600000Y-130090125D01*
X134597114Y-130090699D01*
X134594228Y-130090167D01*
X134518858Y-130106265D01*
X134443149Y-130121325D01*
X134440705Y-130122958D01*
X134437831Y-130123572D01*
X134374282Y-130167340D01*
X134310176Y-130210175D01*
X134308545Y-130212616D01*
X134306122Y-130214285D01*
X134264141Y-130279071D01*
X134221326Y-130343148D01*
X134220753Y-130346028D01*
X134219154Y-130348496D01*
X134205171Y-130424365D01*
X134198001Y-130460410D01*
X134198001Y-130463267D01*
X134190167Y-130505772D01*
X134198001Y-130542449D01*
X134198000Y-133598000D01*
X131209473Y-133598000D01*
X131338838Y-126575282D01*
X149473000Y-126575282D01*
X149473000Y-126824718D01*
X149568455Y-127055167D01*
X149698001Y-127184713D01*
X149698000Y-129860415D01*
X149690126Y-129900000D01*
X149698000Y-129939585D01*
X149698000Y-129939589D01*
X149721325Y-130056851D01*
X149810175Y-130189825D01*
X149843738Y-130212251D01*
X150473000Y-130841514D01*
X150473000Y-131024718D01*
X150568455Y-131255167D01*
X150744833Y-131431545D01*
X150975282Y-131527000D01*
X151224718Y-131527000D01*
X151455167Y-131431545D01*
X151631545Y-131255167D01*
X151727000Y-131024718D01*
X151727000Y-130775282D01*
X151631545Y-130544833D01*
X151455167Y-130368455D01*
X151224718Y-130273000D01*
X151041514Y-130273000D01*
X150502000Y-129733487D01*
X150502000Y-128096890D01*
X174058524Y-128096890D01*
X174228355Y-128506924D01*
X174618642Y-128935183D01*
X175143108Y-129181486D01*
X175373000Y-129060819D01*
X175373000Y-127867000D01*
X175627000Y-127867000D01*
X175627000Y-129060819D01*
X175856892Y-129181486D01*
X176381358Y-128935183D01*
X176771645Y-128506924D01*
X176941476Y-128096890D01*
X176820155Y-127867000D01*
X175627000Y-127867000D01*
X175373000Y-127867000D01*
X174179845Y-127867000D01*
X174058524Y-128096890D01*
X150502000Y-128096890D01*
X150502000Y-127184712D01*
X150631545Y-127055167D01*
X150727000Y-126824718D01*
X150727000Y-126575282D01*
X150631545Y-126344833D01*
X150455167Y-126168455D01*
X150224718Y-126073000D01*
X149975282Y-126073000D01*
X149744833Y-126168455D01*
X149568455Y-126344833D01*
X149473000Y-126575282D01*
X131338838Y-126575282D01*
X131432042Y-121515608D01*
X164223000Y-121515608D01*
X164223000Y-121884392D01*
X164364127Y-122225103D01*
X164624897Y-122485873D01*
X164965608Y-122627000D01*
X165334392Y-122627000D01*
X165675103Y-122485873D01*
X165935873Y-122225103D01*
X166077000Y-121884392D01*
X166077000Y-121518290D01*
X167885945Y-119709345D01*
X167929945Y-119679945D01*
X168046423Y-119505625D01*
X168077000Y-119351903D01*
X168077000Y-119351899D01*
X168087323Y-119300000D01*
X168077000Y-119248101D01*
X168077000Y-116583976D01*
X168335873Y-116325103D01*
X168477000Y-115984392D01*
X168477000Y-115615608D01*
X168335873Y-115274897D01*
X168075103Y-115014127D01*
X167864760Y-114927000D01*
X168131710Y-114927000D01*
X169273000Y-116068291D01*
X169273001Y-122399565D01*
X169273000Y-122399570D01*
X169273000Y-122516024D01*
X169014127Y-122774897D01*
X168873000Y-123115608D01*
X168873000Y-123484392D01*
X169014127Y-123825103D01*
X169274897Y-124085873D01*
X169615608Y-124227000D01*
X169984392Y-124227000D01*
X170325103Y-124085873D01*
X170585873Y-123825103D01*
X170727000Y-123484392D01*
X170727000Y-123340878D01*
X170748255Y-123340878D01*
X170760040Y-123400902D01*
X171016232Y-123857136D01*
X171427514Y-124180600D01*
X171931275Y-124322052D01*
X172381206Y-124314198D01*
X172360124Y-123106382D01*
X170867977Y-123132428D01*
X170748255Y-123340878D01*
X170727000Y-123340878D01*
X170727000Y-123115608D01*
X170585873Y-122774897D01*
X170485297Y-122674321D01*
X170736620Y-122674321D01*
X170863544Y-122878466D01*
X172355691Y-122852421D01*
X172334608Y-121644605D01*
X171884677Y-121652458D01*
X171386160Y-121811405D01*
X170986416Y-122149026D01*
X170746303Y-122613922D01*
X170736620Y-122674321D01*
X170485297Y-122674321D01*
X170327000Y-122516024D01*
X170327000Y-121640172D01*
X172588570Y-121640172D01*
X172609652Y-122847988D01*
X174101799Y-122821942D01*
X174155792Y-122727933D01*
X174213034Y-122820001D01*
X175705181Y-122793956D01*
X175684098Y-121586140D01*
X175234167Y-121593993D01*
X174735650Y-121752940D01*
X174335906Y-122090561D01*
X174150919Y-122448725D01*
X173953544Y-122097234D01*
X173542262Y-121773770D01*
X173038501Y-121632318D01*
X172588570Y-121640172D01*
X170327000Y-121640172D01*
X170327000Y-115901899D01*
X170337323Y-115850000D01*
X170327000Y-115798101D01*
X170327000Y-115798097D01*
X170296423Y-115644375D01*
X170296423Y-115644374D01*
X170209346Y-115514055D01*
X170209343Y-115514052D01*
X170179945Y-115470055D01*
X170135948Y-115440657D01*
X168759345Y-114064055D01*
X168729945Y-114020055D01*
X168555625Y-113903577D01*
X168401903Y-113873000D01*
X168401898Y-113873000D01*
X168350000Y-113862677D01*
X168298102Y-113873000D01*
X167101899Y-113873000D01*
X167050000Y-113862677D01*
X166998101Y-113873000D01*
X166998097Y-113873000D01*
X166876387Y-113897209D01*
X166844374Y-113903577D01*
X166714055Y-113990654D01*
X166714052Y-113990657D01*
X166670055Y-114020055D01*
X166640657Y-114064053D01*
X165631710Y-115073000D01*
X165265608Y-115073000D01*
X164924897Y-115214127D01*
X164664127Y-115474897D01*
X164523000Y-115815608D01*
X164523000Y-116184392D01*
X164664127Y-116525103D01*
X164924897Y-116785873D01*
X165265608Y-116927000D01*
X165634392Y-116927000D01*
X165975103Y-116785873D01*
X166235873Y-116525103D01*
X166377000Y-116184392D01*
X166377000Y-115818290D01*
X166653630Y-115541660D01*
X166623000Y-115615608D01*
X166623000Y-115984392D01*
X166764127Y-116325103D01*
X167023000Y-116583976D01*
X167023001Y-119081709D01*
X165331710Y-120773000D01*
X164965608Y-120773000D01*
X164624897Y-120914127D01*
X164364127Y-121174897D01*
X164223000Y-121515608D01*
X131432042Y-121515608D01*
X131469627Y-119475282D01*
X152973000Y-119475282D01*
X152973000Y-119724718D01*
X153068455Y-119955167D01*
X153244833Y-120131545D01*
X153475282Y-120227000D01*
X153724718Y-120227000D01*
X153955167Y-120131545D01*
X154084712Y-120002000D01*
X156160415Y-120002000D01*
X156200000Y-120009874D01*
X156239585Y-120002000D01*
X156239590Y-120002000D01*
X156356852Y-119978675D01*
X156489825Y-119889825D01*
X156512251Y-119856262D01*
X156741513Y-119627000D01*
X156924718Y-119627000D01*
X157155167Y-119531545D01*
X157331545Y-119355167D01*
X157427000Y-119124718D01*
X157427000Y-118875282D01*
X157331545Y-118644833D01*
X157155167Y-118468455D01*
X156924718Y-118373000D01*
X156675282Y-118373000D01*
X156444833Y-118468455D01*
X156268455Y-118644833D01*
X156173000Y-118875282D01*
X156173000Y-119058487D01*
X156033487Y-119198000D01*
X154084712Y-119198000D01*
X153955167Y-119068455D01*
X153724718Y-118973000D01*
X153475282Y-118973000D01*
X153244833Y-119068455D01*
X153068455Y-119244833D01*
X152973000Y-119475282D01*
X131469627Y-119475282D01*
X131577091Y-113641483D01*
X170628959Y-113641483D01*
X170640744Y-113701507D01*
X170896936Y-114157741D01*
X171308218Y-114481205D01*
X171811979Y-114622657D01*
X172261910Y-114614803D01*
X172240828Y-113406987D01*
X170748681Y-113433033D01*
X170628959Y-113641483D01*
X131577091Y-113641483D01*
X131581492Y-113402554D01*
X172494789Y-113402554D01*
X172515872Y-114610370D01*
X172965803Y-114602517D01*
X173464320Y-114443570D01*
X173864064Y-114105949D01*
X174024865Y-113794614D01*
X174196433Y-114100148D01*
X174607715Y-114423612D01*
X175111476Y-114565064D01*
X175561407Y-114557210D01*
X175540325Y-113349394D01*
X174048178Y-113375440D01*
X174018451Y-113427198D01*
X173986936Y-113376509D01*
X172494789Y-113402554D01*
X131581492Y-113402554D01*
X131589370Y-112974926D01*
X170617324Y-112974926D01*
X170744248Y-113179071D01*
X172236395Y-113153026D01*
X172215312Y-111945210D01*
X171765381Y-111953063D01*
X171266864Y-112112010D01*
X170867120Y-112449631D01*
X170627007Y-112914527D01*
X170617324Y-112974926D01*
X131589370Y-112974926D01*
X131610726Y-111815608D01*
X153873000Y-111815608D01*
X153873000Y-112184392D01*
X154014127Y-112525103D01*
X154274897Y-112785873D01*
X154615608Y-112927000D01*
X154984392Y-112927000D01*
X155325103Y-112785873D01*
X155583976Y-112527000D01*
X159548102Y-112527000D01*
X159600000Y-112537323D01*
X159651898Y-112527000D01*
X159651903Y-112527000D01*
X159805625Y-112496423D01*
X159979945Y-112379945D01*
X160009345Y-112335945D01*
X160404513Y-111940777D01*
X172469274Y-111940777D01*
X172490356Y-113148593D01*
X173982503Y-113122547D01*
X174012230Y-113070789D01*
X174043745Y-113121478D01*
X175535892Y-113095433D01*
X175514809Y-111887617D01*
X175064878Y-111895470D01*
X174566361Y-112054417D01*
X174166617Y-112392038D01*
X174005816Y-112703373D01*
X173834248Y-112397839D01*
X173422966Y-112074375D01*
X172919205Y-111932923D01*
X172469274Y-111940777D01*
X160404513Y-111940777D01*
X160618291Y-111727000D01*
X160984392Y-111727000D01*
X161325103Y-111585873D01*
X161585873Y-111325103D01*
X161727000Y-110984392D01*
X161727000Y-110615608D01*
X161585873Y-110274897D01*
X161325103Y-110014127D01*
X160984392Y-109873000D01*
X160615608Y-109873000D01*
X160274897Y-110014127D01*
X160014127Y-110274897D01*
X159873000Y-110615608D01*
X159873000Y-110981709D01*
X159381710Y-111473000D01*
X155583976Y-111473000D01*
X155325103Y-111214127D01*
X154984392Y-111073000D01*
X154615608Y-111073000D01*
X154274897Y-111214127D01*
X154014127Y-111474897D01*
X153873000Y-111815608D01*
X131610726Y-111815608D01*
X131698049Y-107075282D01*
X137773000Y-107075282D01*
X137773000Y-107324718D01*
X137868455Y-107555167D01*
X138044833Y-107731545D01*
X138275282Y-107827000D01*
X138524718Y-107827000D01*
X138755167Y-107731545D01*
X138884712Y-107602000D01*
X140715288Y-107602000D01*
X140844833Y-107731545D01*
X141075282Y-107827000D01*
X141324718Y-107827000D01*
X141555167Y-107731545D01*
X141731545Y-107555167D01*
X141827000Y-107324718D01*
X141827000Y-107075282D01*
X141796646Y-107002000D01*
X142315288Y-107002000D01*
X142444833Y-107131545D01*
X142675282Y-107227000D01*
X142924718Y-107227000D01*
X143155167Y-107131545D01*
X143331545Y-106955167D01*
X143427000Y-106724718D01*
X143427000Y-106475282D01*
X143331545Y-106244833D01*
X143155167Y-106068455D01*
X142924718Y-105973000D01*
X142675282Y-105973000D01*
X142444833Y-106068455D01*
X142315288Y-106198000D01*
X139484712Y-106198000D01*
X139355167Y-106068455D01*
X139124718Y-105973000D01*
X138875282Y-105973000D01*
X138644833Y-106068455D01*
X138468455Y-106244833D01*
X138373000Y-106475282D01*
X138373000Y-106573000D01*
X138275282Y-106573000D01*
X138044833Y-106668455D01*
X137868455Y-106844833D01*
X137773000Y-107075282D01*
X131698049Y-107075282D01*
X131894662Y-96402000D01*
X150629929Y-96402000D01*
X155413251Y-108116263D01*
X155421325Y-108156852D01*
X155465146Y-108222435D01*
X155508720Y-108288363D01*
X155509591Y-108288952D01*
X155510175Y-108289825D01*
X155575891Y-108333735D01*
X155641245Y-108377880D01*
X155642272Y-108378090D01*
X155643148Y-108378675D01*
X155720765Y-108394114D01*
X155797938Y-108409869D01*
X155838566Y-108402000D01*
X161460410Y-108402000D01*
X161500000Y-108409875D01*
X161539590Y-108402000D01*
X161656852Y-108378675D01*
X161789825Y-108289825D01*
X161878675Y-108156852D01*
X161909875Y-108000000D01*
X161902000Y-107960410D01*
X161902000Y-106039590D01*
X161909875Y-106000000D01*
X161878675Y-105843148D01*
X161789825Y-105710175D01*
X161656852Y-105621325D01*
X161539590Y-105598000D01*
X161500000Y-105590125D01*
X161460410Y-105598000D01*
X158202000Y-105598000D01*
X158202000Y-96075282D01*
X163973000Y-96075282D01*
X163973000Y-96324718D01*
X164068455Y-96555167D01*
X164198000Y-96684712D01*
X164198001Y-97515287D01*
X164068455Y-97644833D01*
X163973000Y-97875282D01*
X163973000Y-98124718D01*
X164068455Y-98355167D01*
X164244833Y-98531545D01*
X164475282Y-98627000D01*
X164724718Y-98627000D01*
X164955167Y-98531545D01*
X165100000Y-98386712D01*
X165244833Y-98531545D01*
X165475282Y-98627000D01*
X165724718Y-98627000D01*
X165955167Y-98531545D01*
X166131545Y-98355167D01*
X166227000Y-98124718D01*
X166227000Y-97875282D01*
X166131545Y-97644833D01*
X166052320Y-97565608D01*
X168823000Y-97565608D01*
X168823000Y-97934392D01*
X168964127Y-98275103D01*
X169224897Y-98535873D01*
X169565608Y-98677000D01*
X169934392Y-98677000D01*
X170275103Y-98535873D01*
X170533976Y-98277000D01*
X175198102Y-98277000D01*
X175250000Y-98287323D01*
X175301898Y-98277000D01*
X175301903Y-98277000D01*
X175455625Y-98246423D01*
X175629945Y-98129945D01*
X175659345Y-98085945D01*
X176318291Y-97427000D01*
X176684392Y-97427000D01*
X177025103Y-97285873D01*
X177285873Y-97025103D01*
X177427000Y-96684392D01*
X177427000Y-96315608D01*
X177285873Y-95974897D01*
X177025103Y-95714127D01*
X176684392Y-95573000D01*
X176315608Y-95573000D01*
X175974897Y-95714127D01*
X175714127Y-95974897D01*
X175573000Y-96315608D01*
X175573000Y-96681709D01*
X175031710Y-97223000D01*
X170533976Y-97223000D01*
X170275103Y-96964127D01*
X169934392Y-96823000D01*
X169565608Y-96823000D01*
X169224897Y-96964127D01*
X168964127Y-97224897D01*
X168823000Y-97565608D01*
X166052320Y-97565608D01*
X166002000Y-97515288D01*
X166002000Y-96684712D01*
X166131545Y-96555167D01*
X166227000Y-96324718D01*
X166227000Y-96075282D01*
X166131545Y-95844833D01*
X165955167Y-95668455D01*
X165724718Y-95573000D01*
X165475282Y-95573000D01*
X165244833Y-95668455D01*
X165100000Y-95813288D01*
X164955167Y-95668455D01*
X164724718Y-95573000D01*
X164475282Y-95573000D01*
X164244833Y-95668455D01*
X164068455Y-95844833D01*
X163973000Y-96075282D01*
X158202000Y-96075282D01*
X158202000Y-85794730D01*
X158268455Y-85955167D01*
X158444833Y-86131545D01*
X158675282Y-86227000D01*
X158815561Y-86227000D01*
X158668726Y-86373835D01*
X158635166Y-86396259D01*
X158612742Y-86429819D01*
X158612739Y-86429822D01*
X158546316Y-86529232D01*
X158515116Y-86686084D01*
X158522991Y-86725674D01*
X158522990Y-89909669D01*
X158515116Y-89949254D01*
X158522990Y-89988839D01*
X158522990Y-89988843D01*
X158546315Y-90106105D01*
X158635165Y-90239079D01*
X158668728Y-90261505D01*
X159415387Y-91008165D01*
X159269833Y-91068455D01*
X159093455Y-91244833D01*
X158998000Y-91475282D01*
X158998000Y-91724718D01*
X159093455Y-91955167D01*
X159269833Y-92131545D01*
X159500282Y-92227000D01*
X159749718Y-92227000D01*
X159980167Y-92131545D01*
X160109712Y-92002000D01*
X163960415Y-92002000D01*
X164000000Y-92009874D01*
X164039585Y-92002000D01*
X164039590Y-92002000D01*
X164156852Y-91978675D01*
X164289825Y-91889825D01*
X164312251Y-91856262D01*
X164456262Y-91712251D01*
X164489825Y-91689825D01*
X164499542Y-91675282D01*
X166773000Y-91675282D01*
X166773000Y-91924718D01*
X166868455Y-92155167D01*
X167044833Y-92331545D01*
X167275282Y-92427000D01*
X167524718Y-92427000D01*
X167755167Y-92331545D01*
X167884712Y-92202000D01*
X168188962Y-92202000D01*
X168188963Y-93746150D01*
X168188962Y-93746155D01*
X168188962Y-93862609D01*
X167930089Y-94121482D01*
X167788962Y-94462193D01*
X167788962Y-94830977D01*
X167930089Y-95171688D01*
X168190859Y-95432458D01*
X168531570Y-95573585D01*
X168900354Y-95573585D01*
X169241065Y-95432458D01*
X169501835Y-95171688D01*
X169642962Y-94830977D01*
X169642962Y-94462193D01*
X169501835Y-94121482D01*
X169242962Y-93862609D01*
X169242962Y-91917859D01*
X169253285Y-91865961D01*
X169242962Y-91814064D01*
X169242962Y-91814059D01*
X169212385Y-91660337D01*
X169177000Y-91607380D01*
X169177000Y-85283976D01*
X169433976Y-85027000D01*
X173548109Y-85026998D01*
X173600011Y-85037322D01*
X173805636Y-84996421D01*
X173935955Y-84909345D01*
X173935959Y-84909341D01*
X173979956Y-84879943D01*
X174009354Y-84835946D01*
X174018300Y-84827000D01*
X174384402Y-84827000D01*
X174725113Y-84685873D01*
X174985883Y-84425103D01*
X175127010Y-84084392D01*
X175127010Y-83715608D01*
X174985883Y-83374897D01*
X174725113Y-83114127D01*
X174384402Y-82973000D01*
X174015618Y-82973000D01*
X173674907Y-83114127D01*
X173414137Y-83374897D01*
X173273010Y-83715608D01*
X173273010Y-83972999D01*
X169433977Y-83973001D01*
X169175103Y-83714127D01*
X168834392Y-83573000D01*
X168465608Y-83573000D01*
X168124897Y-83714127D01*
X167864127Y-83974897D01*
X167723000Y-84315608D01*
X167723000Y-84684392D01*
X167864127Y-85025103D01*
X168123000Y-85283976D01*
X168123001Y-91398000D01*
X167884712Y-91398000D01*
X167755167Y-91268455D01*
X167524718Y-91173000D01*
X167275282Y-91173000D01*
X167044833Y-91268455D01*
X166868455Y-91444833D01*
X166773000Y-91675282D01*
X164499542Y-91675282D01*
X164578675Y-91556852D01*
X164602000Y-91439590D01*
X164602000Y-91439585D01*
X164609874Y-91400000D01*
X164602000Y-91360415D01*
X164602000Y-90439584D01*
X164609874Y-90399999D01*
X164602000Y-90360414D01*
X164602000Y-90360410D01*
X164578675Y-90243148D01*
X164489825Y-90110175D01*
X164456262Y-90087749D01*
X164215124Y-89846611D01*
X164131545Y-89644833D01*
X163955167Y-89468455D01*
X163724718Y-89373000D01*
X163475282Y-89373000D01*
X163244833Y-89468455D01*
X163068455Y-89644833D01*
X162973000Y-89875282D01*
X162973000Y-90124718D01*
X163068455Y-90355167D01*
X163213288Y-90500000D01*
X163115288Y-90598000D01*
X161765084Y-90598000D01*
X161712400Y-90470810D01*
X161536022Y-90294432D01*
X161305573Y-90198977D01*
X161056137Y-90198977D01*
X160825688Y-90294432D01*
X160681980Y-90438140D01*
X160524718Y-90373000D01*
X160275282Y-90373000D01*
X160044833Y-90468455D01*
X160028769Y-90484519D01*
X159471249Y-89927000D01*
X162200000Y-89927000D01*
X162248601Y-89917333D01*
X162289803Y-89889803D01*
X162317333Y-89848601D01*
X162327000Y-89800000D01*
X162327000Y-86800000D01*
X162317333Y-86751399D01*
X162289803Y-86710197D01*
X162248601Y-86682667D01*
X162200000Y-86673000D01*
X159506587Y-86673000D01*
X160247102Y-85932485D01*
X160475282Y-86027000D01*
X160724718Y-86027000D01*
X160955167Y-85931545D01*
X161131545Y-85755167D01*
X161227000Y-85524718D01*
X161227000Y-85275282D01*
X161131545Y-85044833D01*
X160955167Y-84868455D01*
X160724718Y-84773000D01*
X160475282Y-84773000D01*
X160244833Y-84868455D01*
X160115288Y-84998000D01*
X159966514Y-84998000D01*
X159443796Y-84475282D01*
X161173000Y-84475282D01*
X161173000Y-84724718D01*
X161268455Y-84955167D01*
X161444833Y-85131545D01*
X161675282Y-85227000D01*
X161924718Y-85227000D01*
X162155167Y-85131545D01*
X162331545Y-84955167D01*
X162427000Y-84724718D01*
X162427000Y-84475282D01*
X162331545Y-84244833D01*
X162202000Y-84115288D01*
X162202000Y-82875282D01*
X169773000Y-82875282D01*
X169773000Y-83124718D01*
X169868455Y-83355167D01*
X170044833Y-83531545D01*
X170275282Y-83627000D01*
X170524718Y-83627000D01*
X170755167Y-83531545D01*
X170884712Y-83402000D01*
X171615278Y-83402000D01*
X171744823Y-83531545D01*
X171975272Y-83627000D01*
X172224708Y-83627000D01*
X172455157Y-83531545D01*
X172631535Y-83355167D01*
X172726990Y-83124718D01*
X172726990Y-82875282D01*
X172631535Y-82644833D01*
X172455157Y-82468455D01*
X172224708Y-82373000D01*
X171975272Y-82373000D01*
X171744823Y-82468455D01*
X171615278Y-82598000D01*
X170884712Y-82598000D01*
X170755167Y-82468455D01*
X170524718Y-82373000D01*
X170275282Y-82373000D01*
X170044833Y-82468455D01*
X169868455Y-82644833D01*
X169773000Y-82875282D01*
X162202000Y-82875282D01*
X162202000Y-82332857D01*
X162205167Y-82331545D01*
X162381545Y-82155167D01*
X162477000Y-81924718D01*
X162477000Y-81675282D01*
X162381545Y-81444833D01*
X162205167Y-81268455D01*
X161974718Y-81173000D01*
X161725282Y-81173000D01*
X161494833Y-81268455D01*
X161318455Y-81444833D01*
X161223000Y-81675282D01*
X161223000Y-81924718D01*
X161318455Y-82155167D01*
X161398001Y-82234713D01*
X161398000Y-84115288D01*
X161268455Y-84244833D01*
X161173000Y-84475282D01*
X159443796Y-84475282D01*
X159427000Y-84458487D01*
X159427000Y-84275282D01*
X159331545Y-84044833D01*
X159155167Y-83868455D01*
X158924718Y-83773000D01*
X158675282Y-83773000D01*
X158444833Y-83868455D01*
X158268455Y-84044833D01*
X158202000Y-84205270D01*
X158202000Y-80475282D01*
X165973000Y-80475282D01*
X165973000Y-80724718D01*
X166068455Y-80955167D01*
X166244833Y-81131545D01*
X166475282Y-81227000D01*
X166724718Y-81227000D01*
X166955167Y-81131545D01*
X167131545Y-80955167D01*
X167227000Y-80724718D01*
X167227000Y-80541513D01*
X167466513Y-80302000D01*
X168993003Y-80302000D01*
X168973000Y-80350292D01*
X168973000Y-80599728D01*
X169068455Y-80830177D01*
X169125783Y-80887505D01*
X169068455Y-80944833D01*
X168973000Y-81175282D01*
X168973000Y-81424718D01*
X169068455Y-81655167D01*
X169244833Y-81831545D01*
X169475282Y-81927000D01*
X169724718Y-81927000D01*
X169955167Y-81831545D01*
X170084712Y-81702000D01*
X174343507Y-81702000D01*
X175498000Y-82856494D01*
X175498001Y-86233485D01*
X173358487Y-88373000D01*
X173175282Y-88373000D01*
X172944833Y-88468455D01*
X172768455Y-88644833D01*
X172673000Y-88875282D01*
X172673000Y-89124718D01*
X172768455Y-89355167D01*
X172944833Y-89531545D01*
X173175282Y-89627000D01*
X173424718Y-89627000D01*
X173655167Y-89531545D01*
X173831545Y-89355167D01*
X173927000Y-89124718D01*
X173927000Y-88941513D01*
X174129405Y-88739108D01*
X174073000Y-88875282D01*
X174073000Y-89124718D01*
X174168455Y-89355167D01*
X174344833Y-89531545D01*
X174575282Y-89627000D01*
X174824718Y-89627000D01*
X175055167Y-89531545D01*
X175184712Y-89402000D01*
X176260415Y-89402000D01*
X176300000Y-89409874D01*
X176339585Y-89402000D01*
X176339590Y-89402000D01*
X176456852Y-89378675D01*
X176589825Y-89289825D01*
X176612251Y-89256262D01*
X176956262Y-88912251D01*
X176989825Y-88889825D01*
X177078675Y-88756852D01*
X177102000Y-88639590D01*
X177102000Y-88639586D01*
X177109874Y-88600001D01*
X177102000Y-88560416D01*
X177102000Y-82539584D01*
X177109874Y-82499999D01*
X177102000Y-82460414D01*
X177102000Y-82460410D01*
X177078675Y-82343148D01*
X177036551Y-82280105D01*
X177012251Y-82243737D01*
X177012249Y-82243735D01*
X176989825Y-82210175D01*
X176956264Y-82187751D01*
X174412251Y-79643738D01*
X174389825Y-79610175D01*
X174256852Y-79521325D01*
X174139590Y-79498000D01*
X174139585Y-79498000D01*
X174100000Y-79490126D01*
X174060415Y-79498000D01*
X167339584Y-79498000D01*
X167299999Y-79490126D01*
X167260414Y-79498000D01*
X167260410Y-79498000D01*
X167143148Y-79521325D01*
X167010175Y-79610175D01*
X166987749Y-79643738D01*
X166658487Y-79973000D01*
X166475282Y-79973000D01*
X166244833Y-80068455D01*
X166068455Y-80244833D01*
X165973000Y-80475282D01*
X158202000Y-80475282D01*
X158202000Y-79202000D01*
X161460410Y-79202000D01*
X161500000Y-79209875D01*
X161539590Y-79202000D01*
X161656852Y-79178675D01*
X161789825Y-79089825D01*
X161878675Y-78956852D01*
X161909875Y-78800000D01*
X161902000Y-78760410D01*
X161902000Y-76839590D01*
X161909875Y-76800000D01*
X161878675Y-76643148D01*
X161789825Y-76510175D01*
X161656852Y-76421325D01*
X161539590Y-76398000D01*
X161500000Y-76390125D01*
X161460410Y-76398000D01*
X155838566Y-76398000D01*
X155797938Y-76390131D01*
X155720765Y-76405886D01*
X155643148Y-76421325D01*
X155642272Y-76421910D01*
X155641245Y-76422120D01*
X155575891Y-76466265D01*
X155510175Y-76510175D01*
X155509591Y-76511048D01*
X155508720Y-76511637D01*
X155465146Y-76577565D01*
X155421325Y-76643148D01*
X155413251Y-76683737D01*
X150629929Y-88398000D01*
X131894968Y-88398000D01*
X131871302Y-87056892D01*
X136498514Y-87056892D01*
X136744817Y-87581358D01*
X137173076Y-87971645D01*
X137583110Y-88141476D01*
X137813000Y-88020155D01*
X137813000Y-86827000D01*
X136619181Y-86827000D01*
X136498514Y-87056892D01*
X131871302Y-87056892D01*
X131858706Y-86343108D01*
X136498514Y-86343108D01*
X136619181Y-86573000D01*
X137813000Y-86573000D01*
X137813000Y-85379845D01*
X138067000Y-85379845D01*
X138067000Y-86573000D01*
X138087000Y-86573000D01*
X138087000Y-86827000D01*
X138067000Y-86827000D01*
X138067000Y-88020155D01*
X138296890Y-88141476D01*
X138706924Y-87971645D01*
X139135183Y-87581358D01*
X139360023Y-87102594D01*
X139371291Y-87159242D01*
X139631431Y-87548569D01*
X140020758Y-87808709D01*
X140364080Y-87877000D01*
X140595920Y-87877000D01*
X140939242Y-87808709D01*
X141328569Y-87548569D01*
X141588709Y-87159242D01*
X141680058Y-86700000D01*
X141819942Y-86700000D01*
X141911291Y-87159242D01*
X142171431Y-87548569D01*
X142560758Y-87808709D01*
X142904080Y-87877000D01*
X143135920Y-87877000D01*
X143479242Y-87808709D01*
X143868569Y-87548569D01*
X144128709Y-87159242D01*
X144220058Y-86700000D01*
X144359942Y-86700000D01*
X144451291Y-87159242D01*
X144711431Y-87548569D01*
X145100758Y-87808709D01*
X145444080Y-87877000D01*
X145675920Y-87877000D01*
X146019242Y-87808709D01*
X146408569Y-87548569D01*
X146668709Y-87159242D01*
X146760058Y-86700000D01*
X146668709Y-86240758D01*
X146408569Y-85851431D01*
X146406428Y-85850000D01*
X146916594Y-85850000D01*
X146916594Y-87550000D01*
X146941973Y-87677589D01*
X147014246Y-87785754D01*
X147122411Y-87858027D01*
X147250000Y-87883406D01*
X148950000Y-87883406D01*
X149077589Y-87858027D01*
X149185754Y-87785754D01*
X149258027Y-87677589D01*
X149283406Y-87550000D01*
X149283406Y-85850000D01*
X149258027Y-85722411D01*
X149185754Y-85614246D01*
X149077589Y-85541973D01*
X148950000Y-85516594D01*
X147250000Y-85516594D01*
X147122411Y-85541973D01*
X147014246Y-85614246D01*
X146941973Y-85722411D01*
X146916594Y-85850000D01*
X146406428Y-85850000D01*
X146019242Y-85591291D01*
X145675920Y-85523000D01*
X145444080Y-85523000D01*
X145100758Y-85591291D01*
X144711431Y-85851431D01*
X144451291Y-86240758D01*
X144359942Y-86700000D01*
X144220058Y-86700000D01*
X144128709Y-86240758D01*
X143868569Y-85851431D01*
X143479242Y-85591291D01*
X143135920Y-85523000D01*
X142904080Y-85523000D01*
X142560758Y-85591291D01*
X142171431Y-85851431D01*
X141911291Y-86240758D01*
X141819942Y-86700000D01*
X141680058Y-86700000D01*
X141588709Y-86240758D01*
X141328569Y-85851431D01*
X140939242Y-85591291D01*
X140595920Y-85523000D01*
X140364080Y-85523000D01*
X140020758Y-85591291D01*
X139631431Y-85851431D01*
X139371291Y-86240758D01*
X139360023Y-86297406D01*
X139135183Y-85818642D01*
X138706924Y-85428355D01*
X138296890Y-85258524D01*
X138067000Y-85379845D01*
X137813000Y-85379845D01*
X137583110Y-85258524D01*
X137173076Y-85428355D01*
X136744817Y-85818642D01*
X136498514Y-86343108D01*
X131858706Y-86343108D01*
X131827108Y-84552532D01*
X138627073Y-84552532D01*
X138725736Y-84819387D01*
X139335461Y-85045908D01*
X139985460Y-85021856D01*
X140474264Y-84819387D01*
X140572927Y-84552532D01*
X145127073Y-84552532D01*
X145225736Y-84819387D01*
X145835461Y-85045908D01*
X146485460Y-85021856D01*
X146974264Y-84819387D01*
X147072927Y-84552532D01*
X146100000Y-83579605D01*
X145127073Y-84552532D01*
X140572927Y-84552532D01*
X139600000Y-83579605D01*
X138627073Y-84552532D01*
X131827108Y-84552532D01*
X131802100Y-83135461D01*
X137954092Y-83135461D01*
X137978144Y-83785460D01*
X138180613Y-84274264D01*
X138447468Y-84372927D01*
X139420395Y-83400000D01*
X139779605Y-83400000D01*
X140752532Y-84372927D01*
X141019387Y-84274264D01*
X141245908Y-83664539D01*
X141226331Y-83135461D01*
X144454092Y-83135461D01*
X144478144Y-83785460D01*
X144680613Y-84274264D01*
X144947468Y-84372927D01*
X145920395Y-83400000D01*
X146279605Y-83400000D01*
X147252532Y-84372927D01*
X147519387Y-84274264D01*
X147745908Y-83664539D01*
X147721856Y-83014540D01*
X147519387Y-82525736D01*
X147252532Y-82427073D01*
X146279605Y-83400000D01*
X145920395Y-83400000D01*
X144947468Y-82427073D01*
X144680613Y-82525736D01*
X144454092Y-83135461D01*
X141226331Y-83135461D01*
X141221856Y-83014540D01*
X141019387Y-82525736D01*
X140752532Y-82427073D01*
X139779605Y-83400000D01*
X139420395Y-83400000D01*
X138447468Y-82427073D01*
X138180613Y-82525736D01*
X137954092Y-83135461D01*
X131802100Y-83135461D01*
X131786430Y-82247468D01*
X138627073Y-82247468D01*
X139600000Y-83220395D01*
X140572927Y-82247468D01*
X145127073Y-82247468D01*
X146100000Y-83220395D01*
X147072927Y-82247468D01*
X146974264Y-81980613D01*
X146364539Y-81754092D01*
X145714540Y-81778144D01*
X145225736Y-81980613D01*
X145127073Y-82247468D01*
X140572927Y-82247468D01*
X140474264Y-81980613D01*
X139864539Y-81754092D01*
X139214540Y-81778144D01*
X138725736Y-81980613D01*
X138627073Y-82247468D01*
X131786430Y-82247468D01*
X131752698Y-80336079D01*
X131759875Y-80300000D01*
X131751301Y-80256896D01*
X131751238Y-80253324D01*
X131743593Y-80218144D01*
X131728675Y-80143148D01*
X131726629Y-80140087D01*
X131725848Y-80136491D01*
X131682293Y-80073733D01*
X131639825Y-80010175D01*
X131636764Y-80008129D01*
X131634666Y-80005107D01*
X131570418Y-79963798D01*
X131506852Y-79921325D01*
X131503241Y-79920607D01*
X131500146Y-79918617D01*
X131424966Y-79905037D01*
X131389590Y-79898000D01*
X131386011Y-79898000D01*
X131342769Y-79890189D01*
X131306827Y-79898000D01*
X127239590Y-79898000D01*
X127200000Y-79890125D01*
X127160410Y-79898000D01*
X127043148Y-79921325D01*
X126910175Y-80010175D01*
X126821325Y-80143148D01*
X126790125Y-80300000D01*
X126798001Y-80339594D01*
X126798001Y-80398000D01*
X125539590Y-80398000D01*
X125500000Y-80390125D01*
X125460410Y-80398000D01*
X125343148Y-80421325D01*
X125210175Y-80510175D01*
X125121325Y-80643148D01*
X125090125Y-80800000D01*
X125098000Y-80839589D01*
X125098001Y-88398000D01*
X102702880Y-88398000D01*
X102702880Y-86515608D01*
X104573000Y-86515608D01*
X104573000Y-86884392D01*
X104714127Y-87225103D01*
X104974897Y-87485873D01*
X105315608Y-87627000D01*
X105681709Y-87627000D01*
X105890656Y-87835947D01*
X105920055Y-87879945D01*
X105964052Y-87909343D01*
X105964055Y-87909346D01*
X106094374Y-87996423D01*
X106126387Y-88002791D01*
X106248097Y-88027000D01*
X106248101Y-88027000D01*
X106300000Y-88037323D01*
X106351899Y-88027000D01*
X122148102Y-88027000D01*
X122200000Y-88037323D01*
X122251898Y-88027000D01*
X122251903Y-88027000D01*
X122405625Y-87996423D01*
X122579945Y-87879945D01*
X122609345Y-87835945D01*
X123435947Y-87009344D01*
X123479945Y-86979945D01*
X123509343Y-86935948D01*
X123509346Y-86935945D01*
X123572226Y-86841838D01*
X123596423Y-86805625D01*
X123627000Y-86651903D01*
X123627000Y-86651899D01*
X123637323Y-86600001D01*
X123627000Y-86548103D01*
X123627000Y-85151899D01*
X123637323Y-85100000D01*
X123627000Y-85048101D01*
X123627000Y-85048097D01*
X123596423Y-84894375D01*
X123579104Y-84868455D01*
X123509346Y-84764056D01*
X123509345Y-84764055D01*
X123479945Y-84720055D01*
X123435945Y-84690655D01*
X123396559Y-84651269D01*
X123428473Y-84629945D01*
X123457874Y-84585944D01*
X124170023Y-83873795D01*
X124214023Y-83844395D01*
X124330501Y-83670075D01*
X124361078Y-83516353D01*
X124361078Y-83516349D01*
X124371401Y-83464451D01*
X124361078Y-83412553D01*
X124361078Y-75053534D01*
X124371401Y-75001635D01*
X124361078Y-74949736D01*
X124361078Y-74949732D01*
X124330501Y-74796010D01*
X124330501Y-74796009D01*
X124243424Y-74665691D01*
X124243423Y-74665690D01*
X124214023Y-74621690D01*
X124170023Y-74592290D01*
X123963069Y-74385336D01*
X123963067Y-74385333D01*
X123880722Y-74302988D01*
X123880722Y-73936887D01*
X123739595Y-73596176D01*
X123478825Y-73335406D01*
X123138114Y-73194279D01*
X122769330Y-73194279D01*
X122428619Y-73335406D01*
X122167849Y-73596176D01*
X122026722Y-73936887D01*
X122026722Y-74305671D01*
X122167849Y-74646382D01*
X122428619Y-74907152D01*
X122769330Y-75048279D01*
X123135431Y-75048279D01*
X123217776Y-75130624D01*
X123217779Y-75130626D01*
X123307079Y-75219926D01*
X123307078Y-83246160D01*
X122907107Y-83646131D01*
X122725103Y-83464127D01*
X122384392Y-83323000D01*
X122015608Y-83323000D01*
X121674897Y-83464127D01*
X121414127Y-83724897D01*
X121273000Y-84065608D01*
X121273000Y-84434392D01*
X121414127Y-84775103D01*
X121674897Y-85035873D01*
X122015608Y-85177000D01*
X122384392Y-85177000D01*
X122417851Y-85163141D01*
X122573000Y-85318290D01*
X122573001Y-86381708D01*
X121981710Y-86973000D01*
X106518291Y-86973000D01*
X106427000Y-86881709D01*
X106427000Y-86515608D01*
X106285873Y-86174897D01*
X106025103Y-85914127D01*
X105684392Y-85773000D01*
X105315608Y-85773000D01*
X104974897Y-85914127D01*
X104714127Y-86174897D01*
X104573000Y-86515608D01*
X102702880Y-86515608D01*
X102702880Y-80839589D01*
X102710755Y-80800000D01*
X102679555Y-80643148D01*
X102590705Y-80510175D01*
X102457732Y-80421325D01*
X102340470Y-80398000D01*
X102300880Y-80390125D01*
X102261290Y-80398000D01*
X100994920Y-80398000D01*
X100979266Y-79615275D01*
X109434331Y-79615275D01*
X109496169Y-79851042D01*
X109997122Y-80027419D01*
X110527440Y-79998664D01*
X110883831Y-79851042D01*
X110945669Y-79615275D01*
X110190000Y-78859605D01*
X109434331Y-79615275D01*
X100979266Y-79615275D01*
X100956703Y-78487122D01*
X108842581Y-78487122D01*
X108871336Y-79017440D01*
X109018958Y-79373831D01*
X109254725Y-79435669D01*
X110010395Y-78680000D01*
X110369605Y-78680000D01*
X111125275Y-79435669D01*
X111187065Y-79419462D01*
X111278251Y-79510648D01*
X111655717Y-79667000D01*
X112064283Y-79667000D01*
X112441749Y-79510648D01*
X112730648Y-79221749D01*
X112887000Y-78844283D01*
X112887000Y-78435717D01*
X112730648Y-78058251D01*
X112503671Y-77831274D01*
X112601749Y-77790648D01*
X112890648Y-77501749D01*
X113047000Y-77124283D01*
X113047000Y-76715717D01*
X112890648Y-76338251D01*
X112601749Y-76049352D01*
X112224283Y-75893000D01*
X111815717Y-75893000D01*
X111438251Y-76049352D01*
X111149352Y-76338251D01*
X110993000Y-76715717D01*
X110993000Y-77124283D01*
X111149352Y-77501749D01*
X111376329Y-77728726D01*
X111278251Y-77769352D01*
X110989352Y-78058251D01*
X110987936Y-78061670D01*
X110369605Y-78680000D01*
X110010395Y-78680000D01*
X109254725Y-77924331D01*
X109018958Y-77986169D01*
X108842581Y-78487122D01*
X100956703Y-78487122D01*
X100941856Y-77744725D01*
X109434331Y-77744725D01*
X110190000Y-78500395D01*
X110945669Y-77744725D01*
X110883831Y-77508958D01*
X110382878Y-77332581D01*
X109852560Y-77361336D01*
X109496169Y-77508958D01*
X109434331Y-77744725D01*
X100941856Y-77744725D01*
X100845854Y-72944652D01*
X102815443Y-72944652D01*
X102815443Y-73194088D01*
X102910898Y-73424537D01*
X103045622Y-73559261D01*
X103063768Y-73650485D01*
X103152618Y-73783459D01*
X103186181Y-73805885D01*
X103621792Y-74241496D01*
X103518455Y-74344833D01*
X103423000Y-74575282D01*
X103423000Y-74824718D01*
X103518455Y-75055167D01*
X103694833Y-75231545D01*
X103925282Y-75327000D01*
X104174718Y-75327000D01*
X104405167Y-75231545D01*
X104581545Y-75055167D01*
X104677000Y-74824718D01*
X104677000Y-74575282D01*
X104581545Y-74344833D01*
X104452000Y-74215288D01*
X104452000Y-74140775D01*
X104459874Y-74101190D01*
X104452000Y-74061605D01*
X104452000Y-74061601D01*
X104428675Y-73944339D01*
X104380546Y-73872309D01*
X104362251Y-73844928D01*
X104362249Y-73844926D01*
X104339825Y-73811366D01*
X104306264Y-73788941D01*
X103957924Y-73440601D01*
X103973988Y-73424537D01*
X104069443Y-73194088D01*
X104069443Y-72944652D01*
X103973988Y-72714203D01*
X103797610Y-72537825D01*
X103567161Y-72442370D01*
X103317725Y-72442370D01*
X103087276Y-72537825D01*
X102910898Y-72714203D01*
X102815443Y-72944652D01*
X100845854Y-72944652D01*
X100799467Y-70625282D01*
X103073000Y-70625282D01*
X103073000Y-70874718D01*
X103168455Y-71105167D01*
X103344833Y-71281545D01*
X103575282Y-71377000D01*
X103758487Y-71377000D01*
X105906852Y-73525365D01*
X105929276Y-73558926D01*
X105962836Y-73581350D01*
X105962838Y-73581352D01*
X106005525Y-73609874D01*
X106062249Y-73647776D01*
X106179511Y-73671101D01*
X106179516Y-73671101D01*
X106219101Y-73678975D01*
X106258686Y-73671101D01*
X111441897Y-73671101D01*
X111353000Y-73885717D01*
X111353000Y-74294283D01*
X111509352Y-74671749D01*
X111798251Y-74960648D01*
X112175717Y-75117000D01*
X112584283Y-75117000D01*
X112961749Y-74960648D01*
X113250648Y-74671749D01*
X113407000Y-74294283D01*
X113407000Y-73885717D01*
X113250648Y-73508251D01*
X113019026Y-73276629D01*
X113081749Y-73250648D01*
X113370648Y-72961749D01*
X113527000Y-72584283D01*
X113527000Y-72175717D01*
X113370648Y-71798251D01*
X113172397Y-71600000D01*
X113450648Y-71321749D01*
X113607000Y-70944283D01*
X113607000Y-70535717D01*
X113532545Y-70355968D01*
X115691428Y-68197086D01*
X115663000Y-68265717D01*
X115663000Y-68674283D01*
X115819352Y-69051749D01*
X116108251Y-69340648D01*
X116187042Y-69373284D01*
X116148251Y-69389352D01*
X115859352Y-69678251D01*
X115703000Y-70055717D01*
X115703000Y-70464283D01*
X115859352Y-70841749D01*
X116077603Y-71060000D01*
X115949558Y-71188045D01*
X115920648Y-71118251D01*
X115631749Y-70829352D01*
X115254283Y-70673000D01*
X114845717Y-70673000D01*
X114468251Y-70829352D01*
X114179352Y-71118251D01*
X114023000Y-71495717D01*
X114023000Y-71904283D01*
X114179352Y-72281749D01*
X114468251Y-72570648D01*
X114845717Y-72727000D01*
X114960603Y-72727000D01*
X114819352Y-72868251D01*
X114663000Y-73245717D01*
X114663000Y-73654283D01*
X114819352Y-74031749D01*
X115108251Y-74320648D01*
X115149761Y-74337842D01*
X114899352Y-74588251D01*
X114743000Y-74965717D01*
X114743000Y-75374283D01*
X114899352Y-75751749D01*
X115188251Y-76040648D01*
X115250974Y-76066629D01*
X114979352Y-76338251D01*
X114823000Y-76715717D01*
X114823000Y-77124283D01*
X114979352Y-77501749D01*
X115268251Y-77790648D01*
X115309761Y-77807842D01*
X115059352Y-78058251D01*
X114903000Y-78435717D01*
X114903000Y-78844283D01*
X115059352Y-79221749D01*
X115109529Y-79271926D01*
X115040439Y-79271926D01*
X115012251Y-79243738D01*
X114989825Y-79210175D01*
X114856852Y-79121325D01*
X114739590Y-79098000D01*
X114739585Y-79098000D01*
X114700000Y-79090126D01*
X114660415Y-79098000D01*
X113939584Y-79098000D01*
X113899999Y-79090126D01*
X113860414Y-79098000D01*
X113860410Y-79098000D01*
X113743148Y-79121325D01*
X113713705Y-79140998D01*
X113643737Y-79187749D01*
X113643735Y-79187751D01*
X113610175Y-79210175D01*
X113587750Y-79243736D01*
X113007495Y-79823991D01*
X112884392Y-79773000D01*
X112515608Y-79773000D01*
X112174897Y-79914127D01*
X111914127Y-80174897D01*
X111773000Y-80515608D01*
X111773000Y-80884392D01*
X111914127Y-81225103D01*
X112174897Y-81485873D01*
X112515608Y-81627000D01*
X112884392Y-81627000D01*
X113225103Y-81485873D01*
X113485873Y-81225103D01*
X113589336Y-80975322D01*
X113774897Y-81160883D01*
X114115608Y-81302010D01*
X114481710Y-81302010D01*
X115340657Y-82160958D01*
X115370055Y-82204955D01*
X115414052Y-82234353D01*
X115414055Y-82234356D01*
X115414058Y-82234358D01*
X116972984Y-83793285D01*
X116972984Y-84216024D01*
X116714111Y-84474897D01*
X116572984Y-84815608D01*
X116572984Y-85184392D01*
X116714111Y-85525103D01*
X116974881Y-85785873D01*
X117315592Y-85927000D01*
X117684376Y-85927000D01*
X118025087Y-85785873D01*
X118285857Y-85525103D01*
X118426984Y-85184392D01*
X118426984Y-84815608D01*
X118285857Y-84474897D01*
X118026984Y-84216024D01*
X118026984Y-83626891D01*
X118037307Y-83574993D01*
X118026984Y-83523095D01*
X118026984Y-83523091D01*
X117996407Y-83369369D01*
X117943257Y-83289825D01*
X117909330Y-83239049D01*
X117909327Y-83239046D01*
X117879929Y-83195049D01*
X117835932Y-83165651D01*
X116597280Y-81927000D01*
X116934392Y-81927000D01*
X117275103Y-81785873D01*
X117535873Y-81525103D01*
X117677000Y-81184392D01*
X117677000Y-80815608D01*
X117535873Y-80474897D01*
X117275103Y-80214127D01*
X116941456Y-80075926D01*
X119776453Y-80075926D01*
X119816038Y-80083800D01*
X119855623Y-80075926D01*
X119855628Y-80075926D01*
X119972890Y-80052601D01*
X120050225Y-80000927D01*
X120240755Y-80000927D01*
X120471204Y-79905472D01*
X120647582Y-79729094D01*
X120743037Y-79498645D01*
X120743037Y-79249209D01*
X120647582Y-79018760D01*
X120471204Y-78842382D01*
X120240755Y-78746927D01*
X119991319Y-78746927D01*
X119760870Y-78842382D01*
X119584492Y-79018760D01*
X119489037Y-79249209D01*
X119489037Y-79271926D01*
X118872838Y-79271926D01*
X119027419Y-78832878D01*
X118998664Y-78302560D01*
X118851042Y-77946169D01*
X118615275Y-77884331D01*
X117859605Y-78640000D01*
X117873748Y-78654142D01*
X117694142Y-78833748D01*
X117680000Y-78819605D01*
X117665858Y-78833748D01*
X117486252Y-78654142D01*
X117500395Y-78640000D01*
X116744725Y-77884331D01*
X116651246Y-77908849D01*
X116511749Y-77769352D01*
X116470239Y-77752158D01*
X116517672Y-77704725D01*
X116924331Y-77704725D01*
X117680000Y-78460395D01*
X118435669Y-77704725D01*
X118373831Y-77468958D01*
X117872878Y-77292581D01*
X117342560Y-77321336D01*
X116986169Y-77468958D01*
X116924331Y-77704725D01*
X116517672Y-77704725D01*
X116720648Y-77501749D01*
X116877000Y-77124283D01*
X116877000Y-76715717D01*
X116802545Y-76535968D01*
X124098764Y-69239750D01*
X124150292Y-69261094D01*
X124399728Y-69261094D01*
X124630177Y-69165639D01*
X124806555Y-68989261D01*
X124902010Y-68758812D01*
X124902010Y-68509376D01*
X124806555Y-68278927D01*
X124630177Y-68102549D01*
X124399728Y-68007094D01*
X124150292Y-68007094D01*
X123919843Y-68102549D01*
X123743465Y-68278927D01*
X123648010Y-68509376D01*
X123648010Y-68553476D01*
X116775643Y-75425844D01*
X116797000Y-75374283D01*
X116797000Y-74965717D01*
X116640648Y-74588251D01*
X116351749Y-74299352D01*
X116310239Y-74282158D01*
X116560648Y-74031749D01*
X116717000Y-73654283D01*
X116717000Y-73245717D01*
X116584983Y-72927000D01*
X116894283Y-72927000D01*
X117271749Y-72770648D01*
X117560648Y-72481749D01*
X117717000Y-72104283D01*
X117717000Y-71695717D01*
X117560648Y-71318251D01*
X117342397Y-71100000D01*
X117600648Y-70841749D01*
X117757000Y-70464283D01*
X117757000Y-70055717D01*
X117600648Y-69678251D01*
X117311749Y-69389352D01*
X117232958Y-69356716D01*
X117271749Y-69340648D01*
X117560648Y-69051749D01*
X117717000Y-68674283D01*
X117717000Y-68265717D01*
X117560648Y-67888251D01*
X117274397Y-67602000D01*
X123860415Y-67602000D01*
X123900000Y-67609874D01*
X123939585Y-67602000D01*
X123939590Y-67602000D01*
X124056852Y-67578675D01*
X124189825Y-67489825D01*
X124212251Y-67456262D01*
X124493231Y-67175282D01*
X131573000Y-67175282D01*
X131573000Y-67424718D01*
X131668455Y-67655167D01*
X131798000Y-67784712D01*
X131798001Y-74870215D01*
X131790126Y-74909805D01*
X131821326Y-75066657D01*
X131887749Y-75166067D01*
X131887752Y-75166070D01*
X131910176Y-75199630D01*
X131943736Y-75222054D01*
X134495385Y-77773704D01*
X134495385Y-77890676D01*
X134143736Y-78242326D01*
X134110176Y-78264750D01*
X134087752Y-78298310D01*
X134087749Y-78298313D01*
X134021326Y-78397723D01*
X133990126Y-78554575D01*
X133998001Y-78594165D01*
X133998000Y-80115288D01*
X133868455Y-80244833D01*
X133773000Y-80475282D01*
X133773000Y-80724718D01*
X133868455Y-80955167D01*
X134044833Y-81131545D01*
X134275282Y-81227000D01*
X134524718Y-81227000D01*
X134755167Y-81131545D01*
X134828355Y-81058357D01*
X134868455Y-81155167D01*
X135044833Y-81331545D01*
X135275282Y-81427000D01*
X135524718Y-81427000D01*
X135755167Y-81331545D01*
X135931545Y-81155167D01*
X135989352Y-81015608D01*
X141073000Y-81015608D01*
X141073000Y-81384392D01*
X141214127Y-81725103D01*
X141474897Y-81985873D01*
X141815608Y-82127000D01*
X142184392Y-82127000D01*
X142525103Y-81985873D01*
X142785873Y-81725103D01*
X142927000Y-81384392D01*
X142927000Y-81018290D01*
X143735947Y-80209344D01*
X143779945Y-80179945D01*
X143809343Y-80135948D01*
X143809346Y-80135945D01*
X143872226Y-80041838D01*
X143896423Y-80005625D01*
X143927000Y-79851903D01*
X143927000Y-79851898D01*
X143937323Y-79800000D01*
X143927000Y-79748102D01*
X143927000Y-79583976D01*
X144185873Y-79325103D01*
X144327000Y-78984392D01*
X144327000Y-78615608D01*
X144185873Y-78274897D01*
X143927000Y-78016024D01*
X143927000Y-76252532D01*
X145127073Y-76252532D01*
X145225736Y-76519387D01*
X145835461Y-76745908D01*
X146485460Y-76721856D01*
X146974264Y-76519387D01*
X147072927Y-76252532D01*
X146100000Y-75279605D01*
X145127073Y-76252532D01*
X143927000Y-76252532D01*
X143927000Y-74835461D01*
X144454092Y-74835461D01*
X144478144Y-75485460D01*
X144680613Y-75974264D01*
X144947468Y-76072927D01*
X145920395Y-75100000D01*
X146279605Y-75100000D01*
X147252532Y-76072927D01*
X147519387Y-75974264D01*
X147745908Y-75364539D01*
X147721856Y-74714540D01*
X147519387Y-74225736D01*
X147252532Y-74127073D01*
X146279605Y-75100000D01*
X145920395Y-75100000D01*
X144947468Y-74127073D01*
X144680613Y-74225736D01*
X144454092Y-74835461D01*
X143927000Y-74835461D01*
X143927000Y-74218290D01*
X144418291Y-73727000D01*
X145208586Y-73727000D01*
X145127073Y-73947468D01*
X146100000Y-74920395D01*
X147072927Y-73947468D01*
X146991414Y-73727000D01*
X147348102Y-73727000D01*
X147400000Y-73737323D01*
X147451898Y-73727000D01*
X147451903Y-73727000D01*
X147605625Y-73696423D01*
X147779945Y-73579945D01*
X147809345Y-73535945D01*
X148598001Y-72747289D01*
X148598000Y-74515288D01*
X148468455Y-74644833D01*
X148373000Y-74875282D01*
X148373000Y-75124718D01*
X148468455Y-75355167D01*
X148644833Y-75531545D01*
X148825222Y-75606265D01*
X146713642Y-77717845D01*
X146363957Y-77573000D01*
X145836043Y-77573000D01*
X145348315Y-77775024D01*
X144975024Y-78148315D01*
X144773000Y-78636043D01*
X144773000Y-79163957D01*
X144975024Y-79651685D01*
X145348315Y-80024976D01*
X145836043Y-80227000D01*
X146363957Y-80227000D01*
X146851685Y-80024976D01*
X147224976Y-79651685D01*
X147427000Y-79163957D01*
X147427000Y-78636043D01*
X147282155Y-78286358D01*
X149998001Y-75570512D01*
X149998000Y-79715288D01*
X149868455Y-79844833D01*
X149800000Y-80010098D01*
X149731545Y-79844833D01*
X149555167Y-79668455D01*
X149324718Y-79573000D01*
X149075282Y-79573000D01*
X148844833Y-79668455D01*
X148668455Y-79844833D01*
X148573000Y-80075282D01*
X148573000Y-80324718D01*
X148668455Y-80555167D01*
X148844833Y-80731545D01*
X149075282Y-80827000D01*
X149258487Y-80827000D01*
X149798001Y-81366515D01*
X149798001Y-81515287D01*
X149668455Y-81644833D01*
X149573000Y-81875282D01*
X149573000Y-82124718D01*
X149668455Y-82355167D01*
X149844833Y-82531545D01*
X150075282Y-82627000D01*
X150324718Y-82627000D01*
X150555167Y-82531545D01*
X150731545Y-82355167D01*
X150827000Y-82124718D01*
X150827000Y-81875282D01*
X150731545Y-81644833D01*
X150602000Y-81515288D01*
X150602000Y-81239586D01*
X150609874Y-81200000D01*
X150602000Y-81160413D01*
X150602000Y-81160410D01*
X150578675Y-81043148D01*
X150578675Y-81043147D01*
X150512251Y-80943737D01*
X150512249Y-80943735D01*
X150489825Y-80910175D01*
X150456264Y-80887750D01*
X150395514Y-80827000D01*
X150524718Y-80827000D01*
X150755167Y-80731545D01*
X150900000Y-80586712D01*
X151038239Y-80724951D01*
X151268688Y-80820406D01*
X151518124Y-80820406D01*
X151748573Y-80724951D01*
X151924951Y-80548573D01*
X152020406Y-80318124D01*
X152020406Y-80068688D01*
X151924951Y-79838239D01*
X151795406Y-79708694D01*
X151795406Y-79336191D01*
X151797990Y-79338775D01*
X151797990Y-79521979D01*
X151893445Y-79752428D01*
X152069823Y-79928806D01*
X152300272Y-80024261D01*
X152549708Y-80024261D01*
X152598000Y-80004258D01*
X152598000Y-80433486D01*
X151658487Y-81373000D01*
X151475282Y-81373000D01*
X151244833Y-81468455D01*
X151068455Y-81644833D01*
X150973000Y-81875282D01*
X150973000Y-82124718D01*
X151068455Y-82355167D01*
X151244833Y-82531545D01*
X151475282Y-82627000D01*
X151724718Y-82627000D01*
X151955167Y-82531545D01*
X152131545Y-82355167D01*
X152227000Y-82124718D01*
X152227000Y-81941513D01*
X153256265Y-80912249D01*
X153289825Y-80889825D01*
X153312249Y-80856265D01*
X153312251Y-80856263D01*
X153373341Y-80764835D01*
X153378675Y-80756852D01*
X153402000Y-80639590D01*
X153402000Y-80639585D01*
X153409874Y-80600000D01*
X153402000Y-80560415D01*
X153402000Y-75566513D01*
X154593736Y-74374778D01*
X154668455Y-74555167D01*
X154844833Y-74731545D01*
X155075282Y-74827000D01*
X155173000Y-74827000D01*
X155173000Y-74924718D01*
X155268455Y-75155167D01*
X155444833Y-75331545D01*
X155562371Y-75380231D01*
X155523000Y-75475282D01*
X155523000Y-75724718D01*
X155618455Y-75955167D01*
X155794833Y-76131545D01*
X156025282Y-76227000D01*
X156274718Y-76227000D01*
X156505167Y-76131545D01*
X156681545Y-75955167D01*
X156777000Y-75724718D01*
X156777000Y-75541513D01*
X157066502Y-75252012D01*
X169084530Y-75252012D01*
X169044833Y-75268455D01*
X168868455Y-75444833D01*
X168773000Y-75675282D01*
X168773000Y-75924718D01*
X168868455Y-76155167D01*
X169044833Y-76331545D01*
X169275282Y-76427000D01*
X169524718Y-76427000D01*
X169755167Y-76331545D01*
X169889891Y-76196821D01*
X169981116Y-76178675D01*
X170114089Y-76089825D01*
X170136515Y-76056262D01*
X173972999Y-72219779D01*
X173972999Y-73173000D01*
X173715608Y-73173000D01*
X173374897Y-73314127D01*
X173114127Y-73574897D01*
X172973000Y-73915608D01*
X172973000Y-74284392D01*
X173114127Y-74625103D01*
X173374897Y-74885873D01*
X173715608Y-75027000D01*
X174084392Y-75027000D01*
X174425103Y-74885873D01*
X174685873Y-74625103D01*
X174827000Y-74284392D01*
X174827000Y-73918291D01*
X174835947Y-73909344D01*
X174879944Y-73879946D01*
X174909342Y-73835949D01*
X174909345Y-73835946D01*
X174996422Y-73705627D01*
X175007929Y-73647775D01*
X175026999Y-73551904D01*
X175026999Y-73551900D01*
X175037322Y-73500001D01*
X175026999Y-73448102D01*
X175026999Y-66351898D01*
X175037322Y-66299999D01*
X175026999Y-66248100D01*
X175026999Y-66248096D01*
X174996422Y-66094374D01*
X174969661Y-66054323D01*
X174909345Y-65964055D01*
X174909344Y-65964054D01*
X174879944Y-65920054D01*
X174835944Y-65890654D01*
X174609345Y-65664055D01*
X174579945Y-65620055D01*
X174405625Y-65503577D01*
X174251903Y-65473000D01*
X174251898Y-65473000D01*
X174200000Y-65462677D01*
X174148102Y-65473000D01*
X172851897Y-65473000D01*
X172799999Y-65462677D01*
X172748101Y-65473000D01*
X172748097Y-65473000D01*
X172637502Y-65494999D01*
X172584392Y-65473000D01*
X172215608Y-65473000D01*
X171874897Y-65614127D01*
X171614127Y-65874897D01*
X171473000Y-66215608D01*
X171473000Y-66584392D01*
X171614127Y-66925103D01*
X171874897Y-67185873D01*
X172215608Y-67327000D01*
X172584392Y-67327000D01*
X172925103Y-67185873D01*
X173172989Y-66937987D01*
X173172989Y-67124718D01*
X173268444Y-67355167D01*
X173403168Y-67489891D01*
X173421314Y-67581115D01*
X173510164Y-67714089D01*
X173543727Y-67736515D01*
X173622989Y-67815777D01*
X173622988Y-71432762D01*
X172428128Y-72627622D01*
X172428128Y-70784235D01*
X172557673Y-70654690D01*
X172653128Y-70424241D01*
X172653128Y-70174805D01*
X172557673Y-69944356D01*
X172381295Y-69767978D01*
X172150846Y-69672523D01*
X171901410Y-69672523D01*
X171670961Y-69767978D01*
X171527375Y-69911564D01*
X171527375Y-69768167D01*
X171431920Y-69537718D01*
X171255542Y-69361340D01*
X171025093Y-69265885D01*
X170775657Y-69265885D01*
X170727373Y-69285885D01*
X170727373Y-68326990D01*
X170813830Y-68326990D01*
X171044279Y-68231535D01*
X171220657Y-68055157D01*
X171316112Y-67824708D01*
X171316112Y-67575272D01*
X171220657Y-67344823D01*
X171044279Y-67168445D01*
X170813830Y-67072990D01*
X170564394Y-67072990D01*
X170333945Y-67168445D01*
X170157567Y-67344823D01*
X170062112Y-67575272D01*
X170062112Y-67756155D01*
X170035549Y-67773904D01*
X170013125Y-67807464D01*
X170013122Y-67807467D01*
X169946699Y-67906877D01*
X169915499Y-68063729D01*
X169923374Y-68103319D01*
X169923374Y-69362982D01*
X169875081Y-69342979D01*
X169625645Y-69342979D01*
X169395196Y-69438434D01*
X169218818Y-69614812D01*
X169184463Y-69697751D01*
X169155167Y-69668455D01*
X168924718Y-69573000D01*
X168675282Y-69573000D01*
X168444833Y-69668455D01*
X168268455Y-69844833D01*
X168173000Y-70075282D01*
X168173000Y-70258486D01*
X166333509Y-72097978D01*
X155246270Y-72097980D01*
X156828769Y-70515481D01*
X156844833Y-70531545D01*
X157075282Y-70627000D01*
X157324718Y-70627000D01*
X157555167Y-70531545D01*
X157684712Y-70402000D01*
X165160415Y-70402000D01*
X165200000Y-70409874D01*
X165239585Y-70402000D01*
X165239590Y-70402000D01*
X165356852Y-70378675D01*
X165489825Y-70289825D01*
X165512251Y-70256262D01*
X165877997Y-69890517D01*
X165911557Y-69868093D01*
X165933981Y-69834533D01*
X165933983Y-69834531D01*
X165978452Y-69767978D01*
X166000407Y-69735120D01*
X166023732Y-69617858D01*
X166023732Y-69617854D01*
X166031606Y-69578269D01*
X166023732Y-69538684D01*
X166023732Y-68184702D01*
X166153277Y-68055157D01*
X166248732Y-67824708D01*
X166248732Y-67575272D01*
X166153277Y-67344823D01*
X165976899Y-67168445D01*
X165746450Y-67072990D01*
X165497014Y-67072990D01*
X165266565Y-67168445D01*
X165090187Y-67344823D01*
X164994732Y-67575272D01*
X164994732Y-67824708D01*
X165090187Y-68055157D01*
X165219733Y-68184703D01*
X165219732Y-68922984D01*
X165060185Y-68763437D01*
X164829736Y-68667982D01*
X164580300Y-68667982D01*
X164349851Y-68763437D01*
X164220306Y-68892982D01*
X156675532Y-68892982D01*
X158022063Y-67546451D01*
X158055623Y-67524027D01*
X158078047Y-67490467D01*
X158078049Y-67490465D01*
X158144472Y-67391055D01*
X158144473Y-67391054D01*
X158167798Y-67273792D01*
X158167798Y-67273787D01*
X158175672Y-67234202D01*
X158167798Y-67194617D01*
X158167798Y-66860546D01*
X158297343Y-66731001D01*
X158392798Y-66500552D01*
X158392798Y-66251116D01*
X158297343Y-66020667D01*
X158120965Y-65844289D01*
X157890516Y-65748834D01*
X157641080Y-65748834D01*
X157410631Y-65844289D01*
X157234253Y-66020667D01*
X157138798Y-66251116D01*
X157138798Y-66500552D01*
X157234253Y-66731001D01*
X157363798Y-66860546D01*
X157363798Y-67067688D01*
X149606265Y-74825222D01*
X149531545Y-74644833D01*
X149402000Y-74515288D01*
X149402000Y-72766513D01*
X152656265Y-69512249D01*
X152689825Y-69489825D01*
X152712249Y-69456265D01*
X152712251Y-69456263D01*
X152778674Y-69356853D01*
X152778675Y-69356852D01*
X152802000Y-69239590D01*
X152802000Y-69239586D01*
X152809874Y-69200001D01*
X152802000Y-69160416D01*
X152802000Y-67484712D01*
X152931545Y-67355167D01*
X153027000Y-67124718D01*
X153027000Y-66875282D01*
X152931545Y-66644833D01*
X152755167Y-66468455D01*
X152524718Y-66373000D01*
X152275282Y-66373000D01*
X152127000Y-66434420D01*
X152127000Y-66415608D01*
X151985873Y-66074897D01*
X151725103Y-65814127D01*
X151384392Y-65673000D01*
X151015608Y-65673000D01*
X150674897Y-65814127D01*
X150414127Y-66074897D01*
X150273000Y-66415608D01*
X150273000Y-66784392D01*
X150414127Y-67125103D01*
X150673001Y-67383977D01*
X150673000Y-69181710D01*
X149064058Y-70790652D01*
X149064055Y-70790654D01*
X147181710Y-72673000D01*
X144251899Y-72673000D01*
X144200000Y-72662677D01*
X144148101Y-72673000D01*
X144148097Y-72673000D01*
X144026387Y-72697209D01*
X143994374Y-72703577D01*
X143864055Y-72790654D01*
X143864052Y-72790657D01*
X143820055Y-72820055D01*
X143790656Y-72864053D01*
X143064053Y-73590657D01*
X143020056Y-73620055D01*
X142990658Y-73664052D01*
X142990654Y-73664056D01*
X142903578Y-73794375D01*
X142862677Y-74000000D01*
X142873001Y-74051902D01*
X142873000Y-75779900D01*
X142873001Y-75779905D01*
X142873000Y-78016024D01*
X142614127Y-78274897D01*
X142473000Y-78615608D01*
X142473000Y-78984392D01*
X142614127Y-79325103D01*
X142871867Y-79582843D01*
X142181710Y-80273000D01*
X141815608Y-80273000D01*
X141474897Y-80414127D01*
X141214127Y-80674897D01*
X141073000Y-81015608D01*
X135989352Y-81015608D01*
X136027000Y-80924718D01*
X136027000Y-80675282D01*
X135985540Y-80575189D01*
X136050292Y-80602010D01*
X136299728Y-80602010D01*
X136530177Y-80506555D01*
X136706555Y-80330177D01*
X136802010Y-80099728D01*
X136802010Y-79850292D01*
X136706555Y-79619843D01*
X136684876Y-79598164D01*
X136728686Y-79532597D01*
X136752011Y-79415335D01*
X136752011Y-79415330D01*
X136759885Y-79375745D01*
X136752011Y-79336160D01*
X136752011Y-78636043D01*
X138273000Y-78636043D01*
X138273000Y-79163957D01*
X138475024Y-79651685D01*
X138848315Y-80024976D01*
X139336043Y-80227000D01*
X139863957Y-80227000D01*
X140351685Y-80024976D01*
X140724976Y-79651685D01*
X140927000Y-79163957D01*
X140927000Y-78636043D01*
X140724976Y-78148315D01*
X140351685Y-77775024D01*
X139863957Y-77573000D01*
X139336043Y-77573000D01*
X138848315Y-77775024D01*
X138475024Y-78148315D01*
X138273000Y-78636043D01*
X136752011Y-78636043D01*
X136752011Y-77677867D01*
X136850292Y-77718576D01*
X137099728Y-77718576D01*
X137330177Y-77623121D01*
X137506555Y-77446743D01*
X137602010Y-77216294D01*
X137602010Y-76966858D01*
X137506555Y-76736409D01*
X137377010Y-76606864D01*
X137377010Y-76252532D01*
X138627073Y-76252532D01*
X138725736Y-76519387D01*
X139335461Y-76745908D01*
X139985460Y-76721856D01*
X140474264Y-76519387D01*
X140572927Y-76252532D01*
X139600000Y-75279605D01*
X138627073Y-76252532D01*
X137377010Y-76252532D01*
X137377010Y-74835461D01*
X137954092Y-74835461D01*
X137978144Y-75485460D01*
X138180613Y-75974264D01*
X138447468Y-76072927D01*
X139420395Y-75100000D01*
X139779605Y-75100000D01*
X140752532Y-76072927D01*
X141019387Y-75974264D01*
X141245908Y-75364539D01*
X141221856Y-74714540D01*
X141019387Y-74225736D01*
X140752532Y-74127073D01*
X139779605Y-75100000D01*
X139420395Y-75100000D01*
X138447468Y-74127073D01*
X138180613Y-74225736D01*
X137954092Y-74835461D01*
X137377010Y-74835461D01*
X137377010Y-73947468D01*
X138627073Y-73947468D01*
X139600000Y-74920395D01*
X140572927Y-73947468D01*
X140474264Y-73680613D01*
X139864539Y-73454092D01*
X139214540Y-73478144D01*
X138725736Y-73680613D01*
X138627073Y-73947468D01*
X137377010Y-73947468D01*
X137377010Y-70336043D01*
X138273000Y-70336043D01*
X138273000Y-70863957D01*
X138475024Y-71351685D01*
X138848315Y-71724976D01*
X139336043Y-71927000D01*
X139863957Y-71927000D01*
X140351685Y-71724976D01*
X140724976Y-71351685D01*
X140927000Y-70863957D01*
X140927000Y-70336043D01*
X144773000Y-70336043D01*
X144773000Y-70863957D01*
X144975024Y-71351685D01*
X145348315Y-71724976D01*
X145836043Y-71927000D01*
X146363957Y-71927000D01*
X146851685Y-71724976D01*
X147224976Y-71351685D01*
X147427000Y-70863957D01*
X147427000Y-70336043D01*
X147224976Y-69848315D01*
X146872587Y-69495926D01*
X148741514Y-67627000D01*
X148924718Y-67627000D01*
X149155167Y-67531545D01*
X149331545Y-67355167D01*
X149427000Y-67124718D01*
X149427000Y-66875282D01*
X149331545Y-66644833D01*
X149155167Y-66468455D01*
X148924718Y-66373000D01*
X148675282Y-66373000D01*
X148444833Y-66468455D01*
X148268455Y-66644833D01*
X148173000Y-66875282D01*
X148173000Y-67058486D01*
X145958487Y-69273000D01*
X145836043Y-69273000D01*
X145348315Y-69475024D01*
X144975024Y-69848315D01*
X144773000Y-70336043D01*
X140927000Y-70336043D01*
X140724976Y-69848315D01*
X140351685Y-69475024D01*
X139863957Y-69273000D01*
X139336043Y-69273000D01*
X138848315Y-69475024D01*
X138475024Y-69848315D01*
X138273000Y-70336043D01*
X137377010Y-70336043D01*
X137377010Y-69427000D01*
X137524718Y-69427000D01*
X137755167Y-69331545D01*
X137931545Y-69155167D01*
X138027000Y-68924718D01*
X138027000Y-68675282D01*
X137931545Y-68444833D01*
X137755167Y-68268455D01*
X137524718Y-68173000D01*
X137275282Y-68173000D01*
X137044833Y-68268455D01*
X136868455Y-68444833D01*
X136773000Y-68675282D01*
X136773000Y-68858487D01*
X136718748Y-68912739D01*
X136685185Y-68935165D01*
X136596335Y-69068139D01*
X136573010Y-69185401D01*
X136573010Y-69185405D01*
X136565136Y-69224990D01*
X136573010Y-69264575D01*
X136573011Y-75944941D01*
X136531545Y-75844833D01*
X136355167Y-75668455D01*
X136124718Y-75573000D01*
X135875282Y-75573000D01*
X135644833Y-75668455D01*
X135468455Y-75844833D01*
X135373000Y-76075282D01*
X135373000Y-76127239D01*
X133202000Y-73956240D01*
X133202000Y-66884712D01*
X133331545Y-66755167D01*
X133427000Y-66524718D01*
X133427000Y-66275282D01*
X133331545Y-66044833D01*
X133155167Y-65868455D01*
X132924718Y-65773000D01*
X132675282Y-65773000D01*
X132444833Y-65868455D01*
X132268455Y-66044833D01*
X132173000Y-66275282D01*
X132173000Y-66524718D01*
X132234420Y-66673000D01*
X132075282Y-66673000D01*
X131844833Y-66768455D01*
X131668455Y-66944833D01*
X131573000Y-67175282D01*
X124493231Y-67175282D01*
X125356264Y-66312250D01*
X125389825Y-66289825D01*
X125412249Y-66256265D01*
X125412251Y-66256263D01*
X125466968Y-66174372D01*
X125478675Y-66156852D01*
X125502000Y-66039590D01*
X125502000Y-66039586D01*
X125509874Y-66000001D01*
X125502000Y-65960416D01*
X125502000Y-63039586D01*
X125509874Y-63000000D01*
X125502000Y-62960411D01*
X125502000Y-62960410D01*
X125478675Y-62843148D01*
X125478675Y-62843147D01*
X125412251Y-62743737D01*
X125412249Y-62743735D01*
X125389825Y-62710175D01*
X125356265Y-62687751D01*
X124727000Y-62058487D01*
X124727000Y-61875282D01*
X124631545Y-61644833D01*
X124455167Y-61468455D01*
X124224718Y-61373000D01*
X123975282Y-61373000D01*
X123744833Y-61468455D01*
X123568455Y-61644833D01*
X123473000Y-61875282D01*
X123473000Y-62124718D01*
X123568455Y-62355167D01*
X123744833Y-62531545D01*
X123975282Y-62627000D01*
X124158487Y-62627000D01*
X124698000Y-63166514D01*
X124698001Y-65311289D01*
X124655167Y-65268455D01*
X124424718Y-65173000D01*
X124175282Y-65173000D01*
X123944833Y-65268455D01*
X123768455Y-65444833D01*
X123673000Y-65675282D01*
X123673000Y-65858486D01*
X123263487Y-66268000D01*
X118958220Y-66268000D01*
X119106555Y-66119665D01*
X119202010Y-65889216D01*
X119202010Y-65639780D01*
X119106555Y-65409331D01*
X118930177Y-65232953D01*
X118699728Y-65137498D01*
X118450292Y-65137498D01*
X118219843Y-65232953D01*
X118177000Y-65275796D01*
X118177000Y-65125282D01*
X118081545Y-64894833D01*
X117905167Y-64718455D01*
X117674718Y-64623000D01*
X117425282Y-64623000D01*
X117194833Y-64718455D01*
X117018455Y-64894833D01*
X116923000Y-65125282D01*
X116923000Y-65147999D01*
X115934514Y-65147999D01*
X116027000Y-64924718D01*
X116027000Y-64675282D01*
X115931545Y-64444833D01*
X115802000Y-64315288D01*
X115802000Y-60627000D01*
X115924718Y-60627000D01*
X116155167Y-60531545D01*
X116331545Y-60355167D01*
X116427000Y-60124718D01*
X116427000Y-59875282D01*
X116331545Y-59644833D01*
X116155167Y-59468455D01*
X115924718Y-59373000D01*
X115675282Y-59373000D01*
X115444833Y-59468455D01*
X115268455Y-59644833D01*
X115173000Y-59875282D01*
X115173000Y-60058487D01*
X115143738Y-60087749D01*
X115110175Y-60110175D01*
X115021325Y-60243149D01*
X114998000Y-60360411D01*
X114998000Y-60360415D01*
X114990126Y-60400000D01*
X114998000Y-60439585D01*
X114998001Y-64315287D01*
X114868455Y-64444833D01*
X114773000Y-64675282D01*
X114773000Y-64904486D01*
X114177000Y-64308487D01*
X114177000Y-64125282D01*
X114081545Y-63894833D01*
X113905167Y-63718455D01*
X113674718Y-63623000D01*
X113425282Y-63623000D01*
X113194833Y-63718455D01*
X113025000Y-63888288D01*
X112905167Y-63768455D01*
X112674718Y-63673000D01*
X112425282Y-63673000D01*
X112194833Y-63768455D01*
X112018455Y-63944833D01*
X111923000Y-64175282D01*
X111923000Y-64424718D01*
X112018455Y-64655167D01*
X112194833Y-64831545D01*
X112425282Y-64927000D01*
X112608487Y-64927000D01*
X113949486Y-66268000D01*
X112885103Y-66268000D01*
X112810648Y-66088251D01*
X112521749Y-65799352D01*
X112144283Y-65643000D01*
X111735717Y-65643000D01*
X111358251Y-65799352D01*
X111069352Y-66088251D01*
X110913000Y-66465717D01*
X110913000Y-66874283D01*
X111069352Y-67251749D01*
X111358251Y-67540648D01*
X111735717Y-67697000D01*
X112144283Y-67697000D01*
X112521749Y-67540648D01*
X112810648Y-67251749D01*
X112885103Y-67072000D01*
X115679486Y-67072000D01*
X112964032Y-69787455D01*
X112784283Y-69713000D01*
X112375717Y-69713000D01*
X111998251Y-69869352D01*
X111709352Y-70158251D01*
X111553000Y-70535717D01*
X111553000Y-70944283D01*
X111709352Y-71321749D01*
X111907603Y-71520000D01*
X111629352Y-71798251D01*
X111473000Y-72175717D01*
X111473000Y-72584283D01*
X111547455Y-72764032D01*
X111444386Y-72867101D01*
X111326089Y-72867101D01*
X111346089Y-72818817D01*
X111346089Y-72569381D01*
X111250634Y-72338932D01*
X111074256Y-72162554D01*
X111002000Y-72132625D01*
X111002000Y-69284712D01*
X111131545Y-69155167D01*
X111227000Y-68924718D01*
X111227000Y-68675282D01*
X111131545Y-68444833D01*
X110955167Y-68268455D01*
X110724718Y-68173000D01*
X110475282Y-68173000D01*
X110244833Y-68268455D01*
X110068455Y-68444833D01*
X109973000Y-68675282D01*
X109973000Y-68924718D01*
X110068455Y-69155167D01*
X110198000Y-69284712D01*
X110198001Y-72328475D01*
X110187544Y-72338932D01*
X110092089Y-72569381D01*
X110092089Y-72818817D01*
X110112089Y-72867101D01*
X106385615Y-72867101D01*
X104327000Y-70808487D01*
X104327000Y-70625282D01*
X104231545Y-70394833D01*
X104055167Y-70218455D01*
X103824718Y-70123000D01*
X103575282Y-70123000D01*
X103344833Y-70218455D01*
X103168455Y-70394833D01*
X103073000Y-70625282D01*
X100799467Y-70625282D01*
X100611273Y-61215608D01*
X102773000Y-61215608D01*
X102773000Y-61584392D01*
X102914127Y-61925103D01*
X103174897Y-62185873D01*
X103515608Y-62327000D01*
X103881710Y-62327000D01*
X105090655Y-63535945D01*
X105120055Y-63579945D01*
X105294375Y-63696423D01*
X105448097Y-63727000D01*
X105448101Y-63727000D01*
X105499999Y-63737323D01*
X105551897Y-63727000D01*
X109016024Y-63727000D01*
X109274897Y-63985873D01*
X109615608Y-64127000D01*
X109984392Y-64127000D01*
X110325103Y-63985873D01*
X110585873Y-63725103D01*
X110727000Y-63384392D01*
X110727000Y-63015608D01*
X110585873Y-62674897D01*
X110325103Y-62414127D01*
X109984392Y-62273000D01*
X109615608Y-62273000D01*
X109274897Y-62414127D01*
X109016024Y-62673000D01*
X108470559Y-62673000D01*
X108590108Y-62384382D01*
X108590108Y-62015598D01*
X108448981Y-61674887D01*
X108188211Y-61414117D01*
X107847500Y-61272990D01*
X107481399Y-61272990D01*
X106610531Y-60402122D01*
X106649837Y-60307228D01*
X106649837Y-59938444D01*
X106508710Y-59597733D01*
X106247940Y-59336963D01*
X105907229Y-59195836D01*
X105538445Y-59195836D01*
X105197734Y-59336963D01*
X104936964Y-59597733D01*
X104795837Y-59938444D01*
X104795837Y-60307228D01*
X104936964Y-60647939D01*
X105197734Y-60908709D01*
X105538445Y-61049836D01*
X105767664Y-61049836D01*
X106736108Y-62018281D01*
X106736108Y-62384382D01*
X106855657Y-62673000D01*
X105718290Y-62673000D01*
X104627000Y-61581710D01*
X104627000Y-61215608D01*
X104485873Y-60874897D01*
X104225103Y-60614127D01*
X103884392Y-60473000D01*
X103515608Y-60473000D01*
X103174897Y-60614127D01*
X102914127Y-60874897D01*
X102773000Y-61215608D01*
X100611273Y-61215608D01*
X100575272Y-59415608D01*
X101873000Y-59415608D01*
X101873000Y-59784392D01*
X102014127Y-60125103D01*
X102274897Y-60385873D01*
X102615608Y-60527000D01*
X102984392Y-60527000D01*
X103325103Y-60385873D01*
X103585873Y-60125103D01*
X103727000Y-59784392D01*
X103727000Y-59418291D01*
X103809345Y-59335946D01*
X103809347Y-59335943D01*
X106468291Y-56677000D01*
X108416024Y-56677000D01*
X108674897Y-56935873D01*
X109015608Y-57077000D01*
X109384392Y-57077000D01*
X109725103Y-56935873D01*
X109745368Y-56915608D01*
X117323000Y-56915608D01*
X117323000Y-57284392D01*
X117464127Y-57625103D01*
X117724897Y-57885873D01*
X118065608Y-58027000D01*
X118434392Y-58027000D01*
X118775103Y-57885873D01*
X119035873Y-57625103D01*
X119038067Y-57619807D01*
X119155625Y-57596423D01*
X119329945Y-57479945D01*
X119359346Y-57435944D01*
X121118291Y-55677000D01*
X121484392Y-55677000D01*
X121825103Y-55535873D01*
X122085873Y-55275103D01*
X122227000Y-54934392D01*
X122227000Y-54565608D01*
X122085873Y-54224897D01*
X121825103Y-53964127D01*
X121484392Y-53823000D01*
X121115608Y-53823000D01*
X120774897Y-53964127D01*
X120514127Y-54224897D01*
X120373000Y-54565608D01*
X120373000Y-54931709D01*
X118882843Y-56421867D01*
X118775103Y-56314127D01*
X118434392Y-56173000D01*
X118065608Y-56173000D01*
X117724897Y-56314127D01*
X117464127Y-56574897D01*
X117323000Y-56915608D01*
X109745368Y-56915608D01*
X109985873Y-56675103D01*
X110127000Y-56334392D01*
X110127000Y-55965608D01*
X109985873Y-55624897D01*
X109725103Y-55364127D01*
X109384392Y-55223000D01*
X109015608Y-55223000D01*
X108674897Y-55364127D01*
X108416024Y-55623000D01*
X106301897Y-55623000D01*
X106249999Y-55612677D01*
X106198101Y-55623000D01*
X106198097Y-55623000D01*
X106044375Y-55653577D01*
X106044373Y-55653578D01*
X106044374Y-55653578D01*
X105914055Y-55740654D01*
X105914052Y-55740657D01*
X105870055Y-55770055D01*
X105840657Y-55814052D01*
X103064057Y-58590653D01*
X103064054Y-58590655D01*
X102981709Y-58673000D01*
X102615608Y-58673000D01*
X102274897Y-58814127D01*
X102014127Y-59074897D01*
X101873000Y-59415608D01*
X100575272Y-59415608D01*
X100410999Y-51202000D01*
X127390692Y-51202000D01*
X127298714Y-56306822D01*
G04 #@! TD*
M02*
