M48
;DRILL file {KiCad 5.0.1+dfsg1-3} date Sun 09 Dec 2018 10:02:09 PM CST
;FORMAT={-:-/ absolute / inch / decimal}
FMAT,2
INCH,TZ
T1C0.0079
T2C0.0118
T3C0.0197
T4C0.0276
T5C0.0394
T6C0.0433
%
G90
G05
M72
T1
X4.0725Y-2.8767
X4.0827Y-2.7854
X4.0965Y-2.9409
X4.3543Y-2.7087
X4.359Y-2.862
X4.4311Y-2.5315
X4.4705Y-2.5295
X4.5433Y-2.5512
X4.5591Y-2.3622
X4.628Y-2.5689
X4.6683Y-2.5892
X4.729Y-3.125
X4.8858Y-2.4409
X4.8927Y-2.7021
X4.8937Y-2.5906
X5.2047Y-2.6496
X5.2283Y-2.6142
X5.2913Y-3.1732
X5.3198Y-3.0643
X5.3307Y-3.1811
X5.3424Y-3.0323
X5.3543Y-3.
X5.3612Y-3.1486
X5.3927Y-3.0351
X5.4094Y-2.7087
X5.4488Y-4.2205
X5.4724Y-4.1969
X5.5591Y-4.2205
X5.622Y-4.1969
X5.8583Y-2.6378
X5.8661Y-2.9528
X5.874Y-3.1575
X5.9094Y-4.9882
X5.9134Y-3.2283
X5.9213Y-3.1575
X5.9488Y-5.1535
X5.9604Y-3.1572
X5.9685Y-3.2283
X6.Y-2.6378
X6.001Y-3.0864
X6.001Y-3.1259
X6.0472Y-4.7087
X6.1102Y-2.9213
X6.1339Y-2.9449
X6.1476Y-2.9764
X6.1732Y-4.685
X6.189Y-2.7559
X6.2113Y-2.6132
X6.2844Y-3.6063
X6.3021Y-2.3322
X6.315Y-3.5827
X6.3228Y-3.3622
X6.3386Y-2.4882
X6.3457Y-3.5758
X6.3503Y-2.311
X6.3543Y-3.3701
X6.3701Y-3.3307
X6.372Y-3.2205
X6.4331Y-3.4409
X6.4409Y-3.5433
X6.4409Y-3.5827
X6.4803Y-3.7874
X6.4803Y-3.8583
X6.4844Y-2.7281
X6.5197Y-3.7874
X6.5197Y-3.8583
X6.5205Y-2.6654
X6.5276Y-3.622
X6.5591Y-3.1732
X6.5591Y-3.4882
X6.5906Y-3.6142
X6.6457Y-2.7638
X6.6693Y-2.9843
X6.6772Y-2.9055
X6.6772Y-3.1683
X6.6772Y-3.2008
X6.6831Y-2.7547
X6.7087Y-2.3307
X6.7087Y-3.2677
X6.72Y-2.6654
X6.7284Y-2.7517
X6.7727Y-2.7677
X6.7756Y-3.2677
X6.8228Y-3.5039
X6.8425Y-2.6378
X6.878Y-3.5039
X6.9341Y-3.4449
T2
X6.252Y-3.3228
X6.252Y-3.3701
T3
X4.0059Y-2.4134
X4.0157Y-3.0295
X4.0472Y-2.3465
X4.0591Y-2.1161
X4.0697Y-2.7383
X4.0827Y-2.4173
X4.1535Y-3.4134
X4.1623Y-2.367
X4.2387Y-2.4488
X4.2952Y-2.7746
X4.2992Y-2.2106
X4.3228Y-2.4882
X4.3622Y-2.5541
X4.437Y-3.1772
X4.5Y-3.1644
X4.5079Y-2.3209
X4.5965Y-3.189
X4.626Y-3.3465
X4.6358Y-2.3819
X4.6555Y-2.248
X4.7175Y-2.7929
X4.7756Y-2.1555
X4.811Y-3.3169
X4.8407Y-2.9182
X4.8846Y-2.5292
X5.2106Y-2.1476
X5.2126Y-2.3957
X5.2461Y-4.5138
X5.4027Y-2.4796
X5.405Y-2.5619
X5.4094Y-2.3386
X5.5Y-4.3504
X5.5079Y-5.1929
X5.5376Y-4.6596
X5.5591Y-2.4882
X5.5906Y-2.2205
X5.5906Y-2.4016
X5.5906Y-3.1969
X5.6457Y-3.1024
X5.6772Y-2.5197
X5.7581Y-4.5336
X5.7598Y-4.9961
X5.8688Y-2.5104
X5.9528Y-2.622
X6.0315Y-2.4803
X6.0945Y-4.4094
X6.1072Y-2.2329
X6.1937Y-2.9845
X6.2205Y-2.4031
X6.2539Y-3.2028
X6.3307Y-4.3622
X6.3543Y-3.7795
X6.3681Y-4.935
X6.4646Y-2.0512
X6.4803Y-2.3898
X6.4803Y-2.4606
X6.4803Y-2.5236
X6.4862Y-4.6614
X6.4862Y-4.7126
X6.502Y-4.7913
X6.5059Y-3.3546
X6.5138Y-4.5669
X6.5433Y-2.3898
X6.5433Y-2.4606
X6.5433Y-2.5236
X6.5617Y-2.2963
X6.5965Y-4.5591
X6.6063Y-2.3898
X6.6063Y-2.4606
X6.6063Y-2.5236
X6.6398Y-3.3268
X6.6424Y-3.7262
X6.6496Y-2.0472
X6.6831Y-3.8484
X6.685Y-4.8543
X6.7244Y-3.8031
X6.7677Y-5.0827
X6.7874Y-2.6142
X6.7992Y-4.5394
X6.8169Y-2.748
X6.8346Y-2.2756
X6.8465Y-2.9173
X6.8583Y-3.3031
X6.8701Y-4.3701
X6.8799Y-4.0551
X6.8976Y-3.5984
X6.9488Y-3.7992
X7.0039Y-3.3307
T5
X6.9094Y-4.9291
X6.9094Y-5.0291
X5.4307Y-3.4134
X5.5307Y-3.4134
X5.6307Y-3.4134
X5.7307Y-3.4134
X5.8307Y-3.4134
T6
X5.4961Y-3.1063
X5.4961Y-3.2835
X5.752Y-3.1063
X5.752Y-3.2835
X5.4961Y-2.7795
X5.4961Y-2.9567
X5.752Y-2.7795
X5.752Y-2.9567
X4.3382Y-3.0976
X4.4039Y-3.0961
X4.4071Y-2.6248
X4.4102Y-3.0283
X4.4244Y-2.9169
X4.4291Y-2.8496
X4.4323Y-2.785
X4.5295Y-2.8228
X4.5547Y-2.8917
X4.5579Y-2.9594
X4.561Y-3.0283
X4.5642Y-3.0961
X4.5941Y-2.6957
X4.5941Y-2.8307
X4.5957Y-2.7661
X4.6331Y-3.0961
T4
X6.7664Y-4.4601G85X6.8057Y-4.4594
G05
X6.7711Y-4.842G85X6.8104Y-4.8413
G05
X6.8963Y-4.4578G85X6.9356Y-4.4571
G05
X6.9029Y-4.8397G85X6.9423Y-4.839
G05
T0
M30
