G04 #@! TF.GenerationSoftware,KiCad,Pcbnew,5.0.1+dfsg1-3*
G04 #@! TF.CreationDate,2018-12-09T22:02:06+08:00*
G04 #@! TF.ProjectId,magicbrush,6D6167696362727573682E6B69636164,rev?*
G04 #@! TF.SameCoordinates,Original*
G04 #@! TF.FileFunction,Legend,Top*
G04 #@! TF.FilePolarity,Positive*
%FSLAX46Y46*%
G04 Gerber Fmt 4.6, Leading zero omitted, Abs format (unit mm)*
G04 Created by KiCad (PCBNEW 5.0.1+dfsg1-3) date Sun 09 Dec 2018 10:02:06 PM CST*
%MOMM*%
%LPD*%
G01*
G04 APERTURE LIST*
%ADD10C,0.300000*%
%ADD11C,0.150000*%
%ADD12C,0.120000*%
G04 APERTURE END LIST*
D10*
X134092857Y-98528571D02*
X134092857Y-97028571D01*
X134592857Y-98100000D01*
X135092857Y-97028571D01*
X135092857Y-98528571D01*
X135735714Y-98100000D02*
X136450000Y-98100000D01*
X135592857Y-98528571D02*
X136092857Y-97028571D01*
X136592857Y-98528571D01*
X137878571Y-97100000D02*
X137735714Y-97028571D01*
X137521428Y-97028571D01*
X137307142Y-97100000D01*
X137164285Y-97242857D01*
X137092857Y-97385714D01*
X137021428Y-97671428D01*
X137021428Y-97885714D01*
X137092857Y-98171428D01*
X137164285Y-98314285D01*
X137307142Y-98457142D01*
X137521428Y-98528571D01*
X137664285Y-98528571D01*
X137878571Y-98457142D01*
X137950000Y-98385714D01*
X137950000Y-97885714D01*
X137664285Y-97885714D01*
X138592857Y-98528571D02*
X138592857Y-97028571D01*
X140164285Y-98385714D02*
X140092857Y-98457142D01*
X139878571Y-98528571D01*
X139735714Y-98528571D01*
X139521428Y-98457142D01*
X139378571Y-98314285D01*
X139307142Y-98171428D01*
X139235714Y-97885714D01*
X139235714Y-97671428D01*
X139307142Y-97385714D01*
X139378571Y-97242857D01*
X139521428Y-97100000D01*
X139735714Y-97028571D01*
X139878571Y-97028571D01*
X140092857Y-97100000D01*
X140164285Y-97171428D01*
X141950000Y-98528571D02*
X141950000Y-97028571D01*
X142521428Y-97028571D01*
X142664285Y-97100000D01*
X142735714Y-97171428D01*
X142807142Y-97314285D01*
X142807142Y-97528571D01*
X142735714Y-97671428D01*
X142664285Y-97742857D01*
X142521428Y-97814285D01*
X141950000Y-97814285D01*
X143378571Y-98100000D02*
X144092857Y-98100000D01*
X143235714Y-98528571D02*
X143735714Y-97028571D01*
X144235714Y-98528571D01*
X144735714Y-98528571D02*
X144735714Y-97028571D01*
X145450000Y-98528571D02*
X145450000Y-97028571D01*
X146307142Y-98528571D01*
X146307142Y-97028571D01*
X146807142Y-97028571D02*
X147664285Y-97028571D01*
X147235714Y-98528571D02*
X147235714Y-97028571D01*
X148164285Y-97957142D02*
X149307142Y-97957142D01*
X133021428Y-100292857D02*
X133235714Y-100364285D01*
X133307142Y-100435714D01*
X133378571Y-100578571D01*
X133378571Y-100792857D01*
X133307142Y-100935714D01*
X133235714Y-101007142D01*
X133092857Y-101078571D01*
X132521428Y-101078571D01*
X132521428Y-99578571D01*
X133021428Y-99578571D01*
X133164285Y-99650000D01*
X133235714Y-99721428D01*
X133307142Y-99864285D01*
X133307142Y-100007142D01*
X133235714Y-100150000D01*
X133164285Y-100221428D01*
X133021428Y-100292857D01*
X132521428Y-100292857D01*
X134878571Y-101078571D02*
X134378571Y-100364285D01*
X134021428Y-101078571D02*
X134021428Y-99578571D01*
X134592857Y-99578571D01*
X134735714Y-99650000D01*
X134807142Y-99721428D01*
X134878571Y-99864285D01*
X134878571Y-100078571D01*
X134807142Y-100221428D01*
X134735714Y-100292857D01*
X134592857Y-100364285D01*
X134021428Y-100364285D01*
X135521428Y-99578571D02*
X135521428Y-100792857D01*
X135592857Y-100935714D01*
X135664285Y-101007142D01*
X135807142Y-101078571D01*
X136092857Y-101078571D01*
X136235714Y-101007142D01*
X136307142Y-100935714D01*
X136378571Y-100792857D01*
X136378571Y-99578571D01*
X137021428Y-101007142D02*
X137235714Y-101078571D01*
X137592857Y-101078571D01*
X137735714Y-101007142D01*
X137807142Y-100935714D01*
X137878571Y-100792857D01*
X137878571Y-100650000D01*
X137807142Y-100507142D01*
X137735714Y-100435714D01*
X137592857Y-100364285D01*
X137307142Y-100292857D01*
X137164285Y-100221428D01*
X137092857Y-100150000D01*
X137021428Y-100007142D01*
X137021428Y-99864285D01*
X137092857Y-99721428D01*
X137164285Y-99650000D01*
X137307142Y-99578571D01*
X137664285Y-99578571D01*
X137878571Y-99650000D01*
X138521428Y-101078571D02*
X138521428Y-99578571D01*
X138521428Y-100292857D02*
X139378571Y-100292857D01*
X139378571Y-101078571D02*
X139378571Y-99578571D01*
X141664285Y-101650000D02*
X141592857Y-101578571D01*
X141450000Y-101364285D01*
X141378571Y-101221428D01*
X141307142Y-101007142D01*
X141235714Y-100650000D01*
X141235714Y-100364285D01*
X141307142Y-100007142D01*
X141378571Y-99792857D01*
X141450000Y-99650000D01*
X141592857Y-99435714D01*
X141664285Y-99364285D01*
X143092857Y-100935714D02*
X143021428Y-101007142D01*
X142807142Y-101078571D01*
X142664285Y-101078571D01*
X142450000Y-101007142D01*
X142307142Y-100864285D01*
X142235714Y-100721428D01*
X142164285Y-100435714D01*
X142164285Y-100221428D01*
X142235714Y-99935714D01*
X142307142Y-99792857D01*
X142450000Y-99650000D01*
X142664285Y-99578571D01*
X142807142Y-99578571D01*
X143021428Y-99650000D01*
X143092857Y-99721428D01*
X143592857Y-101650000D02*
X143664285Y-101578571D01*
X143807142Y-101364285D01*
X143878571Y-101221428D01*
X143950000Y-101007142D01*
X144021428Y-100650000D01*
X144021428Y-100364285D01*
X143950000Y-100007142D01*
X143878571Y-99792857D01*
X143807142Y-99650000D01*
X143664285Y-99435714D01*
X143592857Y-99364285D01*
X145807142Y-99721428D02*
X145878571Y-99650000D01*
X146021428Y-99578571D01*
X146378571Y-99578571D01*
X146521428Y-99650000D01*
X146592857Y-99721428D01*
X146664285Y-99864285D01*
X146664285Y-100007142D01*
X146592857Y-100221428D01*
X145735714Y-101078571D01*
X146664285Y-101078571D01*
X147592857Y-99578571D02*
X147735714Y-99578571D01*
X147878571Y-99650000D01*
X147950000Y-99721428D01*
X148021428Y-99864285D01*
X148092857Y-100150000D01*
X148092857Y-100507142D01*
X148021428Y-100792857D01*
X147950000Y-100935714D01*
X147878571Y-101007142D01*
X147735714Y-101078571D01*
X147592857Y-101078571D01*
X147450000Y-101007142D01*
X147378571Y-100935714D01*
X147307142Y-100792857D01*
X147235714Y-100507142D01*
X147235714Y-100150000D01*
X147307142Y-99864285D01*
X147378571Y-99721428D01*
X147450000Y-99650000D01*
X147592857Y-99578571D01*
X149521428Y-101078571D02*
X148664285Y-101078571D01*
X149092857Y-101078571D02*
X149092857Y-99578571D01*
X148950000Y-99792857D01*
X148807142Y-99935714D01*
X148664285Y-100007142D01*
X150378571Y-100221428D02*
X150235714Y-100150000D01*
X150164285Y-100078571D01*
X150092857Y-99935714D01*
X150092857Y-99864285D01*
X150164285Y-99721428D01*
X150235714Y-99650000D01*
X150378571Y-99578571D01*
X150664285Y-99578571D01*
X150807142Y-99650000D01*
X150878571Y-99721428D01*
X150950000Y-99864285D01*
X150950000Y-99935714D01*
X150878571Y-100078571D01*
X150807142Y-100150000D01*
X150664285Y-100221428D01*
X150378571Y-100221428D01*
X150235714Y-100292857D01*
X150164285Y-100364285D01*
X150092857Y-100507142D01*
X150092857Y-100792857D01*
X150164285Y-100935714D01*
X150235714Y-101007142D01*
X150378571Y-101078571D01*
X150664285Y-101078571D01*
X150807142Y-101007142D01*
X150878571Y-100935714D01*
X150950000Y-100792857D01*
X150950000Y-100507142D01*
X150878571Y-100364285D01*
X150807142Y-100292857D01*
X150664285Y-100221428D01*
X134342857Y-103557142D02*
X134557142Y-103628571D01*
X134914285Y-103628571D01*
X135057142Y-103557142D01*
X135128571Y-103485714D01*
X135200000Y-103342857D01*
X135200000Y-103200000D01*
X135128571Y-103057142D01*
X135057142Y-102985714D01*
X134914285Y-102914285D01*
X134628571Y-102842857D01*
X134485714Y-102771428D01*
X134414285Y-102700000D01*
X134342857Y-102557142D01*
X134342857Y-102414285D01*
X134414285Y-102271428D01*
X134485714Y-102200000D01*
X134628571Y-102128571D01*
X134985714Y-102128571D01*
X135200000Y-102200000D01*
X135842857Y-103628571D02*
X135842857Y-102128571D01*
X136414285Y-102128571D01*
X136557142Y-102200000D01*
X136628571Y-102271428D01*
X136700000Y-102414285D01*
X136700000Y-102628571D01*
X136628571Y-102771428D01*
X136557142Y-102842857D01*
X136414285Y-102914285D01*
X135842857Y-102914285D01*
X138200000Y-103628571D02*
X137700000Y-102914285D01*
X137342857Y-103628571D02*
X137342857Y-102128571D01*
X137914285Y-102128571D01*
X138057142Y-102200000D01*
X138128571Y-102271428D01*
X138200000Y-102414285D01*
X138200000Y-102628571D01*
X138128571Y-102771428D01*
X138057142Y-102842857D01*
X137914285Y-102914285D01*
X137342857Y-102914285D01*
X138842857Y-103628571D02*
X138842857Y-102128571D01*
X139342857Y-102128571D02*
X140200000Y-102128571D01*
X139771428Y-103628571D02*
X139771428Y-102128571D01*
X140700000Y-102842857D02*
X141200000Y-102842857D01*
X141414285Y-103628571D02*
X140700000Y-103628571D01*
X140700000Y-102128571D01*
X141414285Y-102128571D01*
X141985714Y-103557142D02*
X142200000Y-103628571D01*
X142557142Y-103628571D01*
X142700000Y-103557142D01*
X142771428Y-103485714D01*
X142842857Y-103342857D01*
X142842857Y-103200000D01*
X142771428Y-103057142D01*
X142700000Y-102985714D01*
X142557142Y-102914285D01*
X142271428Y-102842857D01*
X142128571Y-102771428D01*
X142057142Y-102700000D01*
X141985714Y-102557142D01*
X141985714Y-102414285D01*
X142057142Y-102271428D01*
X142128571Y-102200000D01*
X142271428Y-102128571D01*
X142628571Y-102128571D01*
X142842857Y-102200000D01*
X143485714Y-103628571D02*
X143485714Y-102128571D01*
X143985714Y-103200000D01*
X144485714Y-102128571D01*
X144485714Y-103628571D01*
X145485714Y-102128571D02*
X145771428Y-102128571D01*
X145914285Y-102200000D01*
X146057142Y-102342857D01*
X146128571Y-102628571D01*
X146128571Y-103128571D01*
X146057142Y-103414285D01*
X145914285Y-103557142D01*
X145771428Y-103628571D01*
X145485714Y-103628571D01*
X145342857Y-103557142D01*
X145200000Y-103414285D01*
X145128571Y-103128571D01*
X145128571Y-102628571D01*
X145200000Y-102342857D01*
X145342857Y-102200000D01*
X145485714Y-102128571D01*
X146771428Y-103628571D02*
X146771428Y-102128571D01*
X147128571Y-102128571D01*
X147342857Y-102200000D01*
X147485714Y-102342857D01*
X147557142Y-102485714D01*
X147628571Y-102771428D01*
X147628571Y-102985714D01*
X147557142Y-103271428D01*
X147485714Y-103414285D01*
X147342857Y-103557142D01*
X147128571Y-103628571D01*
X146771428Y-103628571D01*
X148200000Y-103557142D02*
X148414285Y-103628571D01*
X148771428Y-103628571D01*
X148914285Y-103557142D01*
X148985714Y-103485714D01*
X149057142Y-103342857D01*
X149057142Y-103200000D01*
X148985714Y-103057142D01*
X148914285Y-102985714D01*
X148771428Y-102914285D01*
X148485714Y-102842857D01*
X148342857Y-102771428D01*
X148271428Y-102700000D01*
X148200000Y-102557142D01*
X148200000Y-102414285D01*
X148271428Y-102271428D01*
X148342857Y-102200000D01*
X148485714Y-102128571D01*
X148842857Y-102128571D01*
X149057142Y-102200000D01*
D11*
G04 #@! TO.C,J4*
X118650000Y-64800000D02*
X109150000Y-64800000D01*
X118650000Y-88800000D02*
X118650000Y-64800000D01*
X109150000Y-88800000D02*
X118650000Y-88800000D01*
X109150000Y-64800000D02*
X109150000Y-88800000D01*
D12*
G04 #@! TO.C,C33*
X108760000Y-79421267D02*
X108760000Y-79078733D01*
X107740000Y-79421267D02*
X107740000Y-79078733D01*
G04 #@! TO.C,C15*
X119421267Y-77010000D02*
X119078733Y-77010000D01*
X119421267Y-75990000D02*
X119078733Y-75990000D01*
D11*
G04 #@! TO.C,X69*
X177000000Y-109600000D02*
X172000000Y-109600000D01*
X177000000Y-108400000D02*
X172000000Y-108400000D01*
G04 #@! TO.C,X70*
X173600000Y-105500000D02*
X173600000Y-100500000D01*
X172400000Y-105500000D02*
X172400000Y-100500000D01*
D12*
G04 #@! TO.C,R30*
X106010000Y-84412779D02*
X106010000Y-84087221D01*
X104990000Y-84412779D02*
X104990000Y-84087221D01*
G04 #@! TO.C,R31*
X120990000Y-81662779D02*
X120990000Y-81337221D01*
X122010000Y-81662779D02*
X122010000Y-81337221D01*
D11*
G04 #@! TO.C,J2*
X177584111Y-122888178D02*
X177414823Y-113189655D01*
X177934930Y-122932062D02*
X177763897Y-113133555D01*
X177763897Y-113133555D02*
X176914026Y-113148389D01*
X174464399Y-113191147D02*
X173564537Y-113206855D01*
X171577058Y-113941653D02*
X171622434Y-116541257D01*
X171678282Y-119740769D02*
X171722785Y-122290381D01*
X173685578Y-123006235D02*
X174585441Y-122990528D01*
D12*
G04 #@! TO.C,R28*
X134710000Y-82962779D02*
X134710000Y-82637221D01*
X133690000Y-82962779D02*
X133690000Y-82637221D01*
G04 #@! TO.C,R29*
X135290000Y-82962779D02*
X135290000Y-82637221D01*
X136310000Y-82962779D02*
X136310000Y-82637221D01*
G04 #@! TO.C,J3*
X136610000Y-85370000D02*
X136610000Y-88030000D01*
X146830000Y-85370000D02*
X136610000Y-85370000D01*
X146830000Y-88030000D02*
X136610000Y-88030000D01*
X146830000Y-85370000D02*
X146830000Y-88030000D01*
X148100000Y-85370000D02*
X149430000Y-85370000D01*
X149430000Y-85370000D02*
X149430000Y-86700000D01*
D11*
G04 #@! TO.C,DISP1*
X138082843Y-55600000D02*
G75*
G03X138082843Y-55600000I-282843J0D01*
G01*
X148482843Y-55600000D02*
G75*
G03X148482843Y-55600000I-282843J0D01*
G01*
X149200000Y-54400000D02*
X149200000Y-59600000D01*
X147600000Y-54400000D02*
X149200000Y-54400000D01*
X147600000Y-47000000D02*
X147600000Y-54400000D01*
X138400000Y-47000000D02*
X147600000Y-47000000D01*
X138400000Y-54400000D02*
X138400000Y-47000000D01*
X136800000Y-54400000D02*
X138400000Y-54400000D01*
X136800000Y-59600000D02*
X136800000Y-54400000D01*
X149200000Y-59600000D02*
X136800000Y-59600000D01*
G04 #@! TO.C,X66*
X131875001Y-79100000D02*
X134875001Y-79100000D01*
X131875001Y-78500000D02*
X134875001Y-78500000D01*
G04 #@! TO.C,X65*
X131875001Y-79900000D02*
X134875001Y-79900000D01*
X131875001Y-79300000D02*
X134875001Y-79300000D01*
G04 #@! TO.C,X67*
X101275001Y-80225001D02*
X104275001Y-80225001D01*
X101275001Y-79625001D02*
X104275001Y-79625001D01*
G04 #@! TO.C,X68*
X131900000Y-105100000D02*
X134900000Y-105100000D01*
X131900000Y-104500000D02*
X134900000Y-104500000D01*
G04 #@! TO.C,X64*
X123800000Y-79000000D02*
X126800000Y-79000000D01*
X123800000Y-78400000D02*
X126800000Y-78400000D01*
G04 #@! TO.C,X63*
X123800000Y-79800000D02*
X126800000Y-79800000D01*
X123800000Y-79200000D02*
X126800000Y-79200000D01*
G04 #@! TO.C,X61*
X168025001Y-76424999D02*
X168025001Y-73424999D01*
X167425001Y-76424999D02*
X167425001Y-73424999D01*
G04 #@! TO.C,X62*
X168000000Y-82200000D02*
X168000000Y-79200000D01*
X167400000Y-82200000D02*
X167400000Y-79200000D01*
G04 #@! TO.C,X56*
X168100000Y-111500000D02*
X168100000Y-108500000D01*
X167500000Y-111500000D02*
X167500000Y-108500000D01*
G04 #@! TO.C,X54*
X173300000Y-76400000D02*
X173300000Y-73400000D01*
X172700000Y-76400000D02*
X172700000Y-73400000D01*
G04 #@! TO.C,X60*
X172700000Y-79200000D02*
X172700000Y-82200000D01*
X173300000Y-79200000D02*
X173300000Y-82200000D01*
G04 #@! TO.C,X59*
X168000000Y-105500000D02*
X168000000Y-102500000D01*
X167400000Y-105500000D02*
X167400000Y-102500000D01*
G04 #@! TO.C,X55*
X170787455Y-76378037D02*
X170787455Y-73378037D01*
X170187455Y-76378037D02*
X170187455Y-73378037D01*
G04 #@! TO.C,X53*
X170900000Y-82200000D02*
X170900000Y-79200000D01*
X170300000Y-82200000D02*
X170300000Y-79200000D01*
G04 #@! TO.C,X57*
X161600000Y-113500000D02*
X161600000Y-108500000D01*
X162800000Y-113500000D02*
X162800000Y-108500000D01*
G04 #@! TO.C,X58*
X161800000Y-105500000D02*
X161800000Y-100500000D01*
X163000000Y-105500000D02*
X163000000Y-100500000D01*
G04 #@! TO.C,X51*
X167300000Y-111500000D02*
X167300000Y-108500000D01*
X166700000Y-111500000D02*
X166700000Y-108500000D01*
G04 #@! TO.C,X52*
X167200000Y-105500000D02*
X167200000Y-102500000D01*
X166600000Y-105500000D02*
X166600000Y-102500000D01*
G04 #@! TO.C,X50*
X163374999Y-108500000D02*
X163374999Y-111500000D01*
X163974999Y-108500000D02*
X163974999Y-111500000D01*
G04 #@! TO.C,X49*
X164124999Y-108500000D02*
X164124999Y-111500000D01*
X164724999Y-108500000D02*
X164724999Y-111500000D01*
G04 #@! TO.C,U8*
X170200000Y-94175000D02*
X170200000Y-88200000D01*
X175725000Y-92600000D02*
X175725000Y-88200000D01*
G04 #@! TO.C,U10*
X159190000Y-86700000D02*
X159590000Y-86700000D01*
X162390000Y-86700000D02*
X161990000Y-86700000D01*
X162390000Y-86700000D02*
X162390000Y-87100000D01*
X162390000Y-89900000D02*
X161990000Y-89900000D01*
X162390000Y-89900000D02*
X162390000Y-89500000D01*
X159190000Y-89900000D02*
X159590000Y-89900000D01*
X159190000Y-89900000D02*
X159190000Y-89500000D01*
G04 #@! TO.C,X47*
X174750000Y-84350000D02*
X174750000Y-79350000D01*
X175950000Y-84350000D02*
X175950000Y-79350000D01*
G04 #@! TO.C,X48*
X163300000Y-76250000D02*
X158300000Y-76250000D01*
X163300000Y-75050000D02*
X158300000Y-75050000D01*
D12*
G04 #@! TO.C,C8*
X163061252Y-122590000D02*
X162538748Y-122590000D01*
X163061252Y-124010000D02*
X162538748Y-124010000D01*
D11*
G04 #@! TO.C,X29*
X121850000Y-55200000D02*
X126850000Y-55200000D01*
X121850000Y-56400000D02*
X126850000Y-56400000D01*
G04 #@! TO.C,X45*
X165700000Y-105500000D02*
X165700000Y-102500000D01*
X165100000Y-105500000D02*
X165100000Y-102500000D01*
G04 #@! TO.C,X43*
X168900000Y-82200000D02*
X168900000Y-79200000D01*
X168300000Y-82200000D02*
X168300000Y-79200000D01*
G04 #@! TO.C,X42*
X166500000Y-105500000D02*
X166500000Y-102500000D01*
X165900000Y-105500000D02*
X165900000Y-102500000D01*
G04 #@! TO.C,X41*
X166500000Y-111500000D02*
X166500000Y-108500000D01*
X165900000Y-111500000D02*
X165900000Y-108500000D01*
G04 #@! TO.C,X40*
X131800000Y-78300000D02*
X134800000Y-78300000D01*
X131800000Y-77700000D02*
X134800000Y-77700000D01*
G04 #@! TO.C,X39*
X164900000Y-105500000D02*
X164900000Y-102500000D01*
X164300000Y-105500000D02*
X164300000Y-102500000D01*
G04 #@! TO.C,X38*
X123800000Y-78200000D02*
X126800000Y-78200000D01*
X123800000Y-77600000D02*
X126800000Y-77600000D01*
G04 #@! TO.C,X37*
X131800000Y-77500000D02*
X134800000Y-77500000D01*
X131800000Y-76900000D02*
X134800000Y-76900000D01*
G04 #@! TO.C,X36*
X164100000Y-105500000D02*
X164100000Y-102500000D01*
X163500000Y-105500000D02*
X163500000Y-102500000D01*
G04 #@! TO.C,X35*
X123800000Y-77400000D02*
X126800000Y-77400000D01*
X123800000Y-76800000D02*
X126800000Y-76800000D01*
G04 #@! TO.C,X46*
X165625001Y-111500000D02*
X165625001Y-108500000D01*
X165025001Y-111500000D02*
X165025001Y-108500000D01*
G04 #@! TO.C,X44*
X168900000Y-76400000D02*
X168900000Y-73400000D01*
X168300000Y-76400000D02*
X168300000Y-73400000D01*
G04 #@! TO.C,X34*
X172475001Y-76394999D02*
X172475001Y-73394999D01*
X171875001Y-76394999D02*
X171875001Y-73394999D01*
G04 #@! TO.C,X32*
X172475001Y-82174999D02*
X172475001Y-79174999D01*
X171875001Y-82174999D02*
X171875001Y-79174999D01*
G04 #@! TO.C,X31*
X171725001Y-82174999D02*
X171725001Y-79174999D01*
X171125001Y-82174999D02*
X171125001Y-79174999D01*
G04 #@! TO.C,X33*
X171725001Y-76394999D02*
X171725001Y-73394999D01*
X171125001Y-76394999D02*
X171125001Y-73394999D01*
G04 #@! TO.C,X21*
X123800000Y-73200000D02*
X126800000Y-73200000D01*
X123800000Y-72600000D02*
X126800000Y-72600000D01*
G04 #@! TO.C,X22*
X123800000Y-74050000D02*
X126800000Y-74050000D01*
X123800000Y-73450000D02*
X126800000Y-73450000D01*
G04 #@! TO.C,X28*
X131600000Y-128700000D02*
X136600000Y-128700000D01*
X131600000Y-129900000D02*
X136600000Y-129900000D01*
G04 #@! TO.C,X27*
X100600000Y-54850000D02*
X105600000Y-54850000D01*
X100600000Y-56050000D02*
X105600000Y-56050000D01*
G04 #@! TO.C,X26*
X131600000Y-125900000D02*
X136600000Y-125900000D01*
X131600000Y-127100000D02*
X136600000Y-127100000D01*
G04 #@! TO.C,X24*
X158350000Y-79250000D02*
X163350000Y-79250000D01*
X158350000Y-80450000D02*
X163350000Y-80450000D01*
G04 #@! TO.C,X25*
X100600000Y-56200000D02*
X105600000Y-56200000D01*
X100600000Y-57400000D02*
X105600000Y-57400000D01*
G04 #@! TO.C,X23*
X175950000Y-71200000D02*
X175950000Y-76200000D01*
X174750000Y-71200000D02*
X174750000Y-76200000D01*
G04 #@! TO.C,X12*
X100600000Y-57550000D02*
X105600000Y-57550000D01*
X100600000Y-58750000D02*
X105600000Y-58750000D01*
G04 #@! TO.C,X11*
X131600000Y-127300000D02*
X136600000Y-127300000D01*
X131600000Y-128500000D02*
X136600000Y-128500000D01*
G04 #@! TO.C,X30*
X131500000Y-55300000D02*
X136500000Y-55300000D01*
X131500000Y-56500000D02*
X136500000Y-56500000D01*
G04 #@! TO.C,X10*
X131700000Y-74150000D02*
X134700000Y-74150000D01*
X131700000Y-73550000D02*
X134700000Y-73550000D01*
G04 #@! TO.C,X9*
X131700000Y-73300000D02*
X134700000Y-73300000D01*
X131700000Y-72700000D02*
X134700000Y-72700000D01*
G04 #@! TO.C,X19*
X123800000Y-76600000D02*
X126800000Y-76600000D01*
X123800000Y-76000000D02*
X126800000Y-76000000D01*
G04 #@! TO.C,X18*
X131700000Y-75850000D02*
X134700000Y-75850000D01*
X131700000Y-75250000D02*
X134700000Y-75250000D01*
G04 #@! TO.C,X17*
X131700000Y-75000000D02*
X134700000Y-75000000D01*
X131700000Y-74400000D02*
X134700000Y-74400000D01*
G04 #@! TO.C,X16*
X131700000Y-59750000D02*
X134700000Y-59750000D01*
X131700000Y-59150000D02*
X134700000Y-59150000D01*
G04 #@! TO.C,X15*
X131700000Y-58950000D02*
X134700000Y-58950000D01*
X131700000Y-58350000D02*
X134700000Y-58350000D01*
G04 #@! TO.C,X14*
X123700000Y-58100000D02*
X126700000Y-58100000D01*
X123700000Y-57500000D02*
X126700000Y-57500000D01*
G04 #@! TO.C,X13*
X131700000Y-57350000D02*
X134700000Y-57350000D01*
X131700000Y-56750000D02*
X134700000Y-56750000D01*
G04 #@! TO.C,X8*
X123800000Y-72500000D02*
X126800000Y-72500000D01*
X123800000Y-71900000D02*
X126800000Y-71900000D01*
G04 #@! TO.C,X7*
X131800000Y-76700000D02*
X134800000Y-76700000D01*
X131800000Y-76100000D02*
X134800000Y-76100000D01*
G04 #@! TO.C,X6*
X123800000Y-75750000D02*
X126800000Y-75750000D01*
X123800000Y-75150000D02*
X126800000Y-75150000D01*
G04 #@! TO.C,X5*
X123800000Y-74950000D02*
X126800000Y-74950000D01*
X123800000Y-74350000D02*
X126800000Y-74350000D01*
G04 #@! TO.C,X4*
X123700000Y-59700000D02*
X126700000Y-59700000D01*
X123700000Y-59100000D02*
X126700000Y-59100000D01*
G04 #@! TO.C,X3*
X123700000Y-58900000D02*
X126700000Y-58900000D01*
X123700000Y-58300000D02*
X126700000Y-58300000D01*
G04 #@! TO.C,X2*
X131700000Y-58150000D02*
X134700000Y-58150000D01*
X131700000Y-57550000D02*
X134700000Y-57550000D01*
G04 #@! TO.C,X1*
X123700000Y-57300000D02*
X126700000Y-57300000D01*
X123700000Y-56700000D02*
X126700000Y-56700000D01*
G04 #@! TO.C,X20*
X131700000Y-72500000D02*
X134700000Y-72500000D01*
X131700000Y-71900000D02*
X134700000Y-71900000D01*
D12*
G04 #@! TO.C,SW1*
X146350000Y-73600000D02*
X146350000Y-72100000D01*
X145100000Y-69600000D02*
X140600000Y-69600000D01*
X139350000Y-72100000D02*
X139350000Y-73600000D01*
X140600000Y-76100000D02*
X145100000Y-76100000D01*
G04 #@! TO.C,SW2*
X146350000Y-81900000D02*
X146350000Y-80400000D01*
X145100000Y-77900000D02*
X140600000Y-77900000D01*
X139350000Y-80400000D02*
X139350000Y-81900000D01*
X140600000Y-84400000D02*
X145100000Y-84400000D01*
G04 #@! TO.C,C3*
X141226727Y-119444376D02*
X140884193Y-119444376D01*
X141226727Y-120464376D02*
X140884193Y-120464376D01*
G04 #@! TO.C,C5*
X152790000Y-128928733D02*
X152790000Y-129271267D01*
X153810000Y-128928733D02*
X153810000Y-129271267D01*
G04 #@! TO.C,C6*
X142671267Y-131590000D02*
X142328733Y-131590000D01*
X142671267Y-132610000D02*
X142328733Y-132610000D01*
G04 #@! TO.C,C7*
X139590000Y-129128733D02*
X139590000Y-129471267D01*
X140610000Y-129128733D02*
X140610000Y-129471267D01*
G04 #@! TO.C,C9*
X169790000Y-125728733D02*
X169790000Y-126071267D01*
X170810000Y-125728733D02*
X170810000Y-126071267D01*
G04 #@! TO.C,C10*
X167528733Y-127010000D02*
X167871267Y-127010000D01*
X167528733Y-125990000D02*
X167871267Y-125990000D01*
G04 #@! TO.C,C1*
X152545460Y-116983109D02*
X152545460Y-117325643D01*
X153565460Y-116983109D02*
X153565460Y-117325643D01*
G04 #@! TO.C,C20*
X111878733Y-59460000D02*
X112221267Y-59460000D01*
X111878733Y-58440000D02*
X112221267Y-58440000D01*
G04 #@! TO.C,C32*
X115690000Y-56528733D02*
X115690000Y-56871267D01*
X116710000Y-56528733D02*
X116710000Y-56871267D01*
G04 #@! TO.C,C30*
X108128733Y-65410000D02*
X108471267Y-65410000D01*
X108128733Y-64390000D02*
X108471267Y-64390000D01*
G04 #@! TO.C,C29*
X102410000Y-64071267D02*
X102410000Y-63728733D01*
X101390000Y-64071267D02*
X101390000Y-63728733D01*
G04 #@! TO.C,C25*
X134021267Y-115940000D02*
X133678733Y-115940000D01*
X134021267Y-116960000D02*
X133678733Y-116960000D01*
G04 #@! TO.C,C24*
X162640000Y-93328733D02*
X162640000Y-93671267D01*
X163660000Y-93328733D02*
X163660000Y-93671267D01*
G04 #@! TO.C,C23*
X160328733Y-94910000D02*
X160671267Y-94910000D01*
X160328733Y-93890000D02*
X160671267Y-93890000D01*
G04 #@! TO.C,C22*
X160328733Y-93110000D02*
X160671267Y-93110000D01*
X160328733Y-92090000D02*
X160671267Y-92090000D01*
G04 #@! TO.C,C19*
X167310000Y-85771267D02*
X167310000Y-85428733D01*
X166290000Y-85771267D02*
X166290000Y-85428733D01*
G04 #@! TO.C,C18*
X166771267Y-92490000D02*
X166428733Y-92490000D01*
X166771267Y-93510000D02*
X166428733Y-93510000D01*
G04 #@! TO.C,C16*
X134728733Y-64060000D02*
X135071267Y-64060000D01*
X134728733Y-63040000D02*
X135071267Y-63040000D01*
G04 #@! TO.C,C14*
X166571267Y-51584999D02*
X166228733Y-51584999D01*
X166571267Y-52604999D02*
X166228733Y-52604999D01*
G04 #@! TO.C,C12*
X171171267Y-51490000D02*
X170828733Y-51490000D01*
X171171267Y-52510000D02*
X170828733Y-52510000D01*
G04 #@! TO.C,C31*
X119271267Y-58290000D02*
X118928733Y-58290000D01*
X119271267Y-59310000D02*
X118928733Y-59310000D01*
G04 #@! TO.C,C11*
X167238748Y-125410000D02*
X167761252Y-125410000D01*
X167238748Y-123990000D02*
X167761252Y-123990000D01*
G04 #@! TO.C,C13*
X176690000Y-81238748D02*
X176690000Y-81761252D01*
X178110000Y-81238748D02*
X178110000Y-81761252D01*
G04 #@! TO.C,C17*
X134538748Y-62460000D02*
X135061252Y-62460000D01*
X134538748Y-61040000D02*
X135061252Y-61040000D01*
G04 #@! TO.C,C4*
X171590000Y-126238748D02*
X171590000Y-126761252D01*
X173010000Y-126238748D02*
X173010000Y-126761252D01*
G04 #@! TO.C,C21*
X111913749Y-57735001D02*
X112436253Y-57735001D01*
X111913749Y-56315001D02*
X112436253Y-56315001D01*
G04 #@! TO.C,C26*
X134236252Y-117940000D02*
X133713748Y-117940000D01*
X134236252Y-119360000D02*
X133713748Y-119360000D01*
G04 #@! TO.C,C2*
X140410000Y-113561252D02*
X140410000Y-113038748D01*
X138990000Y-113561252D02*
X138990000Y-113038748D01*
G04 #@! TO.C,J1*
X174170000Y-123870000D02*
X175500000Y-123870000D01*
X174170000Y-125200000D02*
X174170000Y-123870000D01*
X174170000Y-126470000D02*
X176830000Y-126470000D01*
X176830000Y-126470000D02*
X176830000Y-129070000D01*
X174170000Y-126470000D02*
X174170000Y-129070000D01*
X174170000Y-129070000D02*
X176830000Y-129070000D01*
G04 #@! TO.C,D2*
X141550000Y-130700000D02*
X141550000Y-123400000D01*
X145850000Y-130700000D02*
X145850000Y-123400000D01*
X141550000Y-130700000D02*
X145850000Y-130700000D01*
G04 #@! TO.C,D1*
X140905460Y-118554376D02*
X140905460Y-111254376D01*
X145205460Y-118554376D02*
X145205460Y-111254376D01*
X140905460Y-118554376D02*
X145205460Y-118554376D01*
D11*
G04 #@! TO.C,U7*
X167400000Y-91450000D02*
X167900000Y-91950000D01*
X167400000Y-88950000D02*
X167400000Y-89200000D01*
X165400000Y-88950000D02*
X167400000Y-88950000D01*
X165400000Y-89200000D02*
X165400000Y-88950000D01*
X165400000Y-91450000D02*
X165400000Y-91200000D01*
X165650000Y-91450000D02*
X165400000Y-91450000D01*
X167400000Y-91450000D02*
X165650000Y-91450000D01*
X167400000Y-91200000D02*
X167400000Y-91450000D01*
G04 #@! TO.C,U5*
X174900000Y-54400000D02*
X174900000Y-72400000D01*
X181200000Y-72400000D02*
X181200000Y-63400000D01*
X149800000Y-72400000D02*
X181200000Y-72400000D01*
X149800000Y-54400000D02*
X149800000Y-72400000D01*
X181200000Y-54400000D02*
X149800000Y-54400000D01*
X181200000Y-63400000D02*
X181200000Y-54400000D01*
G04 #@! TO.C,L1*
X146855460Y-115054376D02*
X146855460Y-108454376D01*
X152455460Y-115054376D02*
X146855460Y-115054376D01*
X152455460Y-108454376D02*
X152455460Y-115054376D01*
X146855460Y-108454376D02*
X152455460Y-108454376D01*
G04 #@! TO.C,L2*
X147100000Y-127000000D02*
X147100000Y-120400000D01*
X152700000Y-127000000D02*
X147100000Y-127000000D01*
X152700000Y-120400000D02*
X152700000Y-127000000D01*
X147100000Y-120400000D02*
X152700000Y-120400000D01*
G04 #@! TO.C,U11*
X132900000Y-112750000D02*
X132500000Y-113150000D01*
X132900000Y-108350000D02*
X132900000Y-108550000D01*
X133700000Y-108350000D02*
X132900000Y-108350000D01*
X135300000Y-108350000D02*
X134500000Y-108350000D01*
X135300000Y-108550000D02*
X135300000Y-108350000D01*
X135300000Y-112750000D02*
X135300000Y-112550000D01*
X134500000Y-112750000D02*
X135300000Y-112750000D01*
X132900000Y-112750000D02*
X132900000Y-112550000D01*
X133700000Y-112750000D02*
X132900000Y-112750000D01*
G04 #@! TO.C,U9*
X110900000Y-60600000D02*
X110500000Y-60200000D01*
X115300000Y-60600000D02*
X115100000Y-60600000D01*
X115300000Y-61400000D02*
X115300000Y-60600000D01*
X115300000Y-63000000D02*
X115300000Y-62200000D01*
X115100000Y-63000000D02*
X115300000Y-63000000D01*
X110900000Y-63000000D02*
X111100000Y-63000000D01*
X110900000Y-62200000D02*
X110900000Y-63000000D01*
X110900000Y-60600000D02*
X111100000Y-60600000D01*
X110900000Y-61400000D02*
X110900000Y-60600000D01*
G04 #@! TO.C,U6*
X136350000Y-64950000D02*
X136750000Y-64550000D01*
X136350000Y-69350000D02*
X136350000Y-69150000D01*
X135550000Y-69350000D02*
X136350000Y-69350000D01*
X133950000Y-69350000D02*
X134750000Y-69350000D01*
X133950000Y-69150000D02*
X133950000Y-69350000D01*
X133950000Y-64950000D02*
X133950000Y-65150000D01*
X134750000Y-64950000D02*
X133950000Y-64950000D01*
X136350000Y-64950000D02*
X136350000Y-65150000D01*
X135550000Y-64950000D02*
X136350000Y-64950000D01*
D12*
G04 #@! TO.C,D4*
X156513682Y-124650238D02*
X156513682Y-127110238D01*
X157983682Y-124650238D02*
X156513682Y-124650238D01*
X157983682Y-127110238D02*
X157983682Y-124650238D01*
G04 #@! TO.C,D5*
X170460000Y-100465000D02*
X168000000Y-100465000D01*
X170460000Y-101935000D02*
X170460000Y-100465000D01*
X168000000Y-101935000D02*
X170460000Y-101935000D01*
G04 #@! TO.C,D3*
X158313682Y-124650238D02*
X158313682Y-127110238D01*
X159783682Y-124650238D02*
X158313682Y-124650238D01*
X159783682Y-127110238D02*
X159783682Y-124650238D01*
D11*
G04 #@! TO.C,U13*
X120825000Y-60150000D02*
X119450000Y-60150000D01*
X120825000Y-70275000D02*
X124975000Y-70275000D01*
X120825000Y-60125000D02*
X124975000Y-60125000D01*
X120825000Y-70275000D02*
X120825000Y-70170000D01*
X124975000Y-70275000D02*
X124975000Y-70170000D01*
X124975000Y-60125000D02*
X124975000Y-60230000D01*
X120825000Y-60125000D02*
X120825000Y-60150000D01*
G04 #@! TO.C,U12*
X102725000Y-66100000D02*
X101350000Y-66100000D01*
X102725000Y-76225000D02*
X106875000Y-76225000D01*
X102725000Y-66075000D02*
X106875000Y-66075000D01*
X102725000Y-76225000D02*
X102725000Y-76120000D01*
X106875000Y-76225000D02*
X106875000Y-76120000D01*
X106875000Y-66075000D02*
X106875000Y-66180000D01*
X102725000Y-66075000D02*
X102725000Y-66100000D01*
G04 #@! TO.C,U3*
X166825000Y-121625000D02*
X168225000Y-121625000D01*
X166825000Y-116525000D02*
X162675000Y-116525000D01*
X166825000Y-121675000D02*
X162675000Y-121675000D01*
X166825000Y-116525000D02*
X166825000Y-116670000D01*
X162675000Y-116525000D02*
X162675000Y-116670000D01*
X162675000Y-121675000D02*
X162675000Y-121530000D01*
X166825000Y-121675000D02*
X166825000Y-121625000D01*
D12*
G04 #@! TO.C,Q6*
X116012571Y-84534703D02*
X114552571Y-84534703D01*
X116012571Y-81374703D02*
X113852571Y-81374703D01*
X116012571Y-81374703D02*
X116012571Y-82304703D01*
X116012571Y-84534703D02*
X116012571Y-83604703D01*
G04 #@! TO.C,Q5*
X110592571Y-84799703D02*
X112052571Y-84799703D01*
X110592571Y-87959703D02*
X112752571Y-87959703D01*
X110592571Y-87959703D02*
X110592571Y-87029703D01*
X110592571Y-84799703D02*
X110592571Y-85729703D01*
G04 #@! TO.C,Q2*
X142436383Y-64953752D02*
X143896383Y-64953752D01*
X142436383Y-68113752D02*
X144596383Y-68113752D01*
X142436383Y-68113752D02*
X142436383Y-67183752D01*
X142436383Y-64953752D02*
X142436383Y-65883752D01*
G04 #@! TO.C,Q3*
X108812571Y-84359703D02*
X107352571Y-84359703D01*
X108812571Y-81199703D02*
X106652571Y-81199703D01*
X108812571Y-81199703D02*
X108812571Y-82129703D01*
X108812571Y-84359703D02*
X108812571Y-83429703D01*
G04 #@! TO.C,Q1*
X173170000Y-100260000D02*
X173170000Y-98800000D01*
X176330000Y-100260000D02*
X176330000Y-98100000D01*
X176330000Y-100260000D02*
X175400000Y-100260000D01*
X173170000Y-100260000D02*
X174100000Y-100260000D01*
G04 #@! TO.C,Q4*
X118092571Y-84670000D02*
X119552571Y-84670000D01*
X118092571Y-87830000D02*
X120252571Y-87830000D01*
X118092571Y-87830000D02*
X118092571Y-86900000D01*
X118092571Y-84670000D02*
X118092571Y-85600000D01*
G04 #@! TO.C,U1*
X150355460Y-115544376D02*
X147905460Y-115544376D01*
X148555460Y-118764376D02*
X150355460Y-118764376D01*
G04 #@! TO.C,U2*
X151000000Y-127490000D02*
X148550000Y-127490000D01*
X149200000Y-130710000D02*
X151000000Y-130710000D01*
G04 #@! TO.C,U4*
X171100000Y-131880000D02*
X169900000Y-131880000D01*
X171100000Y-127880000D02*
X171100000Y-131880000D01*
X166300000Y-131880000D02*
X166300000Y-129180000D01*
X167500000Y-131880000D02*
X166300000Y-131880000D01*
G04 #@! TO.C,R4*
X169987221Y-109610000D02*
X170312779Y-109610000D01*
X169987221Y-108590000D02*
X170312779Y-108590000D01*
G04 #@! TO.C,R14*
X170837221Y-99910000D02*
X171162779Y-99910000D01*
X170837221Y-98890000D02*
X171162779Y-98890000D01*
G04 #@! TO.C,R20*
X119215350Y-81244703D02*
X118889792Y-81244703D01*
X119215350Y-82264703D02*
X118889792Y-82264703D01*
G04 #@! TO.C,R13*
X152537221Y-132410000D02*
X152862779Y-132410000D01*
X152537221Y-131390000D02*
X152862779Y-131390000D01*
G04 #@! TO.C,R12*
X149362779Y-78290000D02*
X149037221Y-78290000D01*
X149362779Y-79310000D02*
X149037221Y-79310000D01*
G04 #@! TO.C,R11*
X147290000Y-66237221D02*
X147290000Y-66562779D01*
X148310000Y-66237221D02*
X148310000Y-66562779D01*
G04 #@! TO.C,R10*
X148490000Y-83437221D02*
X148490000Y-83762779D01*
X149510000Y-83437221D02*
X149510000Y-83762779D01*
G04 #@! TO.C,R9*
X167862779Y-122090000D02*
X167537221Y-122090000D01*
X167862779Y-123110000D02*
X167537221Y-123110000D01*
G04 #@! TO.C,R8*
X156938682Y-122747459D02*
X156938682Y-123073017D01*
X157958682Y-122747459D02*
X157958682Y-123073017D01*
G04 #@! TO.C,R7*
X147610000Y-129662779D02*
X147610000Y-129337221D01*
X146590000Y-129662779D02*
X146590000Y-129337221D01*
G04 #@! TO.C,R6*
X158538682Y-122747459D02*
X158538682Y-123073017D01*
X159558682Y-122747459D02*
X159558682Y-123073017D01*
G04 #@! TO.C,R5*
X170325279Y-110290000D02*
X169999721Y-110290000D01*
X170325279Y-111310000D02*
X169999721Y-111310000D01*
G04 #@! TO.C,R1*
X144492681Y-120664376D02*
X144818239Y-120664376D01*
X144492681Y-119644376D02*
X144818239Y-119644376D01*
G04 #@! TO.C,R23*
X111942571Y-82804424D02*
X111942571Y-83129982D01*
X112962571Y-82804424D02*
X112962571Y-83129982D01*
G04 #@! TO.C,R22*
X114562571Y-86517482D02*
X114562571Y-86191924D01*
X113542571Y-86517482D02*
X113542571Y-86191924D01*
G04 #@! TO.C,R21*
X119215350Y-83044703D02*
X118889792Y-83044703D01*
X119215350Y-84064703D02*
X118889792Y-84064703D01*
G04 #@! TO.C,R19*
X107689792Y-85864703D02*
X108015350Y-85864703D01*
X107689792Y-84844703D02*
X108015350Y-84844703D01*
G04 #@! TO.C,R18*
X107689792Y-87464703D02*
X108015350Y-87464703D01*
X107689792Y-86444703D02*
X108015350Y-86444703D01*
G04 #@! TO.C,R16*
X174362779Y-96290000D02*
X174037221Y-96290000D01*
X174362779Y-97310000D02*
X174037221Y-97310000D01*
G04 #@! TO.C,R15*
X139183604Y-67843752D02*
X139509162Y-67843752D01*
X139183604Y-66823752D02*
X139509162Y-66823752D01*
G04 #@! TO.C,R2*
X146965460Y-117717155D02*
X146965460Y-117391597D01*
X145945460Y-117717155D02*
X145945460Y-117391597D01*
G04 #@! TO.C,R17*
X146410000Y-66712779D02*
X146410000Y-66387221D01*
X145390000Y-66712779D02*
X145390000Y-66387221D01*
G04 #@! TO.C,R3*
X145937221Y-132610000D02*
X146262779Y-132610000D01*
X145937221Y-131590000D02*
X146262779Y-131590000D01*
G04 #@! TO.C,R24*
X136528733Y-115010000D02*
X136871267Y-115010000D01*
X136528733Y-113990000D02*
X136871267Y-113990000D01*
G04 #@! TO.C,R25*
X137928733Y-123810000D02*
X138271267Y-123810000D01*
X137928733Y-122790000D02*
X138271267Y-122790000D01*
G04 #@! TO.C,R26*
X158290000Y-116828733D02*
X158290000Y-117171267D01*
X159310000Y-116828733D02*
X159310000Y-117171267D01*
G04 #@! TO.C,R27*
X163840000Y-126378733D02*
X163840000Y-126721267D01*
X164860000Y-126378733D02*
X164860000Y-126721267D01*
G04 #@! TO.C,TP2*
X140250000Y-125700000D02*
G75*
G03X140250000Y-125700000I-950000J0D01*
G01*
G04 #@! TO.C,TP3*
X165450000Y-129950000D02*
G75*
G03X165450000Y-129950000I-950000J0D01*
G01*
G04 #@! TO.C,TP1*
X140005460Y-116754376D02*
G75*
G03X140005460Y-116754376I-950000J0D01*
G01*
G04 #@! TO.C,TP5*
X164350000Y-83000000D02*
G75*
G03X164350000Y-83000000I-950000J0D01*
G01*
G04 #@! TO.C,TP4*
X161650000Y-82950000D02*
G75*
G03X161650000Y-82950000I-950000J0D01*
G01*
G04 #@! TO.C,C27*
X110342571Y-82583436D02*
X110342571Y-82925970D01*
X111362571Y-82583436D02*
X111362571Y-82925970D01*
G04 #@! TO.C,C28*
X116362571Y-86525970D02*
X116362571Y-86183436D01*
X115342571Y-86525970D02*
X115342571Y-86183436D01*
G04 #@! TO.C,J4*
D11*
X116866666Y-63452380D02*
X116866666Y-64166666D01*
X116819047Y-64309523D01*
X116723809Y-64404761D01*
X116580952Y-64452380D01*
X116485714Y-64452380D01*
X117771428Y-63785714D02*
X117771428Y-64452380D01*
X117533333Y-63404761D02*
X117295238Y-64119047D01*
X117914285Y-64119047D01*
G04 #@! TO.C,C33*
X107177142Y-79892857D02*
X107224761Y-79940476D01*
X107272380Y-80083333D01*
X107272380Y-80178571D01*
X107224761Y-80321428D01*
X107129523Y-80416666D01*
X107034285Y-80464285D01*
X106843809Y-80511904D01*
X106700952Y-80511904D01*
X106510476Y-80464285D01*
X106415238Y-80416666D01*
X106320000Y-80321428D01*
X106272380Y-80178571D01*
X106272380Y-80083333D01*
X106320000Y-79940476D01*
X106367619Y-79892857D01*
X106272380Y-79559523D02*
X106272380Y-78940476D01*
X106653333Y-79273809D01*
X106653333Y-79130952D01*
X106700952Y-79035714D01*
X106748571Y-78988095D01*
X106843809Y-78940476D01*
X107081904Y-78940476D01*
X107177142Y-78988095D01*
X107224761Y-79035714D01*
X107272380Y-79130952D01*
X107272380Y-79416666D01*
X107224761Y-79511904D01*
X107177142Y-79559523D01*
X106272380Y-78607142D02*
X106272380Y-77988095D01*
X106653333Y-78321428D01*
X106653333Y-78178571D01*
X106700952Y-78083333D01*
X106748571Y-78035714D01*
X106843809Y-77988095D01*
X107081904Y-77988095D01*
X107177142Y-78035714D01*
X107224761Y-78083333D01*
X107272380Y-78178571D01*
X107272380Y-78464285D01*
X107224761Y-78559523D01*
X107177142Y-78607142D01*
G04 #@! TO.C,C15*
X118607142Y-75107142D02*
X118559523Y-75154761D01*
X118416666Y-75202380D01*
X118321428Y-75202380D01*
X118178571Y-75154761D01*
X118083333Y-75059523D01*
X118035714Y-74964285D01*
X117988095Y-74773809D01*
X117988095Y-74630952D01*
X118035714Y-74440476D01*
X118083333Y-74345238D01*
X118178571Y-74250000D01*
X118321428Y-74202380D01*
X118416666Y-74202380D01*
X118559523Y-74250000D01*
X118607142Y-74297619D01*
X119559523Y-75202380D02*
X118988095Y-75202380D01*
X119273809Y-75202380D02*
X119273809Y-74202380D01*
X119178571Y-74345238D01*
X119083333Y-74440476D01*
X118988095Y-74488095D01*
X120464285Y-74202380D02*
X119988095Y-74202380D01*
X119940476Y-74678571D01*
X119988095Y-74630952D01*
X120083333Y-74583333D01*
X120321428Y-74583333D01*
X120416666Y-74630952D01*
X120464285Y-74678571D01*
X120511904Y-74773809D01*
X120511904Y-75011904D01*
X120464285Y-75107142D01*
X120416666Y-75154761D01*
X120321428Y-75202380D01*
X120083333Y-75202380D01*
X119988095Y-75154761D01*
X119940476Y-75107142D01*
G04 #@! TO.C,R30*
X103857142Y-82452380D02*
X103523809Y-81976190D01*
X103285714Y-82452380D02*
X103285714Y-81452380D01*
X103666666Y-81452380D01*
X103761904Y-81500000D01*
X103809523Y-81547619D01*
X103857142Y-81642857D01*
X103857142Y-81785714D01*
X103809523Y-81880952D01*
X103761904Y-81928571D01*
X103666666Y-81976190D01*
X103285714Y-81976190D01*
X104190476Y-81452380D02*
X104809523Y-81452380D01*
X104476190Y-81833333D01*
X104619047Y-81833333D01*
X104714285Y-81880952D01*
X104761904Y-81928571D01*
X104809523Y-82023809D01*
X104809523Y-82261904D01*
X104761904Y-82357142D01*
X104714285Y-82404761D01*
X104619047Y-82452380D01*
X104333333Y-82452380D01*
X104238095Y-82404761D01*
X104190476Y-82357142D01*
X105428571Y-81452380D02*
X105523809Y-81452380D01*
X105619047Y-81500000D01*
X105666666Y-81547619D01*
X105714285Y-81642857D01*
X105761904Y-81833333D01*
X105761904Y-82071428D01*
X105714285Y-82261904D01*
X105666666Y-82357142D01*
X105619047Y-82404761D01*
X105523809Y-82452380D01*
X105428571Y-82452380D01*
X105333333Y-82404761D01*
X105285714Y-82357142D01*
X105238095Y-82261904D01*
X105190476Y-82071428D01*
X105190476Y-81833333D01*
X105238095Y-81642857D01*
X105285714Y-81547619D01*
X105333333Y-81500000D01*
X105428571Y-81452380D01*
G04 #@! TO.C,R31*
X121607142Y-79702380D02*
X121273809Y-79226190D01*
X121035714Y-79702380D02*
X121035714Y-78702380D01*
X121416666Y-78702380D01*
X121511904Y-78750000D01*
X121559523Y-78797619D01*
X121607142Y-78892857D01*
X121607142Y-79035714D01*
X121559523Y-79130952D01*
X121511904Y-79178571D01*
X121416666Y-79226190D01*
X121035714Y-79226190D01*
X121940476Y-78702380D02*
X122559523Y-78702380D01*
X122226190Y-79083333D01*
X122369047Y-79083333D01*
X122464285Y-79130952D01*
X122511904Y-79178571D01*
X122559523Y-79273809D01*
X122559523Y-79511904D01*
X122511904Y-79607142D01*
X122464285Y-79654761D01*
X122369047Y-79702380D01*
X122083333Y-79702380D01*
X121988095Y-79654761D01*
X121940476Y-79607142D01*
X123511904Y-79702380D02*
X122940476Y-79702380D01*
X123226190Y-79702380D02*
X123226190Y-78702380D01*
X123130952Y-78845238D01*
X123035714Y-78940476D01*
X122940476Y-78988095D01*
G04 #@! TO.C,J2*
X171051597Y-121218598D02*
X170337420Y-121231064D01*
X170193753Y-121185945D01*
X170096868Y-121092384D01*
X170046763Y-120950379D01*
X170045100Y-120855156D01*
X170963853Y-121648766D02*
X171012296Y-121695547D01*
X171061569Y-121789939D01*
X171065725Y-122027998D01*
X171019775Y-122124053D01*
X170972994Y-122172496D01*
X170878602Y-122221770D01*
X170783378Y-122223432D01*
X170639712Y-122178313D01*
X170058398Y-121616944D01*
X170069201Y-122235898D01*
G04 #@! TO.C,R28*
X134452380Y-86442857D02*
X133976190Y-86776190D01*
X134452380Y-87014285D02*
X133452380Y-87014285D01*
X133452380Y-86633333D01*
X133500000Y-86538095D01*
X133547619Y-86490476D01*
X133642857Y-86442857D01*
X133785714Y-86442857D01*
X133880952Y-86490476D01*
X133928571Y-86538095D01*
X133976190Y-86633333D01*
X133976190Y-87014285D01*
X133547619Y-86061904D02*
X133500000Y-86014285D01*
X133452380Y-85919047D01*
X133452380Y-85680952D01*
X133500000Y-85585714D01*
X133547619Y-85538095D01*
X133642857Y-85490476D01*
X133738095Y-85490476D01*
X133880952Y-85538095D01*
X134452380Y-86109523D01*
X134452380Y-85490476D01*
X133880952Y-84919047D02*
X133833333Y-85014285D01*
X133785714Y-85061904D01*
X133690476Y-85109523D01*
X133642857Y-85109523D01*
X133547619Y-85061904D01*
X133500000Y-85014285D01*
X133452380Y-84919047D01*
X133452380Y-84728571D01*
X133500000Y-84633333D01*
X133547619Y-84585714D01*
X133642857Y-84538095D01*
X133690476Y-84538095D01*
X133785714Y-84585714D01*
X133833333Y-84633333D01*
X133880952Y-84728571D01*
X133880952Y-84919047D01*
X133928571Y-85014285D01*
X133976190Y-85061904D01*
X134071428Y-85109523D01*
X134261904Y-85109523D01*
X134357142Y-85061904D01*
X134404761Y-85014285D01*
X134452380Y-84919047D01*
X134452380Y-84728571D01*
X134404761Y-84633333D01*
X134357142Y-84585714D01*
X134261904Y-84538095D01*
X134071428Y-84538095D01*
X133976190Y-84585714D01*
X133928571Y-84633333D01*
X133880952Y-84728571D01*
G04 #@! TO.C,R29*
X135852380Y-86442857D02*
X135376190Y-86776190D01*
X135852380Y-87014285D02*
X134852380Y-87014285D01*
X134852380Y-86633333D01*
X134900000Y-86538095D01*
X134947619Y-86490476D01*
X135042857Y-86442857D01*
X135185714Y-86442857D01*
X135280952Y-86490476D01*
X135328571Y-86538095D01*
X135376190Y-86633333D01*
X135376190Y-87014285D01*
X134947619Y-86061904D02*
X134900000Y-86014285D01*
X134852380Y-85919047D01*
X134852380Y-85680952D01*
X134900000Y-85585714D01*
X134947619Y-85538095D01*
X135042857Y-85490476D01*
X135138095Y-85490476D01*
X135280952Y-85538095D01*
X135852380Y-86109523D01*
X135852380Y-85490476D01*
X135852380Y-85014285D02*
X135852380Y-84823809D01*
X135804761Y-84728571D01*
X135757142Y-84680952D01*
X135614285Y-84585714D01*
X135423809Y-84538095D01*
X135042857Y-84538095D01*
X134947619Y-84585714D01*
X134900000Y-84633333D01*
X134852380Y-84728571D01*
X134852380Y-84919047D01*
X134900000Y-85014285D01*
X134947619Y-85061904D01*
X135042857Y-85109523D01*
X135280952Y-85109523D01*
X135376190Y-85061904D01*
X135423809Y-85014285D01*
X135471428Y-84919047D01*
X135471428Y-84728571D01*
X135423809Y-84633333D01*
X135376190Y-84585714D01*
X135280952Y-84538095D01*
G04 #@! TO.C,J3*
X149882380Y-87033333D02*
X150596666Y-87033333D01*
X150739523Y-87080952D01*
X150834761Y-87176190D01*
X150882380Y-87319047D01*
X150882380Y-87414285D01*
X149882380Y-86652380D02*
X149882380Y-86033333D01*
X150263333Y-86366666D01*
X150263333Y-86223809D01*
X150310952Y-86128571D01*
X150358571Y-86080952D01*
X150453809Y-86033333D01*
X150691904Y-86033333D01*
X150787142Y-86080952D01*
X150834761Y-86128571D01*
X150882380Y-86223809D01*
X150882380Y-86509523D01*
X150834761Y-86604761D01*
X150787142Y-86652380D01*
G04 #@! TO.C,DISP1*
X140747619Y-55552380D02*
X140747619Y-54552380D01*
X140985714Y-54552380D01*
X141128571Y-54600000D01*
X141223809Y-54695238D01*
X141271428Y-54790476D01*
X141319047Y-54980952D01*
X141319047Y-55123809D01*
X141271428Y-55314285D01*
X141223809Y-55409523D01*
X141128571Y-55504761D01*
X140985714Y-55552380D01*
X140747619Y-55552380D01*
X141747619Y-55552380D02*
X141747619Y-54552380D01*
X142176190Y-55504761D02*
X142319047Y-55552380D01*
X142557142Y-55552380D01*
X142652380Y-55504761D01*
X142700000Y-55457142D01*
X142747619Y-55361904D01*
X142747619Y-55266666D01*
X142700000Y-55171428D01*
X142652380Y-55123809D01*
X142557142Y-55076190D01*
X142366666Y-55028571D01*
X142271428Y-54980952D01*
X142223809Y-54933333D01*
X142176190Y-54838095D01*
X142176190Y-54742857D01*
X142223809Y-54647619D01*
X142271428Y-54600000D01*
X142366666Y-54552380D01*
X142604761Y-54552380D01*
X142747619Y-54600000D01*
X143176190Y-55552380D02*
X143176190Y-54552380D01*
X143557142Y-54552380D01*
X143652380Y-54600000D01*
X143700000Y-54647619D01*
X143747619Y-54742857D01*
X143747619Y-54885714D01*
X143700000Y-54980952D01*
X143652380Y-55028571D01*
X143557142Y-55076190D01*
X143176190Y-55076190D01*
X144700000Y-55552380D02*
X144128571Y-55552380D01*
X144414285Y-55552380D02*
X144414285Y-54552380D01*
X144319047Y-54695238D01*
X144223809Y-54790476D01*
X144128571Y-54838095D01*
G04 #@! TO.C,U8*
X168902380Y-91161904D02*
X169711904Y-91161904D01*
X169807142Y-91114285D01*
X169854761Y-91066666D01*
X169902380Y-90971428D01*
X169902380Y-90780952D01*
X169854761Y-90685714D01*
X169807142Y-90638095D01*
X169711904Y-90590476D01*
X168902380Y-90590476D01*
X169330952Y-89971428D02*
X169283333Y-90066666D01*
X169235714Y-90114285D01*
X169140476Y-90161904D01*
X169092857Y-90161904D01*
X168997619Y-90114285D01*
X168950000Y-90066666D01*
X168902380Y-89971428D01*
X168902380Y-89780952D01*
X168950000Y-89685714D01*
X168997619Y-89638095D01*
X169092857Y-89590476D01*
X169140476Y-89590476D01*
X169235714Y-89638095D01*
X169283333Y-89685714D01*
X169330952Y-89780952D01*
X169330952Y-89971428D01*
X169378571Y-90066666D01*
X169426190Y-90114285D01*
X169521428Y-90161904D01*
X169711904Y-90161904D01*
X169807142Y-90114285D01*
X169854761Y-90066666D01*
X169902380Y-89971428D01*
X169902380Y-89780952D01*
X169854761Y-89685714D01*
X169807142Y-89638095D01*
X169711904Y-89590476D01*
X169521428Y-89590476D01*
X169426190Y-89638095D01*
X169378571Y-89685714D01*
X169330952Y-89780952D01*
G04 #@! TO.C,U10*
X160161904Y-85052380D02*
X160161904Y-85861904D01*
X160209523Y-85957142D01*
X160257142Y-86004761D01*
X160352380Y-86052380D01*
X160542857Y-86052380D01*
X160638095Y-86004761D01*
X160685714Y-85957142D01*
X160733333Y-85861904D01*
X160733333Y-85052380D01*
X161733333Y-86052380D02*
X161161904Y-86052380D01*
X161447619Y-86052380D02*
X161447619Y-85052380D01*
X161352380Y-85195238D01*
X161257142Y-85290476D01*
X161161904Y-85338095D01*
X162352380Y-85052380D02*
X162447619Y-85052380D01*
X162542857Y-85100000D01*
X162590476Y-85147619D01*
X162638095Y-85242857D01*
X162685714Y-85433333D01*
X162685714Y-85671428D01*
X162638095Y-85861904D01*
X162590476Y-85957142D01*
X162542857Y-86004761D01*
X162447619Y-86052380D01*
X162352380Y-86052380D01*
X162257142Y-86004761D01*
X162209523Y-85957142D01*
X162161904Y-85861904D01*
X162114285Y-85671428D01*
X162114285Y-85433333D01*
X162161904Y-85242857D01*
X162209523Y-85147619D01*
X162257142Y-85100000D01*
X162352380Y-85052380D01*
G04 #@! TO.C,C8*
X162633333Y-125307142D02*
X162585714Y-125354761D01*
X162442857Y-125402380D01*
X162347619Y-125402380D01*
X162204761Y-125354761D01*
X162109523Y-125259523D01*
X162061904Y-125164285D01*
X162014285Y-124973809D01*
X162014285Y-124830952D01*
X162061904Y-124640476D01*
X162109523Y-124545238D01*
X162204761Y-124450000D01*
X162347619Y-124402380D01*
X162442857Y-124402380D01*
X162585714Y-124450000D01*
X162633333Y-124497619D01*
X163204761Y-124830952D02*
X163109523Y-124783333D01*
X163061904Y-124735714D01*
X163014285Y-124640476D01*
X163014285Y-124592857D01*
X163061904Y-124497619D01*
X163109523Y-124450000D01*
X163204761Y-124402380D01*
X163395238Y-124402380D01*
X163490476Y-124450000D01*
X163538095Y-124497619D01*
X163585714Y-124592857D01*
X163585714Y-124640476D01*
X163538095Y-124735714D01*
X163490476Y-124783333D01*
X163395238Y-124830952D01*
X163204761Y-124830952D01*
X163109523Y-124878571D01*
X163061904Y-124926190D01*
X163014285Y-125021428D01*
X163014285Y-125211904D01*
X163061904Y-125307142D01*
X163109523Y-125354761D01*
X163204761Y-125402380D01*
X163395238Y-125402380D01*
X163490476Y-125354761D01*
X163538095Y-125307142D01*
X163585714Y-125211904D01*
X163585714Y-125021428D01*
X163538095Y-124926190D01*
X163490476Y-124878571D01*
X163395238Y-124830952D01*
G04 #@! TO.C,NT1*
X158852380Y-83342857D02*
X157852380Y-83342857D01*
X158852380Y-82771428D01*
X157852380Y-82771428D01*
X157852380Y-82438095D02*
X157852380Y-81866666D01*
X158852380Y-82152380D02*
X157852380Y-82152380D01*
X158852380Y-81009523D02*
X158852380Y-81580952D01*
X158852380Y-81295238D02*
X157852380Y-81295238D01*
X157995238Y-81390476D01*
X158090476Y-81485714D01*
X158138095Y-81580952D01*
G04 #@! TO.C,SW1*
X137604761Y-74733333D02*
X137652380Y-74590476D01*
X137652380Y-74352380D01*
X137604761Y-74257142D01*
X137557142Y-74209523D01*
X137461904Y-74161904D01*
X137366666Y-74161904D01*
X137271428Y-74209523D01*
X137223809Y-74257142D01*
X137176190Y-74352380D01*
X137128571Y-74542857D01*
X137080952Y-74638095D01*
X137033333Y-74685714D01*
X136938095Y-74733333D01*
X136842857Y-74733333D01*
X136747619Y-74685714D01*
X136700000Y-74638095D01*
X136652380Y-74542857D01*
X136652380Y-74304761D01*
X136700000Y-74161904D01*
X136652380Y-73828571D02*
X137652380Y-73590476D01*
X136938095Y-73400000D01*
X137652380Y-73209523D01*
X136652380Y-72971428D01*
X137652380Y-72066666D02*
X137652380Y-72638095D01*
X137652380Y-72352380D02*
X136652380Y-72352380D01*
X136795238Y-72447619D01*
X136890476Y-72542857D01*
X136938095Y-72638095D01*
G04 #@! TO.C,SW2*
X137804761Y-82733333D02*
X137852380Y-82590476D01*
X137852380Y-82352380D01*
X137804761Y-82257142D01*
X137757142Y-82209523D01*
X137661904Y-82161904D01*
X137566666Y-82161904D01*
X137471428Y-82209523D01*
X137423809Y-82257142D01*
X137376190Y-82352380D01*
X137328571Y-82542857D01*
X137280952Y-82638095D01*
X137233333Y-82685714D01*
X137138095Y-82733333D01*
X137042857Y-82733333D01*
X136947619Y-82685714D01*
X136900000Y-82638095D01*
X136852380Y-82542857D01*
X136852380Y-82304761D01*
X136900000Y-82161904D01*
X136852380Y-81828571D02*
X137852380Y-81590476D01*
X137138095Y-81400000D01*
X137852380Y-81209523D01*
X136852380Y-80971428D01*
X136947619Y-80638095D02*
X136900000Y-80590476D01*
X136852380Y-80495238D01*
X136852380Y-80257142D01*
X136900000Y-80161904D01*
X136947619Y-80114285D01*
X137042857Y-80066666D01*
X137138095Y-80066666D01*
X137280952Y-80114285D01*
X137852380Y-80685714D01*
X137852380Y-80066666D01*
G04 #@! TO.C,C3*
X137888793Y-120311518D02*
X137841174Y-120359137D01*
X137698317Y-120406756D01*
X137603079Y-120406756D01*
X137460221Y-120359137D01*
X137364983Y-120263899D01*
X137317364Y-120168661D01*
X137269745Y-119978185D01*
X137269745Y-119835328D01*
X137317364Y-119644852D01*
X137364983Y-119549614D01*
X137460221Y-119454376D01*
X137603079Y-119406756D01*
X137698317Y-119406756D01*
X137841174Y-119454376D01*
X137888793Y-119501995D01*
X138222126Y-119406756D02*
X138841174Y-119406756D01*
X138507840Y-119787709D01*
X138650698Y-119787709D01*
X138745936Y-119835328D01*
X138793555Y-119882947D01*
X138841174Y-119978185D01*
X138841174Y-120216280D01*
X138793555Y-120311518D01*
X138745936Y-120359137D01*
X138650698Y-120406756D01*
X138364983Y-120406756D01*
X138269745Y-120359137D01*
X138222126Y-120311518D01*
G04 #@! TO.C,C5*
X155087142Y-129266666D02*
X155134761Y-129314285D01*
X155182380Y-129457142D01*
X155182380Y-129552380D01*
X155134761Y-129695238D01*
X155039523Y-129790476D01*
X154944285Y-129838095D01*
X154753809Y-129885714D01*
X154610952Y-129885714D01*
X154420476Y-129838095D01*
X154325238Y-129790476D01*
X154230000Y-129695238D01*
X154182380Y-129552380D01*
X154182380Y-129457142D01*
X154230000Y-129314285D01*
X154277619Y-129266666D01*
X154182380Y-128361904D02*
X154182380Y-128838095D01*
X154658571Y-128885714D01*
X154610952Y-128838095D01*
X154563333Y-128742857D01*
X154563333Y-128504761D01*
X154610952Y-128409523D01*
X154658571Y-128361904D01*
X154753809Y-128314285D01*
X154991904Y-128314285D01*
X155087142Y-128361904D01*
X155134761Y-128409523D01*
X155182380Y-128504761D01*
X155182380Y-128742857D01*
X155134761Y-128838095D01*
X155087142Y-128885714D01*
G04 #@! TO.C,C6*
X139633333Y-132757142D02*
X139585714Y-132804761D01*
X139442857Y-132852380D01*
X139347619Y-132852380D01*
X139204761Y-132804761D01*
X139109523Y-132709523D01*
X139061904Y-132614285D01*
X139014285Y-132423809D01*
X139014285Y-132280952D01*
X139061904Y-132090476D01*
X139109523Y-131995238D01*
X139204761Y-131900000D01*
X139347619Y-131852380D01*
X139442857Y-131852380D01*
X139585714Y-131900000D01*
X139633333Y-131947619D01*
X140490476Y-131852380D02*
X140300000Y-131852380D01*
X140204761Y-131900000D01*
X140157142Y-131947619D01*
X140061904Y-132090476D01*
X140014285Y-132280952D01*
X140014285Y-132661904D01*
X140061904Y-132757142D01*
X140109523Y-132804761D01*
X140204761Y-132852380D01*
X140395238Y-132852380D01*
X140490476Y-132804761D01*
X140538095Y-132757142D01*
X140585714Y-132661904D01*
X140585714Y-132423809D01*
X140538095Y-132328571D01*
X140490476Y-132280952D01*
X140395238Y-132233333D01*
X140204761Y-132233333D01*
X140109523Y-132280952D01*
X140061904Y-132328571D01*
X140014285Y-132423809D01*
G04 #@! TO.C,C7*
X139157142Y-129466666D02*
X139204761Y-129514285D01*
X139252380Y-129657142D01*
X139252380Y-129752380D01*
X139204761Y-129895238D01*
X139109523Y-129990476D01*
X139014285Y-130038095D01*
X138823809Y-130085714D01*
X138680952Y-130085714D01*
X138490476Y-130038095D01*
X138395238Y-129990476D01*
X138300000Y-129895238D01*
X138252380Y-129752380D01*
X138252380Y-129657142D01*
X138300000Y-129514285D01*
X138347619Y-129466666D01*
X138252380Y-129133333D02*
X138252380Y-128466666D01*
X139252380Y-128895238D01*
G04 #@! TO.C,C9*
X170233333Y-123757142D02*
X170185714Y-123804761D01*
X170042857Y-123852380D01*
X169947619Y-123852380D01*
X169804761Y-123804761D01*
X169709523Y-123709523D01*
X169661904Y-123614285D01*
X169614285Y-123423809D01*
X169614285Y-123280952D01*
X169661904Y-123090476D01*
X169709523Y-122995238D01*
X169804761Y-122900000D01*
X169947619Y-122852380D01*
X170042857Y-122852380D01*
X170185714Y-122900000D01*
X170233333Y-122947619D01*
X170709523Y-123852380D02*
X170900000Y-123852380D01*
X170995238Y-123804761D01*
X171042857Y-123757142D01*
X171138095Y-123614285D01*
X171185714Y-123423809D01*
X171185714Y-123042857D01*
X171138095Y-122947619D01*
X171090476Y-122900000D01*
X170995238Y-122852380D01*
X170804761Y-122852380D01*
X170709523Y-122900000D01*
X170661904Y-122947619D01*
X170614285Y-123042857D01*
X170614285Y-123280952D01*
X170661904Y-123376190D01*
X170709523Y-123423809D01*
X170804761Y-123471428D01*
X170995238Y-123471428D01*
X171090476Y-123423809D01*
X171138095Y-123376190D01*
X171185714Y-123280952D01*
G04 #@! TO.C,C10*
X165957142Y-128242857D02*
X166004761Y-128290476D01*
X166052380Y-128433333D01*
X166052380Y-128528571D01*
X166004761Y-128671428D01*
X165909523Y-128766666D01*
X165814285Y-128814285D01*
X165623809Y-128861904D01*
X165480952Y-128861904D01*
X165290476Y-128814285D01*
X165195238Y-128766666D01*
X165100000Y-128671428D01*
X165052380Y-128528571D01*
X165052380Y-128433333D01*
X165100000Y-128290476D01*
X165147619Y-128242857D01*
X166052380Y-127290476D02*
X166052380Y-127861904D01*
X166052380Y-127576190D02*
X165052380Y-127576190D01*
X165195238Y-127671428D01*
X165290476Y-127766666D01*
X165338095Y-127861904D01*
X165052380Y-126671428D02*
X165052380Y-126576190D01*
X165100000Y-126480952D01*
X165147619Y-126433333D01*
X165242857Y-126385714D01*
X165433333Y-126338095D01*
X165671428Y-126338095D01*
X165861904Y-126385714D01*
X165957142Y-126433333D01*
X166004761Y-126480952D01*
X166052380Y-126576190D01*
X166052380Y-126671428D01*
X166004761Y-126766666D01*
X165957142Y-126814285D01*
X165861904Y-126861904D01*
X165671428Y-126909523D01*
X165433333Y-126909523D01*
X165242857Y-126861904D01*
X165147619Y-126814285D01*
X165100000Y-126766666D01*
X165052380Y-126671428D01*
G04 #@! TO.C,C1*
X154842602Y-117321042D02*
X154890221Y-117368661D01*
X154937840Y-117511518D01*
X154937840Y-117606756D01*
X154890221Y-117749614D01*
X154794983Y-117844852D01*
X154699745Y-117892471D01*
X154509269Y-117940090D01*
X154366412Y-117940090D01*
X154175936Y-117892471D01*
X154080698Y-117844852D01*
X153985460Y-117749614D01*
X153937840Y-117606756D01*
X153937840Y-117511518D01*
X153985460Y-117368661D01*
X154033079Y-117321042D01*
X154937840Y-116368661D02*
X154937840Y-116940090D01*
X154937840Y-116654376D02*
X153937840Y-116654376D01*
X154080698Y-116749614D01*
X154175936Y-116844852D01*
X154223555Y-116940090D01*
G04 #@! TO.C,C20*
X108157142Y-59357142D02*
X108109523Y-59404761D01*
X107966666Y-59452380D01*
X107871428Y-59452380D01*
X107728571Y-59404761D01*
X107633333Y-59309523D01*
X107585714Y-59214285D01*
X107538095Y-59023809D01*
X107538095Y-58880952D01*
X107585714Y-58690476D01*
X107633333Y-58595238D01*
X107728571Y-58500000D01*
X107871428Y-58452380D01*
X107966666Y-58452380D01*
X108109523Y-58500000D01*
X108157142Y-58547619D01*
X108538095Y-58547619D02*
X108585714Y-58500000D01*
X108680952Y-58452380D01*
X108919047Y-58452380D01*
X109014285Y-58500000D01*
X109061904Y-58547619D01*
X109109523Y-58642857D01*
X109109523Y-58738095D01*
X109061904Y-58880952D01*
X108490476Y-59452380D01*
X109109523Y-59452380D01*
X109728571Y-58452380D02*
X109823809Y-58452380D01*
X109919047Y-58500000D01*
X109966666Y-58547619D01*
X110014285Y-58642857D01*
X110061904Y-58833333D01*
X110061904Y-59071428D01*
X110014285Y-59261904D01*
X109966666Y-59357142D01*
X109919047Y-59404761D01*
X109823809Y-59452380D01*
X109728571Y-59452380D01*
X109633333Y-59404761D01*
X109585714Y-59357142D01*
X109538095Y-59261904D01*
X109490476Y-59071428D01*
X109490476Y-58833333D01*
X109538095Y-58642857D01*
X109585714Y-58547619D01*
X109633333Y-58500000D01*
X109728571Y-58452380D01*
G04 #@! TO.C,C32*
X115557142Y-54357142D02*
X115509523Y-54404761D01*
X115366666Y-54452380D01*
X115271428Y-54452380D01*
X115128571Y-54404761D01*
X115033333Y-54309523D01*
X114985714Y-54214285D01*
X114938095Y-54023809D01*
X114938095Y-53880952D01*
X114985714Y-53690476D01*
X115033333Y-53595238D01*
X115128571Y-53500000D01*
X115271428Y-53452380D01*
X115366666Y-53452380D01*
X115509523Y-53500000D01*
X115557142Y-53547619D01*
X115890476Y-53452380D02*
X116509523Y-53452380D01*
X116176190Y-53833333D01*
X116319047Y-53833333D01*
X116414285Y-53880952D01*
X116461904Y-53928571D01*
X116509523Y-54023809D01*
X116509523Y-54261904D01*
X116461904Y-54357142D01*
X116414285Y-54404761D01*
X116319047Y-54452380D01*
X116033333Y-54452380D01*
X115938095Y-54404761D01*
X115890476Y-54357142D01*
X116890476Y-53547619D02*
X116938095Y-53500000D01*
X117033333Y-53452380D01*
X117271428Y-53452380D01*
X117366666Y-53500000D01*
X117414285Y-53547619D01*
X117461904Y-53642857D01*
X117461904Y-53738095D01*
X117414285Y-53880952D01*
X116842857Y-54452380D01*
X117461904Y-54452380D01*
G04 #@! TO.C,C30*
X107657142Y-63827142D02*
X107609523Y-63874761D01*
X107466666Y-63922380D01*
X107371428Y-63922380D01*
X107228571Y-63874761D01*
X107133333Y-63779523D01*
X107085714Y-63684285D01*
X107038095Y-63493809D01*
X107038095Y-63350952D01*
X107085714Y-63160476D01*
X107133333Y-63065238D01*
X107228571Y-62970000D01*
X107371428Y-62922380D01*
X107466666Y-62922380D01*
X107609523Y-62970000D01*
X107657142Y-63017619D01*
X107990476Y-62922380D02*
X108609523Y-62922380D01*
X108276190Y-63303333D01*
X108419047Y-63303333D01*
X108514285Y-63350952D01*
X108561904Y-63398571D01*
X108609523Y-63493809D01*
X108609523Y-63731904D01*
X108561904Y-63827142D01*
X108514285Y-63874761D01*
X108419047Y-63922380D01*
X108133333Y-63922380D01*
X108038095Y-63874761D01*
X107990476Y-63827142D01*
X109228571Y-62922380D02*
X109323809Y-62922380D01*
X109419047Y-62970000D01*
X109466666Y-63017619D01*
X109514285Y-63112857D01*
X109561904Y-63303333D01*
X109561904Y-63541428D01*
X109514285Y-63731904D01*
X109466666Y-63827142D01*
X109419047Y-63874761D01*
X109323809Y-63922380D01*
X109228571Y-63922380D01*
X109133333Y-63874761D01*
X109085714Y-63827142D01*
X109038095Y-63731904D01*
X108990476Y-63541428D01*
X108990476Y-63303333D01*
X109038095Y-63112857D01*
X109085714Y-63017619D01*
X109133333Y-62970000D01*
X109228571Y-62922380D01*
G04 #@! TO.C,C29*
X101557142Y-61557142D02*
X101509523Y-61604761D01*
X101366666Y-61652380D01*
X101271428Y-61652380D01*
X101128571Y-61604761D01*
X101033333Y-61509523D01*
X100985714Y-61414285D01*
X100938095Y-61223809D01*
X100938095Y-61080952D01*
X100985714Y-60890476D01*
X101033333Y-60795238D01*
X101128571Y-60700000D01*
X101271428Y-60652380D01*
X101366666Y-60652380D01*
X101509523Y-60700000D01*
X101557142Y-60747619D01*
X101938095Y-60747619D02*
X101985714Y-60700000D01*
X102080952Y-60652380D01*
X102319047Y-60652380D01*
X102414285Y-60700000D01*
X102461904Y-60747619D01*
X102509523Y-60842857D01*
X102509523Y-60938095D01*
X102461904Y-61080952D01*
X101890476Y-61652380D01*
X102509523Y-61652380D01*
X102985714Y-61652380D02*
X103176190Y-61652380D01*
X103271428Y-61604761D01*
X103319047Y-61557142D01*
X103414285Y-61414285D01*
X103461904Y-61223809D01*
X103461904Y-60842857D01*
X103414285Y-60747619D01*
X103366666Y-60700000D01*
X103271428Y-60652380D01*
X103080952Y-60652380D01*
X102985714Y-60700000D01*
X102938095Y-60747619D01*
X102890476Y-60842857D01*
X102890476Y-61080952D01*
X102938095Y-61176190D01*
X102985714Y-61223809D01*
X103080952Y-61271428D01*
X103271428Y-61271428D01*
X103366666Y-61223809D01*
X103414285Y-61176190D01*
X103461904Y-61080952D01*
G04 #@! TO.C,C25*
X132757142Y-115357142D02*
X132709523Y-115404761D01*
X132566666Y-115452380D01*
X132471428Y-115452380D01*
X132328571Y-115404761D01*
X132233333Y-115309523D01*
X132185714Y-115214285D01*
X132138095Y-115023809D01*
X132138095Y-114880952D01*
X132185714Y-114690476D01*
X132233333Y-114595238D01*
X132328571Y-114500000D01*
X132471428Y-114452380D01*
X132566666Y-114452380D01*
X132709523Y-114500000D01*
X132757142Y-114547619D01*
X133138095Y-114547619D02*
X133185714Y-114500000D01*
X133280952Y-114452380D01*
X133519047Y-114452380D01*
X133614285Y-114500000D01*
X133661904Y-114547619D01*
X133709523Y-114642857D01*
X133709523Y-114738095D01*
X133661904Y-114880952D01*
X133090476Y-115452380D01*
X133709523Y-115452380D01*
X134614285Y-114452380D02*
X134138095Y-114452380D01*
X134090476Y-114928571D01*
X134138095Y-114880952D01*
X134233333Y-114833333D01*
X134471428Y-114833333D01*
X134566666Y-114880952D01*
X134614285Y-114928571D01*
X134661904Y-115023809D01*
X134661904Y-115261904D01*
X134614285Y-115357142D01*
X134566666Y-115404761D01*
X134471428Y-115452380D01*
X134233333Y-115452380D01*
X134138095Y-115404761D01*
X134090476Y-115357142D01*
G04 #@! TO.C,C24*
X163557142Y-97442857D02*
X163604761Y-97490476D01*
X163652380Y-97633333D01*
X163652380Y-97728571D01*
X163604761Y-97871428D01*
X163509523Y-97966666D01*
X163414285Y-98014285D01*
X163223809Y-98061904D01*
X163080952Y-98061904D01*
X162890476Y-98014285D01*
X162795238Y-97966666D01*
X162700000Y-97871428D01*
X162652380Y-97728571D01*
X162652380Y-97633333D01*
X162700000Y-97490476D01*
X162747619Y-97442857D01*
X162747619Y-97061904D02*
X162700000Y-97014285D01*
X162652380Y-96919047D01*
X162652380Y-96680952D01*
X162700000Y-96585714D01*
X162747619Y-96538095D01*
X162842857Y-96490476D01*
X162938095Y-96490476D01*
X163080952Y-96538095D01*
X163652380Y-97109523D01*
X163652380Y-96490476D01*
X162985714Y-95633333D02*
X163652380Y-95633333D01*
X162604761Y-95871428D02*
X163319047Y-96109523D01*
X163319047Y-95490476D01*
G04 #@! TO.C,C23*
X159857142Y-96357142D02*
X159809523Y-96404761D01*
X159666666Y-96452380D01*
X159571428Y-96452380D01*
X159428571Y-96404761D01*
X159333333Y-96309523D01*
X159285714Y-96214285D01*
X159238095Y-96023809D01*
X159238095Y-95880952D01*
X159285714Y-95690476D01*
X159333333Y-95595238D01*
X159428571Y-95500000D01*
X159571428Y-95452380D01*
X159666666Y-95452380D01*
X159809523Y-95500000D01*
X159857142Y-95547619D01*
X160238095Y-95547619D02*
X160285714Y-95500000D01*
X160380952Y-95452380D01*
X160619047Y-95452380D01*
X160714285Y-95500000D01*
X160761904Y-95547619D01*
X160809523Y-95642857D01*
X160809523Y-95738095D01*
X160761904Y-95880952D01*
X160190476Y-96452380D01*
X160809523Y-96452380D01*
X161142857Y-95452380D02*
X161761904Y-95452380D01*
X161428571Y-95833333D01*
X161571428Y-95833333D01*
X161666666Y-95880952D01*
X161714285Y-95928571D01*
X161761904Y-96023809D01*
X161761904Y-96261904D01*
X161714285Y-96357142D01*
X161666666Y-96404761D01*
X161571428Y-96452380D01*
X161285714Y-96452380D01*
X161190476Y-96404761D01*
X161142857Y-96357142D01*
G04 #@! TO.C,C22*
X159857142Y-91527142D02*
X159809523Y-91574761D01*
X159666666Y-91622380D01*
X159571428Y-91622380D01*
X159428571Y-91574761D01*
X159333333Y-91479523D01*
X159285714Y-91384285D01*
X159238095Y-91193809D01*
X159238095Y-91050952D01*
X159285714Y-90860476D01*
X159333333Y-90765238D01*
X159428571Y-90670000D01*
X159571428Y-90622380D01*
X159666666Y-90622380D01*
X159809523Y-90670000D01*
X159857142Y-90717619D01*
X160238095Y-90717619D02*
X160285714Y-90670000D01*
X160380952Y-90622380D01*
X160619047Y-90622380D01*
X160714285Y-90670000D01*
X160761904Y-90717619D01*
X160809523Y-90812857D01*
X160809523Y-90908095D01*
X160761904Y-91050952D01*
X160190476Y-91622380D01*
X160809523Y-91622380D01*
X161190476Y-90717619D02*
X161238095Y-90670000D01*
X161333333Y-90622380D01*
X161571428Y-90622380D01*
X161666666Y-90670000D01*
X161714285Y-90717619D01*
X161761904Y-90812857D01*
X161761904Y-90908095D01*
X161714285Y-91050952D01*
X161142857Y-91622380D01*
X161761904Y-91622380D01*
G04 #@! TO.C,C19*
X165727142Y-86242857D02*
X165774761Y-86290476D01*
X165822380Y-86433333D01*
X165822380Y-86528571D01*
X165774761Y-86671428D01*
X165679523Y-86766666D01*
X165584285Y-86814285D01*
X165393809Y-86861904D01*
X165250952Y-86861904D01*
X165060476Y-86814285D01*
X164965238Y-86766666D01*
X164870000Y-86671428D01*
X164822380Y-86528571D01*
X164822380Y-86433333D01*
X164870000Y-86290476D01*
X164917619Y-86242857D01*
X165822380Y-85290476D02*
X165822380Y-85861904D01*
X165822380Y-85576190D02*
X164822380Y-85576190D01*
X164965238Y-85671428D01*
X165060476Y-85766666D01*
X165108095Y-85861904D01*
X165822380Y-84814285D02*
X165822380Y-84623809D01*
X165774761Y-84528571D01*
X165727142Y-84480952D01*
X165584285Y-84385714D01*
X165393809Y-84338095D01*
X165012857Y-84338095D01*
X164917619Y-84385714D01*
X164870000Y-84433333D01*
X164822380Y-84528571D01*
X164822380Y-84719047D01*
X164870000Y-84814285D01*
X164917619Y-84861904D01*
X165012857Y-84909523D01*
X165250952Y-84909523D01*
X165346190Y-84861904D01*
X165393809Y-84814285D01*
X165441428Y-84719047D01*
X165441428Y-84528571D01*
X165393809Y-84433333D01*
X165346190Y-84385714D01*
X165250952Y-84338095D01*
G04 #@! TO.C,C18*
X165957142Y-94787142D02*
X165909523Y-94834761D01*
X165766666Y-94882380D01*
X165671428Y-94882380D01*
X165528571Y-94834761D01*
X165433333Y-94739523D01*
X165385714Y-94644285D01*
X165338095Y-94453809D01*
X165338095Y-94310952D01*
X165385714Y-94120476D01*
X165433333Y-94025238D01*
X165528571Y-93930000D01*
X165671428Y-93882380D01*
X165766666Y-93882380D01*
X165909523Y-93930000D01*
X165957142Y-93977619D01*
X166909523Y-94882380D02*
X166338095Y-94882380D01*
X166623809Y-94882380D02*
X166623809Y-93882380D01*
X166528571Y-94025238D01*
X166433333Y-94120476D01*
X166338095Y-94168095D01*
X167480952Y-94310952D02*
X167385714Y-94263333D01*
X167338095Y-94215714D01*
X167290476Y-94120476D01*
X167290476Y-94072857D01*
X167338095Y-93977619D01*
X167385714Y-93930000D01*
X167480952Y-93882380D01*
X167671428Y-93882380D01*
X167766666Y-93930000D01*
X167814285Y-93977619D01*
X167861904Y-94072857D01*
X167861904Y-94120476D01*
X167814285Y-94215714D01*
X167766666Y-94263333D01*
X167671428Y-94310952D01*
X167480952Y-94310952D01*
X167385714Y-94358571D01*
X167338095Y-94406190D01*
X167290476Y-94501428D01*
X167290476Y-94691904D01*
X167338095Y-94787142D01*
X167385714Y-94834761D01*
X167480952Y-94882380D01*
X167671428Y-94882380D01*
X167766666Y-94834761D01*
X167814285Y-94787142D01*
X167861904Y-94691904D01*
X167861904Y-94501428D01*
X167814285Y-94406190D01*
X167766666Y-94358571D01*
X167671428Y-94310952D01*
G04 #@! TO.C,C16*
X132757142Y-65042857D02*
X132804761Y-65090476D01*
X132852380Y-65233333D01*
X132852380Y-65328571D01*
X132804761Y-65471428D01*
X132709523Y-65566666D01*
X132614285Y-65614285D01*
X132423809Y-65661904D01*
X132280952Y-65661904D01*
X132090476Y-65614285D01*
X131995238Y-65566666D01*
X131900000Y-65471428D01*
X131852380Y-65328571D01*
X131852380Y-65233333D01*
X131900000Y-65090476D01*
X131947619Y-65042857D01*
X132852380Y-64090476D02*
X132852380Y-64661904D01*
X132852380Y-64376190D02*
X131852380Y-64376190D01*
X131995238Y-64471428D01*
X132090476Y-64566666D01*
X132138095Y-64661904D01*
X131852380Y-63233333D02*
X131852380Y-63423809D01*
X131900000Y-63519047D01*
X131947619Y-63566666D01*
X132090476Y-63661904D01*
X132280952Y-63709523D01*
X132661904Y-63709523D01*
X132757142Y-63661904D01*
X132804761Y-63614285D01*
X132852380Y-63519047D01*
X132852380Y-63328571D01*
X132804761Y-63233333D01*
X132757142Y-63185714D01*
X132661904Y-63138095D01*
X132423809Y-63138095D01*
X132328571Y-63185714D01*
X132280952Y-63233333D01*
X132233333Y-63328571D01*
X132233333Y-63519047D01*
X132280952Y-63614285D01*
X132328571Y-63661904D01*
X132423809Y-63709523D01*
G04 #@! TO.C,C14*
X165757142Y-53882141D02*
X165709523Y-53929760D01*
X165566666Y-53977379D01*
X165471428Y-53977379D01*
X165328571Y-53929760D01*
X165233333Y-53834522D01*
X165185714Y-53739284D01*
X165138095Y-53548808D01*
X165138095Y-53405951D01*
X165185714Y-53215475D01*
X165233333Y-53120237D01*
X165328571Y-53024999D01*
X165471428Y-52977379D01*
X165566666Y-52977379D01*
X165709523Y-53024999D01*
X165757142Y-53072618D01*
X166709523Y-53977379D02*
X166138095Y-53977379D01*
X166423809Y-53977379D02*
X166423809Y-52977379D01*
X166328571Y-53120237D01*
X166233333Y-53215475D01*
X166138095Y-53263094D01*
X167566666Y-53310713D02*
X167566666Y-53977379D01*
X167328571Y-52929760D02*
X167090476Y-53644046D01*
X167709523Y-53644046D01*
G04 #@! TO.C,C12*
X170357142Y-53787142D02*
X170309523Y-53834761D01*
X170166666Y-53882380D01*
X170071428Y-53882380D01*
X169928571Y-53834761D01*
X169833333Y-53739523D01*
X169785714Y-53644285D01*
X169738095Y-53453809D01*
X169738095Y-53310952D01*
X169785714Y-53120476D01*
X169833333Y-53025238D01*
X169928571Y-52930000D01*
X170071428Y-52882380D01*
X170166666Y-52882380D01*
X170309523Y-52930000D01*
X170357142Y-52977619D01*
X171309523Y-53882380D02*
X170738095Y-53882380D01*
X171023809Y-53882380D02*
X171023809Y-52882380D01*
X170928571Y-53025238D01*
X170833333Y-53120476D01*
X170738095Y-53168095D01*
X171690476Y-52977619D02*
X171738095Y-52930000D01*
X171833333Y-52882380D01*
X172071428Y-52882380D01*
X172166666Y-52930000D01*
X172214285Y-52977619D01*
X172261904Y-53072857D01*
X172261904Y-53168095D01*
X172214285Y-53310952D01*
X171642857Y-53882380D01*
X172261904Y-53882380D01*
G04 #@! TO.C,C31*
X118957142Y-57157142D02*
X118909523Y-57204761D01*
X118766666Y-57252380D01*
X118671428Y-57252380D01*
X118528571Y-57204761D01*
X118433333Y-57109523D01*
X118385714Y-57014285D01*
X118338095Y-56823809D01*
X118338095Y-56680952D01*
X118385714Y-56490476D01*
X118433333Y-56395238D01*
X118528571Y-56300000D01*
X118671428Y-56252380D01*
X118766666Y-56252380D01*
X118909523Y-56300000D01*
X118957142Y-56347619D01*
X119290476Y-56252380D02*
X119909523Y-56252380D01*
X119576190Y-56633333D01*
X119719047Y-56633333D01*
X119814285Y-56680952D01*
X119861904Y-56728571D01*
X119909523Y-56823809D01*
X119909523Y-57061904D01*
X119861904Y-57157142D01*
X119814285Y-57204761D01*
X119719047Y-57252380D01*
X119433333Y-57252380D01*
X119338095Y-57204761D01*
X119290476Y-57157142D01*
X120861904Y-57252380D02*
X120290476Y-57252380D01*
X120576190Y-57252380D02*
X120576190Y-56252380D01*
X120480952Y-56395238D01*
X120385714Y-56490476D01*
X120290476Y-56538095D01*
G04 #@! TO.C,C11*
X166857142Y-123407142D02*
X166809523Y-123454761D01*
X166666666Y-123502380D01*
X166571428Y-123502380D01*
X166428571Y-123454761D01*
X166333333Y-123359523D01*
X166285714Y-123264285D01*
X166238095Y-123073809D01*
X166238095Y-122930952D01*
X166285714Y-122740476D01*
X166333333Y-122645238D01*
X166428571Y-122550000D01*
X166571428Y-122502380D01*
X166666666Y-122502380D01*
X166809523Y-122550000D01*
X166857142Y-122597619D01*
X167809523Y-123502380D02*
X167238095Y-123502380D01*
X167523809Y-123502380D02*
X167523809Y-122502380D01*
X167428571Y-122645238D01*
X167333333Y-122740476D01*
X167238095Y-122788095D01*
X168761904Y-123502380D02*
X168190476Y-123502380D01*
X168476190Y-123502380D02*
X168476190Y-122502380D01*
X168380952Y-122645238D01*
X168285714Y-122740476D01*
X168190476Y-122788095D01*
G04 #@! TO.C,C13*
X179407142Y-82142857D02*
X179454761Y-82190476D01*
X179502380Y-82333333D01*
X179502380Y-82428571D01*
X179454761Y-82571428D01*
X179359523Y-82666666D01*
X179264285Y-82714285D01*
X179073809Y-82761904D01*
X178930952Y-82761904D01*
X178740476Y-82714285D01*
X178645238Y-82666666D01*
X178550000Y-82571428D01*
X178502380Y-82428571D01*
X178502380Y-82333333D01*
X178550000Y-82190476D01*
X178597619Y-82142857D01*
X179502380Y-81190476D02*
X179502380Y-81761904D01*
X179502380Y-81476190D02*
X178502380Y-81476190D01*
X178645238Y-81571428D01*
X178740476Y-81666666D01*
X178788095Y-81761904D01*
X178502380Y-80857142D02*
X178502380Y-80238095D01*
X178883333Y-80571428D01*
X178883333Y-80428571D01*
X178930952Y-80333333D01*
X178978571Y-80285714D01*
X179073809Y-80238095D01*
X179311904Y-80238095D01*
X179407142Y-80285714D01*
X179454761Y-80333333D01*
X179502380Y-80428571D01*
X179502380Y-80714285D01*
X179454761Y-80809523D01*
X179407142Y-80857142D01*
G04 #@! TO.C,C17*
X136157142Y-59842857D02*
X136204761Y-59890476D01*
X136252380Y-60033333D01*
X136252380Y-60128571D01*
X136204761Y-60271428D01*
X136109523Y-60366666D01*
X136014285Y-60414285D01*
X135823809Y-60461904D01*
X135680952Y-60461904D01*
X135490476Y-60414285D01*
X135395238Y-60366666D01*
X135300000Y-60271428D01*
X135252380Y-60128571D01*
X135252380Y-60033333D01*
X135300000Y-59890476D01*
X135347619Y-59842857D01*
X136252380Y-58890476D02*
X136252380Y-59461904D01*
X136252380Y-59176190D02*
X135252380Y-59176190D01*
X135395238Y-59271428D01*
X135490476Y-59366666D01*
X135538095Y-59461904D01*
X135252380Y-58557142D02*
X135252380Y-57890476D01*
X136252380Y-58319047D01*
G04 #@! TO.C,C4*
X172233333Y-129557142D02*
X172185714Y-129604761D01*
X172042857Y-129652380D01*
X171947619Y-129652380D01*
X171804761Y-129604761D01*
X171709523Y-129509523D01*
X171661904Y-129414285D01*
X171614285Y-129223809D01*
X171614285Y-129080952D01*
X171661904Y-128890476D01*
X171709523Y-128795238D01*
X171804761Y-128700000D01*
X171947619Y-128652380D01*
X172042857Y-128652380D01*
X172185714Y-128700000D01*
X172233333Y-128747619D01*
X173090476Y-128985714D02*
X173090476Y-129652380D01*
X172852380Y-128604761D02*
X172614285Y-129319047D01*
X173233333Y-129319047D01*
G04 #@! TO.C,C21*
X111532143Y-55732143D02*
X111484524Y-55779762D01*
X111341667Y-55827381D01*
X111246429Y-55827381D01*
X111103572Y-55779762D01*
X111008334Y-55684524D01*
X110960715Y-55589286D01*
X110913096Y-55398810D01*
X110913096Y-55255953D01*
X110960715Y-55065477D01*
X111008334Y-54970239D01*
X111103572Y-54875001D01*
X111246429Y-54827381D01*
X111341667Y-54827381D01*
X111484524Y-54875001D01*
X111532143Y-54922620D01*
X111913096Y-54922620D02*
X111960715Y-54875001D01*
X112055953Y-54827381D01*
X112294048Y-54827381D01*
X112389286Y-54875001D01*
X112436905Y-54922620D01*
X112484524Y-55017858D01*
X112484524Y-55113096D01*
X112436905Y-55255953D01*
X111865477Y-55827381D01*
X112484524Y-55827381D01*
X113436905Y-55827381D02*
X112865477Y-55827381D01*
X113151191Y-55827381D02*
X113151191Y-54827381D01*
X113055953Y-54970239D01*
X112960715Y-55065477D01*
X112865477Y-55113096D01*
G04 #@! TO.C,C26*
X133332142Y-120757142D02*
X133284523Y-120804761D01*
X133141666Y-120852380D01*
X133046428Y-120852380D01*
X132903571Y-120804761D01*
X132808333Y-120709523D01*
X132760714Y-120614285D01*
X132713095Y-120423809D01*
X132713095Y-120280952D01*
X132760714Y-120090476D01*
X132808333Y-119995238D01*
X132903571Y-119900000D01*
X133046428Y-119852380D01*
X133141666Y-119852380D01*
X133284523Y-119900000D01*
X133332142Y-119947619D01*
X133713095Y-119947619D02*
X133760714Y-119900000D01*
X133855952Y-119852380D01*
X134094047Y-119852380D01*
X134189285Y-119900000D01*
X134236904Y-119947619D01*
X134284523Y-120042857D01*
X134284523Y-120138095D01*
X134236904Y-120280952D01*
X133665476Y-120852380D01*
X134284523Y-120852380D01*
X135141666Y-119852380D02*
X134951190Y-119852380D01*
X134855952Y-119900000D01*
X134808333Y-119947619D01*
X134713095Y-120090476D01*
X134665476Y-120280952D01*
X134665476Y-120661904D01*
X134713095Y-120757142D01*
X134760714Y-120804761D01*
X134855952Y-120852380D01*
X135046428Y-120852380D01*
X135141666Y-120804761D01*
X135189285Y-120757142D01*
X135236904Y-120661904D01*
X135236904Y-120423809D01*
X135189285Y-120328571D01*
X135141666Y-120280952D01*
X135046428Y-120233333D01*
X134855952Y-120233333D01*
X134760714Y-120280952D01*
X134713095Y-120328571D01*
X134665476Y-120423809D01*
G04 #@! TO.C,C2*
X138357142Y-111366666D02*
X138404761Y-111414285D01*
X138452380Y-111557142D01*
X138452380Y-111652380D01*
X138404761Y-111795238D01*
X138309523Y-111890476D01*
X138214285Y-111938095D01*
X138023809Y-111985714D01*
X137880952Y-111985714D01*
X137690476Y-111938095D01*
X137595238Y-111890476D01*
X137500000Y-111795238D01*
X137452380Y-111652380D01*
X137452380Y-111557142D01*
X137500000Y-111414285D01*
X137547619Y-111366666D01*
X137547619Y-110985714D02*
X137500000Y-110938095D01*
X137452380Y-110842857D01*
X137452380Y-110604761D01*
X137500000Y-110509523D01*
X137547619Y-110461904D01*
X137642857Y-110414285D01*
X137738095Y-110414285D01*
X137880952Y-110461904D01*
X138452380Y-111033333D01*
X138452380Y-110414285D01*
G04 #@! TO.C,J1*
X175166666Y-122322380D02*
X175166666Y-123036666D01*
X175119047Y-123179523D01*
X175023809Y-123274761D01*
X174880952Y-123322380D01*
X174785714Y-123322380D01*
X176166666Y-123322380D02*
X175595238Y-123322380D01*
X175880952Y-123322380D02*
X175880952Y-122322380D01*
X175785714Y-122465238D01*
X175690476Y-122560476D01*
X175595238Y-122608095D01*
G04 #@! TO.C,D2*
X141252380Y-122738095D02*
X140252380Y-122738095D01*
X140252380Y-122500000D01*
X140300000Y-122357142D01*
X140395238Y-122261904D01*
X140490476Y-122214285D01*
X140680952Y-122166666D01*
X140823809Y-122166666D01*
X141014285Y-122214285D01*
X141109523Y-122261904D01*
X141204761Y-122357142D01*
X141252380Y-122500000D01*
X141252380Y-122738095D01*
X140347619Y-121785714D02*
X140300000Y-121738095D01*
X140252380Y-121642857D01*
X140252380Y-121404761D01*
X140300000Y-121309523D01*
X140347619Y-121261904D01*
X140442857Y-121214285D01*
X140538095Y-121214285D01*
X140680952Y-121261904D01*
X141252380Y-121833333D01*
X141252380Y-121214285D01*
G04 #@! TO.C,D1*
X140352380Y-110838095D02*
X139352380Y-110838095D01*
X139352380Y-110600000D01*
X139400000Y-110457142D01*
X139495238Y-110361904D01*
X139590476Y-110314285D01*
X139780952Y-110266666D01*
X139923809Y-110266666D01*
X140114285Y-110314285D01*
X140209523Y-110361904D01*
X140304761Y-110457142D01*
X140352380Y-110600000D01*
X140352380Y-110838095D01*
X140352380Y-109314285D02*
X140352380Y-109885714D01*
X140352380Y-109600000D02*
X139352380Y-109600000D01*
X139495238Y-109695238D01*
X139590476Y-109790476D01*
X139638095Y-109885714D01*
G04 #@! TO.C,U7*
X165638095Y-87652380D02*
X165638095Y-88461904D01*
X165685714Y-88557142D01*
X165733333Y-88604761D01*
X165828571Y-88652380D01*
X166019047Y-88652380D01*
X166114285Y-88604761D01*
X166161904Y-88557142D01*
X166209523Y-88461904D01*
X166209523Y-87652380D01*
X166590476Y-87652380D02*
X167257142Y-87652380D01*
X166828571Y-88652380D01*
G04 #@! TO.C,U5*
X150438095Y-51652380D02*
X150438095Y-52461904D01*
X150485714Y-52557142D01*
X150533333Y-52604761D01*
X150628571Y-52652380D01*
X150819047Y-52652380D01*
X150914285Y-52604761D01*
X150961904Y-52557142D01*
X151009523Y-52461904D01*
X151009523Y-51652380D01*
X151961904Y-51652380D02*
X151485714Y-51652380D01*
X151438095Y-52128571D01*
X151485714Y-52080952D01*
X151580952Y-52033333D01*
X151819047Y-52033333D01*
X151914285Y-52080952D01*
X151961904Y-52128571D01*
X152009523Y-52223809D01*
X152009523Y-52461904D01*
X151961904Y-52557142D01*
X151914285Y-52604761D01*
X151819047Y-52652380D01*
X151580952Y-52652380D01*
X151485714Y-52604761D01*
X151438095Y-52557142D01*
G04 #@! TO.C,L1*
X149588793Y-108006756D02*
X149112602Y-108006756D01*
X149112602Y-107006756D01*
X150445936Y-108006756D02*
X149874507Y-108006756D01*
X150160221Y-108006756D02*
X150160221Y-107006756D01*
X150064983Y-107149614D01*
X149969745Y-107244852D01*
X149874507Y-107292471D01*
G04 #@! TO.C,L2*
X149833333Y-120052380D02*
X149357142Y-120052380D01*
X149357142Y-119052380D01*
X150119047Y-119147619D02*
X150166666Y-119100000D01*
X150261904Y-119052380D01*
X150500000Y-119052380D01*
X150595238Y-119100000D01*
X150642857Y-119147619D01*
X150690476Y-119242857D01*
X150690476Y-119338095D01*
X150642857Y-119480952D01*
X150071428Y-120052380D01*
X150690476Y-120052380D01*
G04 #@! TO.C,U11*
X132961904Y-106452380D02*
X132961904Y-107261904D01*
X133009523Y-107357142D01*
X133057142Y-107404761D01*
X133152380Y-107452380D01*
X133342857Y-107452380D01*
X133438095Y-107404761D01*
X133485714Y-107357142D01*
X133533333Y-107261904D01*
X133533333Y-106452380D01*
X134533333Y-107452380D02*
X133961904Y-107452380D01*
X134247619Y-107452380D02*
X134247619Y-106452380D01*
X134152380Y-106595238D01*
X134057142Y-106690476D01*
X133961904Y-106738095D01*
X135485714Y-107452380D02*
X134914285Y-107452380D01*
X135200000Y-107452380D02*
X135200000Y-106452380D01*
X135104761Y-106595238D01*
X135009523Y-106690476D01*
X134914285Y-106738095D01*
G04 #@! TO.C,U9*
X116452380Y-62761904D02*
X117261904Y-62761904D01*
X117357142Y-62714285D01*
X117404761Y-62666666D01*
X117452380Y-62571428D01*
X117452380Y-62380952D01*
X117404761Y-62285714D01*
X117357142Y-62238095D01*
X117261904Y-62190476D01*
X116452380Y-62190476D01*
X117452380Y-61666666D02*
X117452380Y-61476190D01*
X117404761Y-61380952D01*
X117357142Y-61333333D01*
X117214285Y-61238095D01*
X117023809Y-61190476D01*
X116642857Y-61190476D01*
X116547619Y-61238095D01*
X116500000Y-61285714D01*
X116452380Y-61380952D01*
X116452380Y-61571428D01*
X116500000Y-61666666D01*
X116547619Y-61714285D01*
X116642857Y-61761904D01*
X116880952Y-61761904D01*
X116976190Y-61714285D01*
X117023809Y-61666666D01*
X117071428Y-61571428D01*
X117071428Y-61380952D01*
X117023809Y-61285714D01*
X116976190Y-61238095D01*
X116880952Y-61190476D01*
G04 #@! TO.C,U6*
X135638095Y-70052380D02*
X135638095Y-70861904D01*
X135685714Y-70957142D01*
X135733333Y-71004761D01*
X135828571Y-71052380D01*
X136019047Y-71052380D01*
X136114285Y-71004761D01*
X136161904Y-70957142D01*
X136209523Y-70861904D01*
X136209523Y-70052380D01*
X137114285Y-70052380D02*
X136923809Y-70052380D01*
X136828571Y-70100000D01*
X136780952Y-70147619D01*
X136685714Y-70290476D01*
X136638095Y-70480952D01*
X136638095Y-70861904D01*
X136685714Y-70957142D01*
X136733333Y-71004761D01*
X136828571Y-71052380D01*
X137019047Y-71052380D01*
X137114285Y-71004761D01*
X137161904Y-70957142D01*
X137209523Y-70861904D01*
X137209523Y-70623809D01*
X137161904Y-70528571D01*
X137114285Y-70480952D01*
X137019047Y-70433333D01*
X136828571Y-70433333D01*
X136733333Y-70480952D01*
X136685714Y-70528571D01*
X136638095Y-70623809D01*
G04 #@! TO.C,D4*
X156252380Y-126938095D02*
X155252380Y-126938095D01*
X155252380Y-126700000D01*
X155300000Y-126557142D01*
X155395238Y-126461904D01*
X155490476Y-126414285D01*
X155680952Y-126366666D01*
X155823809Y-126366666D01*
X156014285Y-126414285D01*
X156109523Y-126461904D01*
X156204761Y-126557142D01*
X156252380Y-126700000D01*
X156252380Y-126938095D01*
X155585714Y-125509523D02*
X156252380Y-125509523D01*
X155204761Y-125747619D02*
X155919047Y-125985714D01*
X155919047Y-125366666D01*
G04 #@! TO.C,D5*
X168861904Y-103452380D02*
X168861904Y-102452380D01*
X169100000Y-102452380D01*
X169242857Y-102500000D01*
X169338095Y-102595238D01*
X169385714Y-102690476D01*
X169433333Y-102880952D01*
X169433333Y-103023809D01*
X169385714Y-103214285D01*
X169338095Y-103309523D01*
X169242857Y-103404761D01*
X169100000Y-103452380D01*
X168861904Y-103452380D01*
X170338095Y-102452380D02*
X169861904Y-102452380D01*
X169814285Y-102928571D01*
X169861904Y-102880952D01*
X169957142Y-102833333D01*
X170195238Y-102833333D01*
X170290476Y-102880952D01*
X170338095Y-102928571D01*
X170385714Y-103023809D01*
X170385714Y-103261904D01*
X170338095Y-103357142D01*
X170290476Y-103404761D01*
X170195238Y-103452380D01*
X169957142Y-103452380D01*
X169861904Y-103404761D01*
X169814285Y-103357142D01*
G04 #@! TO.C,D3*
X160931062Y-127048333D02*
X159931062Y-127048333D01*
X159931062Y-126810238D01*
X159978682Y-126667380D01*
X160073920Y-126572142D01*
X160169158Y-126524523D01*
X160359634Y-126476904D01*
X160502491Y-126476904D01*
X160692967Y-126524523D01*
X160788205Y-126572142D01*
X160883443Y-126667380D01*
X160931062Y-126810238D01*
X160931062Y-127048333D01*
X159931062Y-126143571D02*
X159931062Y-125524523D01*
X160312015Y-125857857D01*
X160312015Y-125714999D01*
X160359634Y-125619761D01*
X160407253Y-125572142D01*
X160502491Y-125524523D01*
X160740586Y-125524523D01*
X160835824Y-125572142D01*
X160883443Y-125619761D01*
X160931062Y-125714999D01*
X160931062Y-126000714D01*
X160883443Y-126095952D01*
X160835824Y-126143571D01*
G04 #@! TO.C,U13*
X121661904Y-58652380D02*
X121661904Y-59461904D01*
X121709523Y-59557142D01*
X121757142Y-59604761D01*
X121852380Y-59652380D01*
X122042857Y-59652380D01*
X122138095Y-59604761D01*
X122185714Y-59557142D01*
X122233333Y-59461904D01*
X122233333Y-58652380D01*
X123233333Y-59652380D02*
X122661904Y-59652380D01*
X122947619Y-59652380D02*
X122947619Y-58652380D01*
X122852380Y-58795238D01*
X122757142Y-58890476D01*
X122661904Y-58938095D01*
X123566666Y-58652380D02*
X124185714Y-58652380D01*
X123852380Y-59033333D01*
X123995238Y-59033333D01*
X124090476Y-59080952D01*
X124138095Y-59128571D01*
X124185714Y-59223809D01*
X124185714Y-59461904D01*
X124138095Y-59557142D01*
X124090476Y-59604761D01*
X123995238Y-59652380D01*
X123709523Y-59652380D01*
X123614285Y-59604761D01*
X123566666Y-59557142D01*
G04 #@! TO.C,U12*
X103561904Y-64602380D02*
X103561904Y-65411904D01*
X103609523Y-65507142D01*
X103657142Y-65554761D01*
X103752380Y-65602380D01*
X103942857Y-65602380D01*
X104038095Y-65554761D01*
X104085714Y-65507142D01*
X104133333Y-65411904D01*
X104133333Y-64602380D01*
X105133333Y-65602380D02*
X104561904Y-65602380D01*
X104847619Y-65602380D02*
X104847619Y-64602380D01*
X104752380Y-64745238D01*
X104657142Y-64840476D01*
X104561904Y-64888095D01*
X105514285Y-64697619D02*
X105561904Y-64650000D01*
X105657142Y-64602380D01*
X105895238Y-64602380D01*
X105990476Y-64650000D01*
X106038095Y-64697619D01*
X106085714Y-64792857D01*
X106085714Y-64888095D01*
X106038095Y-65030952D01*
X105466666Y-65602380D01*
X106085714Y-65602380D01*
G04 #@! TO.C,U3*
X163438095Y-114852380D02*
X163438095Y-115661904D01*
X163485714Y-115757142D01*
X163533333Y-115804761D01*
X163628571Y-115852380D01*
X163819047Y-115852380D01*
X163914285Y-115804761D01*
X163961904Y-115757142D01*
X164009523Y-115661904D01*
X164009523Y-114852380D01*
X164390476Y-114852380D02*
X165009523Y-114852380D01*
X164676190Y-115233333D01*
X164819047Y-115233333D01*
X164914285Y-115280952D01*
X164961904Y-115328571D01*
X165009523Y-115423809D01*
X165009523Y-115661904D01*
X164961904Y-115757142D01*
X164914285Y-115804761D01*
X164819047Y-115852380D01*
X164533333Y-115852380D01*
X164438095Y-115804761D01*
X164390476Y-115757142D01*
G04 #@! TO.C,Q6*
X115157332Y-81002322D02*
X115062094Y-80954703D01*
X114966856Y-80859464D01*
X114823999Y-80716607D01*
X114728761Y-80668988D01*
X114633523Y-80668988D01*
X114681142Y-80907083D02*
X114585904Y-80859464D01*
X114490666Y-80764226D01*
X114443047Y-80573750D01*
X114443047Y-80240417D01*
X114490666Y-80049941D01*
X114585904Y-79954703D01*
X114681142Y-79907083D01*
X114871618Y-79907083D01*
X114966856Y-79954703D01*
X115062094Y-80049941D01*
X115109713Y-80240417D01*
X115109713Y-80573750D01*
X115062094Y-80764226D01*
X114966856Y-80859464D01*
X114871618Y-80907083D01*
X114681142Y-80907083D01*
X115966856Y-79907083D02*
X115776380Y-79907083D01*
X115681142Y-79954703D01*
X115633523Y-80002322D01*
X115538285Y-80145179D01*
X115490666Y-80335655D01*
X115490666Y-80716607D01*
X115538285Y-80811845D01*
X115585904Y-80859464D01*
X115681142Y-80907083D01*
X115871618Y-80907083D01*
X115966856Y-80859464D01*
X116014475Y-80811845D01*
X116062094Y-80716607D01*
X116062094Y-80478512D01*
X116014475Y-80383274D01*
X115966856Y-80335655D01*
X115871618Y-80288036D01*
X115681142Y-80288036D01*
X115585904Y-80335655D01*
X115538285Y-80383274D01*
X115490666Y-80478512D01*
G04 #@! TO.C,Q5*
X121747619Y-87295238D02*
X121700000Y-87390476D01*
X121604761Y-87485714D01*
X121461904Y-87628571D01*
X121414285Y-87723809D01*
X121414285Y-87819047D01*
X121652380Y-87771428D02*
X121604761Y-87866666D01*
X121509523Y-87961904D01*
X121319047Y-88009523D01*
X120985714Y-88009523D01*
X120795238Y-87961904D01*
X120700000Y-87866666D01*
X120652380Y-87771428D01*
X120652380Y-87580952D01*
X120700000Y-87485714D01*
X120795238Y-87390476D01*
X120985714Y-87342857D01*
X121319047Y-87342857D01*
X121509523Y-87390476D01*
X121604761Y-87485714D01*
X121652380Y-87580952D01*
X121652380Y-87771428D01*
X120652380Y-86438095D02*
X120652380Y-86914285D01*
X121128571Y-86961904D01*
X121080952Y-86914285D01*
X121033333Y-86819047D01*
X121033333Y-86580952D01*
X121080952Y-86485714D01*
X121128571Y-86438095D01*
X121223809Y-86390476D01*
X121461904Y-86390476D01*
X121557142Y-86438095D01*
X121604761Y-86485714D01*
X121652380Y-86580952D01*
X121652380Y-86819047D01*
X121604761Y-86914285D01*
X121557142Y-86961904D01*
G04 #@! TO.C,Q2*
X141904761Y-69347619D02*
X141809523Y-69300000D01*
X141714285Y-69204761D01*
X141571428Y-69061904D01*
X141476190Y-69014285D01*
X141380952Y-69014285D01*
X141428571Y-69252380D02*
X141333333Y-69204761D01*
X141238095Y-69109523D01*
X141190476Y-68919047D01*
X141190476Y-68585714D01*
X141238095Y-68395238D01*
X141333333Y-68300000D01*
X141428571Y-68252380D01*
X141619047Y-68252380D01*
X141714285Y-68300000D01*
X141809523Y-68395238D01*
X141857142Y-68585714D01*
X141857142Y-68919047D01*
X141809523Y-69109523D01*
X141714285Y-69204761D01*
X141619047Y-69252380D01*
X141428571Y-69252380D01*
X142238095Y-68347619D02*
X142285714Y-68300000D01*
X142380952Y-68252380D01*
X142619047Y-68252380D01*
X142714285Y-68300000D01*
X142761904Y-68347619D01*
X142809523Y-68442857D01*
X142809523Y-68538095D01*
X142761904Y-68680952D01*
X142190476Y-69252380D01*
X142809523Y-69252380D01*
G04 #@! TO.C,Q3*
X111009903Y-83307025D02*
X110914665Y-83259406D01*
X110819427Y-83164167D01*
X110676570Y-83021310D01*
X110581332Y-82973691D01*
X110486094Y-82973691D01*
X110533713Y-83211786D02*
X110438475Y-83164167D01*
X110343237Y-83068929D01*
X110295618Y-82878453D01*
X110295618Y-82545120D01*
X110343237Y-82354644D01*
X110438475Y-82259406D01*
X110533713Y-82211786D01*
X110724189Y-82211786D01*
X110819427Y-82259406D01*
X110914665Y-82354644D01*
X110962284Y-82545120D01*
X110962284Y-82878453D01*
X110914665Y-83068929D01*
X110819427Y-83164167D01*
X110724189Y-83211786D01*
X110533713Y-83211786D01*
X111295618Y-82211786D02*
X111914665Y-82211786D01*
X111581332Y-82592739D01*
X111724189Y-82592739D01*
X111819427Y-82640358D01*
X111867046Y-82687977D01*
X111914665Y-82783215D01*
X111914665Y-83021310D01*
X111867046Y-83116548D01*
X111819427Y-83164167D01*
X111724189Y-83211786D01*
X111438475Y-83211786D01*
X111343237Y-83164167D01*
X111295618Y-83116548D01*
G04 #@! TO.C,Q1*
X177797619Y-99595238D02*
X177750000Y-99690476D01*
X177654761Y-99785714D01*
X177511904Y-99928571D01*
X177464285Y-100023809D01*
X177464285Y-100119047D01*
X177702380Y-100071428D02*
X177654761Y-100166666D01*
X177559523Y-100261904D01*
X177369047Y-100309523D01*
X177035714Y-100309523D01*
X176845238Y-100261904D01*
X176750000Y-100166666D01*
X176702380Y-100071428D01*
X176702380Y-99880952D01*
X176750000Y-99785714D01*
X176845238Y-99690476D01*
X177035714Y-99642857D01*
X177369047Y-99642857D01*
X177559523Y-99690476D01*
X177654761Y-99785714D01*
X177702380Y-99880952D01*
X177702380Y-100071428D01*
X177702380Y-98690476D02*
X177702380Y-99261904D01*
X177702380Y-98976190D02*
X176702380Y-98976190D01*
X176845238Y-99071428D01*
X176940476Y-99166666D01*
X176988095Y-99261904D01*
G04 #@! TO.C,Q4*
X113452761Y-85499941D02*
X113405142Y-85595179D01*
X113309903Y-85690417D01*
X113167046Y-85833274D01*
X113119427Y-85928512D01*
X113119427Y-86023750D01*
X113357522Y-85976131D02*
X113309903Y-86071369D01*
X113214665Y-86166607D01*
X113024189Y-86214226D01*
X112690856Y-86214226D01*
X112500380Y-86166607D01*
X112405142Y-86071369D01*
X112357522Y-85976131D01*
X112357522Y-85785655D01*
X112405142Y-85690417D01*
X112500380Y-85595179D01*
X112690856Y-85547560D01*
X113024189Y-85547560D01*
X113214665Y-85595179D01*
X113309903Y-85690417D01*
X113357522Y-85785655D01*
X113357522Y-85976131D01*
X112690856Y-84690417D02*
X113357522Y-84690417D01*
X112309903Y-84928512D02*
X113024189Y-85166607D01*
X113024189Y-84547560D01*
G04 #@! TO.C,U1*
X148693555Y-113706756D02*
X148693555Y-114516280D01*
X148741174Y-114611518D01*
X148788793Y-114659137D01*
X148884031Y-114706756D01*
X149074507Y-114706756D01*
X149169745Y-114659137D01*
X149217364Y-114611518D01*
X149264983Y-114516280D01*
X149264983Y-113706756D01*
X150264983Y-114706756D02*
X149693555Y-114706756D01*
X149979269Y-114706756D02*
X149979269Y-113706756D01*
X149884031Y-113849614D01*
X149788793Y-113944852D01*
X149693555Y-113992471D01*
G04 #@! TO.C,U2*
X149238095Y-131252380D02*
X149238095Y-132061904D01*
X149285714Y-132157142D01*
X149333333Y-132204761D01*
X149428571Y-132252380D01*
X149619047Y-132252380D01*
X149714285Y-132204761D01*
X149761904Y-132157142D01*
X149809523Y-132061904D01*
X149809523Y-131252380D01*
X150238095Y-131347619D02*
X150285714Y-131300000D01*
X150380952Y-131252380D01*
X150619047Y-131252380D01*
X150714285Y-131300000D01*
X150761904Y-131347619D01*
X150809523Y-131442857D01*
X150809523Y-131538095D01*
X150761904Y-131680952D01*
X150190476Y-132252380D01*
X150809523Y-132252380D01*
G04 #@! TO.C,U4*
X171352380Y-132561904D02*
X172161904Y-132561904D01*
X172257142Y-132514285D01*
X172304761Y-132466666D01*
X172352380Y-132371428D01*
X172352380Y-132180952D01*
X172304761Y-132085714D01*
X172257142Y-132038095D01*
X172161904Y-131990476D01*
X171352380Y-131990476D01*
X171685714Y-131085714D02*
X172352380Y-131085714D01*
X171304761Y-131323809D02*
X172019047Y-131561904D01*
X172019047Y-130942857D01*
G04 #@! TO.C,R4*
X169983333Y-108122380D02*
X169650000Y-107646190D01*
X169411904Y-108122380D02*
X169411904Y-107122380D01*
X169792857Y-107122380D01*
X169888095Y-107170000D01*
X169935714Y-107217619D01*
X169983333Y-107312857D01*
X169983333Y-107455714D01*
X169935714Y-107550952D01*
X169888095Y-107598571D01*
X169792857Y-107646190D01*
X169411904Y-107646190D01*
X170840476Y-107455714D02*
X170840476Y-108122380D01*
X170602380Y-107074761D02*
X170364285Y-107789047D01*
X170983333Y-107789047D01*
G04 #@! TO.C,R14*
X170357142Y-98422380D02*
X170023809Y-97946190D01*
X169785714Y-98422380D02*
X169785714Y-97422380D01*
X170166666Y-97422380D01*
X170261904Y-97470000D01*
X170309523Y-97517619D01*
X170357142Y-97612857D01*
X170357142Y-97755714D01*
X170309523Y-97850952D01*
X170261904Y-97898571D01*
X170166666Y-97946190D01*
X169785714Y-97946190D01*
X171309523Y-98422380D02*
X170738095Y-98422380D01*
X171023809Y-98422380D02*
X171023809Y-97422380D01*
X170928571Y-97565238D01*
X170833333Y-97660476D01*
X170738095Y-97708095D01*
X172166666Y-97755714D02*
X172166666Y-98422380D01*
X171928571Y-97374761D02*
X171690476Y-98089047D01*
X172309523Y-98089047D01*
G04 #@! TO.C,R20*
X123357142Y-82202380D02*
X123023809Y-81726190D01*
X122785714Y-82202380D02*
X122785714Y-81202380D01*
X123166666Y-81202380D01*
X123261904Y-81250000D01*
X123309523Y-81297619D01*
X123357142Y-81392857D01*
X123357142Y-81535714D01*
X123309523Y-81630952D01*
X123261904Y-81678571D01*
X123166666Y-81726190D01*
X122785714Y-81726190D01*
X123738095Y-81297619D02*
X123785714Y-81250000D01*
X123880952Y-81202380D01*
X124119047Y-81202380D01*
X124214285Y-81250000D01*
X124261904Y-81297619D01*
X124309523Y-81392857D01*
X124309523Y-81488095D01*
X124261904Y-81630952D01*
X123690476Y-82202380D01*
X124309523Y-82202380D01*
X124928571Y-81202380D02*
X125023809Y-81202380D01*
X125119047Y-81250000D01*
X125166666Y-81297619D01*
X125214285Y-81392857D01*
X125261904Y-81583333D01*
X125261904Y-81821428D01*
X125214285Y-82011904D01*
X125166666Y-82107142D01*
X125119047Y-82154761D01*
X125023809Y-82202380D01*
X124928571Y-82202380D01*
X124833333Y-82154761D01*
X124785714Y-82107142D01*
X124738095Y-82011904D01*
X124690476Y-81821428D01*
X124690476Y-81583333D01*
X124738095Y-81392857D01*
X124785714Y-81297619D01*
X124833333Y-81250000D01*
X124928571Y-81202380D01*
G04 #@! TO.C,R13*
X155157142Y-132852380D02*
X154823809Y-132376190D01*
X154585714Y-132852380D02*
X154585714Y-131852380D01*
X154966666Y-131852380D01*
X155061904Y-131900000D01*
X155109523Y-131947619D01*
X155157142Y-132042857D01*
X155157142Y-132185714D01*
X155109523Y-132280952D01*
X155061904Y-132328571D01*
X154966666Y-132376190D01*
X154585714Y-132376190D01*
X156109523Y-132852380D02*
X155538095Y-132852380D01*
X155823809Y-132852380D02*
X155823809Y-131852380D01*
X155728571Y-131995238D01*
X155633333Y-132090476D01*
X155538095Y-132138095D01*
X156442857Y-131852380D02*
X157061904Y-131852380D01*
X156728571Y-132233333D01*
X156871428Y-132233333D01*
X156966666Y-132280952D01*
X157014285Y-132328571D01*
X157061904Y-132423809D01*
X157061904Y-132661904D01*
X157014285Y-132757142D01*
X156966666Y-132804761D01*
X156871428Y-132852380D01*
X156585714Y-132852380D01*
X156490476Y-132804761D01*
X156442857Y-132757142D01*
G04 #@! TO.C,R12*
X148557142Y-80682380D02*
X148223809Y-80206190D01*
X147985714Y-80682380D02*
X147985714Y-79682380D01*
X148366666Y-79682380D01*
X148461904Y-79730000D01*
X148509523Y-79777619D01*
X148557142Y-79872857D01*
X148557142Y-80015714D01*
X148509523Y-80110952D01*
X148461904Y-80158571D01*
X148366666Y-80206190D01*
X147985714Y-80206190D01*
X149509523Y-80682380D02*
X148938095Y-80682380D01*
X149223809Y-80682380D02*
X149223809Y-79682380D01*
X149128571Y-79825238D01*
X149033333Y-79920476D01*
X148938095Y-79968095D01*
X149890476Y-79777619D02*
X149938095Y-79730000D01*
X150033333Y-79682380D01*
X150271428Y-79682380D01*
X150366666Y-79730000D01*
X150414285Y-79777619D01*
X150461904Y-79872857D01*
X150461904Y-79968095D01*
X150414285Y-80110952D01*
X149842857Y-80682380D01*
X150461904Y-80682380D01*
G04 #@! TO.C,R11*
X149682380Y-67042857D02*
X149206190Y-67376190D01*
X149682380Y-67614285D02*
X148682380Y-67614285D01*
X148682380Y-67233333D01*
X148730000Y-67138095D01*
X148777619Y-67090476D01*
X148872857Y-67042857D01*
X149015714Y-67042857D01*
X149110952Y-67090476D01*
X149158571Y-67138095D01*
X149206190Y-67233333D01*
X149206190Y-67614285D01*
X149682380Y-66090476D02*
X149682380Y-66661904D01*
X149682380Y-66376190D02*
X148682380Y-66376190D01*
X148825238Y-66471428D01*
X148920476Y-66566666D01*
X148968095Y-66661904D01*
X149682380Y-65138095D02*
X149682380Y-65709523D01*
X149682380Y-65423809D02*
X148682380Y-65423809D01*
X148825238Y-65519047D01*
X148920476Y-65614285D01*
X148968095Y-65709523D01*
G04 #@! TO.C,R10*
X150882380Y-84242857D02*
X150406190Y-84576190D01*
X150882380Y-84814285D02*
X149882380Y-84814285D01*
X149882380Y-84433333D01*
X149930000Y-84338095D01*
X149977619Y-84290476D01*
X150072857Y-84242857D01*
X150215714Y-84242857D01*
X150310952Y-84290476D01*
X150358571Y-84338095D01*
X150406190Y-84433333D01*
X150406190Y-84814285D01*
X150882380Y-83290476D02*
X150882380Y-83861904D01*
X150882380Y-83576190D02*
X149882380Y-83576190D01*
X150025238Y-83671428D01*
X150120476Y-83766666D01*
X150168095Y-83861904D01*
X149882380Y-82671428D02*
X149882380Y-82576190D01*
X149930000Y-82480952D01*
X149977619Y-82433333D01*
X150072857Y-82385714D01*
X150263333Y-82338095D01*
X150501428Y-82338095D01*
X150691904Y-82385714D01*
X150787142Y-82433333D01*
X150834761Y-82480952D01*
X150882380Y-82576190D01*
X150882380Y-82671428D01*
X150834761Y-82766666D01*
X150787142Y-82814285D01*
X150691904Y-82861904D01*
X150501428Y-82909523D01*
X150263333Y-82909523D01*
X150072857Y-82861904D01*
X149977619Y-82814285D01*
X149930000Y-82766666D01*
X149882380Y-82671428D01*
G04 #@! TO.C,R9*
X167533333Y-124482380D02*
X167200000Y-124006190D01*
X166961904Y-124482380D02*
X166961904Y-123482380D01*
X167342857Y-123482380D01*
X167438095Y-123530000D01*
X167485714Y-123577619D01*
X167533333Y-123672857D01*
X167533333Y-123815714D01*
X167485714Y-123910952D01*
X167438095Y-123958571D01*
X167342857Y-124006190D01*
X166961904Y-124006190D01*
X168009523Y-124482380D02*
X168200000Y-124482380D01*
X168295238Y-124434761D01*
X168342857Y-124387142D01*
X168438095Y-124244285D01*
X168485714Y-124053809D01*
X168485714Y-123672857D01*
X168438095Y-123577619D01*
X168390476Y-123530000D01*
X168295238Y-123482380D01*
X168104761Y-123482380D01*
X168009523Y-123530000D01*
X167961904Y-123577619D01*
X167914285Y-123672857D01*
X167914285Y-123910952D01*
X167961904Y-124006190D01*
X168009523Y-124053809D01*
X168104761Y-124101428D01*
X168295238Y-124101428D01*
X168390476Y-124053809D01*
X168438095Y-124006190D01*
X168485714Y-123910952D01*
G04 #@! TO.C,R8*
X156252380Y-123076904D02*
X155776190Y-123410238D01*
X156252380Y-123648333D02*
X155252380Y-123648333D01*
X155252380Y-123267380D01*
X155300000Y-123172142D01*
X155347619Y-123124523D01*
X155442857Y-123076904D01*
X155585714Y-123076904D01*
X155680952Y-123124523D01*
X155728571Y-123172142D01*
X155776190Y-123267380D01*
X155776190Y-123648333D01*
X155680952Y-122505476D02*
X155633333Y-122600714D01*
X155585714Y-122648333D01*
X155490476Y-122695952D01*
X155442857Y-122695952D01*
X155347619Y-122648333D01*
X155300000Y-122600714D01*
X155252380Y-122505476D01*
X155252380Y-122314999D01*
X155300000Y-122219761D01*
X155347619Y-122172142D01*
X155442857Y-122124523D01*
X155490476Y-122124523D01*
X155585714Y-122172142D01*
X155633333Y-122219761D01*
X155680952Y-122314999D01*
X155680952Y-122505476D01*
X155728571Y-122600714D01*
X155776190Y-122648333D01*
X155871428Y-122695952D01*
X156061904Y-122695952D01*
X156157142Y-122648333D01*
X156204761Y-122600714D01*
X156252380Y-122505476D01*
X156252380Y-122314999D01*
X156204761Y-122219761D01*
X156157142Y-122172142D01*
X156061904Y-122124523D01*
X155871428Y-122124523D01*
X155776190Y-122172142D01*
X155728571Y-122219761D01*
X155680952Y-122314999D01*
G04 #@! TO.C,R7*
X146122380Y-129666666D02*
X145646190Y-130000000D01*
X146122380Y-130238095D02*
X145122380Y-130238095D01*
X145122380Y-129857142D01*
X145170000Y-129761904D01*
X145217619Y-129714285D01*
X145312857Y-129666666D01*
X145455714Y-129666666D01*
X145550952Y-129714285D01*
X145598571Y-129761904D01*
X145646190Y-129857142D01*
X145646190Y-130238095D01*
X145122380Y-129333333D02*
X145122380Y-128666666D01*
X146122380Y-129095238D01*
G04 #@! TO.C,R6*
X160931062Y-123076904D02*
X160454872Y-123410238D01*
X160931062Y-123648333D02*
X159931062Y-123648333D01*
X159931062Y-123267380D01*
X159978682Y-123172142D01*
X160026301Y-123124523D01*
X160121539Y-123076904D01*
X160264396Y-123076904D01*
X160359634Y-123124523D01*
X160407253Y-123172142D01*
X160454872Y-123267380D01*
X160454872Y-123648333D01*
X159931062Y-122219761D02*
X159931062Y-122410238D01*
X159978682Y-122505476D01*
X160026301Y-122553095D01*
X160169158Y-122648333D01*
X160359634Y-122695952D01*
X160740586Y-122695952D01*
X160835824Y-122648333D01*
X160883443Y-122600714D01*
X160931062Y-122505476D01*
X160931062Y-122314999D01*
X160883443Y-122219761D01*
X160835824Y-122172142D01*
X160740586Y-122124523D01*
X160502491Y-122124523D01*
X160407253Y-122172142D01*
X160359634Y-122219761D01*
X160312015Y-122314999D01*
X160312015Y-122505476D01*
X160359634Y-122600714D01*
X160407253Y-122648333D01*
X160502491Y-122695952D01*
G04 #@! TO.C,R5*
X169995833Y-112682380D02*
X169662500Y-112206190D01*
X169424404Y-112682380D02*
X169424404Y-111682380D01*
X169805357Y-111682380D01*
X169900595Y-111730000D01*
X169948214Y-111777619D01*
X169995833Y-111872857D01*
X169995833Y-112015714D01*
X169948214Y-112110952D01*
X169900595Y-112158571D01*
X169805357Y-112206190D01*
X169424404Y-112206190D01*
X170900595Y-111682380D02*
X170424404Y-111682380D01*
X170376785Y-112158571D01*
X170424404Y-112110952D01*
X170519642Y-112063333D01*
X170757738Y-112063333D01*
X170852976Y-112110952D01*
X170900595Y-112158571D01*
X170948214Y-112253809D01*
X170948214Y-112491904D01*
X170900595Y-112587142D01*
X170852976Y-112634761D01*
X170757738Y-112682380D01*
X170519642Y-112682380D01*
X170424404Y-112634761D01*
X170376785Y-112587142D01*
G04 #@! TO.C,R1*
X147233333Y-120252380D02*
X146900000Y-119776190D01*
X146661904Y-120252380D02*
X146661904Y-119252380D01*
X147042857Y-119252380D01*
X147138095Y-119300000D01*
X147185714Y-119347619D01*
X147233333Y-119442857D01*
X147233333Y-119585714D01*
X147185714Y-119680952D01*
X147138095Y-119728571D01*
X147042857Y-119776190D01*
X146661904Y-119776190D01*
X148185714Y-120252380D02*
X147614285Y-120252380D01*
X147900000Y-120252380D02*
X147900000Y-119252380D01*
X147804761Y-119395238D01*
X147709523Y-119490476D01*
X147614285Y-119538095D01*
G04 #@! TO.C,R23*
X114052380Y-80442857D02*
X113576190Y-80776190D01*
X114052380Y-81014285D02*
X113052380Y-81014285D01*
X113052380Y-80633333D01*
X113100000Y-80538095D01*
X113147619Y-80490476D01*
X113242857Y-80442857D01*
X113385714Y-80442857D01*
X113480952Y-80490476D01*
X113528571Y-80538095D01*
X113576190Y-80633333D01*
X113576190Y-81014285D01*
X113147619Y-80061904D02*
X113100000Y-80014285D01*
X113052380Y-79919047D01*
X113052380Y-79680952D01*
X113100000Y-79585714D01*
X113147619Y-79538095D01*
X113242857Y-79490476D01*
X113338095Y-79490476D01*
X113480952Y-79538095D01*
X114052380Y-80109523D01*
X114052380Y-79490476D01*
X113052380Y-79157142D02*
X113052380Y-78538095D01*
X113433333Y-78871428D01*
X113433333Y-78728571D01*
X113480952Y-78633333D01*
X113528571Y-78585714D01*
X113623809Y-78538095D01*
X113861904Y-78538095D01*
X113957142Y-78585714D01*
X114004761Y-78633333D01*
X114052380Y-78728571D01*
X114052380Y-79014285D01*
X114004761Y-79109523D01*
X113957142Y-79157142D01*
G04 #@! TO.C,R22*
X122852380Y-87442857D02*
X122376190Y-87776190D01*
X122852380Y-88014285D02*
X121852380Y-88014285D01*
X121852380Y-87633333D01*
X121900000Y-87538095D01*
X121947619Y-87490476D01*
X122042857Y-87442857D01*
X122185714Y-87442857D01*
X122280952Y-87490476D01*
X122328571Y-87538095D01*
X122376190Y-87633333D01*
X122376190Y-88014285D01*
X121947619Y-87061904D02*
X121900000Y-87014285D01*
X121852380Y-86919047D01*
X121852380Y-86680952D01*
X121900000Y-86585714D01*
X121947619Y-86538095D01*
X122042857Y-86490476D01*
X122138095Y-86490476D01*
X122280952Y-86538095D01*
X122852380Y-87109523D01*
X122852380Y-86490476D01*
X121947619Y-86109523D02*
X121900000Y-86061904D01*
X121852380Y-85966666D01*
X121852380Y-85728571D01*
X121900000Y-85633333D01*
X121947619Y-85585714D01*
X122042857Y-85538095D01*
X122138095Y-85538095D01*
X122280952Y-85585714D01*
X122852380Y-86157142D01*
X122852380Y-85538095D01*
G04 #@! TO.C,R21*
X123357142Y-83702380D02*
X123023809Y-83226190D01*
X122785714Y-83702380D02*
X122785714Y-82702380D01*
X123166666Y-82702380D01*
X123261904Y-82750000D01*
X123309523Y-82797619D01*
X123357142Y-82892857D01*
X123357142Y-83035714D01*
X123309523Y-83130952D01*
X123261904Y-83178571D01*
X123166666Y-83226190D01*
X122785714Y-83226190D01*
X123738095Y-82797619D02*
X123785714Y-82750000D01*
X123880952Y-82702380D01*
X124119047Y-82702380D01*
X124214285Y-82750000D01*
X124261904Y-82797619D01*
X124309523Y-82892857D01*
X124309523Y-82988095D01*
X124261904Y-83130952D01*
X123690476Y-83702380D01*
X124309523Y-83702380D01*
X125261904Y-83702380D02*
X124690476Y-83702380D01*
X124976190Y-83702380D02*
X124976190Y-82702380D01*
X124880952Y-82845238D01*
X124785714Y-82940476D01*
X124690476Y-82988095D01*
G04 #@! TO.C,R19*
X103952380Y-84892857D02*
X103476190Y-85226190D01*
X103952380Y-85464285D02*
X102952380Y-85464285D01*
X102952380Y-85083333D01*
X103000000Y-84988095D01*
X103047619Y-84940476D01*
X103142857Y-84892857D01*
X103285714Y-84892857D01*
X103380952Y-84940476D01*
X103428571Y-84988095D01*
X103476190Y-85083333D01*
X103476190Y-85464285D01*
X103952380Y-83940476D02*
X103952380Y-84511904D01*
X103952380Y-84226190D02*
X102952380Y-84226190D01*
X103095238Y-84321428D01*
X103190476Y-84416666D01*
X103238095Y-84511904D01*
X103952380Y-83464285D02*
X103952380Y-83273809D01*
X103904761Y-83178571D01*
X103857142Y-83130952D01*
X103714285Y-83035714D01*
X103523809Y-82988095D01*
X103142857Y-82988095D01*
X103047619Y-83035714D01*
X103000000Y-83083333D01*
X102952380Y-83178571D01*
X102952380Y-83369047D01*
X103000000Y-83464285D01*
X103047619Y-83511904D01*
X103142857Y-83559523D01*
X103380952Y-83559523D01*
X103476190Y-83511904D01*
X103523809Y-83464285D01*
X103571428Y-83369047D01*
X103571428Y-83178571D01*
X103523809Y-83083333D01*
X103476190Y-83035714D01*
X103380952Y-82988095D01*
G04 #@! TO.C,R18*
X103952380Y-87892857D02*
X103476190Y-88226190D01*
X103952380Y-88464285D02*
X102952380Y-88464285D01*
X102952380Y-88083333D01*
X103000000Y-87988095D01*
X103047619Y-87940476D01*
X103142857Y-87892857D01*
X103285714Y-87892857D01*
X103380952Y-87940476D01*
X103428571Y-87988095D01*
X103476190Y-88083333D01*
X103476190Y-88464285D01*
X103952380Y-86940476D02*
X103952380Y-87511904D01*
X103952380Y-87226190D02*
X102952380Y-87226190D01*
X103095238Y-87321428D01*
X103190476Y-87416666D01*
X103238095Y-87511904D01*
X103380952Y-86369047D02*
X103333333Y-86464285D01*
X103285714Y-86511904D01*
X103190476Y-86559523D01*
X103142857Y-86559523D01*
X103047619Y-86511904D01*
X103000000Y-86464285D01*
X102952380Y-86369047D01*
X102952380Y-86178571D01*
X103000000Y-86083333D01*
X103047619Y-86035714D01*
X103142857Y-85988095D01*
X103190476Y-85988095D01*
X103285714Y-86035714D01*
X103333333Y-86083333D01*
X103380952Y-86178571D01*
X103380952Y-86369047D01*
X103428571Y-86464285D01*
X103476190Y-86511904D01*
X103571428Y-86559523D01*
X103761904Y-86559523D01*
X103857142Y-86511904D01*
X103904761Y-86464285D01*
X103952380Y-86369047D01*
X103952380Y-86178571D01*
X103904761Y-86083333D01*
X103857142Y-86035714D01*
X103761904Y-85988095D01*
X103571428Y-85988095D01*
X103476190Y-86035714D01*
X103428571Y-86083333D01*
X103380952Y-86178571D01*
G04 #@! TO.C,R16*
X173557142Y-95652380D02*
X173223809Y-95176190D01*
X172985714Y-95652380D02*
X172985714Y-94652380D01*
X173366666Y-94652380D01*
X173461904Y-94700000D01*
X173509523Y-94747619D01*
X173557142Y-94842857D01*
X173557142Y-94985714D01*
X173509523Y-95080952D01*
X173461904Y-95128571D01*
X173366666Y-95176190D01*
X172985714Y-95176190D01*
X174509523Y-95652380D02*
X173938095Y-95652380D01*
X174223809Y-95652380D02*
X174223809Y-94652380D01*
X174128571Y-94795238D01*
X174033333Y-94890476D01*
X173938095Y-94938095D01*
X175366666Y-94652380D02*
X175176190Y-94652380D01*
X175080952Y-94700000D01*
X175033333Y-94747619D01*
X174938095Y-94890476D01*
X174890476Y-95080952D01*
X174890476Y-95461904D01*
X174938095Y-95557142D01*
X174985714Y-95604761D01*
X175080952Y-95652380D01*
X175271428Y-95652380D01*
X175366666Y-95604761D01*
X175414285Y-95557142D01*
X175461904Y-95461904D01*
X175461904Y-95223809D01*
X175414285Y-95128571D01*
X175366666Y-95080952D01*
X175271428Y-95033333D01*
X175080952Y-95033333D01*
X174985714Y-95080952D01*
X174938095Y-95128571D01*
X174890476Y-95223809D01*
G04 #@! TO.C,R15*
X138703525Y-66356132D02*
X138370192Y-65879942D01*
X138132097Y-66356132D02*
X138132097Y-65356132D01*
X138513049Y-65356132D01*
X138608287Y-65403752D01*
X138655906Y-65451371D01*
X138703525Y-65546609D01*
X138703525Y-65689466D01*
X138655906Y-65784704D01*
X138608287Y-65832323D01*
X138513049Y-65879942D01*
X138132097Y-65879942D01*
X139655906Y-66356132D02*
X139084478Y-66356132D01*
X139370192Y-66356132D02*
X139370192Y-65356132D01*
X139274954Y-65498990D01*
X139179716Y-65594228D01*
X139084478Y-65641847D01*
X140560668Y-65356132D02*
X140084478Y-65356132D01*
X140036859Y-65832323D01*
X140084478Y-65784704D01*
X140179716Y-65737085D01*
X140417811Y-65737085D01*
X140513049Y-65784704D01*
X140560668Y-65832323D01*
X140608287Y-65927561D01*
X140608287Y-66165656D01*
X140560668Y-66260894D01*
X140513049Y-66308513D01*
X140417811Y-66356132D01*
X140179716Y-66356132D01*
X140084478Y-66308513D01*
X140036859Y-66260894D01*
G04 #@! TO.C,R2*
X146452380Y-115166666D02*
X145976190Y-115500000D01*
X146452380Y-115738095D02*
X145452380Y-115738095D01*
X145452380Y-115357142D01*
X145500000Y-115261904D01*
X145547619Y-115214285D01*
X145642857Y-115166666D01*
X145785714Y-115166666D01*
X145880952Y-115214285D01*
X145928571Y-115261904D01*
X145976190Y-115357142D01*
X145976190Y-115738095D01*
X145547619Y-114785714D02*
X145500000Y-114738095D01*
X145452380Y-114642857D01*
X145452380Y-114404761D01*
X145500000Y-114309523D01*
X145547619Y-114261904D01*
X145642857Y-114214285D01*
X145738095Y-114214285D01*
X145880952Y-114261904D01*
X146452380Y-114833333D01*
X146452380Y-114214285D01*
G04 #@! TO.C,R17*
X145757142Y-69252380D02*
X145423809Y-68776190D01*
X145185714Y-69252380D02*
X145185714Y-68252380D01*
X145566666Y-68252380D01*
X145661904Y-68300000D01*
X145709523Y-68347619D01*
X145757142Y-68442857D01*
X145757142Y-68585714D01*
X145709523Y-68680952D01*
X145661904Y-68728571D01*
X145566666Y-68776190D01*
X145185714Y-68776190D01*
X146709523Y-69252380D02*
X146138095Y-69252380D01*
X146423809Y-69252380D02*
X146423809Y-68252380D01*
X146328571Y-68395238D01*
X146233333Y-68490476D01*
X146138095Y-68538095D01*
X147042857Y-68252380D02*
X147709523Y-68252380D01*
X147280952Y-69252380D01*
G04 #@! TO.C,R3*
X148233333Y-133452380D02*
X147900000Y-132976190D01*
X147661904Y-133452380D02*
X147661904Y-132452380D01*
X148042857Y-132452380D01*
X148138095Y-132500000D01*
X148185714Y-132547619D01*
X148233333Y-132642857D01*
X148233333Y-132785714D01*
X148185714Y-132880952D01*
X148138095Y-132928571D01*
X148042857Y-132976190D01*
X147661904Y-132976190D01*
X148566666Y-132452380D02*
X149185714Y-132452380D01*
X148852380Y-132833333D01*
X148995238Y-132833333D01*
X149090476Y-132880952D01*
X149138095Y-132928571D01*
X149185714Y-133023809D01*
X149185714Y-133261904D01*
X149138095Y-133357142D01*
X149090476Y-133404761D01*
X148995238Y-133452380D01*
X148709523Y-133452380D01*
X148614285Y-133404761D01*
X148566666Y-133357142D01*
G04 #@! TO.C,R24*
X136357142Y-113522380D02*
X136023809Y-113046190D01*
X135785714Y-113522380D02*
X135785714Y-112522380D01*
X136166666Y-112522380D01*
X136261904Y-112570000D01*
X136309523Y-112617619D01*
X136357142Y-112712857D01*
X136357142Y-112855714D01*
X136309523Y-112950952D01*
X136261904Y-112998571D01*
X136166666Y-113046190D01*
X135785714Y-113046190D01*
X136738095Y-112617619D02*
X136785714Y-112570000D01*
X136880952Y-112522380D01*
X137119047Y-112522380D01*
X137214285Y-112570000D01*
X137261904Y-112617619D01*
X137309523Y-112712857D01*
X137309523Y-112808095D01*
X137261904Y-112950952D01*
X136690476Y-113522380D01*
X137309523Y-113522380D01*
X138166666Y-112855714D02*
X138166666Y-113522380D01*
X137928571Y-112474761D02*
X137690476Y-113189047D01*
X138309523Y-113189047D01*
G04 #@! TO.C,R25*
X137457142Y-122322380D02*
X137123809Y-121846190D01*
X136885714Y-122322380D02*
X136885714Y-121322380D01*
X137266666Y-121322380D01*
X137361904Y-121370000D01*
X137409523Y-121417619D01*
X137457142Y-121512857D01*
X137457142Y-121655714D01*
X137409523Y-121750952D01*
X137361904Y-121798571D01*
X137266666Y-121846190D01*
X136885714Y-121846190D01*
X137838095Y-121417619D02*
X137885714Y-121370000D01*
X137980952Y-121322380D01*
X138219047Y-121322380D01*
X138314285Y-121370000D01*
X138361904Y-121417619D01*
X138409523Y-121512857D01*
X138409523Y-121608095D01*
X138361904Y-121750952D01*
X137790476Y-122322380D01*
X138409523Y-122322380D01*
X139314285Y-121322380D02*
X138838095Y-121322380D01*
X138790476Y-121798571D01*
X138838095Y-121750952D01*
X138933333Y-121703333D01*
X139171428Y-121703333D01*
X139266666Y-121750952D01*
X139314285Y-121798571D01*
X139361904Y-121893809D01*
X139361904Y-122131904D01*
X139314285Y-122227142D01*
X139266666Y-122274761D01*
X139171428Y-122322380D01*
X138933333Y-122322380D01*
X138838095Y-122274761D01*
X138790476Y-122227142D01*
G04 #@! TO.C,R26*
X160682380Y-117642857D02*
X160206190Y-117976190D01*
X160682380Y-118214285D02*
X159682380Y-118214285D01*
X159682380Y-117833333D01*
X159730000Y-117738095D01*
X159777619Y-117690476D01*
X159872857Y-117642857D01*
X160015714Y-117642857D01*
X160110952Y-117690476D01*
X160158571Y-117738095D01*
X160206190Y-117833333D01*
X160206190Y-118214285D01*
X159777619Y-117261904D02*
X159730000Y-117214285D01*
X159682380Y-117119047D01*
X159682380Y-116880952D01*
X159730000Y-116785714D01*
X159777619Y-116738095D01*
X159872857Y-116690476D01*
X159968095Y-116690476D01*
X160110952Y-116738095D01*
X160682380Y-117309523D01*
X160682380Y-116690476D01*
X159682380Y-115833333D02*
X159682380Y-116023809D01*
X159730000Y-116119047D01*
X159777619Y-116166666D01*
X159920476Y-116261904D01*
X160110952Y-116309523D01*
X160491904Y-116309523D01*
X160587142Y-116261904D01*
X160634761Y-116214285D01*
X160682380Y-116119047D01*
X160682380Y-115928571D01*
X160634761Y-115833333D01*
X160587142Y-115785714D01*
X160491904Y-115738095D01*
X160253809Y-115738095D01*
X160158571Y-115785714D01*
X160110952Y-115833333D01*
X160063333Y-115928571D01*
X160063333Y-116119047D01*
X160110952Y-116214285D01*
X160158571Y-116261904D01*
X160253809Y-116309523D01*
G04 #@! TO.C,R27*
X163252380Y-128642857D02*
X162776190Y-128976190D01*
X163252380Y-129214285D02*
X162252380Y-129214285D01*
X162252380Y-128833333D01*
X162300000Y-128738095D01*
X162347619Y-128690476D01*
X162442857Y-128642857D01*
X162585714Y-128642857D01*
X162680952Y-128690476D01*
X162728571Y-128738095D01*
X162776190Y-128833333D01*
X162776190Y-129214285D01*
X162347619Y-128261904D02*
X162300000Y-128214285D01*
X162252380Y-128119047D01*
X162252380Y-127880952D01*
X162300000Y-127785714D01*
X162347619Y-127738095D01*
X162442857Y-127690476D01*
X162538095Y-127690476D01*
X162680952Y-127738095D01*
X163252380Y-128309523D01*
X163252380Y-127690476D01*
X162252380Y-127357142D02*
X162252380Y-126690476D01*
X163252380Y-127119047D01*
G04 #@! TO.C,TP2*
X135338095Y-124452380D02*
X135909523Y-124452380D01*
X135623809Y-125452380D02*
X135623809Y-124452380D01*
X136242857Y-125452380D02*
X136242857Y-124452380D01*
X136623809Y-124452380D01*
X136719047Y-124500000D01*
X136766666Y-124547619D01*
X136814285Y-124642857D01*
X136814285Y-124785714D01*
X136766666Y-124880952D01*
X136719047Y-124928571D01*
X136623809Y-124976190D01*
X136242857Y-124976190D01*
X137195238Y-124547619D02*
X137242857Y-124500000D01*
X137338095Y-124452380D01*
X137576190Y-124452380D01*
X137671428Y-124500000D01*
X137719047Y-124547619D01*
X137766666Y-124642857D01*
X137766666Y-124738095D01*
X137719047Y-124880952D01*
X137147619Y-125452380D01*
X137766666Y-125452380D01*
G04 #@! TO.C,TP3*
X163138095Y-131652380D02*
X163709523Y-131652380D01*
X163423809Y-132652380D02*
X163423809Y-131652380D01*
X164042857Y-132652380D02*
X164042857Y-131652380D01*
X164423809Y-131652380D01*
X164519047Y-131700000D01*
X164566666Y-131747619D01*
X164614285Y-131842857D01*
X164614285Y-131985714D01*
X164566666Y-132080952D01*
X164519047Y-132128571D01*
X164423809Y-132176190D01*
X164042857Y-132176190D01*
X164947619Y-131652380D02*
X165566666Y-131652380D01*
X165233333Y-132033333D01*
X165376190Y-132033333D01*
X165471428Y-132080952D01*
X165519047Y-132128571D01*
X165566666Y-132223809D01*
X165566666Y-132461904D01*
X165519047Y-132557142D01*
X165471428Y-132604761D01*
X165376190Y-132652380D01*
X165090476Y-132652380D01*
X164995238Y-132604761D01*
X164947619Y-132557142D01*
G04 #@! TO.C,TP1*
X136338095Y-118052380D02*
X136909523Y-118052380D01*
X136623809Y-119052380D02*
X136623809Y-118052380D01*
X137242857Y-119052380D02*
X137242857Y-118052380D01*
X137623809Y-118052380D01*
X137719047Y-118100000D01*
X137766666Y-118147619D01*
X137814285Y-118242857D01*
X137814285Y-118385714D01*
X137766666Y-118480952D01*
X137719047Y-118528571D01*
X137623809Y-118576190D01*
X137242857Y-118576190D01*
X138766666Y-119052380D02*
X138195238Y-119052380D01*
X138480952Y-119052380D02*
X138480952Y-118052380D01*
X138385714Y-118195238D01*
X138290476Y-118290476D01*
X138195238Y-118338095D01*
G04 #@! TO.C,TP5*
X162138095Y-80804380D02*
X162709523Y-80804380D01*
X162423809Y-81804380D02*
X162423809Y-80804380D01*
X163042857Y-81804380D02*
X163042857Y-80804380D01*
X163423809Y-80804380D01*
X163519047Y-80852000D01*
X163566666Y-80899619D01*
X163614285Y-80994857D01*
X163614285Y-81137714D01*
X163566666Y-81232952D01*
X163519047Y-81280571D01*
X163423809Y-81328190D01*
X163042857Y-81328190D01*
X164519047Y-80804380D02*
X164042857Y-80804380D01*
X163995238Y-81280571D01*
X164042857Y-81232952D01*
X164138095Y-81185333D01*
X164376190Y-81185333D01*
X164471428Y-81232952D01*
X164519047Y-81280571D01*
X164566666Y-81375809D01*
X164566666Y-81613904D01*
X164519047Y-81709142D01*
X164471428Y-81756761D01*
X164376190Y-81804380D01*
X164138095Y-81804380D01*
X164042857Y-81756761D01*
X163995238Y-81709142D01*
G04 #@! TO.C,TP4*
X159438095Y-80754380D02*
X160009523Y-80754380D01*
X159723809Y-81754380D02*
X159723809Y-80754380D01*
X160342857Y-81754380D02*
X160342857Y-80754380D01*
X160723809Y-80754380D01*
X160819047Y-80802000D01*
X160866666Y-80849619D01*
X160914285Y-80944857D01*
X160914285Y-81087714D01*
X160866666Y-81182952D01*
X160819047Y-81230571D01*
X160723809Y-81278190D01*
X160342857Y-81278190D01*
X161771428Y-81087714D02*
X161771428Y-81754380D01*
X161533333Y-80706761D02*
X161295238Y-81421047D01*
X161914285Y-81421047D01*
G04 #@! TO.C,C27*
X109957142Y-80757142D02*
X109909523Y-80804761D01*
X109766666Y-80852380D01*
X109671428Y-80852380D01*
X109528571Y-80804761D01*
X109433333Y-80709523D01*
X109385714Y-80614285D01*
X109338095Y-80423809D01*
X109338095Y-80280952D01*
X109385714Y-80090476D01*
X109433333Y-79995238D01*
X109528571Y-79900000D01*
X109671428Y-79852380D01*
X109766666Y-79852380D01*
X109909523Y-79900000D01*
X109957142Y-79947619D01*
X110338095Y-79947619D02*
X110385714Y-79900000D01*
X110480952Y-79852380D01*
X110719047Y-79852380D01*
X110814285Y-79900000D01*
X110861904Y-79947619D01*
X110909523Y-80042857D01*
X110909523Y-80138095D01*
X110861904Y-80280952D01*
X110290476Y-80852380D01*
X110909523Y-80852380D01*
X111242857Y-79852380D02*
X111909523Y-79852380D01*
X111480952Y-80852380D01*
G04 #@! TO.C,C28*
X123957142Y-87442857D02*
X124004761Y-87490476D01*
X124052380Y-87633333D01*
X124052380Y-87728571D01*
X124004761Y-87871428D01*
X123909523Y-87966666D01*
X123814285Y-88014285D01*
X123623809Y-88061904D01*
X123480952Y-88061904D01*
X123290476Y-88014285D01*
X123195238Y-87966666D01*
X123100000Y-87871428D01*
X123052380Y-87728571D01*
X123052380Y-87633333D01*
X123100000Y-87490476D01*
X123147619Y-87442857D01*
X123147619Y-87061904D02*
X123100000Y-87014285D01*
X123052380Y-86919047D01*
X123052380Y-86680952D01*
X123100000Y-86585714D01*
X123147619Y-86538095D01*
X123242857Y-86490476D01*
X123338095Y-86490476D01*
X123480952Y-86538095D01*
X124052380Y-87109523D01*
X124052380Y-86490476D01*
X123480952Y-85919047D02*
X123433333Y-86014285D01*
X123385714Y-86061904D01*
X123290476Y-86109523D01*
X123242857Y-86109523D01*
X123147619Y-86061904D01*
X123100000Y-86014285D01*
X123052380Y-85919047D01*
X123052380Y-85728571D01*
X123100000Y-85633333D01*
X123147619Y-85585714D01*
X123242857Y-85538095D01*
X123290476Y-85538095D01*
X123385714Y-85585714D01*
X123433333Y-85633333D01*
X123480952Y-85728571D01*
X123480952Y-85919047D01*
X123528571Y-86014285D01*
X123576190Y-86061904D01*
X123671428Y-86109523D01*
X123861904Y-86109523D01*
X123957142Y-86061904D01*
X124004761Y-86014285D01*
X124052380Y-85919047D01*
X124052380Y-85728571D01*
X124004761Y-85633333D01*
X123957142Y-85585714D01*
X123861904Y-85538095D01*
X123671428Y-85538095D01*
X123576190Y-85585714D01*
X123528571Y-85633333D01*
X123480952Y-85728571D01*
G04 #@! TD*
M02*
